<?xml version="1.0" encoding="utf-8"?>
<!-- Generator: Adobe Illustrator 26.0.1, SVG Export Plug-In . SVG Version: 6.00 Build 0)  -->
<svg version="1.1" id="Illustration" xmlns="http://www.w3.org/2000/svg" xmlns:xlink="http://www.w3.org/1999/xlink" x="0px"
	 y="0px" viewBox="0 0 3710 3710" style="enable-background:new 0 0 3710 3710;" xml:space="preserve">
<style type="text/css">
	.st0{fill:url(#SVGID_1_);}
	.st1{opacity:0.3;}
	.st2{fill:#91B3FA;}
	.st3{fill:#BDD0FB;}
	.st4{opacity:0.43;}
	.st5{fill:#FFFFFF;}
	.st6{opacity:0.52;fill:#FFFFFF;}
	.st7{opacity:0.68;}
	.st8{opacity:0.7;fill:#BDD0FB;}
	.st9{opacity:0.5;}
	.st10{fill:url(#SVGID_00000177477184422454646090000004206382440732405145_);}
	.st11{fill:url(#SVGID_00000085228928638520080470000006781293298018222216_);}
	.st12{fill:url(#SVGID_00000034057132573641699380000006400399734356053664_);}
	.st13{fill:url(#SVGID_00000140733646903728547410000015415101298163495343_);}
	.st14{fill:url(#SVGID_00000013167150732228115360000005175533092081938579_);}
	.st15{fill:url(#SVGID_00000179632979792191890480000011218967031648377495_);}
	.st16{fill:url(#SVGID_00000018218832004896071380000001953199094019856797_);}
	.st17{fill:url(#SVGID_00000046335001539598058300000004325745472387390354_);}
	.st18{fill:url(#SVGID_00000033336592799410333880000004430747204919338382_);}
	.st19{fill:url(#SVGID_00000127043254004370053530000010401815127343038095_);}
	.st20{fill:url(#SVGID_00000049181180685056219270000014824291251624828554_);}
	.st21{fill:url(#SVGID_00000084521268828887842240000012853733491363466165_);}
	.st22{fill:url(#SVGID_00000025412444728806738340000015397037483915582383_);}
	.st23{fill:url(#SVGID_00000010992789589759780290000001164069906515879864_);}
	.st24{fill:url(#SVGID_00000046306228204733523010000013263138726794367156_);}
	.st25{fill:url(#SVGID_00000161590180981829437970000003832350875426484374_);}
	.st26{fill:url(#SVGID_00000129914367668636076400000010748536371948219299_);}
	.st27{fill:url(#SVGID_00000091704294705742674800000005539995335784034696_);}
	.st28{fill:url(#SVGID_00000077286376482246551100000017252093066066110592_);}
	.st29{fill:url(#SVGID_00000056405047258841538700000013420308824825686959_);}
	.st30{fill:url(#SVGID_00000119832181396293692270000005085265648965655696_);}
	.st31{fill:url(#SVGID_00000034808182778991681030000014519284253196828602_);}
	.st32{fill:url(#SVGID_00000037667993795708977010000017360530513903867812_);}
	.st33{fill:url(#SVGID_00000029044063612837140280000012750732013885758108_);}
	.st34{fill:url(#SVGID_00000164514681784307939780000004076869897479595149_);}
	.st35{fill:url(#SVGID_00000091727763764663017030000000581287759695561615_);}
	.st36{fill:url(#SVGID_00000139275969076313315610000009518505210289561752_);}
	.st37{fill:url(#SVGID_00000114752259750710368490000014901069523120350357_);}
	.st38{fill:#7D97F4;}
</style>
<g>
	<linearGradient id="SVGID_1_" gradientUnits="userSpaceOnUse" x1="3466.9028" y1="3281.1643" x2="1400.3563" y2="1472.9375">
		<stop  offset="0" style="stop-color:#DAE3FE"/>
		<stop  offset="1" style="stop-color:#E9EFFD"/>
	</linearGradient>
	<path class="st0" d="M3115.7,2342.1c-267.1,628.9-978.5,981.2-1595.5,886.1c-100.4-15.5-375.6-61.5-619.3-278.8
		c-469.1-418.3-569.4-1246.7-191-1830.5C985.3,694,1479,453.2,1948.1,465.2c101,2.6,488.3,18.6,828.6,299.2
		c50,41.2,160.2,139.2,259.6,294.6C3269.7,1423.9,3289.8,1932.2,3115.7,2342.1z"/>
	<g>
		<g>
			<g class="st1">
				<path class="st2" d="M2177.6,875.6c-5.5-0.2-9.7-4.8-9.5-10.3c0.4-10.6,0.4-21.4-0.1-32c-0.2-5.4,3.9-10,9.2-10.3
					c0.1,0,0.1,0,0.2,0c5.4-0.2,10.1,4,10.3,9.4c0.5,11.2,0.5,22.5,0.1,33.7c-0.2,5.1-4.2,9.1-9.2,9.5
					C2178.3,875.6,2178,875.6,2177.6,875.6z M2162.3,781.7c-1.9-10.5-4.3-21-7.1-31.2c-1.4-5.3,1.7-10.7,6.9-12.1
					c5.3-1.4,10.7,1.7,12.1,6.9c2.9,10.8,5.4,21.8,7.5,32.8c1,5.4-2.6,10.5-7.9,11.5c-0.4,0.1-0.8,0.1-1.2,0.1
					C2167.7,790.1,2163.2,786.7,2162.3,781.7z M2138.1,701.5c-4.2-9.8-8.9-19.5-13.9-28.8c-2.6-4.8-0.8-10.8,4-13.4
					c4.8-2.6,10.8-0.8,13.4,4c5.3,9.9,10.2,20.1,14.6,30.3c2.2,5-0.2,10.8-5.2,13c-1.1,0.5-2.2,0.7-3.3,0.8
					C2143.7,707.7,2139.8,705.4,2138.1,701.5z M2096.5,628.7c-6.3-8.6-13-17-20-25c-3.6-4.1-3.2-10.4,1-13.9
					c4.1-3.6,10.4-3.1,13.9,1c7.3,8.4,14.4,17.3,21,26.3c3.2,4.4,2.3,10.6-2.1,13.8c-1.6,1.2-3.4,1.8-5.2,1.9
					C2101.9,632.9,2098.6,631.5,2096.5,628.7z M2039.8,566.9c-8-7-16.4-13.7-25-20c-4.4-3.2-5.4-9.4-2.1-13.8
					c3.2-4.4,9.4-5.4,13.8-2.1c9,6.6,17.9,13.7,26.3,21c4.1,3.6,4.6,9.8,1,13.9c-1.8,2.1-4.3,3.2-6.8,3.4
					C2044.4,569.5,2041.8,568.7,2039.8,566.9z M1970.8,519.3c-9.4-5-19-9.7-28.8-13.9c-5-2.2-7.3-8-5.1-13c2.2-5,8-7.3,13-5.2
					c10.3,4.4,20.5,9.4,30.3,14.7c4.8,2.6,6.6,8.6,4,13.4c-1.7,3.1-4.8,5-8.1,5.2C1974.3,520.5,1972.5,520.2,1970.8,519.3z
					 M1604.1,514.7c-2.6-4.8-0.7-10.8,4.1-13.4c9.9-5.3,20.1-10.2,30.4-14.6c5-2.1,10.8,0.2,13,5.2c2.1,5-0.2,10.8-5.2,13
					c-9.8,4.2-19.5,8.8-28.9,13.8c-1.3,0.7-2.7,1.1-4,1.1C1609.7,520.1,1605.9,518.2,1604.1,514.7z M1893,488.1
					c-10.2-2.8-20.7-5.2-31.2-7.2c-5.4-1-8.9-6.1-7.9-11.5c1-5.4,6.1-8.9,11.5-7.9c11,2,22,4.6,32.8,7.5c5.3,1.4,8.3,6.9,6.9,12.1
					c-1.1,4.2-4.8,7-8.9,7.2C1895.2,488.5,1894.1,488.4,1893,488.1z M1683.3,480.9c-1.4-5.3,1.7-10.7,7-12.1
					c10.8-2.9,21.8-5.4,32.9-7.4c5.4-1,10.5,2.6,11.5,8c1,5.4-2.6,10.5-8,11.5c-10.5,1.9-21,4.3-31.2,7c-0.7,0.2-1.3,0.3-2,0.3
					C1688.8,488.5,1684.5,485.5,1683.3,480.9z M1810.3,475.1c-10.6-0.5-21.4-0.5-32,0c-5.5,0.2-10.1-4-10.3-9.4
					c-0.2-5.4,3.9-9.9,9.2-10.3c0.1,0,0.1,0,0.2,0c11.2-0.5,22.5-0.5,33.7,0c5.5,0.2,9.7,4.8,9.4,10.3c-0.2,5.1-4.3,9.1-9.2,9.4
					C1811,475.1,1810.6,475.1,1810.3,475.1z"/>
				<path class="st2" d="M1555.4,557.9c1.9-0.1,3.9-0.8,5.5-2.1c4-3.2,8.1-6.3,12.2-9.3c4.4-3.2,5.4-9.4,2.2-13.8
					c-3.2-4.4-9.4-5.4-13.8-2.2c-4.4,3.2-8.7,6.5-12.9,9.8c-4.3,3.4-5,9.6-1.6,13.9C1549.1,556.8,1552.3,558.1,1555.4,557.9z"/>
			</g>
			<g class="st1">
				<path class="st2" d="M1411.4,822.4c4.8-0.3,8.7-4,9.2-8.9c0.5-5.1,1.1-10.2,1.8-15.3c0.7-5.4-3-10.4-8.4-11.1
					c-5.4-0.7-10.4,3-11.1,8.4c-0.7,5.3-1.4,10.8-1.9,16.1c-0.5,5.4,3.5,10.3,8.9,10.8C1410.4,822.4,1410.9,822.4,1411.4,822.4z"/>
				<path class="st2" d="M1798.9,1244c-5.5,0.1-9.9-4.3-10-9.7c-0.1-5.5,4.3-9.9,9.7-10c10.4-0.1,20.9-0.7,31.4-1.8
					c5.4-0.5,10.3,3.4,10.8,8.9c0.5,5.4-3.4,10.3-8.9,10.8c-4.6,0.4-9.1,0.8-13.6,1.1C1811.8,1243.7,1805.3,1243.9,1798.9,1244z
					 M1873.2,1226c-1.3-5.3,2-10.6,7.3-11.9c10.2-2.4,20.4-5.3,30.3-8.5c5.2-1.7,10.8,1.1,12.5,6.3c1.7,5.2-1.1,10.8-6.3,12.5
					c-10.4,3.4-21.2,6.4-31.9,9c-0.6,0.1-1.1,0.2-1.7,0.2C1878.7,1233.9,1874.3,1230.8,1873.2,1226z M1745.1,1241.1
					c-10.9-1.3-21.9-3.2-32.7-5.4c-5.3-1.1-8.8-6.4-7.6-11.7c1.1-5.3,6.4-8.7,11.7-7.6c10.2,2.2,20.7,3.9,31,5.2
					c5.4,0.7,9.3,5.6,8.6,11c-0.6,4.8-4.5,8.4-9.2,8.6C1746.4,1241.2,1745.8,1241.2,1745.1,1241.1z M1953.6,1199.6
					c-2.4-4.9-0.4-10.8,4.5-13.2c9.4-4.6,18.7-9.6,27.7-15c4.7-2.8,10.7-1.3,13.5,3.4c2.8,4.7,1.3,10.7-3.4,13.5
					c-9.4,5.6-19.3,11-29.1,15.8c-1.2,0.6-2.5,0.9-3.7,1C1959.3,1205.3,1955.5,1203.3,1953.6,1199.6z M1660.7,1221
					c-10.3-3.7-20.7-7.9-30.7-12.5c-5-2.3-7.1-8.1-4.9-13.1c2.3-5,8.1-7.1,13.1-4.9c9.5,4.4,19.3,8.3,29.1,11.9
					c5.1,1.8,7.8,7.5,6,12.6c-1.4,3.8-4.9,6.3-8.7,6.5C1663.4,1221.7,1662,1221.5,1660.7,1221z M1582.7,1182.9
					c-9.3-5.9-18.5-12.2-27.2-18.9c-4.3-3.3-5.2-9.5-1.9-13.8c3.3-4.4,9.5-5.2,13.8-1.9c8.3,6.3,17,12.3,25.9,17.9
					c4.6,2.9,6,9,3.1,13.6c-1.8,2.8-4.7,4.4-7.7,4.6C1586.6,1184.5,1584.5,1184,1582.7,1182.9z M1514.9,1128.7
					c-7.8-7.8-15.4-16-22.5-24.4c-3.5-4.2-3-10.4,1.2-13.9c4.2-3.5,10.4-3,13.9,1.2c6.7,8,13.9,15.8,21.3,23.2
					c3.9,3.9,3.9,10.1,0,14c-1.8,1.8-4,2.7-6.4,2.9C1519.8,1131.7,1517,1130.7,1514.9,1128.7z M1460.5,1060.9
					c-5.9-9.3-11.5-19-16.6-28.7c-2.5-4.8-0.7-10.8,4.2-13.3c4.8-2.5,10.8-0.7,13.3,4.2c4.8,9.3,10.1,18.4,15.7,27.3
					c2.9,4.6,1.6,10.7-3,13.6c-1.5,0.9-3.1,1.4-4.7,1.5C1466,1065.7,1462.5,1064.1,1460.5,1060.9z M1422.3,982.9
					c-3.7-10.3-7-21-9.8-31.6c-1.4-5.3,1.7-10.7,7-12.1c5.3-1.4,10.7,1.7,12.1,7c2.7,10.1,5.8,20.2,9.3,30c1.8,5.1-0.8,10.8-6,12.6
					c-0.9,0.3-1.8,0.5-2.7,0.6C1428,989.7,1423.9,987.1,1422.3,982.9z M1402.3,898.4c-1-8-1.8-16.2-2.3-24.3
					c-0.2-2.9-0.3-5.8-0.5-8.7c-0.2-5.4,3.9-10.2,9.5-10.3c5.4-0.2,10.1,4,10.3,9.5c0.1,2.8,0.3,5.5,0.4,8.3
					c0.5,7.7,1.2,15.4,2.2,23.1c0.7,5.4-3.2,10.3-8.6,11c-0.2,0-0.4,0-0.6,0.1C1407.5,907.4,1402.9,903.6,1402.3,898.4z"/>
				<path class="st2" d="M2034.9,1159.6c2-0.1,3.9-0.8,5.5-2.1c4.2-3.3,8.4-6.8,12.4-10.4c4.1-3.6,4.5-9.8,1-13.9
					c-3.6-4.1-9.8-4.5-13.9-1c-3.9,3.4-7.8,6.7-11.8,9.9c-4.3,3.4-4.9,9.6-1.5,13.9C2028.6,1158.5,2031.8,1159.8,2034.9,1159.6z"/>
			</g>
			<g>
				<path class="st2" d="M2053.5,991.3c1.1-1.6,1.1-3.8,0-5.4l-32.5-45.8c10-24.3,16.2-50.3,18-77.2l49.4-26.7
					c1.7-0.9,2.7-2.9,2.4-4.8l-11-66.5c-0.3-1.9-1.8-3.5-3.8-3.8l-55.4-9.4c-10.4-24.9-24.6-47.6-41.9-67.3l16-53.9
					c0.6-1.9-0.1-3.9-1.7-5.1l-54.8-39.2c-1.6-1.1-3.8-1.2-5.4,0l-45.8,32.5c-24.3-10-50.3-16.2-77.2-18l-26.7-49.4
					c-0.9-1.7-2.9-2.7-4.8-2.4l-66.5,11c-1.9,0.3-3.5,1.8-3.8,3.8l-9.4,55.4c-24.9,10.4-47.6,24.6-67.3,41.9l-53.9-16
					c-1.9-0.6-3.9,0.1-5.1,1.7l-39.2,54.8c-1.1,1.6-1.1,3.8,0,5.4l32.5,45.8c-10,24.3-16.2,50.3-18,77.2l-49.4,26.7
					c-1.7,0.9-2.7,2.9-2.4,4.8l11,66.5c0.3,1.9,1.8,3.5,3.8,3.8l55.4,9.4c10.4,24.9,24.6,47.6,41.9,67.3l-16,53.9
					c-0.6,1.9,0.1,3.9,1.7,5.1l54.8,39.2c1.6,1.1,3.8,1.1,5.4,0l45.8-32.5c24.3,10,50.3,16.2,77.2,18l26.7,49.4
					c0.9,1.7,2.9,2.7,4.8,2.4l66.5-11c1.9-0.3,3.5-1.8,3.8-3.8l9.4-55.4c24.9-10.4,47.6-24.6,67.3-41.9l53.9,16
					c1.9,0.6,3.9-0.1,5.1-1.7L2053.5,991.3z"/>
				<g>
					<path class="st3" d="M1787.6,914c-37.2-3.1-65-35.9-61.9-73.1c1.5-18,9.9-34.4,23.7-46.1c13.8-11.7,31.3-17.3,49.4-15.8
						c37.2,3.1,65,35.9,61.9,73.1c-2.8,33.9-30.2,59.9-63.2,62C1794.3,914.3,1791,914.3,1787.6,914z M1759.7,806.9
						c-10.6,9-17.1,21.5-18.2,35.3c-2.4,28.5,18.9,53.7,47.5,56.1c28.5,2.4,53.7-18.9,56.1-47.5c2.4-28.5-18.9-53.7-47.5-56.1
						c-2.6-0.2-5.2-0.2-7.7-0.1C1778.8,795.4,1768.3,799.6,1759.7,806.9z"/>
				</g>
				<path class="st3" d="M1802.4,1011.9c5.7-0.4,11.3-1,17-1.9l0,0c1.8-0.3,3.6-0.6,5.3-1c8.8-1.7,17.4-4.2,25.7-7.3
					c0.1,0,0.2-0.1,0.3-0.1c0.3-0.1,0.6-0.2,1-0.4c0.6-0.2,1.2-0.5,1.9-0.7c1.6-0.6,2.6-2.3,2.5-3.9c0-0.4-0.1-0.8-0.3-1.2
					c-0.8-2-3.1-3-5.1-2.2c-10.4,4.1-21.4,7.2-32.6,9c-55.5,9.2-109.1-11.7-144.1-50.7c-19.5-21.7-33.2-49-38.4-79.9
					c-0.9-5.4-1.5-10.8-1.9-16.2c-2.3-36.3,7.9-72.1,29.3-102.1c24.7-34.5,61.3-57.3,103.1-64.2c86.3-14.3,168.2,44.3,182.5,130.6
					c0.9,5.3,1.5,10.7,1.8,16c1.5,23.2-2.2,46.4-10.7,68c-0.2,0.6-0.3,1.1-0.3,1.7c0.1,1.5,1,2.8,2.5,3.4c2,0.8,4.3-0.2,5.1-2.2
					c9-22.7,12.8-47.1,11.2-71.4c-0.4-5.6-1-11.2-1.9-16.8c-15-90.6-101-152.1-191.6-137.1c-43.9,7.3-82.3,31.2-108.2,67.4
					c-22.5,31.5-33.2,69-30.8,107.1c0.4,5.7,1,11.4,1.9,17c7.3,43.9,31.2,82.3,67.4,108.2
					C1726.7,1003.6,1764.3,1014.3,1802.4,1011.9z"/>
			</g>
		</g>
		<g>
			<g class="st1">
				<path class="st2" d="M2531.6,1114c2.6-0.2,5-2,5.6-4.7c1.1-5.1,2.1-10.2,3-15.3c0.5-3.3-1.7-6.5-5-7c-3.3-0.6-6.5,1.7-7,5
					c-0.8,4.9-1.8,9.8-2.8,14.6c-0.7,3.3,1.3,6.5,4.6,7.3C2530.4,1114,2531,1114.1,2531.6,1114z"/>
				<path class="st2" d="M2537,1067.5c-3.4-0.1-6-3-5.9-6.3c0.3-8.5,0.2-17.1-0.3-25.6c-0.1-1.8-0.2-3.6-0.4-5.4
					c-0.3-3.4,2.2-6.3,5.6-6.6c3.2-0.1,6.3,2.2,6.6,5.6c0.2,1.9,0.3,3.8,0.4,5.6c0.6,8.9,0.7,17.9,0.3,26.8
					c-0.1,3.2-2.6,5.7-5.7,5.9C2537.4,1067.5,2537.2,1067.5,2537,1067.5z M2525.9,999.5c-2.1-10.1-4.9-20.1-8.2-29.9
					c-1.1-3.2,0.6-6.7,3.8-7.7c3.2-1.1,6.7,0.6,7.7,3.8c3.5,10.2,6.4,20.7,8.6,31.3c0.7,3.3-1.4,6.5-4.7,7.2
					c-0.3,0.1-0.6,0.1-0.9,0.1C2529.3,1004.6,2526.6,1002.6,2525.9,999.5z M2505.9,941c-4.5-9.3-9.7-18.3-15.3-26.9
					c-1.8-2.8-1-6.6,1.8-8.4c2.8-1.8,6.6-1.1,8.4,1.8c5.9,9.1,11.3,18.6,16,28.3c1.5,3,0.2,6.7-2.8,8.2c-0.7,0.4-1.5,0.6-2.3,0.6
					C2509.4,944.6,2507,943.3,2505.9,941z M2472.1,889.2c-6.7-7.9-13.9-15.4-21.4-22.4c-2.5-2.3-2.6-6.1-0.3-8.6
					c2.3-2.5,6.1-2.6,8.6-0.3c7.9,7.3,15.5,15.2,22.5,23.5c2.2,2.6,1.8,6.4-0.7,8.6c-1,0.9-2.3,1.3-3.5,1.4
					C2475.3,891.5,2473.4,890.8,2472.1,889.2z M2426.7,847.3c-8.4-6-17.2-11.6-26.2-16.5c-3-1.6-4-5.3-2.4-8.3c1.6-3,5.3-4,8.3-2.4
					c9.5,5.2,18.7,11,27.5,17.3c2.7,2,3.4,5.8,1.4,8.5c-1.1,1.5-2.8,2.4-4.6,2.5C2429.3,848.5,2427.9,848.1,2426.7,847.3z
					 M2372.5,817.6c-9.6-3.8-19.5-7-29.4-9.6c-3.3-0.8-5.2-4.2-4.4-7.4c0.8-3.3,4.2-5.2,7.4-4.4c10.4,2.7,20.8,6.1,30.9,10.1
					c3.1,1.2,4.7,4.8,3.4,7.9c-0.9,2.3-3,3.7-5.3,3.8C2374.3,818,2373.4,817.9,2372.5,817.6z M2312.7,802c-10.2-1.3-20.6-2-30.9-2.1
					c-3.4,0-6.1-2.8-6.1-6.1c0-3.4,2.8-6,6.1-6.1c10.8,0.1,21.7,0.8,32.4,2.2c3.3,0.4,5.7,3.5,5.3,6.8c-0.4,2.9-2.8,5.1-5.7,5.3
					C2313.5,802.1,2313.1,802.1,2312.7,802z M2213,802.7c-0.8-3.3,1.2-6.6,4.5-7.4c9.1-2.2,18.4-4,27.7-5.2c1.4-0.2,2.8-0.4,4.2-0.5
					c3.3-0.5,6.4,2,6.8,5.4c0.4,3.3-2,6.4-5.4,6.8c-1.3,0.2-2.7,0.3-4,0.5c-8.9,1.2-17.8,2.9-26.5,5c-0.4,0.1-0.7,0.1-1.1,0.2
					C2216.4,807.5,2213.7,805.6,2213,802.7z"/>
			</g>
			<g class="st1">
				<path class="st2" d="M2293.1,1314.4c-10.6,0.5-21.4,0.4-31.9-0.3c-3.4-0.2-5.9-3.2-5.7-6.5c0.2-3.4,3.2-5.9,6.5-5.7
					c10.1,0.7,20.3,0.8,30.5,0.3c3.4-0.2,6.2,2.4,6.4,5.8C2299,1311.4,2296.5,1314.2,2293.1,1314.4
					C2293.2,1314.4,2293.1,1314.4,2293.1,1314.4z M2317.8,1305.9c-0.6-3.3,1.7-6.5,5-7c10-1.7,20-4.1,29.7-7c3.2-1,6.6,0.9,7.6,4.1
					c1,3.2-0.9,6.6-4.1,7.6c-10.2,3-20.6,5.5-31.1,7.3c-0.2,0-0.4,0.1-0.7,0.1C2321.1,1311.2,2318.3,1309,2317.8,1305.9z
					 M2229.5,1309.9c-10.4-2-20.8-4.7-30.9-8c-3.2-1-5-4.5-3.9-7.7c1-3.2,4.5-4.9,7.7-3.9c9.6,3.1,19.5,5.7,29.5,7.7
					c3.3,0.6,5.5,3.9,4.8,7.2c-0.5,2.8-2.9,4.7-5.6,4.9C2230.5,1310,2230,1310,2229.5,1309.9z M2377.9,1289.4
					c-1.4-3.1,0.1-6.7,3.1-8c9.3-4.1,18.4-8.7,27.1-13.9c2.9-1.7,6.6-0.8,8.4,2.1c1.7,2.9,0.8,6.6-2.1,8.4
					c-9.1,5.4-18.7,10.3-28.4,14.6c-0.7,0.3-1.4,0.5-2.1,0.5C2381.4,1293.2,2379,1291.9,2377.9,1289.4z M2168.8,1290.1
					c-9.6-4.5-19.1-9.6-28.1-15.2c-2.9-1.8-3.7-5.5-1.9-8.4c1.8-2.9,5.5-3.7,8.4-1.9c8.6,5.4,17.6,10.2,26.8,14.5
					c3.1,1.4,4.4,5.1,2.9,8.1c-1,2.1-3,3.4-5.1,3.5C2170.8,1290.8,2169.8,1290.6,2168.8,1290.1z M2114.7,1256.4
					c-8.3-6.7-16.2-13.9-23.6-21.5c-2.3-2.4-2.3-6.3,0.1-8.6c2.4-2.3,6.3-2.3,8.6,0.1c7.1,7.2,14.6,14.1,22.5,20.5
					c2.6,2.1,3,6,0.9,8.6c-1.1,1.4-2.7,2.2-4.4,2.3C2117.5,1257.8,2116,1257.4,2114.7,1256.4z M2070.2,1210.7
					c-6.4-8.5-12.4-17.4-17.8-26.6c-1.7-2.9-0.7-6.6,2.2-8.3c2.9-1.7,6.6-0.7,8.3,2.2c5.1,8.7,10.8,17.3,17,25.3
					c2,2.7,1.5,6.5-1.2,8.5c-1,0.8-2.1,1.2-3.3,1.2C2073.5,1213.2,2071.5,1212.4,2070.2,1210.7z"/>
				<path class="st2" d="M2437.7,1261.1c1.2-0.1,2.3-0.5,3.3-1.3c4.1-3.2,8.2-6.5,12.1-9.9c2.5-2.2,2.8-6.1,0.6-8.6
					c-2.2-2.5-6.1-2.8-8.6-0.6c-3.7,3.2-7.6,6.4-11.5,9.4c-2.7,2.1-3.2,5.9-1.1,8.6C2433.8,1260.4,2435.8,1261.2,2437.7,1261.1z"/>
			</g>
			<g>
				<path class="st2" d="M2453.9,1146.1c0.8-1.1,0.8-2.5,0-3.6l-21.8-30.7c6.7-16.2,10.8-33.6,12-51.7l33-17.9
					c1.2-0.6,1.8-1.9,1.6-3.2l-7.4-44.5c-0.2-1.3-1.2-2.3-2.5-2.5l-37-6.3c-6.9-16.7-16.5-31.8-28.1-45l10.7-36
					c0.4-1.3-0.1-2.6-1.2-3.4l-36.7-26.2c-1.1-0.8-2.5-0.8-3.6,0l-30.6,21.8c-16.2-6.7-33.6-10.8-51.7-12l-17.9-33
					c-0.6-1.2-1.9-1.8-3.2-1.6l-44.5,7.4c-1.3,0.2-2.3,1.2-2.5,2.5l-6.3,37c-16.7,6.9-31.8,16.5-45,28.1l-36-10.7
					c-1.3-0.4-2.6,0.1-3.4,1.2l-26.2,36.7c-0.8,1.1-0.8,2.5,0,3.6l21.8,30.7c-6.7,16.2-10.8,33.6-12,51.7l-33,17.9
					c-1.2,0.6-1.8,1.9-1.6,3.2l7.4,44.5c0.2,1.3,1.2,2.3,2.5,2.5l37,6.3c6.9,16.7,16.5,31.8,28.1,45l-10.7,36
					c-0.4,1.3,0.1,2.6,1.2,3.4l36.7,26.2c1.1,0.8,2.5,0.8,3.6,0l30.6-21.8c16.2,6.7,33.6,10.8,51.7,12l17.9,33
					c0.6,1.2,1.9,1.8,3.2,1.6l44.5-7.4c1.3-0.2,2.3-1.2,2.5-2.5l6.3-37c16.7-6.9,31.8-16.5,45-28.1l36,10.7c1.3,0.4,2.6-0.1,3.4-1.2
					L2453.9,1146.1z"/>
				<g>
					<path class="st3" d="M2275.9,1095.2c-12.3-1-23.4-6.8-31.4-16.2c-8-9.4-11.8-21.4-10.8-33.6c2.1-25.4,24.4-44.2,49.8-42.2
						c25.4,2.1,44.3,24.5,42.2,49.8c-1,12.3-6.8,23.4-16.2,31.4c-7.6,6.5-17,10.2-26.8,10.8
						C2280.5,1095.4,2278.2,1095.4,2275.9,1095.2z M2245.9,1046.4c-0.8,9,2.1,17.8,7.9,24.7c5.9,6.9,14.1,11.1,23.1,11.9l0,0
						c9,0.7,17.8-2.1,24.7-7.9c6.9-5.9,11.1-14.1,11.9-23.1c1.6-18.7-12.4-35.1-31-36.6c-1.7-0.1-3.3-0.2-5,0
						C2261.1,1016.4,2247.3,1029.5,2245.9,1046.4z"/>
				</g>
				<path class="st3" d="M2286.2,1163.3c3.9-0.2,7.7-0.7,11.6-1.3c7.7-1.3,15.3-3.3,22.6-6.1c0.3-0.1,0.7-0.3,1-0.4
					c2.5-1,4-3.5,3.8-6.1c0-0.6-0.2-1.3-0.4-1.9c-1.2-3.1-4.8-4.7-7.9-3.4c-6.8,2.7-13.9,4.6-21.1,5.8l0,0c-0.4,0.1-0.8,0.1-1.2,0.2
					c-17.1,2.7-34.2,1-50.1-4.7c-8.6-3.1-16.9-7.3-24.5-12.7c-0.1,0-0.1-0.1-0.2-0.1c-0.2-0.1-0.4-0.3-0.6-0.4
					c-22.3-16-37.1-39.7-41.6-66.7c-0.6-3.5-1-7-1.2-10.5c-1.5-23.5,5.1-46.6,19-66.1c16-22.3,39.7-37.1,66.7-41.6
					c27-4.5,54.3,1.8,76.6,17.8c22.3,16,37.1,39.7,41.6,66.7c0.6,3.4,1,6.9,1.2,10.4c0.9,15-1.4,30-6.9,44c-0.3,0.9-0.5,1.8-0.4,2.6
					c0.1,2.3,1.6,4.4,3.8,5.3c3.1,1.2,6.7-0.3,7.9-3.4c6.2-15.7,8.8-32.5,7.7-49.3c-0.2-3.9-0.7-7.7-1.3-11.6
					c-5-30.3-21.5-56.8-46.5-74.7c-25-17.9-55.4-25-85.7-19.9c-30.3,5-56.8,21.5-74.7,46.5c-15.6,21.7-22.9,47.6-21.3,73.9
					c0.2,3.9,0.7,7.8,1.3,11.7C2175.4,1126,2228.1,1167,2286.2,1163.3z"/>
			</g>
		</g>
	</g>
	<g>
		<path class="st2" d="M3210.8,1745.6c-0.2-8.8-3.8-17.2-10.2-23.3c-6.4-6.1-15-9.4-23.8-9.1l-714.5,22.8
			c-18.2,0.6-32.5,15.8-31.9,34l35.3,1183.2c0.5,18,15.3,32.2,33.3,32l700.1-6.8c8.8-0.1,17.2-3.7,23.3-10
			c6.1-6.3,9.5-14.8,9.3-23.6L3210.8,1745.6z"/>
		<g class="st4">
			<path class="st5" d="M3136.3,1803.4h-636.2c-6.2,0-11.2,3.3-11.1,9.2l0.6,55.5c0.1,5.9,5.2,12.2,11.4,12.3l638,0.5
				c6.3,0,11.2-6.9,11-12.8l-1.9-55.4C3147.9,1806.8,3142.6,1803.4,3136.3,1803.4z"/>
			<path class="st5" d="M3140.4,1923.2l-639-1.1c-6.2,0-11.2,5.9-11.1,11.8l0.6,56.8c0.1,5.9,5.2,11.6,11.4,11.6l640.8,1.8
				c6.3,0,11.3-5.6,11.1-11.6l-2-57.3C3152.1,1929.2,3146.8,1923.2,3140.4,1923.2z"/>
			<path class="st5" d="M3144.7,2051.1l-641.9-2.2c-6.2,0-11.3,2.9-11.2,8.8l0.6,57.3c0.1,6,5.2,10.5,11.4,10.6l643.6,2.9
				c6.4,0,11.4-4.5,11.2-10.6l-2-57.8C3156.3,2054.1,3151.1,2051.1,3144.7,2051.1z"/>
			<path class="st5" d="M3148.9,2175.9l-644.7-3.3c-6.3,0-11.3,4-11.2,10.1l0.6,57.8c0.1,6,5.2,9.5,11.5,9.5l646.5,4
				c6.4,0,11.5-3.3,11.3-9.4l-2-58.3C3160.6,2180.1,3155.3,2175.9,3148.9,2175.9z"/>
			<path class="st5" d="M3153.2,2301.8l-647.5-4.4c-6.3,0-11.3,5.2-11.3,11.3l0.6,58.3c0.1,6.1,5.3,12.7,11.6,12.8l649.4,5.2
				c6.4,0.1,11.4-6.5,11.2-12.7l-2-58.8C3165,2307.2,3159.6,2301.8,3153.2,2301.8z"/>
			<path class="st5" d="M3157.5,2428.8l-650.4-5.5c-6.3-0.1-11.4,6.4-11.3,12.6l0.6,58.8c0.1,6.2,5.3,11.6,11.6,11.7l652.3,6.3
				c6.5,0.1,11.5-5.4,11.3-11.6l-2-59.3C3169.3,2435.5,3163.9,2428.9,3157.5,2428.8z"/>
			<path class="st5" d="M3161.9,2561.4l-653.4-6.7c-6.4-0.1-11.5,3.3-11.4,9.5l0.6,59.3c0.1,6.2,5.3,10.6,11.6,10.6l655.2,7.5
				c6.5,0.1,11.6-4.2,11.4-10.5l-2-59.9C3173.8,2564.9,3168.4,2561.4,3161.9,2561.4z"/>
			<path class="st5" d="M3166.3,2690.7l-656.3-7.9c-6.4-0.1-11.5,4.5-11.4,10.7l0.6,59.8c0.1,6.3,5.3,9.4,11.7,9.5l658.2,8.7
				c6.5,0.1,11.7-3,11.5-9.3l-2.1-60.4C3178.2,2695.5,3172.8,2690.8,3166.3,2690.7z"/>
			<path class="st5" d="M3170.7,2821.2l-659.3-9.1c-6.4-0.1-11.5,5.7-11.5,12l0.7,60.4c0.1,6.3,5.3,12.8,11.8,12.9l661.2,9.9
				c6.5,0.1,11.6-6.3,11.4-12.7l-2.1-61C3182.7,2827.3,3177.2,2821.2,3170.7,2821.2z"/>
		</g>
	</g>
	<g>
		<g>
			<path class="st3" d="M1604.8,2961.8c0,0,236.1-1448.5-368.3-2486.4c-7.9-13.5-27.1-14.5-36.1-1.8
				C1056.9,675.2,207.1,1986.2,1604.8,2961.8z"/>
			<path class="st6" d="M1182.4,897.5c0,0-0.9,8-2.1,23c-1.3,15-2.8,37-4.4,65c-1.7,28-3,62.1-4.1,101.2c-0.3,19.6-1,40.4-1,62.3
				c-0.1,11-0.2,22.2-0.3,33.7c0,11.5,0.1,23.3,0.1,35.3c0,12,0.2,24.3,0.4,36.8c0.2,12.5,0.5,25.3,0.7,38.2
				c0.4,13,0.9,26.2,1.3,39.5c0.2,6.7,0.4,13.4,0.7,20.2c0.3,6.8,0.6,13.6,1,20.5c0.7,13.8,1.4,27.7,2,41.9
				c0.8,14.1,1.8,28.4,2.7,42.9c1.7,28.9,4.2,58.4,6.6,88.4c1.1,15,2.8,30.1,4.2,45.3c1.5,15.2,2.9,30.5,4.6,45.9
				c1.8,15.4,3.6,30.8,5.4,46.4c0.9,7.8,1.8,15.6,2.7,23.4c1.1,7.8,2.1,15.6,3.2,23.4c2.2,15.6,4.3,31.3,6.5,47.1
				c2.2,15.7,4.9,31.5,7.4,47.2c2.6,15.8,4.9,31.6,7.7,47.4c2.9,15.8,5.7,31.5,8.6,47.3l4.3,23.7c1.4,7.9,3.2,15.7,4.7,23.6
				c3.2,15.7,6.4,31.4,9.6,47c3,15.7,6.8,31.2,10.3,46.7c3.6,15.5,7.1,30.9,10.7,46.3c7.6,30.7,15.6,60.9,23.3,90.9
				c8.6,29.7,17.1,59.1,25.4,88c9.1,28.6,18.1,56.8,26.9,84.4c9.6,27.3,19,54,28.1,80c9.6,25.8,19.6,50.7,28.9,74.9
				c2.4,6,4.6,12.1,7,18c2.5,5.9,5,11.7,7.5,17.4c4.9,11.5,9.8,22.8,14.5,33.8c4.7,11.1,9.4,21.9,13.9,32.5
				c4.9,10.4,9.7,20.6,14.3,30.5c9.3,19.9,18.1,38.7,26.4,56.4c8.9,17.4,17.3,33.7,25.1,48.7c3.9,7.5,7.6,14.7,11.1,21.6
				c3.6,6.9,6.8,13.5,10.4,19.6c27.6,48.9,43.3,76.9,43.3,76.9l0,0.1c0.6,1,0.2,2.4-0.8,3c-1,0.6-2.3,0.2-2.9-0.8
				c0,0-16.3-27.7-44.9-76.2c-3.7-6-7.1-12.6-10.7-19.5c-3.7-6.9-7.5-14-11.5-21.5c-8-15-16.7-31.2-25.9-48.5
				c-8.6-17.6-17.8-36.4-27.4-56.2c-4.8-9.9-9.7-20.1-14.7-30.5c-4.6-10.6-9.4-21.4-14.3-32.4c-4.9-11.1-9.8-22.3-14.9-33.8
				c-2.5-5.8-5.1-11.6-7.6-17.4c-2.5-5.9-4.8-11.9-7.2-18c-9.6-24.2-19.8-49.1-29.7-74.9c-9.4-26-19.1-52.7-29-80.1
				c-9-27.6-18.2-55.9-27.5-84.6c-8.5-29-17.1-58.4-25.8-88.2c-7.8-30.1-16-60.4-23.7-91.2c-3.6-15.4-7.2-30.9-10.9-46.5
				c-3.6-15.5-7.4-31.1-10.5-46.8c-3.3-15.7-6.5-31.4-9.8-47.2c-1.6-7.9-3.4-15.7-4.8-23.6l-4.3-23.7c-2.9-15.8-5.7-31.7-8.6-47.5
				c-2.8-15.8-5.1-31.7-7.6-47.6c-2.4-15.9-5.1-31.6-7.3-47.4c-2.1-15.8-4.3-31.6-6.4-47.3c-1.1-7.9-2.1-15.7-3.2-23.5
				c-0.9-7.8-1.8-15.7-2.7-23.5c-1.8-15.6-3.6-31.1-5.3-46.5c-1.7-15.4-3-30.8-4.5-46.1c-1.4-15.3-3.1-30.4-4.1-45.4
				c-2.2-30.1-4.8-59.6-6.2-88.7c-0.8-14.5-1.7-28.8-2.3-43c-0.6-14.2-1.1-28.2-1.6-42c-0.3-6.9-0.5-13.8-0.8-20.6
				c-0.2-6.8-0.3-13.6-0.5-20.3c-0.3-13.4-0.6-26.7-0.9-39.7c-0.1-13-0.2-25.8-0.3-38.3c-0.1-12.6-0.2-24.9-0.1-36.9
				c0-48.3,1.4-92.5,2.9-131.7c1.8-39.2,3.6-73.3,5.8-101.4c2-28.1,4.2-50.1,5.7-65.1c1.5-15,2.6-23,2.6-23l0,0
				c0.2-1.2,1.3-2,2.4-1.9C1181.7,895.3,1182.5,896.4,1182.4,897.5z"/>
		</g>
		<g>
			<path class="st2" d="M1390.9,3103.4c0,0-5.2-1690.3-802.9-2187.7c-14.2-8.8-32.9-2.1-38.2,13.7
				C487.6,1113.3,223.2,2111.7,1390.9,3103.4z"/>
			<path class="st6" d="M654.6,1212.5c0,0,6.9,30,20.7,82c6.9,26,15.4,57.6,25.6,93.7c10.1,36.1,22.1,76.7,35.5,120.9
				c13.5,44.1,28.4,91.9,44.9,142.2c8.1,25.2,16.9,50.9,25.6,77.3c9.1,26.3,18.1,53.2,27.7,80.4c9.6,27.2,19.3,54.9,29.5,82.8
				c10,28,20.6,56.1,31.2,84.5c2.7,7.1,5.3,14.2,8,21.3c2.7,7.1,5.5,14.2,8.2,21.3c5.5,14.2,11,28.5,16.5,42.8
				c11.1,28.6,22.6,57.1,34.1,85.7c11.8,28.4,23.3,57,35.3,85.2c6,14.1,12,28.2,18,42.2c3,7,6,14,9,21c3.1,7,6.1,13.9,9.2,20.8
				c12.3,27.7,24.2,55.3,36.7,82.2c12.4,27,24.3,53.8,36.7,79.8c6.1,13,12.2,26,18.3,38.8c3,6.4,6,12.8,8.9,19.2
				c3,6.3,6.1,12.6,9.1,18.9c12.1,25,23.7,49.6,35.5,73.2c5.9,11.8,11.7,23.5,17.5,35c5.7,11.5,11.2,22.9,16.7,34
				c11.3,22.2,22.2,43.6,32.7,64.1c10.4,20.6,20.8,40.1,30.7,58.7c9.8,18.6,18.8,36.4,27.7,52.9c17.9,33,33.5,61.7,46.3,85.4
				c13.1,23.5,23.3,42.1,30.3,54.7c6.9,12.7,10.6,19.4,10.6,19.4l0,0c0.7,1.2,0.2,2.7-1,3.4c-1.2,0.6-2.6,0.2-3.3-0.9
				c0,0-4-6.6-11.5-18.9c-7.4-12.4-18.4-30.5-32.3-53.6c-7.1-11.5-14.3-24.5-22.4-38.6c-8.1-14.1-16.8-29.4-26.1-45.7
				c-18.3-32.8-38.8-69.9-60.1-110.9c-10.7-20.5-21.8-41.9-33.3-64c-5.6-11.1-11.3-22.5-17.1-34c-5.7-11.5-11.5-23.2-17.4-35.1
				c-23.1-47.7-47.4-98-71.1-150.7c-23.9-52.6-47.8-107.3-71.3-163.3c-12-27.9-23.2-56.3-35.1-84.6c-11.7-28.4-23-57-34.5-85.6
				c-11.2-28.7-22.4-57.4-33.5-86c-5.5-14.3-10.9-28.7-16.3-42.9c-2.7-7.1-5.4-14.3-8.1-21.4c-2.6-7.1-5.3-14.3-7.9-21.4
				c-10.5-28.4-21-56.7-30.9-84.7c-10.1-27.9-19.8-55.7-29.3-83c-9.6-27.2-18.5-54.2-27.5-80.5c-8.6-26.4-17.4-52.2-25.4-77.4
				c-16.3-50.4-31-98.2-44.4-142.4c-13.2-44.3-25.1-84.9-35.3-121.1c-10.2-36.1-18.8-67.7-25.7-93.8c-13.8-52.1-20.8-82.2-20.8-82.2
				c-0.3-1.3,0.5-2.7,1.9-3C653,1210.3,654.3,1211.1,654.6,1212.5L654.6,1212.5z"/>
		</g>
	</g>
	<g>
		<path class="st2" d="M2774.2,1398.1c-0.2-7.6-3.5-14.8-9.1-19.8c-5.7-5.1-13.2-7.6-20.7-6.9l-764.2,66.2
			c-14.2,1.2-25.6,13.1-25.6,27.4v1536.3c0,15.2,13.2,26.3,28.4,26.3h800.3c7.4,0,14.5-2.4,19.7-7.7c5.2-5.3,8-12.2,7.8-19.6
			L2774.2,1398.1z"/>
		<g class="st7">
			<path class="st3" d="M2105.9,1513.3l-58.3,4c-6.4,0.4-9.7,6.3-9.7,13.2v1401.3c0,7,1.4,15.3,7.9,15.3h60.9
				c6.5,0,11.8-7,11.8-14.1l-0.9-1407.4C2117.6,1518.8,2112.3,1512.9,2105.9,1513.3z"/>
			<path class="st8" d="M2247.4,1504l-61,4c-6.5,0.4-12.7,6.4-12.7,13.3l1.5,1411.6c0,7.1,6.3,14.1,12.9,14.1h61.7
				c6.6,0,11-7.1,11-14.1l-2.4-1416.4C2258.3,1509.6,2253.9,1503.6,2247.4,1504z"/>
			<path class="st3" d="M2390.7,1494.6l-61.8,4.1c-6.6,0.4-10.3,6.3-10.3,13.3l3,1421c0,7.1,3.9,14.2,10.5,14.2h62.5
				c6.7,0,13.7-7.1,13.7-14.2l-3.9-1425.8C2404.3,1500.1,2397.3,1494.2,2390.7,1494.6z"/>
			<path class="st3" d="M2536,1485.1l-62.6,4.1c-6.6,0.4-11.5,6.4-11.5,13.4l4.5,1430.2c0,7.1,5,14.3,11.7,14.3h63.3
				c6.8,0,12.8-7.1,12.8-14.3l-5.5-1435.1C2548.7,1490.6,2542.7,1484.7,2536,1485.1z"/>
			<path class="st3" d="M2683.1,1475.5l-63.5,4.2c-6.7,0.4-12.7,6.5-12.7,13.6l6.1,1439.6c0,7.2,6.1,14.4,12.9,14.4h64.2
				c6.9,0,11.9-7.2,11.9-14.4l-7.1-1444.6C2695,1481.1,2689.9,1475,2683.1,1475.5z"/>
		</g>
	</g>
	<g>
		<path class="st3" d="M2175.8,1717.5c-0.1-8-3.5-15.7-9.3-21.2c-5.8-5.5-13.6-8.5-21.7-8.1l-609.6,24.4
			c-10.5,0.4-18.7,9.2-18.4,19.6l30.9,1303.1l616.4-7.5c7.9-0.1,15.4-3.3,21-9c5.5-5.7,8.6-13.3,8.4-21.2L2175.8,1717.5z"/>
		<g class="st9">
			<g>
				<polygon class="st5" points="1684.9,1957.7 1586.8,1957.7 1585.7,1790.1 1684,1790.1 				"/>
				<polygon class="st5" points="1825.7,1957.4 1728,1957.4 1727.1,1790.1 1825.1,1790.1 				"/>
				<polygon class="st5" points="1973.8,1957.1 1876.4,1957.1 1875.9,1790.1 1973.5,1790.1 				"/>
				<polygon class="st5" points="2121.5,1957.1 2022.5,1957 2020.2,1790.1 2121.5,1790.1 				"/>
			</g>
			<g>
				<polygon class="st5" points="1686.2,2195.7 1588.5,2196.3 1587.3,2029.8 1685.3,2029.5 				"/>
				<polygon class="st5" points="1826.6,2195 1729.2,2195.5 1728.3,2029.4 1826,2029.1 				"/>
				<polygon class="st5" points="1974.2,2194.2 1877.2,2194.7 1876.7,2028.9 1973.9,2028.6 				"/>
				<polygon class="st5" points="2121.5,2193.4 2022.8,2193.9 2023.6,2028.5 2121.5,2028.2 				"/>
			</g>
			<g>
				<polygon class="st5" points="1687.6,2439.8 1590.2,2440.6 1589,2275.2 1686.7,2274.6 				"/>
				<polygon class="st5" points="1827.5,2438.6 1730.4,2439.4 1729.6,2274.3 1826.9,2273.7 				"/>
				<polygon class="st5" points="1974.7,2437.3 1877.9,2438.1 1877.4,2273.4 1974.4,2272.8 				"/>
				<polygon class="st5" points="2121.5,2436.1 2023.1,2436.9 2023.9,2272.5 2121.5,2271.9 				"/>
			</g>
			<g>
				<polygon class="st5" points="1689,2678.3 1591.8,2679.5 1590.7,2519.1 1688.1,2518.2 				"/>
				<polygon class="st5" points="1828.4,2676.7 1731.6,2677.8 1730.8,2517.7 1827.8,2516.8 				"/>
				<polygon class="st5" points="1975.1,2675 1878.7,2676.1 1878.2,2516.3 1974.8,2515.4 				"/>
				<polygon class="st5" points="2121.5,2673.3 2023.4,2674.4 2024.2,2514.9 2121.5,2514 				"/>
			</g>
			<g>
				<polygon class="st5" points="1690.3,2919.3 1593.5,2920.8 1592.4,2761.4 1689.4,2760.1 				"/>
				<polygon class="st5" points="1829.4,2917.2 1732.9,2918.7 1732.1,2759.6 1828.8,2758.3 				"/>
				<polygon class="st5" points="1975.6,2915.1 1879.4,2916.5 1878.9,2757.7 1975.3,2756.5 				"/>
				<polygon class="st5" points="2121.5,2912.9 2023.7,2914.4 2024.5,2755.9 2121.5,2754.6 				"/>
			</g>
		</g>
	</g>
	<g>
		
			<linearGradient id="SVGID_00000147933919718769598640000015443751403071881902_" gradientUnits="userSpaceOnUse" x1="2649.3313" y1="-52.8166" x2="2154.7058" y2="639.6588">
			<stop  offset="0" style="stop-color:#E1473D"/>
			<stop  offset="1" style="stop-color:#E9605A"/>
		</linearGradient>
		<path style="fill:url(#SVGID_00000147933919718769598640000015443751403071881902_);" d="M1682.7,2284H762.6
			c-12,0-21.7-9.7-21.7-21.7v-635.5c0-12,9.7-21.7,21.7-21.7h920.2c12,0,21.7,9.7,21.7,21.7v635.5
			C1704.4,2274.3,1694.7,2284,1682.7,2284z"/>
		
			<linearGradient id="SVGID_00000073701140509747722760000005686286472112619934_" gradientUnits="userSpaceOnUse" x1="2673.6514" y1="-34.4378" x2="2179.0256" y2="658.0375">
			<stop  offset="0" style="stop-color:#FF928E"/>
			<stop  offset="1" style="stop-color:#FE7062"/>
		</linearGradient>
		<path style="fill:url(#SVGID_00000073701140509747722760000005686286472112619934_);" d="M1720.2,2284H800
			c-12,0-21.7-9.7-21.7-21.7v-635.5c0-12,9.7-21.7,21.7-21.7h920.2c12,0,21.7,9.7,21.7,21.7v635.5
			C1741.9,2274.3,1732.2,2284,1720.2,2284z"/>
		<path class="st5" d="M1053.4,2194.6c-7.4,0-13.7-0.1-18.6-0.2c-8.5-0.2-15.4-6.4-16.5-14.8c-1.1-8.5,4.1-16.3,12.3-18.6
			c44-12.3,92-33.3,127.4-50.3c-168.6-13.7-202.3-100.3-208.8-139.9c-16.4-99.9,70.3-212.9,193.2-251.9
			c125.5-39.8,252.6-25.5,323.9,36.6c37.9,33,79,96.1,59.6,209.7C1489.7,2177.5,1158.2,2194.6,1053.4,2194.6z M1038.9,2190.4
			L1038.9,2190.4L1038.9,2190.4z M1035.4,2163.8L1035.4,2163.8C1035.4,2163.8,1035.4,2163.8,1035.4,2163.8z M1278.9,2080.7
			l-53.4,29.8c-2.8,1.6-49.8,27.6-107,51.5c130.2-7.8,350.4-44.6,377.2-202.1c13.6-80-3-141-49.5-181.5
			c-72.1-62.8-199.9-60.5-294.5-30.5c-107.2,34-186.1,133.8-172.3,217.8c12.5,76.3,99.4,119,238.4,116L1278.9,2080.7z"/>
	</g>
	<g>
		
			<linearGradient id="SVGID_00000120517665265357412020000014229731953453591448_" gradientUnits="userSpaceOnUse" x1="1961.1805" y1="532.0273" x2="212.9861" y2="2009.6696">
			<stop  offset="0" style="stop-color:#4F52FF"/>
			<stop  offset="1" style="stop-color:#4042E2"/>
		</linearGradient>
		<path style="fill:url(#SVGID_00000120517665265357412020000014229731953453591448_);" d="M1694.5,1485.8H774.3
			c-12,0-21.7-9.7-21.7-21.7V828.6c0-12,9.7-21.7,21.7-21.7h920.2c12,0,21.7,9.7,21.7,21.7v635.5
			C1716.2,1476.1,1706.5,1485.8,1694.5,1485.8z"/>
		
			<linearGradient id="SVGID_00000177470194239071257010000005029047898205606818_" gradientUnits="userSpaceOnUse" x1="953.6963" y1="1358.7509" x2="2453.7825" y2="372.5349">
			<stop  offset="0" style="stop-color:#4F52FF"/>
			<stop  offset="1" style="stop-color:#4042E2"/>
		</linearGradient>
		<path style="fill:url(#SVGID_00000177470194239071257010000005029047898205606818_);" d="M1731.8,1489.1H811.6
			c-12,0-21.7-9.7-21.7-21.7V831.9c0-12,9.7-21.7,21.7-21.7h920.2c12,0,21.7,9.7,21.7,21.7v635.5
			C1753.5,1479.4,1743.8,1489.1,1731.8,1489.1z"/>
		<g>
			
				<linearGradient id="SVGID_00000052086945275450240990000016859603601921786545_" gradientUnits="userSpaceOnUse" x1="961.5514" y1="1146.7295" x2="1550.6664" y2="1146.7295">
				<stop  offset="0" style="stop-color:#DAE3FE"/>
				<stop  offset="1" style="stop-color:#E9EFFD"/>
			</linearGradient>
			<path style="fill:url(#SVGID_00000052086945275450240990000016859603601921786545_);" d="M1483.2,1389.6H1029
				c-37.2,0-67.5-30.3-67.5-67.5V971.4c0-37.2,30.3-67.5,67.5-67.5h454.1c37.2,0,67.5,30.3,67.5,67.5v350.7
				C1550.7,1359.3,1520.4,1389.6,1483.2,1389.6z M1029,927.3c-24.3,0-44.1,19.8-44.1,44.1v350.7c0,24.3,19.8,44.1,44.1,44.1h454.1
				c24.3,0,44.1-19.8,44.1-44.1V971.4c0-24.3-19.8-44.1-44.1-44.1H1029z"/>
			
				<linearGradient id="SVGID_00000156579678631698163750000005518359868166774698_" gradientUnits="userSpaceOnUse" x1="981.2927" y1="1035.9509" x2="1535.6571" y2="1035.9509">
				<stop  offset="0" style="stop-color:#DAE3FE"/>
				<stop  offset="1" style="stop-color:#E9EFFD"/>
			</linearGradient>
			<polygon style="fill:url(#SVGID_00000156579678631698163750000005518359868166774698_);" points="1255,1148 981.3,942.6 
				995.3,923.9 1255.4,1119 1522.1,929.9 1535.7,949 			"/>
			
				<linearGradient id="SVGID_00000026141815076433454120000000446862886523818644_" gradientUnits="userSpaceOnUse" x1="1348.387" y1="1211.1166" x2="1539.0764" y2="1211.1166">
				<stop  offset="0" style="stop-color:#DAE3FE"/>
				<stop  offset="1" style="stop-color:#E9EFFD"/>
			</linearGradient>
			<polygon style="fill:url(#SVGID_00000026141815076433454120000000446862886523818644_);" points="1518.7,1367.8 1348.4,1066 
				1368.8,1054.5 1539.1,1356.3 			"/>
			
				<linearGradient id="SVGID_00000011014543060382763100000017640001669246353069_" gradientUnits="userSpaceOnUse" x1="974.2616" y1="1207.6958" x2="1162.1359" y2="1207.6958">
				<stop  offset="0" style="stop-color:#DAE3FE"/>
				<stop  offset="1" style="stop-color:#E9EFFD"/>
			</linearGradient>
			<polygon style="fill:url(#SVGID_00000011014543060382763100000017640001669246353069_);" points="994.8,1365.1 974.3,1353.8 
				1141.6,1050.3 1162.1,1061.6 			"/>
		</g>
	</g>
	<g>
		
			<linearGradient id="SVGID_00000009562775899577523350000001390274589047364493_" gradientUnits="userSpaceOnUse" x1="2255.5798" y1="1381.2838" x2="380.8669" y2="3886.1067">
			<stop  offset="0" style="stop-color:#4F52FF"/>
			<stop  offset="1" style="stop-color:#4042E2"/>
		</linearGradient>
		<path style="fill:url(#SVGID_00000009562775899577523350000001390274589047364493_);" d="M1682.7,3100.8H762.6
			c-12,0-21.7-9.7-21.7-21.7v-635.5c0-12,9.7-21.7,21.7-21.7h920.2c12,0,21.7,9.7,21.7,21.7v635.5
			C1704.4,3091.1,1694.7,3100.8,1682.7,3100.8z"/>
		
			<linearGradient id="SVGID_00000059301925969070770920000015502896681973136041_" gradientUnits="userSpaceOnUse" x1="831.3646" y1="3102.9514" x2="2391.5391" y2="1860.0109">
			<stop  offset="0" style="stop-color:#4F52FF"/>
			<stop  offset="1" style="stop-color:#4042E2"/>
		</linearGradient>
		<path style="fill:url(#SVGID_00000059301925969070770920000015502896681973136041_);" d="M1720.2,3100.8H800
			c-12,0-21.7-9.7-21.7-21.7v-635.5c0-12,9.7-21.7,21.7-21.7h920.2c12,0,21.7,9.7,21.7,21.7v635.5
			C1741.9,3091.1,1732.2,3100.8,1720.2,3100.8z"/>
		
			<linearGradient id="SVGID_00000100367306657827433760000010356516429138476194_" gradientUnits="userSpaceOnUse" x1="1026.3636" y1="2757.6404" x2="1518.0465" y2="2757.6404">
			<stop  offset="0" style="stop-color:#DAE3FE"/>
			<stop  offset="1" style="stop-color:#E9EFFD"/>
		</linearGradient>
		<path style="fill:url(#SVGID_00000100367306657827433760000010356516429138476194_);" d="M1410.9,3003.5
			c-37.6,0-81.8-17.6-131.7-52.6h0c-33-23.1-177.1-167.2-200.3-200.3c-41.7-59.5-58.7-110.8-50.6-152.6c5.2-27,21.2-49.9,46.3-66.2
			l21.9-14.3c16.2-10.6,38.2-6.1,49,10l60.5,90.8c12.4,18.6,7.9,43.5-10.4,56.5l-0.4,0.3l-10.4,6.8c-9.5,6.1-15.5,16.1-16.4,27.4
			c-1,11.2,3.2,22.1,11.5,29.8l0.3,0.3l110.6,110.6c7.7,8.3,18.6,12.4,29.8,11.5c11.3-1,21.2-7,27.4-16.4l7-10.8
			c13-18.3,37.8-22.9,56.5-10.4l90.8,60.5c16.1,10.8,20.6,32.7,10.1,49l-14.3,21.9c-16.4,25.1-39.3,41.1-66.2,46.3
			C1425.1,3002.8,1418.1,3003.5,1410.9,3003.5z M1292.6,2931.7c54.1,37.9,99.5,53.6,134.7,46.8c20.9-4,38.1-16.2,51.1-36.1
			l14.3-21.9c3.6-5.5,2.1-13-3.4-16.7l-90.8-60.5c-8-5.4-18.6-3.4-24.3,4.3l-6.6,10.2c-10.1,15.6-26.5,25.4-45,27
			c-18.4,1.6-36.2-5.2-48.8-18.7l-110-110c-13.5-12.6-20.3-30.4-18.7-48.8c1.6-18.5,11.5-34.9,27-45l10.2-6.6
			c7.8-5.7,9.7-16.3,4.3-24.3l-60.5-90.8c-3.7-5.5-11.2-7-16.7-3.4l-21.9,14.3c-19.9,13-32.1,30.2-36.1,51.1
			c-6.8,35.3,8.9,80.6,46.8,134.7C1119.8,2768.2,1261.6,2910,1292.6,2931.7L1292.6,2931.7z"/>
	</g>
	<g>
		<g>
			<g>
				
					<linearGradient id="SVGID_00000082359279355289978380000007265136808954719360_" gradientUnits="userSpaceOnUse" x1="2191.2627" y1="-330.9144" x2="1910.3715" y2="70.359" gradientTransform="matrix(1.388 -6.860000e-02 6.850000e-02 1.3855 1375.5504 -570.6171)">
					<stop  offset="0" style="stop-color:#09005D"/>
					<stop  offset="1" style="stop-color:#1A0F91"/>
				</linearGradient>
				<path style="fill:url(#SVGID_00000082359279355289978380000007265136808954719360_);" d="M2393.4,2395.3c-0.4,0-0.7,0-1.1,0
					l-472.6-0.5c-11.7,0-21.1-9.7-21.1-21.6c0-11.9,9.5-21.7,21.2-21.5l472.6,0.5c11.7,0,21.1,9.7,21.1,21.6
					C2413.5,2385.3,2404.6,2394.7,2393.4,2395.3z"/>
			</g>
			<g>
				
					<linearGradient id="SVGID_00000035498959284418036880000000639402859792712342_" gradientUnits="userSpaceOnUse" x1="11233.6455" y1="-23332.748" x2="10952.7549" y2="-22931.4766" gradientTransform="matrix(-0.6475 -1.2297 1.2274 -0.6463 -12090.5938 -5472.2012)">
					<stop  offset="0" style="stop-color:#09005D"/>
					<stop  offset="1" style="stop-color:#1A0F91"/>
				</linearGradient>
				<path style="fill:url(#SVGID_00000035498959284418036880000000639402859792712342_);" d="M1736.7,1923.3c0.2,0.3,0.3,0.7,0.5,1
					l198.8,437.3c4.9,10.8,0.3,23.6-10.3,28.6c-10.6,5-23.3,0.4-28.1-10.5l-198.8-437.3c-4.9-10.8-0.3-23.6,10.3-28.6
					C1719.4,1908.9,1731.5,1913.2,1736.7,1923.3z"/>
			</g>
		</g>
		<g>
			<g>
				
					<linearGradient id="SVGID_00000117652615838383380430000004896880350277869450_" gradientUnits="userSpaceOnUse" x1="-5358.7095" y1="3514.0452" x2="-5355.3823" y2="3866.7117" gradientTransform="matrix(-1 0 0 1 -3026.863 0)">
					<stop  offset="0" style="stop-color:#09005D"/>
					<stop  offset="1" style="stop-color:#1A0F91"/>
				</linearGradient>
				<path style="fill:url(#SVGID_00000117652615838383380430000004896880350277869450_);" d="M2438.8,3098.1c0,0,4.1,23,5.8,50.2
					c0.7,11.6-7.9,21.7-19.5,22.8c-40.3,3.9-132.2,11.1-190.8,2.7c-8.2-1.2-11.5-11.3-5.4-16.9c24.2-22.5,82.6-66.3,178.7-75.9
					L2438.8,3098.1z"/>
				
					<linearGradient id="SVGID_00000104666778780962546000000014967211334630510214_" gradientUnits="userSpaceOnUse" x1="-5443.7192" y1="3120.2061" x2="-5462.0181" y2="2977.1436" gradientTransform="matrix(-1 0 0 1 -3026.863 0)">
					<stop  offset="0" style="stop-color:#FEBBBA"/>
					<stop  offset="1" style="stop-color:#FF928E"/>
				</linearGradient>
				<path style="fill:url(#SVGID_00000104666778780962546000000014967211334630510214_);" d="M2458.9,3046.3l-20.4,50
					c-2.8,6.9-9.7,11.1-17.1,10.3c-5-0.5-10.9-1.5-16.7-3.2c-11.5-3.5-18-15.7-14.6-27.2l15.4-51.5L2458.9,3046.3z"/>
				
					<linearGradient id="SVGID_00000029003233940965265380000004068526143211808435_" gradientUnits="userSpaceOnUse" x1="-5835.1846" y1="3518.5386" x2="-5831.8574" y2="3871.2029" gradientTransform="matrix(-1 0 0 1 -3026.863 0)">
					<stop  offset="0" style="stop-color:#09005D"/>
					<stop  offset="1" style="stop-color:#1A0F91"/>
				</linearGradient>
				<path style="fill:url(#SVGID_00000029003233940965265380000004068526143211808435_);" d="M2807.6,3137.9c0,0-40.8,34.2-56.8,78
					c-4.4,12.1,4.9,24.8,17.7,24.8h84c12.3,0,21.7-11.1,19.6-23.2C2866.8,3187.3,2851.4,3138.1,2807.6,3137.9z"/>
				
					<linearGradient id="SVGID_00000137815564312245094050000015891790549188326817_" gradientUnits="userSpaceOnUse" x1="-5843.6621" y1="3169.238" x2="-5861.4941" y2="3029.8271" gradientTransform="matrix(-1 0 0 1 -3026.863 0)">
					<stop  offset="0" style="stop-color:#FEBBBA"/>
					<stop  offset="1" style="stop-color:#FF928E"/>
				</linearGradient>
				<path style="fill:url(#SVGID_00000137815564312245094050000015891790549188326817_);" d="M2858.2,3093.5c0,0-8.2,36.5-14.6,60.6
					c-1.2,4.4-5.8,6.8-10.1,5.3c-12.7-4.5-23.1-6.6-30.6-5.5c-3.5,0.5-6.5-2.4-6.6-5.9l-0.8-60.7L2858.2,3093.5z"/>
				
					<linearGradient id="SVGID_00000111167785785767638500000003138178490775809949_" gradientUnits="userSpaceOnUse" x1="-5968.2754" y1="2639.5012" x2="-5419.4209" y2="2639.5012" gradientTransform="matrix(-1 0 0 1 -3026.863 0)">
					<stop  offset="0" style="stop-color:#09005D"/>
					<stop  offset="1" style="stop-color:#1A0F91"/>
				</linearGradient>
				<path style="fill:url(#SVGID_00000111167785785767638500000003138178490775809949_);" d="M2641,2271.8l-248.4,757.9
					c0,0,47.6,31.2,70.4,29.9l295.1-609.1c0,0,51.6,375.3,26.6,644.7l84.5,6.4c0,0,137.4-688.5,33.3-924.4L2641,2271.8z"/>
				
					<linearGradient id="SVGID_00000057147006448035955370000000492897879814597008_" gradientUnits="userSpaceOnUse" x1="3540.9683" y1="1296.5061" x2="3054.4253" y2="1978.6694">
					<stop  offset="0" style="stop-color:#09005D"/>
					<stop  offset="1" style="stop-color:#1A0F91"/>
				</linearGradient>
				<path style="fill:url(#SVGID_00000057147006448035955370000000492897879814597008_);" d="M2756.4,2444c0.1,0,0.2,0,0.3,0
					c1.3-0.2,2.3-1.4,2.1-2.7l-9.6-76.5c-0.2-1.3-1.4-2.2-2.7-2.1c-1.3,0.2-2.3,1.4-2.1,2.7l9.6,76.5
					C2754.2,2443.1,2755.2,2444,2756.4,2444z"/>
			</g>
			
				<linearGradient id="SVGID_00000110440876494287599930000015110660525323903406_" gradientUnits="userSpaceOnUse" x1="8265.0664" y1="-17495.7578" x2="7788.5542" y2="-16828.6406" gradientTransform="matrix(-1 0 0 1 -3026.863 0)">
				<stop  offset="0" style="stop-color:#FF928E"/>
				<stop  offset="1" style="stop-color:#FE7062"/>
			</linearGradient>
			<path style="fill:url(#SVGID_00000110440876494287599930000015110660525323903406_);" d="M2594.4,1604.9
				c0,0,201.3,17.9,172.8,161.3c0,0,111.3,209.4,163.3,456c1.7,8-3.7,15.9-11.8,17.2l-335.2,57.4c-9.2,1.6-18.2-4.2-20.5-13.3
				l-80.1-309.5l-31.2,143.9l-99.2-25.8l83.5-422.9C2436,1669.2,2447.7,1607.6,2594.4,1604.9z"/>
			
				<linearGradient id="SVGID_00000131349807296361559160000017164901394683557567_" gradientUnits="userSpaceOnUse" x1="2450.79" y1="1893.5596" x2="2483.7234" y2="1893.5596">
				<stop  offset="0" style="stop-color:#E1473D"/>
				<stop  offset="1" style="stop-color:#E9605A"/>
			</linearGradient>
			<path style="fill:url(#SVGID_00000131349807296361559160000017164901394683557567_);" d="M2481.2,1960.2c0.2,0,0.4,0,0.5-0.1
				c1.3-0.3,2.2-1.6,1.9-3l-27.9-128.3c-0.3-1.3-1.6-2.2-3-1.9c-1.3,0.3-2.2,1.6-1.9,3l27.9,128.3
				C2479,1959.4,2480.1,1960.2,2481.2,1960.2z"/>
			
				<linearGradient id="SVGID_00000104669441244014678940000016919967051270557866_" gradientUnits="userSpaceOnUse" x1="-5708.8906" y1="2253.6089" x2="-5458.9712" y2="2253.6089" gradientTransform="matrix(-1 0 0 1 -3026.863 0)">
				<stop  offset="0" style="stop-color:#FEBBBA"/>
				<stop  offset="1" style="stop-color:#FF928E"/>
			</linearGradient>
			<path style="fill:url(#SVGID_00000104669441244014678940000016919967051270557866_);" d="M2501.5,2342
				c10.6-5.8,22.9-7.4,34.6-4.5l23.3,5.8c5,1.2,9.9-2.2,10.4-7.3l24.1-214.8c30.2,14.3,73.7,12.6,88.1,11.6l-55.5,253.2h-194.4
				L2501.5,2342z"/>
			
				<linearGradient id="SVGID_00000079477369640038852110000014162165105887948167_" gradientUnits="userSpaceOnUse" x1="-5478.584" y1="1940.3208" x2="-5011.8721" y2="1940.3208" gradientTransform="matrix(-1 0 0 1 -3026.863 0)">
				<stop  offset="0" style="stop-color:#FEBBBA"/>
				<stop  offset="1" style="stop-color:#FF928E"/>
			</linearGradient>
			<path style="fill:url(#SVGID_00000079477369640038852110000014162165105887948167_);" d="M1985,1876l5.9-19.5
				c3.4-11.2,11.7-20.3,22.6-24.7l106.3-42.7c0,0,1.6-13.6-22.5-22.9c-24.1-9.3-18.4-36.2-18.4-36.2s32.9,15,81,38.8
				c27.5,13.6,43,37.6,51.1,55.7l240.8,293.5l-28.3,19.4c-37.2,25.5-88.3,13-109.4-26.9l-130.4-250.1
				C2118.1,1880.1,2051.8,1883.8,1985,1876z"/>
			<g>
				
					<linearGradient id="SVGID_00000137126772541279880530000007610678046158924947_" gradientUnits="userSpaceOnUse" x1="-5646.6079" y1="1678.5582" x2="-5484.1807" y2="1511.9126" gradientTransform="matrix(-1 0 0 1 -3026.863 0)">
					<stop  offset="0" style="stop-color:#FEBBBA"/>
					<stop  offset="1" style="stop-color:#FF928E"/>
				</linearGradient>
				<path style="fill:url(#SVGID_00000137126772541279880530000007610678046158924947_);" d="M2529.2,1468l61.9,173.3
					c0,0-54.8,42.9-94.8,28.4l-31.2-99.3C2465.1,1570.3,2488.9,1448.9,2529.2,1468z"/>
				<g>
					
						<linearGradient id="SVGID_00000173866065428240973090000015946870499341768602_" gradientUnits="userSpaceOnUse" x1="-5411.0483" y1="1406.9165" x2="-5613.5542" y2="1674.8148" gradientTransform="matrix(-1 0 0 1 -3026.863 0)">
						<stop  offset="0" style="stop-color:#FEBBBA"/>
						<stop  offset="1" style="stop-color:#FF928E"/>
					</linearGradient>
					<path style="fill:url(#SVGID_00000173866065428240973090000015946870499341768602_);" d="M2344.4,1405.7
						c0,2.7,59.6,168.8,59.6,168.8l94.1-36.1l-33.1-165.9C2465.1,1372.6,2344.4,1361,2344.4,1405.7z"/>
					
						<linearGradient id="SVGID_00000097483221503309434800000008202350202218184332_" gradientUnits="userSpaceOnUse" x1="-5565.7051" y1="1471.54" x2="-5323.8086" y2="1471.54" gradientTransform="matrix(-1 0 0 1 -3026.863 0)">
						<stop  offset="0" style="stop-color:#09005D"/>
						<stop  offset="1" style="stop-color:#1A0F91"/>
					</linearGradient>
					<path style="fill:url(#SVGID_00000097483221503309434800000008202350202218184332_);" d="M2448.6,1413l24.3,85.9
						c0.3,1.1,0.5,2.2,0.5,3.4c0,7-1.7,31.1-26.3,27.9c-22.3-3-42.7-5.4-55.7,0.7c-5.8,2.7-8.6,9.4-6.4,15.5
						c5.4,15.1,18.3,48.9,33.9,76.5c3.2,5.6,10.1,7.8,16,5.1c17.7-8,54.5-26.1,80.7-47.5c3.6-2.9,5.3-7.5,4.4-12
						c-4.1-22-16.4-88.9-17-108c-0.5-18,19.7-31.7,28.6-36.9c2.9-1.7,5-4.5,5.8-7.8c2.8-11.6,5.2-37.8-28.3-43.6
						c-7-1.2-11.6-7.9-10.1-14.9c2.8-13.8,1.9-34.2-24.4-41.7c-26.7-7.6-43.5,8.5-52.1,20.8c-3.5,5-9.9,6.6-15.5,4.1
						c-3.2-1.4-7-1.5-11.1,2c-5.5,4.7-13.9,3.2-18-2.7c-7.8-11.5-22-22.9-45.9-15.2c-42.5,13.8-40.5,62.8-24.9,89.5
						c15.6,26.7,60.9,9.1,82.3-8.5c16.3-13.4,41.1-5.4,52.1-0.8C2445,1406.4,2447.6,1409.4,2448.6,1413z"/>
					
						<linearGradient id="SVGID_00000109013763564142206240000012708999491941497781_" gradientUnits="userSpaceOnUse" x1="-5707.6396" y1="1619.0708" x2="-5545.2139" y2="1452.4263" gradientTransform="matrix(-1 0 0 1 -3026.863 0)">
						<stop  offset="0" style="stop-color:#FEBBBA"/>
						<stop  offset="1" style="stop-color:#FF928E"/>
					</linearGradient>
					<path style="fill:url(#SVGID_00000109013763564142206240000012708999491941497781_);" d="M2511.6,1492c0,0-25.2-47.6-8.5-62.6
						c16.6-15,44.8-12.5,44.1,24.7C2546.2,1500.5,2511.6,1492,2511.6,1492z"/>
				</g>
			</g>
			
				<linearGradient id="SVGID_00000010992172882545333510000001509843116371445379_" gradientUnits="userSpaceOnUse" x1="2579.3152" y1="1962.9562" x2="2762.2288" y2="1962.9562">
				<stop  offset="0" style="stop-color:#E1473D"/>
				<stop  offset="1" style="stop-color:#E9605A"/>
			</linearGradient>
			<path style="fill:url(#SVGID_00000010992172882545333510000001509843116371445379_);" d="M2662.5,2136c13.7,0,23.5-1,24.6-1.2
				l1.8-0.2l73.3-341.7c0.3-1.3-0.6-2.7-1.9-3c-1.4-0.3-2.7,0.6-3,1.9l-72.5,338.2c-10.9,1-69.2,4.8-99.9-17l63.5-296.9l-13.3-25
				c-0.6-1.2-2.2-1.7-3.4-1c-1.2,0.6-1.7,2.2-1,3.4l12.4,23.4l-63.8,298.2l1.3,1C2602.8,2132.8,2638.6,2136,2662.5,2136z"/>
		</g>
		<g>
			<path class="st38" d="M2261.5,2435.4c1.9,6.5,184.9,568.8,231.3,711.3c5.3,16.4-9.6,32.6-30.1,32.6c-14.3,0-26.8-8.1-30.3-19.6
				l-203.2-674.8L2261.5,2435.4z"/>
			<path class="st38" d="M2161.3,2435.4c-1.9,6.5-184.9,568.8-231.3,711.3c-5.3,16.4,9.6,32.6,30.1,32.6c14.3,0,26.8-8.1,30.3-19.6
				l203.2-674.8L2161.3,2435.4z"/>
			<path class="st38" d="M2153.6,2413h114v91.5c0,13.2-10.5,23.8-23.5,23.8h-15.6v205.6c0,10-8,18-17.8,18s-17.8-8.1-17.8-18v-205.6
				h-7.9c-17.3,0-31.2-14.2-31.2-31.6V2413z"/>
			<path class="st38" d="M2615.9,2391h-797.6c-11.1,0-20.9,6.1-23.7,14.8l-11.1,34.8c-4,12.5,7.8,24.7,23.8,24.7l818.4-3.8
				c15.9-0.1,27.4-12.1,23.6-24.6l-9.7-31C2636.8,2397.1,2627.1,2391,2615.9,2391z"/>
		</g>
	</g>
</g>
</svg>
