<svg xmlns="http://www.w3.org/2000/svg" xmlns:xlink="http://www.w3.org/1999/xlink" viewBox="0 0 2809.45 2800"><defs><style>.cls-1{fill:url(#linear-gradient);}.cls-2{fill:#91b3fa;}.cls-3{fill:#bdd0fb;}.cls-4{fill:url(#linear-gradient-2);}.cls-5{fill:url(#linear-gradient-3);}.cls-6{fill:url(#linear-gradient-4);}.cls-7{fill:#7d97f4;}.cls-16,.cls-8{fill:#fff;}.cls-9{fill:url(#linear-gradient-5);}.cls-10{fill:url(#linear-gradient-6);}.cls-11{fill:url(#linear-gradient-7);}.cls-12{fill:url(#linear-gradient-8);}.cls-13{fill:url(#linear-gradient-9);}.cls-14{fill:url(#linear-gradient-10);}.cls-15{fill:url(#linear-gradient-11);}.cls-16{opacity:0.78;isolation:isolate;}.cls-17{fill:url(#linear-gradient-12);}.cls-18{fill:url(#linear-gradient-13);}.cls-19{fill:url(#linear-gradient-14);}.cls-20{fill:url(#linear-gradient-15);}.cls-21{fill:url(#linear-gradient-16);}.cls-22{fill:url(#linear-gradient-17);}.cls-23{fill:url(#linear-gradient-18);}.cls-24{fill:url(#linear-gradient-19);}.cls-25{fill:url(#linear-gradient-20);}.cls-26{fill:url(#linear-gradient-21);}.cls-27{fill:url(#linear-gradient-22);}.cls-28{fill:url(#linear-gradient-23);}.cls-29{fill:url(#linear-gradient-24);}.cls-30{fill:url(#linear-gradient-25);}.cls-31{fill:url(#linear-gradient-26);}.cls-32{fill:url(#linear-gradient-27);}.cls-33{fill:url(#linear-gradient-28);}.cls-34{fill:url(#linear-gradient-29);}.cls-35{fill:url(#linear-gradient-30);}.cls-36{fill:url(#linear-gradient-31);}.cls-37{fill:url(#linear-gradient-32);}.cls-38{fill:url(#linear-gradient-33);}.cls-39{fill:url(#linear-gradient-34);}.cls-40{fill:url(#linear-gradient-35);}.cls-41{fill:url(#linear-gradient-36);}.cls-42{fill:#f8a570;}.cls-43{fill:url(#linear-gradient-37);}.cls-44{fill:url(#linear-gradient-38);}.cls-45{fill:url(#linear-gradient-39);}</style><linearGradient id="linear-gradient" x1="3098.36" y1="-767.67" x2="647.23" y2="2276.47" gradientTransform="matrix(1, 0, 0, -1, 0, 2800)" gradientUnits="userSpaceOnUse"><stop offset="0" stop-color="#dae3fe"/><stop offset="1" stop-color="#e9effd"/></linearGradient><linearGradient id="linear-gradient-2" x1="2166.83" y1="2961.26" x2="1461.76" y2="649.42" gradientTransform="matrix(1, 0, 0, -1, 0, 2800)" gradientUnits="userSpaceOnUse"><stop offset="0" stop-color="#ff928e"/><stop offset="1" stop-color="#fe7062"/></linearGradient><linearGradient id="linear-gradient-3" x1="798.45" y1="1371.4" x2="1366.92" y2="1371.4" gradientTransform="matrix(1, 0, 0, -1, 0, 2800)" gradientUnits="userSpaceOnUse"><stop offset="0" stop-color="#febbba"/><stop offset="1" stop-color="#ff928e"/></linearGradient><linearGradient id="linear-gradient-4" x1="1617.54" y1="1479.01" x2="2243.13" y2="2438.25" gradientTransform="matrix(1, 0, 0, -1, 0, 2800)" gradientUnits="userSpaceOnUse"><stop offset="0" stop-color="#4f52ff"/><stop offset="1" stop-color="#4042e2"/></linearGradient><linearGradient id="linear-gradient-5" x1="1802.85" y1="1376.45" x2="1890.99" y2="2162.88" xlink:href="#linear-gradient-3"/><linearGradient id="linear-gradient-6" x1="2787.54" y1="1954.81" x2="1838.4" y2="-45.17" xlink:href="#linear-gradient-4"/><linearGradient id="linear-gradient-7" x1="1997.33" y1="9.37" x2="1448.19" y2="1046.65" xlink:href="#linear-gradient-4"/><linearGradient id="linear-gradient-8" x1="1653.33" y1="1341.92" x2="649.95" y2="101.25" xlink:href="#linear-gradient-4"/><linearGradient id="linear-gradient-9" x1="757.85" y1="223.92" x2="-173.84" y2="1185.41" xlink:href="#linear-gradient-4"/><linearGradient id="linear-gradient-10" x1="2752.49" y1="1608.38" x2="2923.59" y2="1806.98" gradientTransform="matrix(0.74, 0.68, 0.68, -0.74, -1545.92, -37.45)" gradientUnits="userSpaceOnUse"><stop offset="0" stop-color="#e1473d"/><stop offset="1" stop-color="#e9605a"/></linearGradient><linearGradient id="linear-gradient-11" x1="3015.97" y1="1954.6" x2="2510.02" y2="1190.26" gradientTransform="matrix(0.74, 0.68, 0.68, -0.74, -1554.94, -33.21)" xlink:href="#linear-gradient-2"/><linearGradient id="linear-gradient-12" x1="1810.74" y1="2015.05" x2="1895.48" y2="2530.29" xlink:href="#linear-gradient-2"/><linearGradient id="linear-gradient-13" x1="2977.93" y1="1763.5" x2="3257.16" y2="2087.61" gradientTransform="matrix(1, -0.04, -0.04, -1, -1016.13, 2543.2)" xlink:href="#linear-gradient-10"/><linearGradient id="linear-gradient-14" x1="3410.48" y1="2326.88" x2="2584.78" y2="1079.48" gradientTransform="matrix(1, -0.04, -0.04, -1, -1019.79, 2552.8)" xlink:href="#linear-gradient-2"/><linearGradient id="linear-gradient-15" x1="1064.43" y1="-614.95" x2="1203.41" y2="-113.3" gradientTransform="matrix(0.98, 0.22, 0.22, -0.98, -231.52, 2264.86)" xlink:href="#linear-gradient-2"/><linearGradient id="linear-gradient-16" x1="3109.34" y1="1294.27" x2="3396.67" y2="1627.78" gradientTransform="matrix(1, -0.04, -0.04, -1, -1019.79, 2552.81)" xlink:href="#linear-gradient-10"/><linearGradient id="linear-gradient-17" x1="3556.6" y1="1869.82" x2="2706.96" y2="586.27" gradientTransform="matrix(0.74, 0.68, 0.68, -0.74, -1298, -329.65)" xlink:href="#linear-gradient-2"/><linearGradient id="linear-gradient-18" x1="904.59" y1="-729.57" x2="1152.03" y2="-192.32" gradientTransform="matrix(0.98, 0.22, 0.22, -0.98, -231.52, 2264.86)" xlink:href="#linear-gradient-2"/><linearGradient id="linear-gradient-19" x1="3439.37" y1="1713.89" x2="3669.17" y2="1980.61" gradientTransform="matrix(1, -0.04, -0.04, -1, -1016.3, 2543.33)" xlink:href="#linear-gradient-10"/><linearGradient id="linear-gradient-20" x1="3793.08" y1="2178.99" x2="3113.57" y2="1152.45" gradientTransform="matrix(0.74, 0.68, 0.68, -0.74, -1483.79, -615.9)" xlink:href="#linear-gradient-2"/><linearGradient id="linear-gradient-21" x1="1325.63" y1="-545.83" x2="1500.19" y2="-28.92" gradientTransform="matrix(0.98, 0.22, 0.22, -0.98, -231.52, 2264.86)" xlink:href="#linear-gradient-2"/><linearGradient id="linear-gradient-22" x1="447.2" y1="80.42" x2="684.83" y2="80.42" gradientTransform="matrix(1, 0, 0, -1, 0, 2800)" gradientUnits="userSpaceOnUse"><stop offset="0" stop-color="#53d8ff"/><stop offset="1" stop-color="#3840f7"/></linearGradient><linearGradient id="linear-gradient-23" x1="447.18" y1="126.99" x2="678.15" y2="126.99" gradientTransform="matrix(1, 0, 0, -1, 0, 2800)" gradientUnits="userSpaceOnUse"><stop offset="0" stop-color="#09005d"/><stop offset="1" stop-color="#1a0f91"/></linearGradient><linearGradient id="linear-gradient-24" x1="469.14" y1="192.01" x2="536.09" y2="192.01" xlink:href="#linear-gradient-3"/><linearGradient id="linear-gradient-25" x1="22.99" y1="21.48" x2="114.07" y2="21.48" xlink:href="#linear-gradient-22"/><linearGradient id="linear-gradient-26" x1="23.67" y1="112.11" x2="157.36" y2="112.11" xlink:href="#linear-gradient-23"/><linearGradient id="linear-gradient-27" x1="93.2" y1="226.93" x2="173.16" y2="226.93" xlink:href="#linear-gradient-3"/><linearGradient id="linear-gradient-28" x1="-1443.57" y1="-1095.65" x2="1566.56" y2="1670.42" xlink:href="#linear-gradient-23"/><linearGradient id="linear-gradient-29" x1="525.68" y1="884.08" x2="588.06" y2="1006.4" xlink:href="#linear-gradient-4"/><linearGradient id="linear-gradient-30" x1="1193.58" y1="1912.18" x2="876.71" y2="1499.94" xlink:href="#linear-gradient-3"/><linearGradient id="linear-gradient-31" x1="-79.75" y1="759.58" x2="632.1" y2="1593.47" xlink:href="#linear-gradient-2"/><linearGradient id="linear-gradient-32" x1="1325.35" y1="2579.13" x2="267.73" y2="972.37" gradientTransform="matrix(1, 0, 0, -1, 0, 2800)" xlink:href="#linear-gradient-10"/><linearGradient id="linear-gradient-33" x1="505.33" y1="1584.42" x2="518.89" y2="1909.84" xlink:href="#linear-gradient-3"/><linearGradient id="linear-gradient-34" x1="581.11" y1="1979.64" x2="383.32" y2="1828.3" xlink:href="#linear-gradient-3"/><linearGradient id="linear-gradient-35" x1="441.88" y1="2099.48" x2="626.09" y2="1862.31" xlink:href="#linear-gradient-23"/><linearGradient id="linear-gradient-36" x1="556.55" y1="2011.72" x2="358.76" y2="1860.39" xlink:href="#linear-gradient-3"/><linearGradient id="linear-gradient-37" x1="323.89" y1="1029.8" x2="839.14" y2="1694.2" xlink:href="#linear-gradient-3"/><linearGradient id="linear-gradient-38" x1="-421.12" y1="1290.88" x2="-733.87" y2="1205.17" gradientTransform="matrix(-1, -0.05, 0.05, -1, -51.83, 2805.2)" xlink:href="#linear-gradient-23"/><linearGradient id="linear-gradient-39" x1="-867.33" y1="1465.34" x2="-1087.93" y2="1232.17" gradientTransform="translate(-13.3 2800) rotate(180)" xlink:href="#linear-gradient-23"/></defs><title>Asset 4</title><g id="Layer_2" data-name="Layer 2"><g id="Layer_1-2" data-name="Layer 1"><g id="Illustration"><path class="cls-1" d="M2424,2367.18c-56.3,59.27-109.57,97.5-151.66,127.7-494.75,355-1080.17,251.51-1204.59,226.24-183.72-37.32-538.86-109.45-795.62-411.39-388.46-456.82-328-1176.52-26.66-1651.6,55.12-86.9,346.25-569.22,938-646.57C1541.61-35.25,1959,59.16,2261.34,312.42,2895.85,844.05,2850.72,1918,2424,2367.18Z"/><path class="cls-2" d="M783.05,179.83a3.71,3.71,0,0,1-3.16-1.41c-3-3.82-6-7.6-9.15-11.26a3.67,3.67,0,1,1,5.58-4.77c3.2,3.74,6.35,7.62,9.38,11.53a3.68,3.68,0,0,1-.65,5.15h0A3.73,3.73,0,0,1,783.05,179.83Z"/><path class="cls-2" d="M560.15,677.65c-5.55.45-11.28.63-16.87.71a3.67,3.67,0,0,1-3.73-3.61h0a3.71,3.71,0,0,1,3.62-3.73c5.46-.08,11.09-.35,16.47-.7,4-.28,8.06-.64,12.1-1.09a3.56,3.56,0,0,1,4,3.08.88.88,0,0,1,0,.17,3.67,3.67,0,0,1-3.25,4C568.4,677,564.23,677.36,560.15,677.65Zm58.48-9.83a3.67,3.67,0,0,1-1.21-7.21c8.9-2.39,17.83-5.23,26.53-8.43l.76-.28a3.68,3.68,0,0,1,2.54,6.9l-.76.27c-8.91,3.28-18,6.19-27.16,8.63a2.78,2.78,0,0,1-.7.12ZM689,639.39a3.68,3.68,0,0,1-2-6.88c8.34-4.62,16.53-9.69,24.35-15a3.67,3.67,0,0,1,4.15,6.06h0c-8,5.48-16.4,10.67-24.93,15.4A3.9,3.9,0,0,1,689,639.39Zm61.29-44.7a3.67,3.67,0,0,1-2.77-6.34c6.92-6.5,13.62-13.41,19.91-20.55a3.67,3.67,0,1,1,5.51,4.86c-6.44,7.31-13.3,14.38-20.39,21a3.64,3.64,0,0,1-2.26,1Zm48.45-58.34a3.67,3.67,0,0,1-3.34-5.65c5.13-8,10-16.33,14.32-24.78a3.67,3.67,0,1,1,6.56,3.29l0,.08c-4.47,8.66-9.4,17.19-14.66,25.38A3.7,3.7,0,0,1,798.72,536.35ZM831.63,468a3.86,3.86,0,0,1-1.43-.19,3.68,3.68,0,0,1-2.31-4.65c3-9,5.7-18.28,7.89-27.52a3.67,3.67,0,0,1,7.15,1.69c-2.24,9.46-5,19-8.08,28.18A3.69,3.69,0,0,1,831.63,468Zm15.29-74.33h-.55a3.68,3.68,0,0,1-3.38-3.95v-.05c.76-9.5,1.07-19.13.93-28.62a3.61,3.61,0,0,1,3.52-3.72h.1a3.66,3.66,0,0,1,3.72,3.61c.14,9.73-.17,19.59-1,29.31a3.66,3.66,0,0,1-3.35,3.38Zm-3.38-75.83a3.67,3.67,0,0,1-3.87-3c-1.59-9.37-3.65-18.78-6.12-28a3.67,3.67,0,1,1,7.1-1.9c2.52,9.41,4.63,19,6.26,28.64a3.68,3.68,0,0,1-3,4.24h0Zm-21.76-72.71a3.68,3.68,0,0,1-3.62-2.19c-3.83-8.74-8.1-17.37-12.69-25.66a3.67,3.67,0,1,1,6.43-3.56c4.7,8.48,9.07,17.32,13,26.27a3.69,3.69,0,0,1-1.89,4.84,4,4,0,0,1-1.23.26Z"/><path class="cls-2" d="M496.35,675.44a5,5,0,0,1-.77,0c-4.86-.68-9.79-1.49-14.65-2.4a3.67,3.67,0,1,1,1.35-7.22h0c4.75.89,9.57,1.68,14.32,2.34a3.67,3.67,0,0,1-.25,7.3Z"/><path class="cls-2" d="M287.61,549.49a3.66,3.66,0,0,1-3.24-1.53c-2.85-4-5.67-8.1-8.37-12.28a3.68,3.68,0,1,1,6.17-4c2.63,4.08,5.38,8.11,8.17,12a3.68,3.68,0,0,1-2.73,5.81Z"/><path class="cls-2" d="M257.19,496.7a3.69,3.69,0,0,1-3.6-2.16c-3.09-6.84-6-13.9-8.58-21-.71-1.94-1.4-3.89-2.08-5.83a3.67,3.67,0,1,1,6.94-2.41c.66,1.9,1.34,3.81,2,5.71,2.54,6.89,5.36,13.78,8.37,20.47a3.66,3.66,0,0,1-1.81,4.85h0A3.73,3.73,0,0,1,257.19,496.7ZM234.8,425.46a3.68,3.68,0,0,1-3.86-3c-1.75-9.42-3.08-19-4-28.57a3.68,3.68,0,0,1,3.32-4,3.74,3.74,0,0,1,4,3.33c.85,9.32,2.15,18.7,3.86,27.9a3.67,3.67,0,0,1-2.94,4.28h0a2.5,2.5,0,0,1-.38.06Zm-4.63-74.54h-.45a3.68,3.68,0,0,1-3.45-3.89c.57-9.56,1.6-19.21,3.06-28.68a3.67,3.67,0,1,1,7.26,1.12c-1.42,9.24-2.43,18.66-3,28a3.66,3.66,0,0,1-3.42,3.45Zm13.46-73.44a3.69,3.69,0,0,1-3.92-3.43,3.74,3.74,0,0,1,.16-1.33c2.85-9.14,6.16-18.26,9.84-27.1a3.67,3.67,0,0,1,6.82,2.71l0,.1c-3.59,8.64-6.82,17.55-9.61,26.48a3.68,3.68,0,0,1-3.25,2.57Zm30.62-68.09a3.67,3.67,0,0,1-3.92-3.4,3.71,3.71,0,0,1,.52-2.16c5-8.2,10.34-16.26,16-24a3.67,3.67,0,1,1,5.91,4.36c-5.55,7.54-10.81,15.41-15.64,23.41a3.66,3.66,0,0,1-2.87,1.79Zm46-58.79a3.67,3.67,0,0,1-2.85-6.26c6.75-6.77,13.92-13.3,21.29-19.43a3.67,3.67,0,0,1,4.7,5.65c-7.2,6-14.2,12.37-20.8,19a3.73,3.73,0,0,1-2.34,1Zm58.79-46a3.67,3.67,0,0,1-2.15-6.81c8.2-4.94,16.73-9.55,25.36-13.71a3.67,3.67,0,0,1,3.19,6.61c-8.42,4.07-16.76,8.57-24.77,13.4a3.9,3.9,0,0,1-1.63.52Zm68.12-30.53a3.67,3.67,0,0,1-1.34-7.17c9.15-2.85,18.54-5.31,27.9-7.3a3.67,3.67,0,0,1,1.53,7.18c-9.14,2-18.31,4.35-27.25,7.13a3.39,3.39,0,0,1-.84.17Zm102-13.78h-.44c-9.36-.32-18.84-.2-28.16.35a3.67,3.67,0,0,1-.47-7.33h0c9.56-.57,19.27-.69,28.86-.36a3.67,3.67,0,0,1,.13,7.33Z"/><path class="cls-2" d="M609.66,68.42a4.06,4.06,0,0,1-1.1-.09c-4.67-1.11-9.44-2.12-14.19-3a3.67,3.67,0,1,1,1.35-7.22h0c4.86.91,9.75,1.94,14.53,3.08a3.67,3.67,0,0,1-.59,7.24Z"/><path class="cls-2" d="M621.66,143.21a3.7,3.7,0,0,0-4.25.67l-32.29,31.55a196.63,196.63,0,0,0-63.55-4.6L494.17,135a3.7,3.7,0,0,0-4.11-1.27l-51.34,17.06a3.72,3.72,0,0,0-2.55,3.48l-.51,45.11a196.64,196.64,0,0,0-48.16,41.71l-44.75-6a3.69,3.69,0,0,0-3.81,2l-24.27,48.4a3.71,3.71,0,0,0,.67,4.26L346.89,322a196.63,196.63,0,0,0-4.6,63.55L306.4,413a3.71,3.71,0,0,0-1.27,4.12l17.07,51.39a3.72,3.72,0,0,0,3.48,2.54l45.11.52a197.25,197.25,0,0,0,41.71,48.16l-6,44.75a3.69,3.69,0,0,0,2,3.8l48.4,24.27a3.73,3.73,0,0,0,4.26-.66l32.28-31.56A196.91,196.91,0,0,0,557,564.94l27.41,35.84a3.7,3.7,0,0,0,4.11,1.27L639.9,585a3.72,3.72,0,0,0,2.54-3.48l.51-45.11a196.75,196.75,0,0,0,48.17-41.72l44.75,6a3.7,3.7,0,0,0,3.8-2l24.27-48.41a3.69,3.69,0,0,0-.66-4.25l-31.56-32.29a196.63,196.63,0,0,0,4.61-63.55l35.84-27.4a3.7,3.7,0,0,0,1.27-4.11l-17.07-51.39a3.72,3.72,0,0,0-3.48-2.55l-45.11-.51A196.71,196.71,0,0,0,666.11,216l6-44.75a3.71,3.71,0,0,0-2-3.81Z"/><path class="cls-3" d="M543.07,421.38a54.22,54.22,0,0,1-15.35-1.15A53.34,53.34,0,1,1,543,421.38Zm-6.75-96a42.65,42.65,0,1,0,12.17.91,42.65,42.65,0,0,0-12.17-.91Z"/><path class="cls-3" d="M548,504.89A136.2,136.2,0,0,1,496,239.73c.91-.29,1.81-.59,2.72-.86a135.92,135.92,0,0,1,22.74-5c1-.13,1.91-.24,2.87-.35l1.19,11a125.75,125.75,0,0,0-26,5.69h0a124.24,124.24,0,0,0-70,58q-1.29,2.32-2.49,4.71a124.41,124.41,0,0,0-13,64.48A125.18,125.18,0,1,0,620.6,274.16l7.18-8.36a136.43,136.43,0,0,1,47,93.79C679,420.1,642,478.26,581.84,498.24A137.36,137.36,0,0,1,548,504.89Z"/><path class="cls-2" d="M451,648a4.48,4.48,0,0,1-4-1.89c-3.36-4.77-7-9.43-10.76-13.85a4.49,4.49,0,1,1,6.83-5.84c4,4.63,7.75,9.52,11.28,14.51a4.48,4.48,0,0,1-1.09,6.25h0A4.48,4.48,0,0,1,451,648Z"/><path class="cls-2" d="M333.48,949.73a4.49,4.49,0,0,1-1.26-8.87,193,193,0,0,0,25.28-7.38q4.38-1.62,8.62-3.41a4.49,4.49,0,0,1,3.5,8.27h0c-2.95,1.26-6,2.44-9,3.57a203.15,203.15,0,0,1-26.48,7.73A3.74,3.74,0,0,1,333.48,949.73Zm84.92-42a4.49,4.49,0,0,1-3.23-7.89,188.34,188.34,0,0,0,24.74-25.53,4.49,4.49,0,0,1,7.15,5.43l-.15.19A198.52,198.52,0,0,1,421,906.67a4.46,4.46,0,0,1-2.59,1Zm54.84-77.25a4.44,4.44,0,0,1-1.94-.29,4.5,4.5,0,0,1-2.55-5.82,190.26,190.26,0,0,0,9.77-34.21,4.49,4.49,0,0,1,8.83,1.65h0a200.88,200.88,0,0,1-10.23,35.82,4.5,4.5,0,0,1-3.88,2.8Zm11.85-94a4.5,4.5,0,0,1-4.77-3.93,189.17,189.17,0,0,0-7.64-34.74,4.5,4.5,0,0,1,8.56-2.75,198.5,198.5,0,0,1,8,36.39,4.5,4.5,0,0,1-3.91,5Z"/><path class="cls-2" d="M274.36,953.33h-.73c-6.09-.57-12.21-1.43-18.2-2.56a4.49,4.49,0,0,1,1.67-8.83c5.71,1.08,11.55,1.9,17.36,2.44a4.5,4.5,0,0,1-.1,9Z"/><path class="cls-2" d="M134.54,873.19a4.51,4.51,0,0,1-4-1.86c-3.55-5-6.91-10.14-10-15.43a4.49,4.49,0,0,1,7.75-4.53c3,5,6.16,10,9.55,14.72a4.5,4.5,0,0,1-1.05,6.27,4.55,4.55,0,0,1-2.29.83Z"/><path class="cls-2" d="M103.24,804.18a4.51,4.51,0,0,1-4.68-3.46,197.65,197.65,0,0,1-4.78-31.64c-.11-1.56-.2-3.11-.27-4.66a4.64,4.64,0,0,1,4.29-4.69,4.48,4.48,0,0,1,4.68,4.27v0c.07,1.48.16,3,.26,4.44a190.3,190.3,0,0,0,4.56,30.21,4.49,4.49,0,0,1-3.34,5.4A6,6,0,0,1,103.24,804.18Zm1.18-93.2a4.67,4.67,0,0,1-1.44-.14,4.48,4.48,0,0,1-3.22-5.46v0a200.6,200.6,0,0,1,12.48-34.43,4.49,4.49,0,0,1,8.13,3.83,191.07,191.07,0,0,0-11.92,32.88,4.49,4.49,0,0,1-4,3.36Zm44.45-81.92a4.49,4.49,0,0,1-3.63-7.5,197.27,197.27,0,0,1,27.07-24.68,4.49,4.49,0,0,1,5.41,7.17h0a187.94,187.94,0,0,0-25.84,23.56A4.47,4.47,0,0,1,148.87,629.06Zm77.5-51.72a4.49,4.49,0,0,1-1.83-8.7A199.74,199.74,0,0,1,260,559.39a4.4,4.4,0,0,1,5.14,3.51l0,.2a4.49,4.49,0,0,1-3.71,5.15,192,192,0,0,0-33.85,8.84,4.56,4.56,0,0,1-1.22.25Z"/><path class="cls-2" d="M336.87,571a4.71,4.71,0,0,1-1.35-.11c-5.67-1.34-11.47-2.44-17.23-3.25a4.49,4.49,0,1,1,1-8.92l.21,0c6,.85,12.11,2,18,3.4a4.49,4.49,0,0,1-.72,8.85Z"/><path class="cls-2" d="M344.26,615.77a2.33,2.33,0,0,0-2.68.42L321.3,636a123.52,123.52,0,0,0-39.92-2.89l-17.22-22.52a2.32,2.32,0,0,0-2.59-.79l-32.28,10.72a2.32,2.32,0,0,0-1.6,2.19l-.32,28.34a123.69,123.69,0,0,0-30.26,26.2L169,673.5a2.31,2.31,0,0,0-2.39,1.27l-15.25,30.41a2.34,2.34,0,0,0,.42,2.67l19.82,20.29a123.52,123.52,0,0,0-2.89,39.92l-22.52,17.21a2.32,2.32,0,0,0-.79,2.59l10.72,32.29a2.34,2.34,0,0,0,2.19,1.59l28.34.32a123.69,123.69,0,0,0,26.2,30.26l-3.75,28.12a2.34,2.34,0,0,0,1.27,2.39l30.41,15.24a2.32,2.32,0,0,0,2.67-.41l20.27-19.82a123.59,123.59,0,0,0,39.93,2.9l17.21,22.51a2.34,2.34,0,0,0,2.59.8l32.27-10.72a2.34,2.34,0,0,0,1.59-2.19l.32-28.34a123.55,123.55,0,0,0,30.26-26.21L416,840.34a2.32,2.32,0,0,0,2.39-1.26l15.32-30.41a2.34,2.34,0,0,0-.41-2.68l-19.83-20.28a123.26,123.26,0,0,0,2.89-39.92l22.52-17.22a2.33,2.33,0,0,0,.8-2.58L429,693.7a2.36,2.36,0,0,0-2.18-1.6l-28.34-.32a123.76,123.76,0,0,0-26.21-30.26L376,633.41a2.3,2.3,0,0,0-1.26-2.41Z"/><path class="cls-3" d="M295.12,793.77a36.94,36.94,0,0,1-22.48-68h0a37,37,0,1,1,22.48,68Zm-15.23-56.63a23.47,23.47,0,1,0,32.41,7.16h0A23.51,23.51,0,0,0,279.89,737.14Z"/><path class="cls-3" d="M298.22,846.26a88.85,88.85,0,0,1-15.5-177l1.45,13.39A75.6,75.6,0,0,0,226.1,721.5l-.41.76-.81,1.57A75,75,0,0,0,217,762.66a75.38,75.38,0,1,0,124.4-62.16l8.79-10.22a88.9,88.9,0,0,1-52,156Z"/><path class="cls-4" d="M1229.25,1852.14c3,.51,6.09,1,9.15,1.51,462.07,73.06,896.53-246.39,970.39-713.52L1363,1006.39Z"/><path class="cls-5" d="M1366.92,1005.35,798.45,1645.91c115.5,102.69,260.2,175.39,423.74,203.44,5.15.88,10.3,1.7,15.44,2.49Z"/><path class="cls-2" d="M1363,1006.38,524,834.85q-1.62,7.89-3.1,15.84c-56.54,305.81,57,603.67,273.58,796.25Z"/><path class="cls-6" d="M1467.53,935.93,2297.91,1097c75.16-387.46-123.71-764.49-461.42-931L1464.31,929.47a4.55,4.55,0,0,0,2.1,6.08A4.36,4.36,0,0,0,1467.53,935.93Z"/><path class="cls-7" d="M1366.09,1008.24l355.1-777.68c-67.68-32.19-128.17-50.12-205.52-63.91C1154.84,102.34,806.59,274.19,629.5,571.49Z"/><path class="cls-3" d="M629.89,563.87A853.41,853.41,0,0,0,523.4,835.81h0l838.76,172.4Z"/><path class="cls-2" d="M776.59,437.82a6.78,6.78,0,0,1-4.78-11.58A837.19,837.19,0,0,1,1095.72,226C1221,184.11,1356.6,172.94,1488,193.71c11.74,1.86,23.59,4,35.21,6.34a6.78,6.78,0,0,1-2.68,13.29c-11.44-2.31-23.1-4.41-34.65-6.23C1229.06,166.47,965.72,252,781.38,435.84A6.77,6.77,0,0,1,776.59,437.82Z"/><path class="cls-8" d="M791.72,1617.22a6.79,6.79,0,0,1-4.68-1.87c-168.28-160-262.5-384.27-258.5-615.29a6.78,6.78,0,0,1,6.77-6.66h.12a6.78,6.78,0,0,1,6.67,6.9c-3.94,227.23,88.75,447.82,254.29,605.23a6.78,6.78,0,0,1-4.67,11.69Z"/><path class="cls-9" d="M1562.91,1817.66a6.78,6.78,0,0,1-1.69-13.34c164-42.16,309-132.77,419.09-262a6.78,6.78,0,1,1,10.53,8.54l-.21.25c-112,131.39-259.27,223.49-426,266.35A6.63,6.63,0,0,1,1562.91,1817.66Z"/><path class="cls-2" d="M1666.23,606.08a6.79,6.79,0,0,1-6.77-6.81,6.66,6.66,0,0,1,.7-3l193.89-391.8,6.32,3.87c63.74,39,122.46,83.91,184.81,141.35a6.79,6.79,0,0,1-9.19,10c-59.62-54.92-115.84-98.24-176.38-135.86L1672.32,602.3A6.81,6.81,0,0,1,1666.23,606.08Z"/><path class="cls-2" d="M1954.45,999a6.64,6.64,0,0,1-1.26-.12l-437.26-81.7a10.25,10.25,0,0,1-8.2-11.94,10.58,10.58,0,0,1,.9-2.68l39.45-79.69a6.78,6.78,0,1,1,12.37,5.55c-.07.15-.14.3-.22.45l-37.51,75.77,433,80.89a6.78,6.78,0,0,1-1.23,13.45Z"/><path class="cls-10" d="M1794.49,2513.6l517.92-992.24H2206.3c-19.57,0-30.33-22.75-17.92-37.88l552-672.78c23.92-29.16,71.18-10.67,69,27l-38.8,657.9a65.74,65.74,0,0,1-69.49,61.76c-1.21-.07-2.41-.17-3.61-.31l-74-8.47-513.9,1112.87a81.83,81.83,0,0,1-74.29,47.53H1857.18Z"/><path class="cls-11" d="M1366.27,1817.69l365.65,812.24A134.1,134.1,0,0,0,1854.19,2709h188.53a68.82,68.82,0,0,0,60.18-35.44l6.71-12.09h0a53.88,53.88,0,0,1-48-29.39L1574.4,1677.5Z"/><path class="cls-12" d="M1623.61,1773.92h0a80,80,0,0,0-112.36,13.25c-1.32,1.68-2.58,3.42-3.77,5.2l-537.6,807.71a232.25,232.25,0,0,1-193.33,103.56H700.91l-61.57-177.35S1139.13,1760,1267.94,1644c0,0,128.29-115.62,254.77-28.2,33.42,23.09,58.79,56,74.28,93.6Z"/><path class="cls-13" d="M54.63,2049.32s90-112.48,264.37-130c0,0,82.82,28.22,247.83,323.88s274.53,430.5,403,356.86l-10.64,17.66a193.82,193.82,0,0,1-166,93.83H722.12c-78.26,0-146.22-120.55-191.92-184.08C401.78,2349,133.52,2077,54.63,2049.32Z"/><path class="cls-2" d="M2747.07,1045.67h-.58a5.07,5.07,0,0,1-4.48-5.6v0l3.64-32.13a5.08,5.08,0,0,1,10.07,1.08l-3.64,32.12A5.08,5.08,0,0,1,2747.07,1045.67Z"/><path class="cls-2" d="M2286.27,1451.17a5.07,5.07,0,0,1-5.06-5.1,5,5,0,0,1,1.06-3.09l455.82-592.27a19.07,19.07,0,0,1,34.07,13.78l-8,71a5.09,5.09,0,0,1-10.11-1.14l8-71a8.91,8.91,0,0,0-15.91-6.43L2290.32,1449.2A5.09,5.09,0,0,1,2286.27,1451.17Z"/><path class="cls-2" d="M1252.19,2072.07a5.07,5.07,0,0,1-4.21-7.92l235.74-349.44a41.51,41.51,0,0,1,71.93,5.46,5.08,5.08,0,0,1-9.19,4.35,31.35,31.35,0,0,0-54.31-4.12l-235.74,349.43A5.09,5.09,0,0,1,1252.19,2072.07Z"/><path class="cls-2" d="M1190.93,2162.88a5.08,5.08,0,0,1-4.21-7.88l15.12-22.41a5.08,5.08,0,1,1,8.42,5.69h0l-15.11,22.41A5.11,5.11,0,0,1,1190.93,2162.88Z"/><circle class="cls-14" cx="1834.12" cy="613.66" r="127.55" transform="translate(103.28 1476.65) rotate(-45)"/><circle class="cls-15" cx="1834.23" cy="613.81" r="123.31" transform="translate(103.21 1476.77) rotate(-45)"/><path class="cls-16" d="M1730.72,570.92a4,4,0,0,1-1.87-.37,4.11,4.11,0,0,1-2-5.45A117.45,117.45,0,0,1,1829.38,496a119,119,0,0,1,21.34,1,4.12,4.12,0,0,1-1.15,8.16h0a111.67,111.67,0,0,0-19.85-1,109.27,109.27,0,0,0-95.44,64.31A4.13,4.13,0,0,1,1730.72,570.92Z"/><circle class="cls-16" cx="1837.02" cy="616.37" r="104.37" transform="translate(102.21 1479.5) rotate(-45)"/><path class="cls-17" d="M1830,694.32,1829.5,683a92.54,92.54,0,0,1-32.11-5.6,6.57,6.57,0,0,1-4-7.6l2.45-10.69a6.62,6.62,0,0,1,8-5,6.4,6.4,0,0,1,.85.26,76.93,76.93,0,0,0,29.65,5c11.39-.47,19.73-4.68,19.4-12.6-.29-7.14-7-11.12-23-14.72-22.84-5.25-39.47-14.43-40.28-34.31-.74-18,11.83-32.21,34.46-36.81l-.47-11.35a6.62,6.62,0,0,1,6.34-6.88l6.67-.27a6.61,6.61,0,0,1,6.88,6.33h0l.43,10.2a84,84,0,0,1,25.41,3.5,6.59,6.59,0,0,1,4.44,7.77l-2.25,9.88a6.6,6.6,0,0,1-7.89,5,4.91,4.91,0,0,1-.63-.17,69,69,0,0,0-24.93-3.48c-13.51.56-17.15,6.32-16.94,11.34.25,6.18,8.54,10.09,26.33,14.77,25.41,6.5,36.26,16.5,37,35.23.71,17.18-11.4,33.15-36,38l.52,12.7a6.62,6.62,0,0,1-6.34,6.88l-6.67.27A6.63,6.63,0,0,1,1830,694.32Z"/><circle class="cls-18" cx="2158" cy="317.09" r="208.17"/><circle class="cls-19" cx="2158" cy="317.09" r="201.24"/><path class="cls-16" d="M1988.92,244.24a3.92,3.92,0,0,1-1.75-.35,3.86,3.86,0,0,1-1.93-5.09v0a188.82,188.82,0,0,1,165-111.17,191.91,191.91,0,0,1,34.3,1.67,3.87,3.87,0,0,1-1.07,7.66,183,183,0,0,0-32.92-1.61A181.17,181.17,0,0,0,1992.28,242,3.87,3.87,0,0,1,1988.92,244.24Z"/><circle class="cls-16" cx="2162.57" cy="321.29" r="170.33" transform="translate(406.21 1623.27) rotate(-45)"/><path class="cls-20" d="M2151.06,448.49,2150.3,430c-19.33,0-38.61-3.75-52.41-9.13a10.71,10.71,0,0,1-6.44-12.41l4-17.44a10.82,10.82,0,0,1,13-8.1,10.25,10.25,0,0,1,1.4.43c13.68,5.09,30.47,8.87,48.38,8.13,18.59-.76,32.19-7.64,31.66-20.55-.48-11.66-11.47-18.15-37.6-24-37.28-8.57-64.41-23.55-65.74-56-1.21-29.31,19.3-52.56,56.24-60.07l-.76-18.52a10.78,10.78,0,0,1,10.31-11.23h0l10.88-.45A10.8,10.8,0,0,1,2174.44,211l.69,16.62c17.88,0,31,2.5,41.48,5.71a10.74,10.74,0,0,1,7.24,12.68l-3.67,16.13a10.78,10.78,0,0,1-12.87,8.14c-.35-.08-.7-.18-1-.29a112.37,112.37,0,0,0-40.68-5.68c-22.06.91-28,10.31-27.65,18.5.41,10.08,13.93,16.47,43,24.12,41.47,10.6,59.18,26.92,60.44,57.48,1.15,28-18.61,54.11-58.68,62.07l.85,20.72a10.8,10.8,0,0,1-10.35,11.23l-10.88.45a10.82,10.82,0,0,1-11.26-10.34Z"/><circle class="cls-21" cx="2320.54" cy="775.74" r="214.2"/><circle class="cls-22" cx="2320.54" cy="775.74" r="207.08" transform="translate(131.14 1868.08) rotate(-45)"/><path class="cls-16" d="M2146.55,700.68a3.87,3.87,0,0,1-4-3.69,4,4,0,0,1,.35-1.77,194.22,194.22,0,0,1,169.66-114.33,197.23,197.23,0,0,1,35.28,1.73,3.86,3.86,0,1,1-1.07,7.65,187.63,187.63,0,0,0-196.83,108.14A3.86,3.86,0,0,1,2146.55,700.68Z"/><circle class="cls-16" cx="2325.23" cy="780.07" r="175.27"/><path class="cls-23" d="M2313.39,911l-.78-19.06c-19.89,0-39.73-3.85-53.93-9.39a11,11,0,0,1-6.63-12.77l4.11-17.94a11.12,11.12,0,0,1,13.32-8.34,12.32,12.32,0,0,1,1.46.45c14.08,5.23,31.36,9.12,49.79,8.36,19.13-.78,33.13-7.86,32.58-21.15-.49-12-11.81-18.68-38.69-24.72-38.36-8.81-66.28-24.23-67.65-57.63-1.24-30.15,19.86-54.08,57.87-61.81l-.78-19a11.1,11.1,0,0,1,10.62-11.56h0l11.2-.46a11.09,11.09,0,0,1,11.55,10.63v0l.71,17.1c18.4,0,31.91,2.58,42.68,5.87a11.05,11.05,0,0,1,7.45,13l-3.77,16.6a11.08,11.08,0,0,1-13.25,8.36c-.36-.08-.71-.18-1.06-.29a115.75,115.75,0,0,0-41.87-5.83c-22.7.93-28.79,10.6-28.45,19,.43,10.37,14.34,17,44.22,24.81,42.67,10.92,60.89,27.71,62.19,59.16,1.18,28.85-19.15,55.67-60.38,63.86l.87,21.32a11.12,11.12,0,0,1-10.64,11.56l-11.2.46A11.12,11.12,0,0,1,2313.39,911Z"/><circle class="cls-24" cx="2573.04" cy="408.32" r="171.31"/><circle class="cls-25" cx="2573.16" cy="408.35" r="165.61" transform="translate(464.91 1939.1) rotate(-45)"/><path class="cls-16" d="M2434.05,349.44a4.18,4.18,0,0,1-1.91-.37,4.23,4.23,0,0,1-2.1-5.59,156.44,156.44,0,0,1,136.68-92.09,158.78,158.78,0,0,1,28.41,1.38,4.22,4.22,0,0,1-1.17,8.36,150.29,150.29,0,0,0-26.9-1.31A148,148,0,0,0,2437.72,347,4.23,4.23,0,0,1,2434.05,349.44Z"/><circle class="cls-16" cx="2576.9" cy="411.81" r="140.17" transform="translate(463.56 1942.76) rotate(-45)"/><path class="cls-26" d="M2567.44,516.5l-.62-15.24c-15.91,0-31.78-3.09-43.14-7.51a8.83,8.83,0,0,1-5.3-10.22l3.29-14.35a8.87,8.87,0,0,1,11.82-6.31,103.28,103.28,0,0,0,39.82,6.69c15.3-.63,26.49-6.28,26.06-16.91-.4-9.6-9.45-14.94-31-19.77-30.67-7-53-19.38-54.1-46.09-1-24.12,15.89-43.25,46.28-49.44l-.62-15.23a8.89,8.89,0,0,1,8.51-9.25l8.95-.37a8.9,8.9,0,0,1,9.33,8.43V321l.56,13.68c14.72,0,25.52,2.06,34.14,4.69a8.84,8.84,0,0,1,5.95,10.44l-3,13.27a8.85,8.85,0,0,1-10.57,6.7q-.43-.11-.87-.24a92.58,92.58,0,0,0-33.48-4.67c-18.15.75-23,8.48-22.75,15.22.34,8.3,11.46,13.56,35.36,19.85,34.12,8.73,48.7,22.16,49.74,47.31.94,23.08-15.32,44.53-48.3,51.08l.7,17a8.87,8.87,0,0,1-8.49,9.24h0l-9,.37A8.89,8.89,0,0,1,2567.44,516.5Z"/><path class="cls-27" d="M678.15,2708.09c-40.71,3.52-111.37,9.24-167.08,11.69-33.49,1.47-52.76-1.81-63.87-6.25,0,1.25.06,2.43.11,3.53a11.52,11.52,0,0,0,10.94,10.88c105.26,5.88,189,2,218.78.22a8.19,8.19,0,0,0,6.68-12.32A64.34,64.34,0,0,0,678.15,2708.09Z"/><path class="cls-28" d="M511.07,2719.78c55.71-2.45,126.37-8.17,167.08-11.69-40-49.11-167.08-82.21-167.08-82.21H475.19c-24.68,35.57-28.26,69.45-28,87.65C458.31,2718,477.58,2721.25,511.07,2719.78Z"/><path class="cls-29" d="M469.14,2567.3l3.36,66.45a15.19,15.19,0,0,0,13,14.27,59,59,0,0,0,27-2.23,18,18,0,0,0,12-13.79l11.6-64.68Z"/><path class="cls-30" d="M52.66,2784.75c-17.65-3.18-25.64-15-29-27.71a2.05,2.05,0,0,1-.07.34c-2.6,13.37,3.43,27.22,15.47,33.81,14.55,8,30.46,9.32,42.81,8.66a39.6,39.6,0,0,0,32.1-19.13l.1-.17C100.78,2789.05,82.11,2790.06,52.66,2784.75Z"/><path class="cls-31" d="M135.91,2587.77H106.32c-45.08-1.19-73.39,121.68-82.65,169.27,3.35,12.67,11.34,24.53,29,27.71,29.45,5.31,48.12,4.3,61.42-4.2,24.35-41.42,36.43-102.08,42.23-137.48C162.91,2602.81,135.91,2587.77,135.91,2587.77Z"/><path class="cls-32" d="M110.12,2526.09l-16.4,65.36a17.74,17.74,0,0,0,9.23,20.1c9.19,4.72,22.13,9.68,34,8.24a14.82,14.82,0,0,0,12.09-9.88l24.12-68.76Z"/><path class="cls-33" d="M688.18,1665.29s-146.85,917.94-144.43,923c0,0-40.56,18.44-84.78,2.35,0,0,13.28-490.7,44.4-678.85,0,0-250.62,438.59-330.21,657.14,0,0-41.51-4.95-75.87-27.57,0,0,269.85-789.44,341.84-894.59Z"/><path class="cls-34" d="M509.23,1907a4.3,4.3,0,0,1-2.29-.66,4.34,4.34,0,0,1-1.41-6l0,0,54.88-87.66a4.31,4.31,0,0,1,2.82-2l40.38-8.13a4.34,4.34,0,0,1,1.72,8.51l-38.56,7.76L512.91,1905A4.34,4.34,0,0,1,509.23,1907Z"/><path class="cls-35" d="M1362.06,766.44S1263,788.29,1202.7,816.12a55,55,0,0,0-27,27.1c-18,39.49-72,138.5-176.55,185.75,15.06,20,39.32,61.58,49.88,131.47,62.82-46.75,117-124.83,143.08-252.89,0,0,19.83,10.78,44.56-1.23,13.07-6.35,28.16-15.35,39.48-22.43a51.77,51.77,0,0,0,23-30.82c4.31-16.91,1.77-31.78,1.77-47.74l50.93-15.78S1367.17,783.77,1362.06,766.44Z"/><path class="cls-36" d="M1049.08,1160.44c-10.56-69.89-34.82-111.48-49.88-131.47-65,29.36-149.48,38.74-257.11,1.45a114.2,114.2,0,0,0-30.76-6.07C654,1021,465.24,1014.86,309,1066.48a121.41,121.41,0,0,0-73.23,66.66c-42.26,97-110.68,317.85,79.26,429.35a470.75,470.75,0,0,1,45.84-86.75c-30.59-51.59-39.65-122.06,14.63-213.83,39.58,106.88,58.15,262.82,62,331.83a148.42,148.42,0,0,1-11.62,66.38l-1,2.29a7.85,7.85,0,0,0,4.17,10.29,9.21,9.21,0,0,0,1.35.43c106.93,24,218.15,17.5,251.37,14.75A13.71,13.71,0,0,0,694,1677.42c52-219.1,52.12-368.55,39.39-463C782.08,1225.27,930.81,1248.46,1049.08,1160.44Z"/><path class="cls-37" d="M733.65,1220.29a4.36,4.36,0,0,1-4.3-3.77c-12.21-92.25-37.08-132.5-37.32-132.9a4.33,4.33,0,1,1,7.32-4.64h0c1.06,1.66,26.1,42,38.6,136.4a4.34,4.34,0,0,1-3.72,4.87h0Z"/><path class="cls-38" d="M469.72,896.72s-10.81,114.38-20.34,148.21a11.59,11.59,0,0,0,5.45,13.21c16.17,9.23,54.94,24.3,108-1.69a24,24,0,0,0,13.35-22.64l-4.67-110.53Z"/><path class="cls-39" d="M573.86,750.4s34.59,79.48,36.92,121.2,11.31,68.78-36.92,77.18S485,933.15,463,891.6c0,0-34.49-64-26.75-90.25S573.86,750.4,573.86,750.4Z"/><path class="cls-40" d="M479.46,861.72l2.74-1.21a6.63,6.63,0,0,0,3.42-8.72l-.18-.37c-6.8-13.15-20.06-43.26-2.94-50.29,22.08-9,109.53-26.88,128.39-57.91C629,713.4,613,674.9,588.81,664a3.33,3.33,0,0,0-4.35,1.42l-2,3.81a3.27,3.27,0,0,1-6-.62,3.27,3.27,0,0,0-5.91-.85c-5.8,9.29-21.45,24.34-63.32,32.06-59.51,11-98.85,35.07-99.83,76.19a3.28,3.28,0,0,1-5.07,2.7c-4.4-2.68-11.43-3.93-20.82,4-16.35,13.74-9.66,49.39,26.17,78.71a3.25,3.25,0,0,1,.56,4.57,3.57,3.57,0,0,1-.72.68c-6.49,4.22-16.18,14.28,8.91,27.69,26,13.87,45.33,12.74,52.79,11.51a3.28,3.28,0,0,0,2.69-3.76c0-.08,0-.16-.05-.24l-8-36.14a3.28,3.28,0,0,1,2.48-3.92,2.94,2.94,0,0,1,.72-.08Z"/><path class="cls-41" d="M481,869.35s-13.19-50.77-36-36.54,11.81,56.89,30.11,58.79Z"/><path class="cls-42" d="M1218.59,895.74a4.33,4.33,0,0,1-3.36-7.07c3.75-4.61,37-45.27,49.81-52.51,4.66-2.63,7.44-5.35,8-7.86a6.33,6.33,0,0,0-.58-4.08l-39.07,7.83-22.14,19a4.33,4.33,0,1,1-5.64-6.58l23-19.73a4.22,4.22,0,0,1,2-1l43.26-8.67a4.31,4.31,0,0,1,4.45,1.83c3.17,4.7,4.22,9.07,3.2,13.36-1.19,5.07-5.18,9.46-12.2,13.43-9.64,5.44-37.45,38.24-47.35,50.42A4.31,4.31,0,0,1,1218.59,895.74Z"/><path class="cls-43" d="M479.27,1617.46l152.94,1.89L578.72,1569a39.94,39.94,0,0,0-49-4.59,115.68,115.68,0,0,0-27.19,24.23s-95.4-34.86-141.65-112.87A470.75,470.75,0,0,0,315,1562.52C356.5,1586.83,410.24,1606,479.27,1617.46Z"/><path class="cls-44" d="M495.72,1637.18h.89l388.21-.42a17.19,17.19,0,0,0,.09-34.38h-.09l-388.2.42a17.19,17.19,0,0,0-.86,34.36Z"/><path class="cls-45" d="M1233.83,1288.44H910.53a61.67,61.67,0,0,0-55.73,35L705.34,1637h401.77a37.45,37.45,0,0,0,34.83-23.44l115.9-290.16C1264.53,1306.61,1252.05,1288.44,1233.83,1288.44Z"/><ellipse class="cls-2" cx="1030.27" cy="1456.85" rx="41.01" ry="25.44" transform="translate(-675.85 1979.36) rotate(-71.76)"/></g></g></g></svg>