<svg xmlns="http://www.w3.org/2000/svg" xmlns:xlink="http://www.w3.org/1999/xlink" viewBox="0 0 2095.23 1259.4"><defs><style>.cls-1{fill:url(#linear-gradient);}.cls-2{fill:url(#linear-gradient-2);}.cls-3{opacity:0.6;}.cls-4{fill:url(#linear-gradient-3);}.cls-5{fill:#bdd0fb;}.cls-11,.cls-26,.cls-30,.cls-6,.cls-79,.cls-8{fill:#fff;}.cls-25,.cls-6{opacity:0.71;}.cls-26,.cls-30,.cls-6,.cls-79,.cls-8{isolation:isolate;}.cls-7{fill:url(#linear-gradient-4);}.cls-8{opacity:0.5;}.cls-9{fill:#91b3fa;}.cls-10{fill:url(#linear-gradient-5);}.cls-12{fill:url(#linear-gradient-6);}.cls-13{fill:url(#linear-gradient-7);}.cls-14{fill:url(#linear-gradient-8);}.cls-15{fill:url(#linear-gradient-9);}.cls-16{fill:url(#linear-gradient-10);}.cls-17{fill:url(#linear-gradient-11);}.cls-18{fill:url(#linear-gradient-12);}.cls-19{fill:url(#linear-gradient-13);}.cls-20{fill:url(#linear-gradient-14);}.cls-21{fill:url(#linear-gradient-15);}.cls-22{fill:url(#linear-gradient-16);}.cls-23{fill:url(#linear-gradient-17);}.cls-24{fill:url(#linear-gradient-18);}.cls-26{opacity:0.45;}.cls-27{fill:url(#linear-gradient-19);}.cls-28{fill:url(#linear-gradient-20);}.cls-29{fill:url(#linear-gradient-21);}.cls-30{opacity:0.78;}.cls-31{fill:url(#linear-gradient-22);}.cls-32{fill:url(#linear-gradient-23);}.cls-33{fill:url(#linear-gradient-24);}.cls-34{fill:url(#linear-gradient-25);}.cls-35{fill:#f79e6d;}.cls-36{fill:url(#linear-gradient-26);}.cls-37{fill:url(#linear-gradient-27);}.cls-38{fill:url(#linear-gradient-28);}.cls-39{fill:url(#linear-gradient-29);}.cls-40{fill:url(#linear-gradient-30);}.cls-41{fill:url(#linear-gradient-31);}.cls-42{fill:url(#linear-gradient-32);}.cls-43{fill:url(#linear-gradient-33);}.cls-44{fill:url(#linear-gradient-34);}.cls-45{fill:url(#linear-gradient-35);}.cls-46{fill:url(#linear-gradient-36);}.cls-47{fill:url(#linear-gradient-37);}.cls-48{fill:url(#linear-gradient-38);}.cls-49{fill:url(#linear-gradient-39);}.cls-50{fill:url(#linear-gradient-40);}.cls-51{fill:url(#linear-gradient-41);}.cls-52{fill:url(#linear-gradient-42);}.cls-53{fill:url(#linear-gradient-43);}.cls-54{fill:url(#linear-gradient-44);}.cls-55{fill:url(#linear-gradient-45);}.cls-56{fill:url(#linear-gradient-46);}.cls-57{fill:url(#linear-gradient-47);}.cls-58{fill:url(#linear-gradient-48);}.cls-59{fill:url(#linear-gradient-49);}.cls-60{fill:url(#linear-gradient-50);}.cls-61{fill:url(#linear-gradient-51);}.cls-62{fill:url(#linear-gradient-52);}.cls-63{fill:url(#linear-gradient-53);}.cls-64{fill:url(#linear-gradient-54);}.cls-65{fill:url(#linear-gradient-55);}.cls-66{fill:url(#linear-gradient-56);}.cls-67{fill:url(#linear-gradient-57);}.cls-68{fill:url(#linear-gradient-58);}.cls-69{fill:url(#linear-gradient-59);}.cls-70{fill:url(#linear-gradient-60);}.cls-71{fill:#f8a570;}.cls-72{fill:url(#linear-gradient-61);}.cls-73{fill:url(#linear-gradient-62);}.cls-74{fill:url(#linear-gradient-63);}.cls-75{fill:url(#linear-gradient-64);}.cls-76{fill:#7d97f4;}.cls-77{opacity:0.64;}.cls-78{fill:url(#linear-gradient-65);}.cls-79{opacity:0.56;}.cls-80{fill:url(#linear-gradient-66);}</style><linearGradient id="linear-gradient" x1="2117.47" y1="172.87" x2="1370.42" y2="1463.22" gradientTransform="matrix(1, 0, 0, -1, 0, 1180)" gradientUnits="userSpaceOnUse"><stop offset="0" stop-color="#e6ecfd"/><stop offset="1" stop-color="#e9effd"/></linearGradient><linearGradient id="linear-gradient-2" x1="1264.58" y1="-302.72" x2="536.39" y2="955.06" xlink:href="#linear-gradient"/><linearGradient id="linear-gradient-3" x1="425.21" y1="429.98" x2="990.05" y2="429.98" gradientTransform="matrix(1, 0, 0, -1, 0, 1180)" gradientUnits="userSpaceOnUse"><stop offset="0" stop-color="#a737d5"/><stop offset="1" stop-color="#ef497a"/></linearGradient><linearGradient id="linear-gradient-4" x1="1331.07" y1="8.27" x2="1326.15" y2="-4.53" xlink:href="#linear-gradient-3"/><linearGradient id="linear-gradient-5" x1="1030.17" y1="11.34" x2="1030.17" y2="277.99" gradientTransform="matrix(1, 0, 0, -1, 0, 1180)" gradientUnits="userSpaceOnUse"><stop offset="0" stop-color="#4f52ff"/><stop offset="1" stop-color="#4042e2"/></linearGradient><linearGradient id="linear-gradient-6" x1="808.44" y1="1103.95" x2="817.8" y2="695.41" gradientTransform="matrix(1, 0, 0, -1, 0, 1180)" gradientUnits="userSpaceOnUse"><stop offset="0" stop-color="#09005d"/><stop offset="1" stop-color="#1a0f91"/></linearGradient><linearGradient id="linear-gradient-7" x1="810.48" y1="1104" x2="819.84" y2="695.46" xlink:href="#linear-gradient-6"/><linearGradient id="linear-gradient-8" x1="1220.57" y1="1113.39" x2="1229.92" y2="704.85" xlink:href="#linear-gradient-6"/><linearGradient id="linear-gradient-9" x1="1222.7" y1="1113.44" x2="1232.05" y2="704.9" xlink:href="#linear-gradient-6"/><linearGradient id="linear-gradient-10" x1="1054.92" y1="1058.98" x2="1013.79" y2="757.38" xlink:href="#linear-gradient-5"/><linearGradient id="linear-gradient-11" x1="1032.87" y1="254.17" x2="1023.51" y2="588.64" xlink:href="#linear-gradient-5"/><linearGradient id="linear-gradient-12" x1="1040.13" y1="358.22" x2="1040.13" y2="217.88" gradientTransform="matrix(1, 0, 0, -1, 0, 1180)" gradientUnits="userSpaceOnUse"><stop offset="0" stop-color="#3e30cb"/><stop offset="1" stop-color="#1d129d"/></linearGradient><linearGradient id="linear-gradient-13" x1="1031.72" y1="730.75" x2="1003.83" y2="546.64" xlink:href="#linear-gradient-6"/><linearGradient id="linear-gradient-14" x1="938.81" y1="755.96" x2="1087.08" y2="595.2" xlink:href="#linear-gradient-5"/><linearGradient id="linear-gradient-15" x1="950.84" y1="767.06" x2="1099.11" y2="606.3" xlink:href="#linear-gradient-5"/><linearGradient id="linear-gradient-16" x1="959.1" y1="774.66" x2="1107.37" y2="613.9" xlink:href="#linear-gradient-5"/><linearGradient id="linear-gradient-17" x1="968.95" y1="783.76" x2="1117.23" y2="623" xlink:href="#linear-gradient-5"/><linearGradient id="linear-gradient-18" x1="1029.77" y1="1065.38" x2="1011.56" y2="569.93" gradientTransform="matrix(1, 0, 0, -1, 0, 1180)" gradientUnits="userSpaceOnUse"><stop offset="0" stop-color="#feb3b1"/><stop offset="1" stop-color="#ff928e"/></linearGradient><linearGradient id="linear-gradient-19" x1="1265.69" y1="319.11" x2="1910.76" y2="212.56" xlink:href="#linear-gradient-18"/><linearGradient id="linear-gradient-20" x1="6092.28" y1="173.28" x2="6085.44" y2="-103.41" gradientTransform="translate(7570.35 1180) rotate(180)" gradientUnits="userSpaceOnUse"><stop offset="0" stop-color="#ff928e"/><stop offset="1" stop-color="#fe7062"/></linearGradient><linearGradient id="linear-gradient-21" x1="1199.59" y1="13.68" x2="1285.33" y2="13.68" xlink:href="#linear-gradient"/><linearGradient id="linear-gradient-22" x1="-4300.53" y1="149.94" x2="-3690.92" y2="149.94" gradientTransform="translate(-2445.65 1180) rotate(180)" xlink:href="#linear-gradient-18"/><linearGradient id="linear-gradient-23" x1="1551.09" y1="679.69" x2="1516.75" y2="635.99" gradientTransform="matrix(1, 0, 0, -1, 0, 1180)" xlink:href="#linear-gradient-20"/><linearGradient id="linear-gradient-24" x1="1602.96" y1="595.96" x2="1365.27" y2="480.81" gradientTransform="matrix(1, 0, 0, -1, 0, 1180)" gradientUnits="userSpaceOnUse"><stop offset="0" stop-color="#febbba"/><stop offset="1" stop-color="#ff928e"/></linearGradient><linearGradient id="linear-gradient-25" x1="1604.07" y1="593.65" x2="1366.38" y2="478.51" xlink:href="#linear-gradient-24"/><linearGradient id="linear-gradient-26" x1="1117.08" y1="219.59" x2="1154.32" y2="219.59" xlink:href="#linear-gradient-5"/><linearGradient id="linear-gradient-27" x1="1120.82" y1="221.92" x2="1160.42" y2="221.92" gradientTransform="matrix(1, 0, 0, -1, 0, 1180)" gradientUnits="userSpaceOnUse"><stop offset="0" stop-color="#090056"/><stop offset="1" stop-color="#020039"/></linearGradient><linearGradient id="linear-gradient-28" x1="1140.59" y1="261.97" x2="1169.69" y2="261.97" xlink:href="#linear-gradient-24"/><linearGradient id="linear-gradient-29" x1="1201.06" y1="620.26" x2="1256.88" y2="620.26" gradientTransform="matrix(0.97, 0.26, 0.26, -0.97, 248.96, 1118.22)" xlink:href="#linear-gradient-5"/><linearGradient id="linear-gradient-30" x1="1187.16" y1="620.76" x2="1254.38" y2="620.76" gradientTransform="matrix(0.97, 0.26, 0.26, -0.97, 248.96, 1118.22)" xlink:href="#linear-gradient-27"/><linearGradient id="linear-gradient-31" x1="1534.16" y1="355.65" x2="1566.15" y2="355.65" xlink:href="#linear-gradient-24"/><linearGradient id="linear-gradient-32" x1="1150.02" y1="368.48" x2="1365.57" y2="368.48" xlink:href="#linear-gradient-6"/><linearGradient id="linear-gradient-33" x1="1308.04" y1="381.9" x2="1513.12" y2="454.36" xlink:href="#linear-gradient-6"/><linearGradient id="linear-gradient-34" x1="1389.16" y1="380.7" x2="1371.47" y2="641.87" gradientTransform="matrix(1, 0, 0, -1, 0, 1180)" xlink:href="#linear-gradient-20"/><linearGradient id="linear-gradient-35" x1="1307.98" y1="518.23" x2="1166.52" y2="768.25" xlink:href="#linear-gradient-24"/><linearGradient id="linear-gradient-36" x1="1397.4" y1="625.24" x2="1412.2" y2="667.46" xlink:href="#linear-gradient-24"/><linearGradient id="linear-gradient-37" x1="1439.57" y1="712.27" x2="1374.61" y2="662.56" xlink:href="#linear-gradient-24"/><linearGradient id="linear-gradient-38" x1="1393.83" y1="751.61" x2="1454.33" y2="673.72" xlink:href="#linear-gradient-27"/><linearGradient id="linear-gradient-39" x1="1431.51" y1="722.8" x2="1366.55" y2="673.1" xlink:href="#linear-gradient-24"/><linearGradient id="linear-gradient-40" x1="1573.11" y1="605.52" x2="1748.11" y2="845.24" gradientTransform="matrix(1, 0, 0, -1, 0, 1180)" gradientUnits="userSpaceOnUse"><stop offset="0" stop-color="#e1473d"/><stop offset="1" stop-color="#e9605a"/></linearGradient><linearGradient id="linear-gradient-41" x1="1511.27" y1="650.66" x2="1686.28" y2="890.38" gradientTransform="matrix(1, 0, 0, -1, 0, 1180)" xlink:href="#linear-gradient-20"/><linearGradient id="linear-gradient-42" x1="1598.27" y1="576.43" x2="1591.74" y2="469.46" gradientTransform="matrix(1, 0, 0, -1, 0, 1180)" xlink:href="#linear-gradient-20"/><linearGradient id="linear-gradient-43" x1="1646.12" y1="619.32" x2="1511.54" y2="472.34" xlink:href="#linear-gradient-40"/><linearGradient id="linear-gradient-44" x1="1713.97" y1="975.09" x2="1333.49" y2="468.49" xlink:href="#linear-gradient-40"/><linearGradient id="linear-gradient-45" x1="1717.92" y1="736.93" x2="1539.01" y2="513.07" xlink:href="#linear-gradient-40"/><linearGradient id="linear-gradient-46" x1="9153.87" y1="736.94" x2="8974.97" y2="513.08" gradientTransform="translate(10631.8 1180) rotate(180)" xlink:href="#linear-gradient-40"/><linearGradient id="linear-gradient-47" x1="1623.93" y1="602.16" x2="1565.67" y2="573.93" xlink:href="#linear-gradient-24"/><linearGradient id="linear-gradient-48" x1="-3792.59" y1="-51.87" x2="-3711.45" y2="-51.87" gradientTransform="translate(-3020.28 1180) rotate(180)" xlink:href="#linear-gradient-5"/><linearGradient id="linear-gradient-49" x1="-3792.64" y1="-35.94" x2="-3713.69" y2="-35.94" gradientTransform="translate(-3020.28 1180) rotate(180)" xlink:href="#linear-gradient-27"/><linearGradient id="linear-gradient-50" x1="-3785.08" y1="-13.73" x2="-3762.21" y2="-13.73" gradientTransform="translate(-3020.28 1180) rotate(180)" xlink:href="#linear-gradient-24"/><linearGradient id="linear-gradient-51" x1="-3937.49" y1="-72.03" x2="-3906.37" y2="-72.03" gradientTransform="translate(-3020.28 1180) rotate(180)" xlink:href="#linear-gradient-5"/><linearGradient id="linear-gradient-52" x1="-3937.31" y1="-41.03" x2="-3891.63" y2="-41.03" gradientTransform="translate(-3020.28 1180) rotate(180)" xlink:href="#linear-gradient-27"/><linearGradient id="linear-gradient-53" x1="-3913.54" y1="-1.81" x2="-3886.21" y2="-1.81" gradientTransform="translate(-3020.28 1180) rotate(180)" xlink:href="#linear-gradient-24"/><linearGradient id="linear-gradient-54" x1="-3692.48" y1="293.15" x2="-3925.83" y2="-89.11" gradientTransform="translate(-3020.28 1180) rotate(180)" xlink:href="#linear-gradient-6"/><linearGradient id="linear-gradient-55" x1="-3537.61" y1="573.93" x2="-3645.86" y2="433.1" gradientTransform="translate(-3020.28 1180) rotate(180)" xlink:href="#linear-gradient-24"/><linearGradient id="linear-gradient-56" x1="624.84" y1="281.97" x2="737.21" y2="489.03" gradientTransform="matrix(1, 0, 0, -1, 0, 1180)" xlink:href="#linear-gradient-20"/><linearGradient id="linear-gradient-57" x1="-3778.91" y1="482.91" x2="-3767.07" y2="545.08" gradientTransform="translate(-3020.28 1180) rotate(180)" xlink:href="#linear-gradient-24"/><linearGradient id="linear-gradient-58" x1="-3746.84" y1="596.97" x2="-3814.41" y2="545.27" gradientTransform="translate(-3020.28 1180) rotate(180)" xlink:href="#linear-gradient-24"/><linearGradient id="linear-gradient-59" x1="-3794.41" y1="637.9" x2="-3731.48" y2="556.88" gradientTransform="translate(-3020.28 1180) rotate(180)" xlink:href="#linear-gradient-27"/><linearGradient id="linear-gradient-60" x1="-3755.23" y1="607.93" x2="-3822.8" y2="556.23" gradientTransform="translate(-3020.28 1180) rotate(180)" xlink:href="#linear-gradient-24"/><linearGradient id="linear-gradient-61" x1="-3728.46" y1="415.45" x2="-3767.23" y2="357.29" gradientTransform="translate(-3020.28 1180) rotate(180)" xlink:href="#linear-gradient-24"/><linearGradient id="linear-gradient-62" x1="785.49" y1="406.06" x2="747.5" y2="349.07" xlink:href="#linear-gradient-24"/><linearGradient id="linear-gradient-63" x1="1787.66" y1="221.34" x2="1680.81" y2="192.05" gradientTransform="matrix(1, -0.05, -0.05, -1, -1000.45, 1133.9)" xlink:href="#linear-gradient-6"/><linearGradient id="linear-gradient-64" x1="1678.42" y1="423.65" x2="1603.05" y2="344" gradientTransform="matrix(1, 0, 0, -1, -1049.15, 1180)" xlink:href="#linear-gradient-27"/><linearGradient id="linear-gradient-65" x1="118.98" y1="182.64" x2="325.1" y2="182.64" xlink:href="#linear-gradient-5"/><linearGradient id="linear-gradient-66" x1="343.05" y1="286.27" x2="458.67" y2="286.27" xlink:href="#linear-gradient-5"/></defs><title>Asset 1</title><g id="Layer_2" data-name="Layer 2"><g id="Layer_1-2" data-name="Layer 1"><g id="Illustration"><path class="cls-1" d="M1307.19,69c-30.22,46.89,33.41,139.71,159.89,324.21C1616,610.4,1803.86,884.47,1946.75,841.5c105.18-31.63,171.82-230.77,140.86-384.25C2013.85,91.59,1380.24-44.33,1307.19,69Z"/><path class="cls-2" d="M1961.41,1108.49c-3.58,25.74-40.29,102.2-1089.23,111.9-543,5-638.17-14.49-723-100C-39,930.76-43.7,568.62,104.34,319.46c30.29-51,116.42-195.94,289.68-266.29,290.78-118.1,599.16,66.53,695.32,124.1,416.19,249.17,636.1,705.56,772.71,820.67C1930.67,1055.76,1965.8,1077.3,1961.41,1108.49Z"/><g class="cls-3"><path class="cls-4" d="M987.73,1187.68a7.28,7.28,0,0,0-3.18-12.39C921.8,1160.6,662.42,1085.35,718.4,855.9c63.58-260.54,97.72-331.5-7.85-445.51-96.13-103.8-196.89-112.24-281.08-89.67-5.88,1.57-5.6,10.19.37,11.32,51.41,9.75,167.34,41.59,194.42,133.24C659.33,584,601.64,850.65,691.8,999.22c89.08,146.77,186.93,162.17,289.31,190.11a7,7,0,0,0,6.61-1.65Z"/></g><path class="cls-5" d="M115.08,563.4a10.11,10.11,0,0,1-.86-16.85c16.12-11.63,44.26-36.52,68.32-81.27S270.8,323,405.12,348.14s179,261.51,206.14,494.27,289.78,317,289.78,317l70.47,27.27s-250.2-40.52-345.93-214.79S543.64,528,390.33,532.47C243.16,536.81,223.06,625.05,115.08,563.4Z"/><path class="cls-5" d="M89.74,828.44c-7.59,3.07-14.66-5.35-10.46-12.5,24.09-40.89,79.9-116.22,163.3-114,114.3,3,198.38,55,307.92,240.4,106.46,180.2,350,242.78,415.76,244.4a6.33,6.33,0,0,1,6.08,5.44h0a6.38,6.38,0,0,1-5.26,7.33,5.93,5.93,0,0,1-1.26.08c-46.23-2.29-289.12-17.2-411.74-82.25C425.34,1049.05,236.27,769.11,89.74,828.44Z"/><path class="cls-6" d="M156.66,772.08c18.37-8.3,38-12.68,57.92-14.67,5-.58,10-.73,15-1,5,0,10-.18,15,.12a219.85,219.85,0,0,1,29.85,3.22c39.52,7.16,76.72,24.86,108.61,49s59,54.13,82.58,86.19c5.72,8.13,11.39,16.38,16.93,24.56S493.34,936,499.06,944l8.46,12.11,8.73,11.9c5.73,8,11.91,15.66,17.9,23.47,12.35,15.3,25,30.34,38.59,44.55a533.55,533.55,0,0,0,42.84,40.34,409.06,409.06,0,0,0,99.62,61.81,481.44,481.44,0,0,0,55.4,20c18.86,5.6,38,10.27,57.3,14.45,38.57,8.33,77.67,14.35,116.66,20.9a1,1,0,0,1-.29,1.87c-19.58-2.71-39.17-5.41-58.72-8.42s-39.1-6.2-58.54-10c-38.87-7.54-77.48-17.78-114.21-33.24A404,404,0,0,1,610.92,1082a538.7,538.7,0,0,1-43.68-40.71c-13.81-14.34-26.71-29.48-39.26-44.88-6.09-7.85-12.37-15.55-18.19-23.59l-8.86-12-8.59-12.16c-5.81-8-11.18-16.39-16.77-24.58s-11-16.27-16.66-24.32c-23.08-31.65-49.45-61.16-80.58-84.84a290.43,290.43,0,0,0-49.74-30.6,223.26,223.26,0,0,0-84.32-22.12c-4.86-.42-9.75-.39-14.63-.49-4.88.13-9.77.15-14.64.59a204.14,204.14,0,0,0-29,4.13,162.36,162.36,0,0,0-27.95,8.5l-.11.05a1.58,1.58,0,0,1-2-1,1.6,1.6,0,0,1,.76-1.94Z"/><path class="cls-5" d="M1931.72,890.9c6.31,2.56,12.2-4.45,8.7-10.39-20-34-66.45-96.67-135.81-94.82-95.07,2.54-165,45.75-256.1,200-88.55,149.87-291.06,201.92-345.8,203.27a5.25,5.25,0,0,0-5,4.51h0a5.3,5.3,0,0,0,4.38,6.1,5.15,5.15,0,0,0,1,.07c38.45-1.91,240.47-14.31,342.45-68.4C1652.6,1074.39,1809.86,841.56,1931.72,890.9Z"/><path class="cls-6" d="M1874.8,846.63a136.08,136.08,0,0,0-23.21-7,168.63,168.63,0,0,0-24.09-3.36c-4-.36-8.1-.37-12.15-.47-4,.1-8.1.08-12.14.44a198.69,198.69,0,0,0-24,3.09,195.79,195.79,0,0,0-45.85,15.38,242.55,242.55,0,0,0-41.23,25.43c-25.81,19.66-47.69,44.16-66.84,70.45-4.68,6.69-9.21,13.4-13.83,20.2s-9.13,13.76-14,20.46l-7.16,10.11-7.38,10c-4.85,6.69-10.08,13.11-15.15,19.64-10.46,12.81-21.21,25.42-32.72,37.35a450.14,450.14,0,0,1-36.39,33.89,335.19,335.19,0,0,1-84.93,51.38c-30.61,12.84-62.75,21.34-95.11,27.54s-65,10.7-97.58,15.13a1,1,0,0,1-.83-1.15,1.06,1.06,0,0,1,.54-.73c32.42-5.54,64.92-10.6,97-17.59s63.73-15.65,93.6-28.8a340.82,340.82,0,0,0,82.66-51.41,436.48,436.48,0,0,0,35.56-33.52c11.26-11.81,21.79-24.31,32-37,5-6.48,10.1-12.85,14.86-19.5l7.25-9.9,7-10.06c4.76-6.66,9.15-13.58,13.73-20.36s9.34-13.69,14.11-20.45c19.65-26.7,42.15-51.68,68.84-71.8S1745,839.24,1778,833.31a179.43,179.43,0,0,1,24.9-2.64c4.17-.24,8.34-.1,12.51-.07,4.17.23,8.34.36,12.48.86,16.58,1.7,32.94,5.38,48.26,12.37a1.57,1.57,0,0,1,.78,2.08h0a1.58,1.58,0,0,1-2,.8Z"/><path class="cls-5" d="M1703.11,277.12c-10.35-28.07-24.8-54.33-40.28-80a10,10,0,0,0-18.31,3.5c-6.58,38-32,73-61.34,99.43-37.41,33.69-82.24,58.61-118,94-73.67,72.84-100.24,181-107.48,284.33s1.53,208-16,310.11c-8.38,48.68-23.24,97.37-52.68,137-28.92,38.94-73.7,68.19-122.07,69.93a2.29,2.29,0,0,0-2.23,2.35,1.84,1.84,0,0,0,0,.33h0a2.33,2.33,0,0,0,1.49,1.79c57.29,20.58,123.6-12.92,157.45-63.69,34.09-51.14,41.91-115.2,43.36-176.65S1364.51,835.77,1378.8,776a309.62,309.62,0,0,1,92.5-156.1c41.4-37.53,92.07-63,138-94.87s89.08-73.38,103.53-127.36C1723.39,358.1,1717.28,315.55,1703.11,277.12Z"/><path class="cls-7" d="M1323.88,1183.66l-1.23-8.55h1.15a92.13,92.13,0,0,0,9.65-.56l3.82-.41-3.09,2.29c-3.27,2.42-6.2,4.49-9,6.33Zm1.18-6.49.42,2.91c1.43-1,2.91-2,4.47-3.13C1328.32,1177.06,1326.68,1177.14,1325.06,1177.17Z"/><path class="cls-5" d="M1917.39,408.34c-36.88,38.85-89.73,63.41-141.19,81.88-67.29,24.17-139.11,43.4-192.88,90.53-56.17,49.23-85,122.78-101,195.74S1461.18,924.63,1442,996.81c-18.26,68.64-51.66,136.71-108.41,178.77,48.29-5.16,88.94-44.41,109.73-89.06,22.17-47.63,26.78-101.19,34.4-153.17s19.59-105.76,53-146.28c65.62-79.5,187.81-81.12,271.69-141.05,43.39-31,74.64-76.63,96.39-125.32,14.82-33.18,25.56-67.94,35-103.09C1936.41,407.87,1924.33,401,1917.39,408.34Z"/><path class="cls-8" d="M1650.05,281.84a125.19,125.19,0,0,1-5,16.19q-2.94,7.91-6.51,15.55a236.5,236.5,0,0,1-16.29,29.5c-2.91,4.82-6.26,9.33-9.45,14-1.56,2.34-3.35,4.51-5,6.75l-5.16,6.68c-3.6,4.32-7.33,8.53-11,12.8L1580,395.5c-4,3.91-8.19,7.71-12.28,11.57-2,2-4.22,3.71-6.35,5.54l-6.44,5.44c-4.26,3.7-8.65,7.05-13,10.53s-8.7,6.9-13,10.39c-17.26,13.91-34.26,28.08-49.83,43.64a314.69,314.69,0,0,0-41.44,51.06c-6.24,9.05-11.3,18.83-16.64,28.44-4.6,10-9.67,19.79-13.43,30.18-8.45,20.39-14.38,41.75-20.18,63.1-2.57,10.77-4.92,21.6-7.33,32.42l-6,32.74h0a1.59,1.59,0,0,1-3.14-.49c5.75-44.13,14.69-88.2,30.68-130.13a310.83,310.83,0,0,1,71.9-112.9c15.82-16,33-30.41,50.24-44.48,8.58-7.09,17.46-13.9,25.9-21l6.33-5.29c2.09-1.78,4.27-3.47,6.24-5.38,4-3.75,8.09-7.44,12.06-11.24L1585.8,378c3.64-4.11,7.35-8.16,11-12.32,3.42-4.29,7.07-8.41,10.37-12.8s6.69-8.73,9.68-13.34a286.65,286.65,0,0,0,17.08-28.21q3.88-7.27,7.18-14.85a144,144,0,0,0,5.86-15.33v-.09a1.58,1.58,0,0,1,3,.83Z"/><path class="cls-6" d="M125.34,549.85a85.83,85.83,0,0,0,19.84-2.91,108.37,108.37,0,0,0,18.91-6.76,114.65,114.65,0,0,0,32.53-23,139.78,139.78,0,0,0,13-15.13,161.14,161.14,0,0,0,10.71-16.87c1.57-2.94,3.13-5.9,4.57-8.91l4.25-9.26a147.17,147.17,0,0,1,10.32-18.27,208.76,208.76,0,0,1,58.79-58.58,157,157,0,0,1,37.92-18.11,129.9,129.9,0,0,1,20.69-4.71,113.94,113.94,0,0,1,21.29-.83c3.56.14,7.09.61,10.63,1.07,3.5.63,7,1.24,10.45,2.18a112.36,112.36,0,0,1,20,7.15,142.26,142.26,0,0,1,35,23.43c20.79,18.83,36.92,41.79,50.3,65.81a407.82,407.82,0,0,1,18.21,37c5.53,12.56,10.47,25.35,15,38.26a814.82,814.82,0,0,1,23,78.67,1.27,1.27,0,1,1-2.46.66c-7.79-26.1-16.15-52-26.1-77.28-5-12.62-10.14-25.17-16-37.4s-11.84-24.34-18.68-36c-13.62-23.22-29.53-45.29-49.44-62.92a154.57,154.57,0,0,0-15.73-12.06,118.18,118.18,0,0,0-17.13-9.66A102.62,102.62,0,0,0,396.94,379c-3.15-.86-6.36-1.39-9.56-2-3.23-.4-6.46-.83-9.71-.94a110.65,110.65,0,0,0-19.51.77A121.78,121.78,0,0,0,339,381.1,147.73,147.73,0,0,0,303.27,398a203.87,203.87,0,0,0-57.12,55.28A140.15,140.15,0,0,0,236,470.36l-4.48,9.22q-2.37,4.65-5,9.17A168,168,0,0,1,214.8,506a145.08,145.08,0,0,1-14.12,15.41,118.59,118.59,0,0,1-34.91,22.53c-12.84,5.28-26.55,8.45-40.51,8a1,1,0,0,1-1-1v-.07a1,1,0,0,1,1-1Z"/><path class="cls-9" d="M936.39,502A44,44,0,0,1,931,475.31a211.71,211.71,0,0,0,.75-42.86c-3.91-45.1-22.75-83.23-54.88-111.59a17,17,0,0,1-5.68-14.9,115.74,115.74,0,0,0,0-29.52c-3.39-26.36-17.74-63.48-66-94-4.93-15.49-19.19-43.74-59.83-66C715.19,100,686.6,96,664.8,105.32a50.89,50.89,0,0,0-21.74,17.38,44.44,44.44,0,0,0-19,8.33,47.9,47.9,0,0,0-9.1,9.17,9.91,9.91,0,0,1-13.9,1.9,9.77,9.77,0,0,1-1.9-1.9,47.61,47.61,0,0,0-9.1-9.17,44.39,44.39,0,0,0-19-8.33,50.86,50.86,0,0,0-21.75-17.38C527.54,96,499,100,468.78,116.46c-40.64,22.22-54.89,50.47-59.83,66-48.24,30.55-62.59,67.67-66,94a114.59,114.59,0,0,0-.85,19.15A43.37,43.37,0,0,1,329.8,328c-27.53,27.5-43.73,63-47.32,104.48a212.89,212.89,0,0,0,.8,43.2A42.61,42.61,0,0,1,278,501.74c-16.86,29.78-19.05,81.4-4.05,138.76,9,34.31,24.32,59.44,45.62,74.7l.11.08A32.32,32.32,0,0,1,332,732.67a46.62,46.62,0,0,0,3.14,8c17.52,35,79.78,53.64,133.7,56.62,2.74.16,5.43.23,8.06.23,26.52,0,47.57-7.67,62.63-22.85a75.16,75.16,0,0,0,19.72-37c21.28-2.6,36.81-10.33,46.3-23.08.56-.75,1.07-1.51,1.57-2.27.5.76,1,1.52,1.57,2.27,9.49,12.75,25,20.48,46.3,23.08a75.32,75.32,0,0,0,19.72,37c15.07,15.18,36.11,22.85,62.63,22.85,2.63,0,5.31-.07,8.06-.23,53.93-3,116.18-21.64,133.71-56.62a46.62,46.62,0,0,0,3.14-8,32.39,32.39,0,0,1,12.29-17.39l.11-.08c21.31-15.26,36.66-40.39,45.63-74.7C955.22,583.31,953.1,531.84,936.39,502Z"/><path class="cls-5" d="M593.17,196.32V678.63s12.4,39.94-52.63,39.29c0,0,4,62.79-70.56,58.68S334.1,740.05,355.34,708.1c0,0-42.74-1.71-61.34-72.86s-7.2-125.17,14.72-136.8c0,0-34.81-112.73,59.78-175.35,0,0-32.58-74.87,58.61-127.4,0,0,3.81-34.88,51.7-61.06,45-24.6,73.89-12.08,79.46,8.57C558.27,143.2,593.17,133.55,593.17,196.32Z"/><path class="cls-5" d="M621.08,196.32V678.63s-12.4,39.94,52.62,39.29c0,0-4,62.79,70.56,58.68s135.88-36.55,114.64-68.5c0,0,42.75-1.71,61.35-72.86s7.15-125.17-14.73-136.8c0,0,34.82-112.73-59.78-175.35,0,0,32.59-74.87-58.6-127.4,0,0-3.81-34.88-51.71-61.06-45-24.6-73.89-12.08-79.46,8.57C656,143.2,621.08,133.55,621.08,196.32Z"/><path class="cls-9" d="M553.19,204.37a3.91,3.91,0,0,1-.76-.07c-10.48-2-29.54-12.21-26.64-36.32,2.74-22.81,22.29-28.81,32.37-28.81h.13a4,4,0,1,1,0,8.06h0c-.88,0-21.88.29-24.46,21.71-2.71,22.62,19.24,27.26,20.17,27.44a4,4,0,1,1-.77,8h0Z"/><path class="cls-9" d="M497.51,295.75a46,46,0,0,1-16.45-3.06c-7.48-2.94-12-7.32-12.68-12.35a4,4,0,0,1,8-1.11c.21,1.51,2.7,4,7.65,6,8.45,3.31,21.13,3.81,28-1.8,4.43-3.61,6-9.46,4.6-17.39-4.67-26.91-27.56-29-54.06-31.44-5.91-.55-12-1.11-18-2-12-1.74-19.71-6.17-22.9-13.17-4.54-10,2.32-20.81,2.61-21.26a4,4,0,0,1,6.78,4.36c-.07.11-4.76,7.66-2,13.59,2.48,5.39,10.45,7.6,16.71,8.5,5.76.83,11.76,1.38,17.56,1.92,27.31,2.5,55.55,5.1,61.28,38.09,2.38,13.71-2.74,21.17-7.45,25C511.8,294,504.61,295.75,497.51,295.75Z"/><path class="cls-9" d="M435.7,380.05c-7,0-13-3-15.18-8a4,4,0,0,1,7.41-3.2c1,2.35,6.07,4,11.72,2.7,3.33-.79,14.14-4.64,13.21-21.11-.61-10.81-4.07-18.16-10.26-21.84-7.67-4.54-19.69-3.34-33.84,3.38-30.52,14.51-40.84-2.29-41.26-3a4,4,0,0,1,6.92-4.14c.37.57,7.54,11,30.88-.13,16.89-8,31.21-9.08,41.41-3,6,3.52,13.24,11.3,14.2,28.32,1,18.06-9.36,27-19.41,29.41A25.13,25.13,0,0,1,435.7,380.05Z"/><path class="cls-9" d="M412.23,465a39,39,0,0,1-6.1-.48c-12.36-2-22.89-9.91-31.29-23.59s-10.91-27-7.48-39.55c5.77-21.13,26.27-32.18,27.14-32.64a4,4,0,1,1,3.78,7.12h0c-.19.1-18.34,10-23.15,27.7-2.81,10.32-.59,21.47,6.58,33.15s15.73,18.24,25.64,19.84c17.2,2.76,33.2-10.51,33.35-10.65a4,4,0,1,1,5.22,6.15h0C445.23,452.59,430.44,465,412.23,465Z"/><path class="cls-9" d="M540.49,473.81a4,4,0,0,1-3.6-5.85c.29-.59,7.2-15.63-8.72-41.06s-46.06-19.83-46.37-19.77a4,4,0,1,1-1.54-7.92c.36-.07,36-6.6,54.75,23.41,18.52,29.59,9.47,48.21,9.07,49A4,4,0,0,1,540.49,473.81Z"/><path class="cls-9" d="M501.67,563.49a4,4,0,0,1-2.62-7.1c4-3.39,8.56-9,7.85-16.35-.69-7.14-6.63-18.54-31-32.31-21.14-11.93-38.37-15.15-51.22-9.57-14.52,6.32-18.46,22-18.5,22.17a4,4,0,1,1-7.84-1.89c.2-.8,5-19.78,23.13-27.67,15.28-6.65,34.93-3.3,58.39,9.94,22,12.42,33.82,25.4,35.09,38.55.82,8.46-3,16.72-10.64,23.27A4,4,0,0,1,501.67,563.49Z"/><path class="cls-9" d="M527.8,650.55a36.62,36.62,0,0,1-31.38-17.69,4,4,0,1,1,6.93-4.13,28.44,28.44,0,0,0,34.86,11.73c14.9-6.05,20.56-23.24,15.15-46-8.07-34-8.2-55.08-.4-66.47,3.94-5.77,9.89-9.14,18.19-10.29,19.72-2.71,25.38,8.12,25.61,8.59A4,4,0,1,1,589.6,530c-.23-.39-3.89-6.15-17.33-4.28-6.09.85-10,3-12.65,6.85-6.33,9.25-5.8,28.9,1.6,60.06,5,20.82,2.3,46.29-20,55.33A35.65,35.65,0,0,1,527.8,650.55Z"/><path class="cls-9" d="M406.07,595.2c-27.78,0-41-35.92-51.82-65.46-2.76-7.52-5.37-14.62-8-20.6-4-9-8.9-14.21-14.59-15.43-8.11-1.75-15.84,5.06-15.91,5.13a4,4,0,0,1-5.41-6h0c.43-.39,10.76-9.63,23-7,8.38,1.77,15.22,8.52,20.33,20.06,2.75,6.22,5.4,13.44,8.21,21.09,14.1,38.41,27,67.09,53.58,58.59,10.73-3.44,17.06-8.37,18.81-14.63,2.84-10.2-6.89-21.55-7-21.66a4,4,0,1,1,6.07-5.31h0c.52.59,12.69,14.68,8.7,29.09-2.52,9.07-10.63,15.86-24.13,20.19A38.44,38.44,0,0,1,406.07,595.2Z"/><path class="cls-9" d="M358.3,709.35a4,4,0,0,1-3.49-6c22.22-38.57,55-50.52,56.33-51a4,4,0,1,1,2.7,7.6c-.42.15-31.41,11.63-52,47.43A4,4,0,0,1,358.3,709.35Z"/><path class="cls-9" d="M537.54,718.19a4,4,0,0,1-2.82-1.15c-13.24-12.94-26.94-10.95-41.44-8.85-13.4,1.94-27.27,4-39.18-7.35-8.87-8.43-13.19-17.76-12.84-27.75.63-17.94,16.3-31.06,17-31.61a4,4,0,1,1,5.13,6.22h0c-.13.11-13.57,11.43-14,25.72-.26,7.56,3.22,14.82,10.34,21.57,9.06,8.62,19.91,7,32.46,5.22,15.07-2.19,32.15-4.66,48.24,11.06a4,4,0,0,1-2.82,6.92Z"/><path class="cls-9" d="M685.1,207.94A43.08,43.08,0,0,1,667.8,204c-10.3-4.51-17.15-11.42-20.36-20.55-6.23-17.74,3.83-37.25,4.26-38.07a4,4,0,0,1,7.14,3.75c-.12.23-8.85,17.31-3.78,31.68,2.44,6.92,7.82,12.23,16,15.8,17.46,7.63,29.07.5,33.7-7.93,3.11-5.67,3.7-13.64-2.37-17.72a4,4,0,0,1,4.5-6.69h0c8.66,5.83,10.74,17.73,4.93,28.29A29.87,29.87,0,0,1,685.1,207.94Z"/><path class="cls-9" d="M711.05,257.38a4,4,0,0,1-3.8-2.69c-.22-.65-5.39-15.84,2.74-26.79,5.44-7.31,15.17-10.71,29-10.11,21.91,1,35.69-1.31,40.94-6.76,2.08-2.17,2.91-5,2.59-8.89a4,4,0,0,1,8-.65c.5,6.2-1.12,11.29-4.83,15.14-7.12,7.38-22.09,10.31-47.09,9.22-10.91-.48-18.35,1.82-22.1,6.84-5.6,7.48-1.66,19.23-1.62,19.34a4,4,0,0,1-2.43,5.11l-.06,0A4,4,0,0,1,711.05,257.38Z"/><path class="cls-9" d="M650.68,321.43h-.36a4,4,0,1,1,.15-8.07c7.34.19,15.58-6.4,20.2-15.89,5.36-11,4.37-22.71-2.66-31.36-5-6.17-9.83-9.18-14.38-9-6,.26-10.06,6.15-10.1,6.21a4,4,0,0,1-6.7-4.48h0c.25-.38,6.29-9.3,16.36-9.78,7.29-.34,14.34,3.68,21.08,12,9.06,11.14,10.42,26.08,3.65,40C672,313.27,661,321.43,650.68,321.43Z"/><path class="cls-9" d="M771.09,345.05c-8.28,0-18.28-2.5-30-9.65-23-14.1-26.12-36.85-21.82-52,3.73-13.2,12.79-22.07,22.54-22.07h0c7.79,0,13.44,2.17,16.79,6.42a15.64,15.64,0,0,1,2.75,12.64,4,4,0,0,1-7.85-1.83,7.77,7.77,0,0,0-1.27-5.86c-1.74-2.16-5.35-3.3-10.43-3.31h0c-5.91,0-12.13,6.81-14.78,16.21-3.7,13.08-.84,31.24,18.28,43,32.07,19.67,47.8-.89,48.45-1.77a4,4,0,0,1,6.53,4.74h0A37.76,37.76,0,0,1,771.09,345.05Z"/><path class="cls-9" d="M769.06,469.15c-9.46,0-20.74-3.31-33.31-13.19-38-29.9-6.39-72.93-6.07-73.36a4,4,0,0,1,6.45,4.84h0c-1.13,1.5-27.2,37.18,4.61,62.18s52.39,1.58,53.25.57a4,4,0,1,1,6.16,5.2h0C800,455.59,788.21,469.15,769.06,469.15Z"/><path class="cls-9" d="M835.52,428.68c-6.59,0-14.94-2.35-24.45-10.19-15.09-12.44-22.82-32.76-19.23-50.56,2.47-12.3,10-21.19,20.64-24.38,21.52-6.46,26-17.38,26-17.49a4.06,4.06,0,0,1,5.18-2.35,4,4,0,0,1,2.4,5.1c-.21.6-5.49,14.72-31.3,22.46-10.54,3.16-14,12.79-15.06,18.25-2.51,12.45,1.61,30.5,16.46,42.75,10.6,8.73,21.57,10.76,29.34,5.4,4.94-3.39,7.28-9.09,5.68-13.85a4,4,0,0,1,7.65-2.56c2.73,8.15-.87,17.63-8.76,23.06A26,26,0,0,1,835.52,428.68Z"/><path class="cls-9" d="M805.93,589.69h-.19c-9.88-.06-17.45-3-22.48-8.83-7.83-9-6.26-21.42-6.19-21.94a4,4,0,1,1,8,1.06c0,.12-1.12,9.41,4.32,15.63,3.45,3.94,9,6,16.41,6h.14c24.84,0,46.56-40.89,51-57.21.37-1.33.72-2.74,1.09-4.19,2.76-10.77,6.18-24.17,17.23-29.24,7.69-3.53,17.43-2.27,29.75,3.84a4,4,0,1,1-3.58,7.23c-9.87-4.9-17.54-6.16-22.81-3.74-7.55,3.47-10.32,14.33-12.77,23.91-.38,1.5-.75,2.95-1.13,4.32C860.3,542.76,837.22,589.68,805.93,589.69Z"/><path class="cls-9" d="M701.85,639.27a3.76,3.76,0,0,1-1-.13c-32.11-8.43-52.64-27.4-57.83-53.43-5.5-27.64,7.5-54.7,22.53-66.12,17.33-13.18,39.08-10.73,64.63,7.25.69.49,1.21.87,1.56,1.08a4,4,0,0,1-1.92,7.75c-1.29-.12-2-.66-4.28-2.23-8.33-5.87-33.69-23.72-55.11-7.44-13.26,10.09-24.19,34.59-19.5,58.14,3.22,16.15,14.85,37.45,52,47.2a4,4,0,0,1-1,7.93Z"/><path class="cls-9" d="M674.41,718.19a4,4,0,0,1-4-4,27.88,27.88,0,0,1,8.13-18.74c7.28-7.36,18.53-11,33.37-10.89,24.9.22,42.86-5.08,47-13.85,2.57-5.42.09-12.72-7.37-21.7a4,4,0,1,1,6.2-5.16c9.65,11.61,12.5,21.81,8.46,30.32-8.09,17-40.73,18.6-54.38,18.46-12.62-.13-21.88,2.74-27.57,8.49a20,20,0,0,0-5.8,12.91,4,4,0,0,1-3.89,4.11h-.06Z"/><path class="cls-9" d="M856,710.19a4,4,0,0,1-3.73-2.49c-14.84-35.93-46.34-40.08-47.67-40.24a4,4,0,0,1,.92-8c1.52.17,37.49,4.71,54.21,45.17a4,4,0,0,1-2.12,5.24l-.07,0A4.25,4.25,0,0,1,856,710.19Z"/><path class="cls-10" d="M503.57,760.8l11.14,346.4c1.94,60.4,51.51,108.47,112.23,108.83l829.51,4.88a81.3,81.3,0,0,0,81.08-69.2c13-87.48,29.5-244,10.89-390.91Z"/><path class="cls-11" d="M1427.07,1199.63h-6a1,1,0,1,1,0-2h6a1,1,0,0,1,0,2Zm14.09-.09a1,1,0,0,1-.06-2c2-.13,4-.33,5.93-.6a1,1,0,0,1,.28,2c-2,.29-4.06.49-6.08.62Zm-34.23,0h-6a1,1,0,0,1,0-2h6a1,1,0,0,1,0,2Zm-20.14-.11h-6a1,1,0,0,1,0-2h6a1,1,0,0,1,0,2Zm-20.14-.12h-6a1,1,0,0,1-1-1,1.08,1.08,0,0,1,1-1h6a1,1,0,0,1,0,2Zm-20.14-.12h-6a1,1,0,1,1,0-2h6a1,1,0,0,1,0,2Zm-20.14-.12h-6a1,1,0,0,1,0-2h6a1,1,0,1,1,0,1.93Zm-20.14-.12h-6a1,1,0,0,1,0-2h6a1,1,0,1,1,0,2Zm-20.15-.12h-6a1,1,0,0,1,0-2h6a1,1,0,0,1,0,2Zm-20.14-.12h-6a1,1,0,0,1,0-2h6a1,1,0,0,1,0,2Zm-20.14-.11h-6a1,1,0,1,1,0-2h6a1,1,0,0,1,0,2Zm-20.14-.12h-6a1,1,0,0,1,0-2h6a1,1,0,1,1,0,2Zm-20.14-.12h-6a1,1,0,0,1,0-2h6a1,1,0,0,1,0,2Zm-20.14-.12h-6a1,1,0,0,1,0-2h6a1,1,0,0,1,0,2Zm-20.14-.12h-6a1,1,0,1,1,0-2h6a1,1,0,1,1,0,2Zm-20.14-.12h-6a1,1,0,0,1,0-2h6a1,1,0,0,1,0,2Zm-20.14-.12h-6a1,1,0,0,1-1-1,1.09,1.09,0,0,1,1-1h6a1,1,0,0,1,0,2Zm-20.14-.12h-6a1,1,0,0,1,0-2h6a1,1,0,0,1,0,2Zm-20.14-.12h-6a1,1,0,0,1,0-2h6a1,1,0,0,1,0,2Zm-20.14-.11h-6a1,1,0,0,1,0-2h6a1,1,0,0,1,0,2Zm-20.15-.12h-6a1,1,0,0,1,0-2h6a1,1,0,0,1,0,2Zm-20.14-.12h-6a1,1,0,0,1,0-2h6a1,1,0,0,1,0,2Zm-20.14-.12h-6a1,1,0,0,1,0-2h6a1,1,0,1,1,0,2Zm-20.14-.12h-6.05a1,1,0,1,1,0-2h6a1,1,0,0,1,0,2Zm-20.14-.12h-6a1,1,0,0,1,0-2h6a1,1,0,1,1,0,2Zm-20.14-.12h-6a1,1,0,0,1,0-2h6a1,1,0,1,1,0,2Zm-20.14-.11h-6a1,1,0,0,1,0-2h6a1,1,0,0,1,0,2Zm-20.14-.12h-6a1,1,0,1,1,0-2h6a1,1,0,0,1,0,2Zm-20.14-.12h-6a1,1,0,0,1-1-1,1.09,1.09,0,0,1,1-1h6a1,1,0,0,1,0,2Zm-20.14-.12h-6a1,1,0,1,1,0-2h6a1,1,0,1,1,0,2Zm-20.14-.12h-6a1,1,0,0,1-1-1,1.09,1.09,0,0,1,1-1h6a1,1,0,1,1,0,2Zm-20.15-.12h-6a1,1,0,0,1,0-2h6a1,1,0,1,1,0,2h0Zm-20.14-.1h-6a1,1,0,0,1-1-1,1.09,1.09,0,0,1,1-1h6a1,1,0,0,1,0,2Zm-20.14-.12h-6a1,1,0,0,1,0-2h6a1,1,0,1,1,0,1.95Zm678.32-.1a1,1,0,1,1-.32-2c1.88-.62,3.76-1.33,5.58-2.09a1,1,0,0,1,.79,1.85c-1.88.79-3.8,1.52-5.73,2.16a.85.85,0,0,1-.32,0Zm-698.46,0h-6a1,1,0,1,1,0-2h6a1,1,0,0,1,0,2Zm-20.14-.12h-6a1,1,0,0,1-1-1,1.11,1.11,0,0,1,1-1h6a1,1,0,0,1,0,2Zm-20.14-.12h-6a1,1,0,1,1,0-2h6.05a1,1,0,0,1,0,2Zm-20.14-.12h-6a1,1,0,0,1-1-1,1.06,1.06,0,0,1,1-1h6a1,1,0,1,1,0,1.94Zm-20.14-.12h-6a1,1,0,1,1,0-2h6a1,1,0,1,1,0,1.94Zm-20.14-.12h-6a1,1,0,0,1,0-2h6a1,1,0,0,1,0,2Zm-20.14-.22h0c-2-.1-4.06-.26-6.08-.48a1,1,0,0,1-.89-1.1h0a1,1,0,0,1,1.1-.89h0c2,.21,4,.37,6,.46a1,1,0,1,1-.05,2Zm-19.9-2.87h-.24c-2-.47-3.94-1-5.88-1.59a1,1,0,0,1,.58-1.93c1.9.57,3.85,1.1,5.77,1.57a1,1,0,0,1,.75,1.2h0a1,1,0,0,1-1,.65Zm857.28-5a1,1,0,0,1-1-1,1,1,0,0,1,.47-.88c1.66-1.09,3.29-2.25,4.85-3.46a1,1,0,0,1,1.41.16v0a1,1,0,0,1-.18,1.4h0c-1.6,1.24-3.27,2.44-5,3.55a.88.88,0,0,1-.53.08Zm-876.3-1.47a1,1,0,0,1-.41-.09c-1.84-.83-3.68-1.73-5.48-2.67a1,1,0,0,1-.42-1.35,1,1,0,0,1,1.35-.43c1.77.92,3.57,1.8,5.38,2.61a1,1,0,0,1-.42,1.93Zm-17.45-10a1,1,0,0,1-.58-.19c-1.66-1.16-3.3-2.38-4.89-3.63a1,1,0,0,1,1.25-1.59c1.55,1.23,3.17,2.43,4.8,3.57a1,1,0,0,1,.25,1.39v0a1,1,0,0,1-.82.37Zm909-1.67a1,1,0,0,1-.67-.26,1,1,0,0,1-.09-1.41h0c1.32-1.47,2.6-3,3.81-4.59a1,1,0,0,1,1.4-.2h0a1,1,0,0,1,.21,1.4l0,0c-1.24,1.61-2.55,3.2-3.91,4.71a1,1,0,0,1-.77.27Zm-924.3-11.36a1,1,0,0,1-.72-.3c-1.41-1.45-2.8-3-4.13-4.49a1,1,0,1,1,1.52-1.32c1.3,1.5,2.67,3,4.06,4.4a1,1,0,0,1,0,1.42h0a1,1,0,0,1-.75.23Zm935.65-5.2a1,1,0,0,1-.46-.11,1,1,0,0,1-.44-1.34h0c.89-1.77,1.73-3.59,2.48-5.42a1,1,0,0,1,1.3-.56h0a1,1,0,0,1,.55,1.31h0c-.77,1.88-1.63,3.75-2.55,5.56a1,1,0,0,1-.91.49Zm-948.27-10.45a1,1,0,0,1-.85-.45c-1.11-1.69-2.2-3.43-3.22-5.18a1,1,0,1,1,1.74-1c1,1.72,2.07,3.43,3.16,5.09a1,1,0,0,1-.27,1.39h0a.92.92,0,0,1-.57.09Zm954.93-8.49H1512a1,1,0,0,1-.78-1.17v0c.31-1.48.58-3,.8-4.5l.21-1.39a1,1,0,0,1,2,.29l-.2,1.4c-.23,1.54-.51,3.1-.83,4.62a1,1,0,0,1-1,.72Zm-964.42-9.31a1,1,0,0,1-.93-.62c-.78-1.88-1.52-3.8-2.19-5.7a1,1,0,0,1,1.9-.67h0c.66,1.87,1.38,3.75,2.15,5.59a1,1,0,0,1-.52,1.32h0A1,1,0,0,1,547.8,1129.14Zm967.44-10.66h-.14a1,1,0,0,1-.86-1.12v0l.82-6a1,1,0,0,1,2,.28l-.83,6a1,1,0,0,1-1,.86Zm-973.44-8.57a1,1,0,0,1-1-.8q-.62-3-1.07-6a1,1,0,0,1,.84-1.14h0a1,1,0,0,1,1.15.83h0c.29,2,.65,4,1,5.89a1,1,0,0,1-.77,1.19h0Zm976.06-11.4h-.06a1,1,0,0,1-.87-1.11v0l.75-6a1,1,0,0,1,1.11-.88h0a1,1,0,0,1,.88,1.11v0l-.75,6a1,1,0,0,1-1,.88Zm-978.31-8.58a1,1,0,0,1-1-1l-.19-6a1,1,0,0,1,2,0l.2,6a1,1,0,0,1-1,1Zm980.74-11.42h-.12a1,1,0,0,1-.88-1.1h0q.35-3,.68-6a1,1,0,0,1,1.11-.88h0a1,1,0,0,1,.88,1.11h0q-.33,3-.68,6a1,1,0,0,1-1,.88ZM538.9,1069.8a1,1,0,0,1-1-1l-.2-6a1,1,0,0,1,2,0l.2,6A1,1,0,0,1,538.9,1069.8Zm983.59-11.32h-.1a1,1,0,0,1-.9-1.09v0c.21-2,.41-4,.62-6a1,1,0,0,1,2,.21q-.3,3-.62,6a1,1,0,0,1-1,.9Zm-984.24-8.81a1,1,0,0,1-1-1l-.2-6a1,1,0,0,1,2,0l.19,6a1,1,0,0,1-1,1Zm986.22-11.23h-.1a1,1,0,0,1-.91-1.08v0q.29-3,.55-6a1,1,0,1,1,2,.18q-.27,3-.55,6a1,1,0,0,1-1,.92Zm-986.86-8.9a1,1,0,0,1-1-1l-.19-6a1,1,0,0,1,2,0l.19,6A1,1,0,0,1,537.61,1029.54Zm988.6-11.17h-.08a1,1,0,0,1-.93-1.06v0l.48-6a1,1,0,0,1,1.07-.93h0a1,1,0,0,1,.93,1.07h0l-.48,6a1,1,0,0,1-1,.93Zm-989.25-9a1,1,0,0,1-1-1l-.19-6a1,1,0,1,1,2,0l.2,6a1,1,0,0,1-1,1Zm990.75-11.13h-.07a1,1,0,0,1-.94-1v0l.4-6a1,1,0,0,1,1.06-.94h0a1,1,0,0,1,.94,1.06v0l-.4,6a1,1,0,0,1-1,1Zm-991.4-9a1,1,0,0,1-1-1l-.2-6a1,1,0,0,1,2,0l.19,6a1,1,0,0,1-1,1ZM1529,978.13h-.06a1,1,0,0,1-1-1v0l.33-6a1,1,0,0,1,1-1h.06a1,1,0,0,1,1,1v.06c-.1,2-.22,4-.33,6a1,1,0,0,1-1,1H1529Zm-993.29-9a1,1,0,0,1-1-1l-.19-6a1,1,0,0,1,2-.07l.19,6a1,1,0,0,1-1,1ZM1530,958h0a1,1,0,0,1-1-1c.08-2,.17-4,.24-6a1,1,0,0,1,2,0q-.12,3-.25,6a1,1,0,0,1-1,1ZM535,949a1,1,0,0,1-1-1l-.19-6a1,1,0,0,1,2,0l.2,6a1,1,0,0,1-1,1Zm995.66-11.1h0a1,1,0,0,1-1-1q.09-3,.17-6a1,1,0,1,1,2,0c0,2-.11,4-.16,6a1,1,0,0,1-1,1Zm-996.31-9a1,1,0,0,1-1-1l-.2-6a1,1,0,0,1,2,0l.2,6A1,1,0,0,1,534.37,928.93Zm996.76-11.11h0a1,1,0,0,1-1-1q0-3,.08-6a1.06,1.06,0,0,1,1-1,1,1,0,0,1,1,1q0,3-.08,6a1,1,0,0,1-1,1Zm-997.41-9a1,1,0,0,1-1-1l-.2-6a1,1,0,0,1,2,0l.19,6a1,1,0,0,1-1,1Zm997.57-11.12a1,1,0,0,1-1-1v-6a1,1,0,0,1,1-1h0a1,1,0,0,1,1,1v6a1,1,0,0,1-1,.93Zm-998.21-9a1,1,0,0,1-1-1l-.19-6a1,1,0,0,1,2,0l.19,6A1,1,0,0,1,533.08,888.7Zm998.06-11.12a1,1,0,0,1-1-1c0-2-.06-4-.1-6a1,1,0,1,1,2,0q.06,3,.11,6a1,1,0,0,1-1,1Zm-998.71-9a1,1,0,0,1-1-1l-.19-6a1,1,0,1,1,2-.06l.2,6a1,1,0,0,1-1,1Zm998.24-11.12a1,1,0,0,1-1-1q-.09-3-.2-6a1,1,0,0,1,2-.08l.21,6a1,1,0,0,1-1,1Zm-998.89-9a1,1,0,0,1-1-1l-.2-6a1,1,0,0,1,2,0l.2,6A1,1,0,0,1,531.78,848.46Zm998.07-11.12a1,1,0,0,1-1-1q-.15-3-.31-6a1,1,0,0,1,.94-1.06h.06a1,1,0,0,1,1.06.94v.06q.17,3,.31,6a1,1,0,0,1-1,1Zm-998.72-9a1,1,0,0,1-1-1l-.2-6a1,1,0,0,1,2,0l.19,6a1,1,0,0,1-1,1Zm997.55-11.08a1,1,0,0,1-1-.94q-.21-3-.43-6a1,1,0,0,1,2-.15c.15,2,.3,4,.43,6a1,1,0,0,1-.91,1.08h-.09Zm-998.19-9a1,1,0,0,1-1-1l-.19-6a1,1,0,0,1,2-.07l.19,6a1,1,0,0,1-1,1Zm996.63-11a1,1,0,0,1-1-.92q-.27-3-.55-6a1,1,0,0,1,.89-1.1h0a1,1,0,0,1,1.09.9h0c.19,2,.38,4,.55,6a1,1,0,0,1-.9,1.09h0ZM529.86,788a1,1,0,0,1-1-1l-.19-6a1,1,0,0,1,2,0l.2,6a1,1,0,0,1-1,1Zm995.31-11a1,1,0,0,1-1-.9q-.33-3-.68-6a1,1,0,1,1,2-.24q.35,3,.68,6a1,1,0,0,1-.88,1.11h0Zm-996-9.18a1,1,0,0,1-1-1l-.23-7.08h3.65a1,1,0,0,1,0,2H530l.16,5a1,1,0,0,1-1,1Zm989.34-6h-6a1,1,0,0,1,0-2h6a1,1,0,0,1,0,2Zm-20.14,0h-6a1,1,0,0,1,0-2h6a1,1,0,0,1,0,2Zm-20.14,0h-6a1,1,0,0,1,0-2h6a1,1,0,0,1,0,2Zm-20.14,0h-6a1,1,0,0,1,0-2h6a1,1,0,0,1,0,2Zm-20.14,0h-6a1,1,0,0,1,0-2h6a1,1,0,0,1,0,2Zm-20.14,0h-6a1,1,0,0,1,0-2h6a1,1,0,0,1,0,2Zm-20.14,0h-6a1,1,0,0,1,0-2h6a1,1,0,0,1,0,2Zm-20.14,0h-6a1,1,0,0,1,0-2h6a1,1,0,0,1,0,2Zm-20.14,0h-6.05a1,1,0,0,1,0-2h6.05a1,1,0,0,1,0,2Zm-20.15,0h-6a1,1,0,0,1,0-2h6a1,1,0,0,1,0,2Zm-20.14,0h-6a1,1,0,0,1,0-2h6a1,1,0,0,1,0,2Zm-20.14,0h-6a1,1,0,0,1,0-2h6a1,1,0,0,1,0,2Zm-20.14,0h-6a1,1,0,0,1,0-2h6a1,1,0,0,1,0,2Zm-20.14,0h-6a1,1,0,0,1,0-2h6a1,1,0,0,1,0,2Zm-20.14,0h-6a1,1,0,0,1,0-2h6a1,1,0,0,1,0,2Zm-20.14,0h-6.05a1,1,0,0,1,0-2h6.05a1,1,0,0,1,0,2Zm-20.14,0h-6a1,1,0,0,1,0-2h6a1,1,0,0,1,0,2Zm-20.15,0h-6a1,1,0,0,1,0-2h6a1,1,0,0,1,0,2Zm-20.14,0h-6a1,1,0,0,1,0-2h6a1,1,0,0,1,0,2Zm-20.14,0h-6a1,1,0,0,1,0-2h6a1,1,0,0,1,0,2Zm-20.14,0h-6a1,1,0,0,1,0-2h6a1,1,0,0,1,0,2Zm-20.14,0h-6a1,1,0,0,1,0-2h6a1,1,0,0,1,0,2Zm-20.14,0h-6a1,1,0,0,1,0-2h6a1,1,0,0,1,0,2Zm-20.14,0h-6a1,1,0,0,1,0-2h6a1,1,0,0,1,0,2Zm-20.14,0h-6a1,1,0,0,1,0-2h6a1,1,0,0,1,0,2Zm-20.15,0h-6a1,1,0,0,1,0-2h6a1,1,0,0,1,0,2Zm-20.14,0h-6a1,1,0,0,1,0-2h6a1,1,0,0,1,0,2Zm-20.14,0h-6a1,1,0,0,1,0-2h6a1,1,0,0,1,0,2Zm-20.14,0h-6a1,1,0,0,1,0-2h6a1,1,0,0,1,0,2Zm-20.14,0h-6a1,1,0,0,1,0-2h6a1,1,0,0,1,0,2Zm-20.14,0h-6a1,1,0,0,1,0-2h6a1,1,0,0,1,0,2Zm-20.14,0h-6a1,1,0,0,1,0-2h6a1,1,0,0,1,0,2Zm-20.14,0h-6a1,1,0,0,1,0-2h6a1,1,0,0,1,0,2Zm-20.15,0h-6a1,1,0,0,1,0-2h6a1,1,0,0,1,0,2Zm-20.14,0h-6a1,1,0,0,1,0-2h6a1,1,0,0,1,0,2Zm-20.14,0h-6a1,1,0,0,1,0-2h6a1,1,0,0,1,0,2Zm-20.14,0h-6a1,1,0,0,1,0-2h6a1,1,0,0,1,0,2Zm-20.14,0h-6a1,1,0,0,1,0-2h6a1,1,0,0,1,0,2Zm-20.14,0h-6a1,1,0,0,1,0-2h6a1,1,0,0,1,0,2Zm-20.14,0h-6a1,1,0,0,1,0-2h6a1,1,0,0,1,0,2Zm-20.14,0h-6a1,1,0,0,1,0-2h6a1,1,0,0,1,0,2Zm-20.15,0h-6a1,1,0,0,1,0-2h6a1,1,0,0,1,0,2Zm-20.14,0h-6a1,1,0,0,1,0-2h6a1,1,0,0,1,0,2Zm-20.14,0h-6a1,1,0,0,1,0-2h6a1,1,0,0,1,0,2Zm-20.14,0h-6a1,1,0,0,1,0-2h6a1,1,0,0,1,0,2Zm-20.14,0h-6a1,1,0,0,1,0-2h6a1,1,0,0,1,0,2Zm-20.14,0h-6a1,1,0,0,1,0-2h6a1,1,0,0,1,0,2Zm-20.14,0h-6a1,1,0,0,1,0-2h6a1,1,0,0,1,0,2Zm-20.14,0h-6a1,1,0,0,1,0-2h6.11a1,1,0,0,1,0,2Z"/><path class="cls-12" d="M746.67,509.33l2.5-26.72a20.54,20.54,0,0,1,15.58-12c25.84-4.12,89.93-11.35,120.79,11.71l4.61,31Z"/><path class="cls-13" d="M827.4,483.62a37,37,0,0,1-17.88,0A16.14,16.14,0,0,1,797.2,468V384.3h42.6v83.59A16.2,16.2,0,0,1,827.4,483.62Z"/><path class="cls-14" d="M1159,509.33l2.5-26.72a20.54,20.54,0,0,1,15.58-12c25.84-4.12,89.93-11.35,120.79,11.71l4.61,31Z"/><path class="cls-15" d="M1239.74,483.62a37,37,0,0,1-17.88,0A16.14,16.14,0,0,1,1209.54,468V375.48h42.57v92.41A16.21,16.21,0,0,1,1239.74,483.62Z"/><path class="cls-16" d="M792.87,404.8l457.84-15.15a22.08,22.08,0,0,0,21.09-18.12c2.51-14.33,4.72-35.79,1.42-58-3.74-25.29-25.5-44.08-51.18-44.7-85.41-2-302.84-2-422.68,45.44a41.85,41.85,0,0,0-25.28,29C771,355.85,769,372.65,773,389.76A19.72,19.72,0,0,0,792.87,404.8Z"/><path class="cls-11" d="M785,381a2,2,0,0,1-2-1.81c-.08-.73-1.75-17.94,2.74-34.5a38.15,38.15,0,0,1,26-26.42c25.51-7.49,74.25-20.21,114.07-21.33a2,2,0,1,1,.11,4c-39.37,1.1-87.72,13.73-113,21.16a34.13,34.13,0,0,0-23.25,23.61c-4.28,15.83-2.63,32.87-2.62,33a2,2,0,0,1-1.77,2.21h0Z"/><path class="cls-17" d="M534.26,498.92C682.17,497,1322,490.3,1507.88,512.73A37.84,37.84,0,0,1,1540.41,542c11,49.65,33.08,165,30.46,279.32a33.13,33.13,0,0,1-27.13,31.59l-424.26,80.26H968.8L516.74,843.32a35.34,35.34,0,0,1-28.5-32.82c-2.94-57.52-7.53-192.48,8-279.35A39.13,39.13,0,0,1,534.26,498.92Z"/><path class="cls-11" d="M1116,897.66h-6a1,1,0,0,1,0-2h6a1,1,0,0,1,0,2Zm-20.14,0h-6a1,1,0,0,1,0-2h6a1,1,0,0,1,0,2Zm-20.14,0h-6a1,1,0,0,1,0-2h6a1,1,0,0,1,0,2Zm-20.14,0h-6a1,1,0,0,1,0-2h6a1,1,0,0,1,0,2Zm-20.15,0h-6a1,1,0,0,1,0-2h6a1,1,0,0,1,0,2Zm-20.14,0h-6a1,1,0,0,1,0-2h6a1,1,0,0,1,0,2Zm-20.14,0h-6a1,1,0,0,1,0-2h6a1,1,0,0,1,0,2Zm-20.14,0h-2.63l-6.12-1.19a1,1,0,0,1,.39-2l5.93,1.18H975a1,1,0,0,1,0,2Zm154.84-2.6a1,1,0,0,1-.18-2l5.93-1.12a1,1,0,1,1,.38,2l-5.94,1.13Zm-177.22-1.32h-.2l-5.93-1.18a1,1,0,1,1,.4-2l5.92,1.17a1,1,0,0,1,.8,1.17v0a1,1,0,0,1-1,.82Zm197-2.43a1,1,0,0,1-.18-2l5.94-1.12a1,1,0,1,1,.37,2l-5.94,1.12Zm-216.77-1.5a.61.61,0,0,1-.19,0l-5.93-1.18a1,1,0,0,1,.39-2l5.93,1.18a1,1,0,0,1,.79,1.17h0a1,1,0,0,1-1,.82Zm236.56-2.24a1,1,0,0,1-.18-2l5.94-1.12a1,1,0,1,1,.37,2l-5.94,1.12ZM913.1,885.89h-.2L907,884.71a1,1,0,0,1-.79-1.17v0a1,1,0,0,1,1.17-.79h0l5.92,1.18a1,1,0,1,1-.19,2Zm276.1-2.07a1,1,0,0,1-.18-2l5.94-1.13a1,1,0,0,1,1.17.8h0a1,1,0,0,1-.79,1.17h0l-5.94,1.13ZM893.35,882h-.2l-5.92-1.18a1,1,0,0,1-.79-1.17h0a1,1,0,0,1,1.17-.79h0l5.93,1.17a1,1,0,0,1-.2,2ZM1209,880.12a1,1,0,0,1-.18-2l6-1.12a1,1,0,1,1,.37,2l-5.94,1.12Zm-335.4-2h-.2l-5.93-1.18a1,1,0,1,1,.4-2L873.8,876a1,1,0,1,1-.19,2Zm355.19-1.7a1,1,0,0,1-.18-2l5.94-1.12a1,1,0,1,1,.37,2l-5.94,1.13Zm-375-2.23h-.19L847.67,873a1,1,0,0,1,.39-2L854,872.2a1,1,0,1,1-.2,2Zm394.74-1.51a1,1,0,0,1-.18-2l5.94-1.12a1,1,0,1,1,.37,2l-5.94,1.12ZM834,870.27h-.2l-5.93-1.18a1,1,0,0,1,.4-2l5.92,1.17a1,1,0,1,1-.19,2Zm434.28-1.33a1,1,0,1,1-.18-2l5.94-1.12a1,1,0,1,1,.37,2l-5.94,1.12Zm-454-2.6h-.19l-5.93-1.18a1,1,0,0,1,.39-2l5.93,1.18a1,1,0,1,1-.2,2Zm473.83-1.15a1,1,0,0,1-.18-2l5.94-1.13a1,1,0,0,1,1.17.8h0a1,1,0,0,1-.79,1.17h0l-5.94,1.12-.18-.06Zm-493.58-2.78h-.2l-5.92-1.17a1,1,0,0,1,.39-2l5.92,1.18a1,1,0,1,1-.19,2Zm513.38-1a1,1,0,0,1-.19-2l5.94-1.12a1,1,0,1,1,.37,2l-5.94,1.12Zm-533.14-3h-.19l-5.93-1.18a1,1,0,0,1,.39-2l5.93,1.18a1,1,0,1,1-.2,2Zm552.93-.79a1,1,0,0,1-.19-2l5.94-1.12a1,1,0,1,1,.37,2l-5.94,1.13Zm-572.68-3.14h-.2l-5.92-1.18a1,1,0,0,1-.8-1.16v0a1,1,0,0,1,1.17-.79h0l5.92,1.18a1,1,0,1,1-.19,2Zm592.47-.6a1,1,0,0,1-.19-2l5.94-1.12a1,1,0,1,1,.37,2l-5.94,1.12ZM735.3,850.55h-.19l-5.93-1.17a1,1,0,0,1,.39-2l5.93,1.18a1,1,0,1,1-.2,2Zm632-.41a1,1,0,0,1-.19-2l5.94-1.12a1,1,0,1,1,.37,2l-5.94,1.12Zm-651.77-3.51h-.2l-5.92-1.18a1,1,0,0,1,.39-2l5.92,1.18a1,1,0,1,1-.19,2Zm671.56-.24a1,1,0,0,1-.19-2l5.94-1.13a1,1,0,0,1,1.17.8h0a1,1,0,0,1-.79,1.17h0l-5.94,1.12a.39.39,0,0,1-.15,0Zm-691.29-3.7h-.2l-5.93-1.18a1,1,0,0,1-.79-1.17h0a1,1,0,0,1,1.17-.79h0l5.93,1.18a1,1,0,1,1-.19,2Zm711.1,0a1,1,0,0,1-.19-2l5.94-1.12a1,1,0,1,1,.37,2l-5.94,1.12Zm19.79-3.75a1,1,0,0,1-.19-2l5.94-1.13a1,1,0,0,1,1.17.8h0a1,1,0,0,1-.79,1.17h0l-5.94,1.13ZM676,838.81a.67.67,0,0,1-.2,0l-5.92-1.17a1,1,0,0,1,.39-2l5.93,1.18a1,1,0,1,1-.2,2Zm770.44-3.61a1,1,0,0,1-.19-2l5.94-1.12a1,1,0,1,1,.37,2l-5.94,1.12Zm-790.19-.31h-.2l-5.93-1.18a1,1,0,0,1,.39-2l5.93,1.18a1,1,0,0,1,.8,1.17v0a1,1,0,0,1-1,.76Zm810-3.43a1,1,0,0,1-.19-2l5.94-1.12a1,1,0,1,1,.37,2l-5.94,1.12ZM636.55,831h-.2l-5.92-1.18a1,1,0,0,1-.79-1.17h0a1,1,0,0,1,1.17-.79h0l5.93,1.18a1,1,0,0,1,.79,1.17h0a1,1,0,0,1-1,.74Zm849.53-3.25a1,1,0,0,1-.19-2l5.94-1.13a1,1,0,0,1,1.17.8h0a1,1,0,0,1-.79,1.17h0l-5.94,1.12a.41.41,0,0,1-.19,0ZM616.8,827h-.2l-5.93-1.17a1,1,0,0,1,.39-2L617,825a1,1,0,1,1-.19,2Zm889.07-3.06a1,1,0,0,1-.19-2l5.94-1.12a1,1,0,1,1,.37,2l-5.93,1.12ZM597,823.08h-.2l-5.92-1.18a1,1,0,0,1,.39-2l5.93,1.18a1,1,0,1,1-.2,2Zm928.62-2.89a1,1,0,0,1-.19-2l5.94-1.13a1,1,0,0,1,1.17.8h0a1,1,0,0,1-.79,1.17h0l-5.93,1.13Zm-948.37-1h-.2L571.16,818a1,1,0,0,1-.79-1.17h0a1,1,0,0,1,1.17-.79h0l5.93,1.18a1,1,0,1,1-.19,2Zm-19.76-3.93h-.2L551.4,814a1,1,0,0,1-.79-1.17h0a1,1,0,0,1,1.15-.83h0l5.93,1.18a1,1,0,1,1-.2,2Zm-19.73-4h-.2l-5.93-1.18a1,1,0,0,1,.4-2l5.92,1.18a1,1,0,1,1-.19,2Zm996.75-4h0a1,1,0,0,1-1-1v-6a1,1,0,0,1,1-1h0a1,1,0,0,1,1,1v6a1,1,0,0,1-1,1h0ZM524.36,801.9a1,1,0,0,1-1-1l-.28-6a1,1,0,0,1,2-.09l.28,6a1,1,0,0,1-1,1.05h0Zm1010-14.76a1,1,0,0,1-1-1q-.06-3-.13-6a1,1,0,1,1,2,0q.07,3,.14,6a1,1,0,0,1-1,1ZM523.47,781.77a1,1,0,0,1-1-1l-.22-6a1,1,0,0,1,2,0l.23,6a1,1,0,0,1-1,1ZM1533.8,767a1,1,0,0,1-1-1q-.12-3-.27-6a1,1,0,0,1,2-.09c.09,2,.17,4,.26,6a1,1,0,0,1-1,1Zm-1011-5.37a1,1,0,0,1-1-1l-.17-6a1,1,0,0,1,2,0l.17,6A1,1,0,0,1,522.8,761.63Zm1009.93-14.72a1,1,0,0,1-1-.95l-.39-6a1,1,0,1,1,2-.14c.14,2,.26,4,.39,6a1,1,0,0,1-.92,1.07h0ZM522.26,741.49a1,1,0,0,1-1-1l-.12-6a1,1,0,0,1,2,0l.12,6A1,1,0,0,1,522.26,741.49Zm1009-14.68a1,1,0,0,1-1-.92q-.24-3-.5-6a1,1,0,0,1,2-.17q.26,3,.5,6a1,1,0,0,1-.9,1.09h-.1ZM521.92,721.35a1,1,0,0,1-1-1l-.06-6a1,1,0,0,1,2,0l.07,6a1,1,0,0,1-1,1Zm1007.57-14.61a1,1,0,0,1-1-.91q-.29-3-.6-6a1,1,0,1,1,2-.2q.31,3,.61,6a1,1,0,0,1-.89,1.1h-.12ZM521.8,701.21a1,1,0,0,1-1-1v-6.05a1,1,0,0,1,1-1h0a1,1,0,0,1,1,1v6a1,1,0,0,1-1,1ZM1527.37,686.7a1,1,0,0,1-1-.89q-.34-3-.71-6a1,1,0,0,1,.87-1.12h0a1,1,0,0,1,1.12.87h0q.36,3,.71,6a1,1,0,0,1-.87,1.12h-.13ZM521.85,681.07h0a1,1,0,0,1-1-1c0-2,0-4,.06-6a1,1,0,0,1,1-1h0a1,1,0,0,1,1,1q0,3-.07,6A1,1,0,0,1,521.85,681.07ZM1524.91,666.7a1,1,0,0,1-1-.87c-.27-2-.53-4-.8-6a1,1,0,0,1,2-.27c.26,2,.53,4,.79,6a1,1,0,0,1-.85,1.13h-.14ZM522.17,660.94h0a1,1,0,0,1-1-1c0-2,.09-4,.14-6a1,1,0,0,1,2,0c-.06,2-.1,4-.15,6A1,1,0,0,1,522.17,660.94Zm1000-14.2a1,1,0,0,1-1-.86c-.29-2-.59-4-.88-6a1,1,0,0,1,.83-1.15h0a1,1,0,0,1,1.15.83v0q.45,3,.88,6a1,1,0,0,1-.84,1.14h0ZM522.8,640.8h0a1,1,0,0,1-1-1c.07-2,.14-4,.23-6a1,1,0,0,1,1-1h.05a1,1,0,0,1,1,1c-.08,2-.15,4-.23,6a1,1,0,0,1-1,1Zm996.35-14a1,1,0,0,1-1-.85q-.48-3-1-6a1,1,0,0,1,.81-1.16h0a1,1,0,0,1,1.16.82h0c.32,2,.65,4,1,6a1,1,0,0,1-.82,1.15h0Zm-995.46-6.17h-.05a1,1,0,0,1-1-1v-.06c.11-2,.23-4,.34-6.05a1,1,0,0,1,1-.95h0a1,1,0,0,1,.94,1.06h0c-.11,2-.23,4-.33,6a1,1,0,0,1-1,1h0ZM1515.8,607a1,1,0,0,1-1-.83c-.35-2-.7-4-1-6a1,1,0,0,1,.8-1.17h0a1,1,0,0,1,1.17.8v0c.35,1.95.7,3.94,1.06,5.95a1,1,0,0,1-.8,1.17h0Zm-990.9-6.46h-.1a1,1,0,0,1-.93-1.06v0c.15-2,.31-4,.46-6a1,1,0,0,1,1.07-.92h0a1,1,0,0,1,.93,1.07h0c-.16,2-.32,4-.46,6A1,1,0,0,1,524.9,600.54Zm987.24-13.41a1,1,0,0,1-1-.82l-1.14-5.93a1,1,0,0,1,2-.39q.57,2.91,1.15,5.94a1,1,0,0,1-.78,1.18h0Zm-985.53-6.66h-.1a1,1,0,0,1-.9-1.09h0q.3-3,.61-6a1,1,0,0,1,2,.22c-.21,2-.41,4-.62,6a1,1,0,0,1-1,.88Zm981.61-13.11a1,1,0,0,1-1-.8c-.42-2-.83-4-1.23-5.92a1,1,0,1,1,2-.42c.4,1.9.81,3.87,1.24,5.93a1,1,0,0,1-.77,1.19h0Zm-979.34-6.91h-.08a1,1,0,0,1-.87-1.11v0c.26-2,.54-4,.82-6a1,1,0,1,1,2,.28q-.42,3-.81,6a1,1,0,0,1-1.06.85Zm972.92-10.63h-.12l-6-.68a1,1,0,1,1,.22-2l6,.68a1,1,0,0,1,.94,1.06,1,1,0,0,1-1.06.94Zm-20-2.09h-.09l-6-.54a1,1,0,1,1,.18-2l6,.54a1,1,0,1,1-.09,2ZM1461.66,546h-.08l-6-.45a1,1,0,0,1-.94-1v0a1,1,0,0,1,1.07-.93h0l6,.45a1,1,0,1,1-.07,2h0Zm-20.1-1.42h-.06l-6-.39a1,1,0,0,1,.13-2l6,.39a1,1,0,1,1-.07,2Zm-20.1-1.22h-.06l-6-.34a1,1,0,0,1,.11-2l6,.34a1,1,0,0,1,0,2Zm-20.12-1.07h0l-6-.3a1,1,0,0,1,0-2l6,.3a1,1,0,0,1,0,2h0Zm-20.12-.94h0l-6-.26a1,1,0,0,1,0-2l6,.26a1,1,0,0,1,0,2Zm-20.12-.84h0l-6-.23a1,1,0,0,1,0-2l6,.23a1,1,0,0,1,0,2Zm-829.22,0h-.17a1,1,0,0,1-.82-1.15v0l.34-1.9a3.59,3.59,0,0,1,3.48-3h.52a1,1,0,0,1,0,2h-.52a1.55,1.55,0,0,0-1.53,1.33l-.33,1.89a1,1,0,0,1-1,.87Zm809.09-.74h0l-6-.21a1,1,0,0,1,0-2l6,.21a1,1,0,0,1,0,2h0Zm-20.13-.67h0l-6-.19a1,1,0,0,1,0-2l6,.19a1,1,0,0,1,0,2Zm-20.13-.61h0l-6-.17a1,1,0,0,1,0-2l6,.17a1,1,0,0,1,0,2Zm-20.14-.55h0l-6-.16a1,1,0,0,1,0-2l6,.15a1,1,0,0,1,0,2Zm-20.14-.5h0l-6-.14a1,1,0,0,1,0-2l6,.14a1,1,0,0,1,0,2ZM1240.3,537h0l-6-.13a1,1,0,0,1,0-2l6,.13a1,1,0,0,1,0,2Zm-20.14-.41h0l-6-.11a1,1,0,0,1,0-2l6,.11a1,1,0,0,1,0,2Zm-670.8-.3a1,1,0,0,1,0-2l6-.07a1,1,0,1,1,0,2l-6,.08Zm650.66-.06h0l-6-.1a1,1,0,0,1,0-2l6,.1a1,1,0,0,1,0,2Zm-630.51-.18a1,1,0,0,1,0-2l6-.06a1,1,0,0,1,0,2l-6,.07Zm610.37-.15h0l-6-.09a1,1,0,0,1,0-2l6,.09a1,1,0,0,1,0,2Zm-590.22-.07a1,1,0,0,1,0-2l6-.06h0a1,1,0,0,1,0,2l-6,.07Zm20.15-.21a1,1,0,0,1,0-2l6-.06a1,1,0,0,1,0,2l-6,.06Zm549.93,0h0l-6-.08a1,1,0,0,1,0-2l6,.08a1,1,0,0,1,0,2ZM630,535.44a1,1,0,0,1,0-2l6-.06a1,1,0,0,1,0,2h-6Zm509.64-.08h0l-6-.07a1,1,0,0,1,0-2h0l6,.08a1,1,0,0,1,0,2Zm-489.49-.1a1,1,0,1,1,0-2l6,0a1.09,1.09,0,0,1,1,1,1,1,0,0,1-1,1h-6Zm469.35-.14h0l-6-.06a1,1,0,0,1,0-2l6,.07a1,1,0,0,1,0,2Zm-449.2,0a1,1,0,0,1,0-2h6a1.06,1.06,0,0,1,1,1,1,1,0,0,1-1,1l-6,0ZM690.4,535a1,1,0,0,1,0-2h6a1,1,0,1,1,0,2Zm408.92,0h0l-6-.06a1,1,0,0,1,0-2h6a1,1,0,0,1,0,2Zm-388.77-.14a1,1,0,0,1,0-2h6a1,1,0,0,1,0,2Zm368.63,0h0l-6-.05a1,1,0,0,1,0-2h0l6,.05a1,1,0,0,1,0,2Zm-348.48-.09a1,1,0,0,1,0-2h6a1,1,0,0,1,0,2h-6Zm328.34-.07h-6a1,1,0,0,1,0-2h6a1,1,0,1,1,0,1.91Zm-308.19,0a1,1,0,0,1,0-2h6a1,1,0,0,1,0,2h-6Zm288-.08h-6a1,1,0,0,1,0-2h6a1,1,0,0,1,0,2Zm-267.91,0a1,1,0,0,1,0-2h6a1,1,0,0,1,0,2Zm247.76-.09h-6a1,1,0,0,1,0-2h6a1,1,0,0,1,1,1,1,1,0,0,1-.9.88Zm-227.61,0a1,1,0,0,1,0-2h6a1,1,0,1,1,0,2Zm20.15-.08a1,1,0,0,1,0-2h6a1,1,0,0,1,0,2Zm187.32,0h-6a1,1,0,0,1,0-2h6a1,1,0,0,1,0,2Zm-167.18-.06a1,1,0,1,1,0-2h6a1,1,0,0,1,0,2Zm147,0h-6a1,1,0,0,1,0-2h6a.93.93,0,1,1,.14,1.86Zm-126.89,0a1,1,0,0,1,0-2h6a1,1,0,0,1,0,2Zm106.75,0h-6a1,1,0,0,1,0-2h6a1,1,0,0,1,1,1,1,1,0,0,1-.91.81Zm-86.6,0a1,1,0,0,1,0-2h6a1,1,0,1,1,0,2Zm66.46,0h-6.05a1,1,0,0,1,0-2h6.05a.89.89,0,1,1,.09,1.78Zm-46.32,0a1,1,0,0,1,0-2h6a1,1,0,0,1,0,2Zm26.17,0h-6a1,1,0,0,1,0-2h6a1,1,0,0,1,0,2Z"/><path class="cls-18" d="M1108.18,994.06H976.07a34.12,34.12,0,0,1-33.94-30L926.87,837a34.07,34.07,0,0,1,29.86-37.83,34.76,34.76,0,0,1,4.08-.24h158.7A34.1,34.1,0,0,1,1153.64,833c0,1,0,2-.13,2.94l-11.33,127.12A34.12,34.12,0,0,1,1108.18,994.06Z"/><path class="cls-19" d="M1096.07,463.35c-.24-3-3.31-5.61-8.51-7.7,5.65-3.11,8.77-6.45,8.51-9.73-.8-9.91-32.19-15.46-70.11-12.41S958,447.08,958.75,457c.24,3,3.31,5.6,8.51,7.69-5.65,3.12-8.78,6.46-8.51,9.73.24,3,3.31,5.61,8.51,7.7-5.65,3.11-8.78,6.45-8.51,9.73.24,3,3.31,5.61,8.51,7.69-5.65,3.12-8.78,6.46-8.51,9.73.35,4.39,6.69,7.92,16.93,10.23a89,89,0,0,0,.26,10.71c1.49,18.26,22,32.58,49.2,32.58s50.69-19.52,51-37.85a92.53,92.53,0,0,0-.54-12c13-4.34,20.92-9.65,20.51-14.79-.24-3-3.31-5.61-8.51-7.69,5.65-3.12,8.77-6.46,8.51-9.73-.24-3-3.31-5.61-8.51-7.7C1093.21,470,1096.33,466.62,1096.07,463.35Z"/><path class="cls-20" d="M1008.41,523.44A163.93,163.93,0,0,1,978.33,521a.91.91,0,0,1-.72-1.07.92.92,0,0,1,1.07-.72h0c13.32,2.56,31.11,3.12,50.1,1.59a215.17,215.17,0,0,0,42-7.25.91.91,0,0,1,.51,1.75h0a217.42,217.42,0,0,1-42.38,7.31C1021.87,523.16,1015,523.44,1008.41,523.44Z"/><path class="cls-21" d="M1008.6,506c-14.63,0-27.71-1.38-36.93-4a.93.93,0,0,1-.63-1.13.92.92,0,0,1,1.13-.62h0c13.14,3.74,34.31,4.9,56.61,3.1,22.06-1.78,42.64-6.26,55-12a.91.91,0,1,1,.76,1.66h0c-12.59,5.8-33.4,10.34-55.66,12.14C1022,505.73,1015.14,506,1008.6,506Z"/><path class="cls-22" d="M1008.42,488.59c-15.8,0-29.63-1.62-38.93-4.69a.91.91,0,1,1,.57-1.73c13,4.27,34.9,5.67,58.72,3.75,22.06-1.77,42.64-6.25,55-12a.91.91,0,0,1,1.18.52.9.9,0,0,1-.42,1.13c-12.59,5.81-33.4,10.34-55.66,12.14C1021.87,488.31,1015,488.59,1008.42,488.59Z"/><path class="cls-23" d="M1008.54,471.15c-12.54,0-23.93-1-32.8-3a.91.91,0,0,1,.4-1.78h0c13.33,3,32.51,3.73,52.64,2.11,21.87-1.77,42.34-6.19,54.76-11.85a.91.91,0,1,1,.76,1.66h0c-12.61,5.74-33.31,10.22-55.37,12C1022,470.88,1015.09,471.15,1008.54,471.15Z"/><path class="cls-24" d="M933.29,375.39a128.12,128.12,0,0,0-23-44.84c-22.57-28.45-59.4-86.31-63.94-165.28C839.8,50.4,941.67-7.11,1034.63.7s184.69,77,174.65,183.88c-6.18,65.76-43,115.63-70.38,144.27a152.14,152.14,0,0,0-36.53,64.72c-8.22,29.69-27.79,66.69-74.31,68.95C967.88,465.43,942.88,409.33,933.29,375.39Z"/><path class="cls-11" d="M1043.44,439.61,1076,228.05c.67-4.37,2.82-7.3,4.8-6.55s3,4.9,2.37,9.27a.78.78,0,0,1-.06.37l-37,209.59c-.28,1.58-1.08,2.58-1.79,2.23S1043.21,441.14,1043.44,439.61Z"/><path class="cls-11" d="M1009.67,441.29,977.15,229.73c-.67-4.37-2.83-7.3-4.81-6.55s-3,4.9-2.37,9.27a.8.8,0,0,0,.06.37l37.06,209.59c.27,1.58,1.07,2.58,1.78,2.23S1009.91,442.82,1009.67,441.29Z"/><path class="cls-11" d="M1075.73,209.89a3.4,3.4,0,0,0-4.27-1.11l-18.11,8.46-6.29-17.91a3.82,3.82,0,0,0-2.2-2.22,4.49,4.49,0,0,0-5.56,1.72v.06L1024.37,226l-13.82-38.66v-.06a4.36,4.36,0,0,0-2.09-2.36,5.44,5.44,0,0,0-6.84,1.35L980.8,215a2.52,2.52,0,0,0,.56,3.51l.17.11a3.48,3.48,0,0,0,4.43-.48l18.34-20.45,16.5,36.78h0a2.89,2.89,0,0,0,1.45,1.43,3.45,3.45,0,0,0,4.32-1.12l15.93-25.56,6,12.93v.11a1.51,1.51,0,0,0,.15.28,3.41,3.41,0,0,0,4.26,1.11l21.5-10.05a2.55,2.55,0,0,0,1.52-3.28A2.39,2.39,0,0,0,1075.73,209.89Z"/><path class="cls-11" d="M1139.61,300.47a3,3,0,0,1-2.43-4.82,240.19,240.19,0,0,0,15.16-23,3,3,0,0,1,5.24,3A247.67,247.67,0,0,1,1142,299.26,3,3,0,0,1,1139.61,300.47Z"/><path class="cls-11" d="M1166.37,254.55a3,3,0,0,1-2.78-4.23c34.52-79.48,4.72-146.49,4.42-147.16a3,3,0,0,1,5.5-2.52c.32.7,31.26,70-4.37,152.09A3,3,0,0,1,1166.37,254.55Z"/><g class="cls-25"><path class="cls-5" d="M1132.73,1204.44s56.57-83,196.78-113c130.09-27.83,442.41-84.81,552.88-157a5.4,5.4,0,0,1,7.55,7.39c-33.69,52.9-128.48,178.77-304.58,250.58C1358.27,1285,1132.73,1204.44,1132.73,1204.44Z"/><path class="cls-26" d="M1790.48,1008.53a228.29,228.29,0,0,1-29.89,28.93l-4,3.34-4.12,3.19-8.25,6.39-8.5,6c-2.86,2-5.63,4.09-8.6,5.9a474.74,474.74,0,0,1-73.43,39.57c-6.29,3-12.85,5.36-19.32,7.94s-12.91,5.25-19.56,7.32l-19.8,6.65c-3.28,1.19-6.67,2-10,3l-10.07,2.79-10.06,2.8-5,1.38-5.09,1.15-20.37,4.59c-3.4.74-6.79,1.6-10.19,2.23l-10.22,1.94-20.44,3.87c-27.29,4.91-54.62,9.64-82.06,13.66-13.7,2.12-27.43,4-41.15,6l-41.2,5.43c-27.46,3.58-54.91,7.14-82.18,11.53-6.83,1-13.6,2.35-20.39,3.57-3.41.57-6.76,1.37-10.13,2.09s-6.75,1.42-10.09,2.25c-6.64,1.8-13.37,3.36-19.87,5.61-6.63,1.89-13,4.6-19.37,7.1h-.06a1,1,0,0,1-1.32-.52,1,1,0,0,1,.52-1.33,243.34,243.34,0,0,1,39.21-14.32c3.35-.94,6.74-1.72,10.11-2.58s6.74-1.74,10.14-2.42c6.8-1.44,13.58-3,20.41-4.22,27.29-5.17,54.75-9,82.14-13.14l41.07-6.15c13.68-2.08,27.37-4.07,41-6.29q41-6.45,81.8-13.92l20.37-3.87,10.19-1.94c3.4-.64,6.74-1.44,10.11-2.15l20.18-4.41,5-1.1,5-1.33,10-2.7a614,614,0,0,0,78.25-26.27c6.33-2.72,12.71-5.32,19-8.13l18.62-9c6.14-3.11,12.16-6.46,18.26-9.67,3.08-1.57,6-3.4,9-5.14l8.9-5.28c5.89-3.58,11.59-7.45,17.42-11.15l8.44-6,4.23-3,4.11-3.14c2.71-2.13,5.5-4.17,8.17-6.37l7.94-6.65a206.14,206.14,0,0,0,15-14.26.13.13,0,0,1,.18,0,.12.12,0,0,1,0,.17h0Z"/></g><path class="cls-5" d="M1329.41,944.92h459.7V874.41h-459.7C1339.25,874.41,1339.25,944.92,1329.41,944.92Z"/><path class="cls-27" d="M1789.11,927.27V895a20.45,20.45,0,0,0-20.29-20.6H1331.35c-8.81,0-16-5.47-16-12.23,0-2,2.17-3.71,4.85-3.71h478.12c11,0,28.37,13.21,28.37,29.51v45c0,15.36-16.9,27.82-27.24,27.82H1322.8c-4.07,0-7.37-2.53-7.37-5.64,0-5.69,6-10.3,13.44-10.3h442.89A17.51,17.51,0,0,0,1789.11,927.27Z"/><path class="cls-11" d="M1776.36,890.89h-431a2,2,0,0,1,0-4h431a2,2,0,0,1,0,4Z"/><path class="cls-11" d="M1776.36,901.36h-431a2,2,0,0,1,0-4h431a2,2,0,0,1,0,4Z"/><path class="cls-11" d="M1776.36,911.82h-431a2,2,0,0,1,0-4h431a2,2,0,0,1,0,4Z"/><path class="cls-11" d="M1776.36,922.29h-431a2,2,0,1,1,0-4h431a2,2,0,0,1,0,4Z"/><path class="cls-11" d="M1776.36,932.75h-431a2,2,0,1,1,0-4h431a2,2,0,0,1,0,4Z"/><rect class="cls-28" x="1117.11" y="1097.38" width="729.81" height="137.87" rx="40.51"/><rect class="cls-29" x="1199.59" y="1113.23" width="85.74" height="106.18" rx="14.6"/><path class="cls-9" d="M1834.43,968.52v23.75c0,4.07-2.37,8-6.5,10.61l-4.08,2.64c-3.36,2.16-2.65,6.18,1.33,7.63h0c2.64,1,3.13,3.59.94,5l-5.14,3.42c-3.37,2.24-3.38,6.16,0,8.41l3.69,2.47c3.19,2.13,3.1,5.88-.19,7.92l-4,2.46c-2.75,1.71-3.21,4.74-1,6.87l2.18,2.14a7.46,7.46,0,0,1,2.41,5.34v37.5H1285.9V966.27Z"/><path class="cls-30" d="M1304.54,996h511c1.11,0,2-.67,2-1.5s-.9-1.5-2-1.5h-511c-1.12,0-2,.67-2,1.5S1303.42,996,1304.54,996Z"/><path class="cls-30" d="M1304.54,1018.38h498.93c1.12,0,2-.67,2-1.51s-.9-1.5-2-1.5H1304.54c-1.12,0-2,.67-2,1.5S1303.42,1018.38,1304.54,1018.38Z"/><path class="cls-30" d="M1304.54,1034.84h492.73c1.11,0,2-.67,2-1.51s-.91-1.5-2-1.5H1304.54c-1.12,0-2,.67-2,1.5S1303.42,1034.84,1304.54,1034.84Z"/><path class="cls-31" d="M1276.14,958.07h570.07c4.34,0,8.22,2.37,8.63,5.6.47,3.7-3.42,6.81-8.28,6.81H1318c-9.29,0-17.31,4.85-19.24,11.63-8.64,30.36-8,62,.16,94.58,1.88,7.56,10.75,13,21.06,13H1835.8c4.34,0,8.22,2.37,8.63,5.59.48,3.7-3.41,6.82-8.27,6.82H1279.91c-13.29,0-24.75-7.09-27.12-16.85-9.6-39.57-10.44-77.54,0-113.47,2.34-8.06,12-13.76,23-13.76Z"/><path class="cls-32" d="M1470.58,542.39l-31.64,48.67c14.72,28.67,31.07,44.5,47.42,52,2.92-17.87,13.35-32.69,21-41.5C1478.2,585,1470.58,542.39,1470.58,542.39Z"/><path class="cls-33" d="M1579.28,592.85c-32.39,19.17-55.54,18-71.91,8.74-7.66,8.81-18.09,23.63-21,41.5,52,23.92,104-36.29,104-36.29Z"/><path class="cls-34" d="M1581,601.19s-8.74-15.25,3.83-27c0,0,4-4.63,8.51,2.17,0,0,13.52-12.28,17.22-7.34s13.51,17.2,3.93,31.17C1604.85,614.37,1585.31,608.07,1581,601.19Z"/><path class="cls-35" d="M1594.33,593.13a7.91,7.91,0,0,1-4.12-1,7.06,7.06,0,0,1-3.29-5.52,2,2,0,0,1,4-.51c.25,1.91,1.08,2.4,1.35,2.56a5.4,5.4,0,0,0,3.52.33l-2.92-9.26a2,2,0,0,1,3.85-1.21l3.55,11.25a2,2,0,0,1-1.19,2.49A14,14,0,0,1,1594.33,593.13Z"/><path class="cls-36" d="M1120.85,919.71a8.38,8.38,0,0,0-3.58,8.76c2.64,13.76,11.32,50.11,32.41,71.63a3.17,3.17,0,0,0,4.47.18l.17-.18c-5.34-5.57-12-15.07-19.7-31.22C1122.73,944.08,1120.53,928.78,1120.85,919.71Z"/><path class="cls-37" d="M1148.08,919.2s-13.59-7.4-27.13.44l-.1.07c-.32,9.07,1.88,24.37,13.77,49.19,7.74,16.15,14.36,25.65,19.7,31.22a3.64,3.64,0,0,0,.88-1.55C1159.16,984.81,1167.52,946.58,1148.08,919.2Z"/><path class="cls-38" d="M1167.72,920.05l-12.32,11.82a6.46,6.46,0,0,1-8,.76,17,17,0,0,1-6.26-7.72,6.51,6.51,0,0,1,1.18-6.87l12.3-13.53a6.47,6.47,0,0,1,9.15-.44,6.12,6.12,0,0,1,1.23,1.5l3.85,6.5A6.49,6.49,0,0,1,1167.72,920.05Z"/><path class="cls-39" d="M1560,858.64a8.38,8.38,0,0,0,9.39,1.23c12.63-6.07,45.55-23.75,61-49.63a3.16,3.16,0,0,0-1-4.36l-.21-.13c-4,6.58-11.52,15.41-25.15,27C1583.12,850.6,1568.88,856.64,1560,858.64Z"/><path class="cls-40" d="M1552.58,832.45s-3.68,15,7.36,26.12l.09.07c8.85-2,23.09-8,44-25.88,13.63-11.6,21.13-20.43,25.15-27a3.68,3.68,0,0,0-1.72-.46C1613.18,805,1574.09,806.66,1552.58,832.45Z"/><path class="cls-41" d="M1551,811.73l12.87,11.21a6.46,6.46,0,0,1,1.47,7.94,17,17,0,0,1-7.12,6.93,6.52,6.52,0,0,1-7-.57l-14.57-11a6.5,6.5,0,0,1,.13-10.44l6.13-4.41A6.51,6.51,0,0,1,1551,811.73Z"/><path class="cls-42" d="M1292.8,698.23s-25.12,85.57-41.36,123.18c0,0-28.39,4.33-46,14.6S1150,903.17,1150,903.17s9.89,18.77,21.81,21.65l107.74-74.65,86-100-4.08-46.38Z"/><path class="cls-43" d="M1294.31,691.24,1287,714.68s6.72,61.43,84.17,51.07,87.19-23,87.19-23-6.73,39.24,78,86.41c0,0,12.87-9.71,15.7-20.75l-59.35-97.82c-8.25-12.83-15.91-16.21-31-13.85-33.33,5.21-95.74,12-105.19,10.39Z"/><path class="cls-44" d="M1354.8,517c-22.57,1.15-58.25,11.88-81.3,33.1,7.09,7.82,18,20.53,26.11,33.09,7.26-6.82,17.69-12.49,32.37-16.13-12.69,47.42-27.69,92.6-46,134.59a4.9,4.9,0,0,0,2.5,6.47l.36.14c14.14,4.93,55.85,16.67,89.29-2.23l74.16-106.19a90.81,90.81,0,0,0,15.32-38.28l2.93-19.16S1404,514.49,1354.8,517Z"/><path class="cls-45" d="M1314.36,677.67c-3.23-7.11-14.26-13.76-19.53-16.62-4.58-9.44-22.87-51.91,4.78-77.87-8.12-12.56-19-25.27-26.11-33.09-26.59,24.48-36.32,62.93,10.31,116.78-2.55,13.26,5.76,28.7,10.25,30.87C1296.13,698.73,1318.64,687.13,1314.36,677.67Z"/><path class="cls-46" d="M1404.89,488.79l-19.38,37.92a6.26,6.26,0,0,0,.91,7c4.69,5.23,15.77,13.71,35,7.63a5.83,5.83,0,0,0,4-4.74l5-34.44Z"/><path class="cls-47" d="M1437.19,444.76s11.36,26.1,12.12,39.8,3.72,22.59-12.12,25.35-29.19-5.13-36.42-18.78c0,0-11.33-21-8.79-29.64S1437.19,444.76,1437.19,444.76Z"/><path class="cls-48" d="M1406.18,481.32l.91-.4a2.18,2.18,0,0,0,1.11-2.89.54.54,0,0,0,0-.11c-2.24-4.31-6.59-14.21-1-16.51,7.26-3,36-8.83,42.17-19,6-9.8.68-22.44-7.25-26a1.1,1.1,0,0,0-1.43.47l-.66,1.25a1.08,1.08,0,0,1-2-.2h0a1.06,1.06,0,0,0-1.93-.28c-1.91,3-7,8-20.8,10.53-19.55,3.6-32.47,11.51-32.79,25a1.08,1.08,0,0,1-1.1,1.06,1,1,0,0,1-.56-.17c-1.45-.88-3.76-1.3-6.84,1.3-5.37,4.51-3.17,16.22,8.59,25.85a1.06,1.06,0,0,1,.24,1.48,1.09,1.09,0,0,1-.24.24c-2.13,1.39-5.31,4.7,2.93,9.1,8.52,4.56,14.88,4.18,17.33,3.78a1.08,1.08,0,0,0,.89-1.23.64.64,0,0,1,0-.07l-2.61-11.87a1.06,1.06,0,0,1,.82-1.27l.18,0Z"/><path class="cls-49" d="M1406.68,483.82s-4.34-16.67-11.82-12,3.88,18.68,9.89,19.31Z"/><polygon class="cls-50" points="1606.1 601.63 1588.34 601.63 1560.42 519.51 1638.03 514.79 1606.1 601.63"/><path class="cls-51" d="M1513.19,366.93c-.09,6.93-.09,142.64,68.8,164.68s100-92.79,97.54-174.57Z"/><rect class="cls-52" x="1542.15" y="614.09" width="110.14" height="13.37"/><polygon class="cls-53" points="1652.29 614.09 1542.15 614.09 1570.03 599.13 1624.42 599.13 1652.29 614.09"/><path class="cls-54" d="M1505.2,347.67c-6,.37-11,4.85-11,10v10.44c0,5.1,5,9,11,8.69L1694,366.64c6-.33,11-4.77,11-9.87v-12c0-5.1-5-9-11-8.61Z"/><path class="cls-55" d="M1630.8,542.4c-4.4,0-8.2-2.78-8.71-6.55-.55-4.05,2.91-7.71,7.72-8.18.92-.09,64.28-6.78,70.28-41.46,1-5.85.9-13.49-5.38-16.67-5.19-2.64-13.69-1.8-19.77,1.94-3.45,2.13-7.23,5.85-5.62,11.52,1.12,4-1.79,8-6.5,8.9s-9.45-1.5-10.57-5.47c-2.92-10.28,1.69-20.32,12.33-26.87,11.82-7.28,27.93-8.38,39.18-2.68,6.58,3.33,17.1,11.85,13.7,31.46-3.36,19.39-19.55,34.92-46.82,44.92a173.76,173.76,0,0,1-38.83,9.09C1631.45,542.38,1631.11,542.4,1630.8,542.4Z"/><path class="cls-56" d="M1565.06,542.4c4.4,0,8.2-2.78,8.71-6.55.55-4.05-2.9-7.71-7.72-8.18-.91-.09-64.27-6.78-70.28-41.46-1-5.85-.9-13.49,5.39-16.67,5.19-2.64,13.68-1.8,19.76,1.94,3.45,2.13,7.23,5.85,5.62,11.52-1.12,4,1.79,8,6.5,8.9s9.45-1.5,10.58-5.47c2.91-10.28-1.7-20.32-12.34-26.87-11.82-7.28-27.93-8.38-39.18-2.68-6.57,3.33-17.1,11.85-13.7,31.46,3.36,19.39,19.55,34.92,46.82,44.92a173.42,173.42,0,0,0,38.84,9.09C1564.39,542.38,1564.73,542.4,1565.06,542.4Z"/><path class="cls-11" d="M1608.43,362.52a1.56,1.56,0,0,1-.08-3.11l13-.7a1.55,1.55,0,0,1,1.64,1.44v0a1.57,1.57,0,0,1-1.48,1.64l-13,.7Z"/><path class="cls-11" d="M1508.69,367.89a1.56,1.56,0,1,1-.08-3.12l77.89-4.19a1.56,1.56,0,1,1,.17,3.12h0l-77.9,4.19Z"/><path class="cls-11" d="M1585.38,517.8h-.19c-14.88-1.71-41.07-16.17-49.26-93.81a1.69,1.69,0,1,1,3.37-.35h0c2.75,26,12.75,86.94,46.28,90.79a1.7,1.7,0,0,1-.2,3.38Z"/><path class="cls-11" d="M1536.59,413.56a1.69,1.69,0,0,1-1.69-1.58c-.23-3.54-.29-5.59-.29-5.59a1.7,1.7,0,0,1,1.65-1.75h0a1.65,1.65,0,0,1,1.74,1.56v.09s.06,2,.29,5.47a1.69,1.69,0,0,1-1.59,1.8Z"/><path class="cls-57" d="M1618.61,579.1s-7.07-20.13-19-9-6.19,26.12,6.49,31.54S1624.92,595.21,1618.61,579.1Z"/><path class="cls-11" d="M125.53,339.55l2.06,112.76c.16,11.9,7.95,21.44,17.5,21.44h397c9.66,0,17.5-9.76,17.5-21.8V349c0-11.77-7.5-21.41-16.93-21.8l-399.09-9.81C133.59,317,125.36,327.09,125.53,339.55Z"/><path class="cls-5" d="M163,367.68v10.15c0,3.57,2.35,6.46,5.22,6.4l345.25-3.85c2.8-.06,5-2.91,5-6.41h0c0-3.46-2.22-6.3-5-6.4l-345.25-6.29C165.4,361.19,163,364.08,163,367.68Z"/><path class="cls-5" d="M165.8,406v9.3c0,3.63,2.41,6.53,5.32,6.4l336.24-7.83c2.77-.12,5-3,5-6.4v-2.9c0-3.55-2.32-6.43-5.17-6.4L171,399.6C168.12,399.63,165.8,402.49,165.8,406Z"/><path class="cls-11" d="M207.66,524.32l1.28,70.09c.1,7.39,4.94,13.32,10.88,13.32H466.6c6,0,10.87-6.07,10.87-13.55v-64c0-7.32-4.66-13.31-10.52-13.55l-248.06-6.1C212.67,510.29,207.56,516.57,207.66,524.32Z"/><path class="cls-5" d="M231,541.8v6.31c0,2.22,1.46,4,3.25,4l214.59-2.42c1.75,0,3.15-1.8,3.15-4h0c0-2.15-1.38-3.92-3.11-4l-214.6-3.92C232.44,537.76,231,539.56,231,541.8Z"/><path class="cls-5" d="M232.72,565.62v5.79c0,2.25,1.5,4.05,3.31,4l209-4.86c1.72-.08,3.08-1.84,3.08-4v-1.8c0-2.21-1.44-4-3.21-4l-209,.88C234.14,561.66,232.72,563.44,232.72,565.62Z"/><path class="cls-58" d="M693.41,1227.94c13.91,1.2,38,3.15,57.08,4,11.44.5,18-.62,21.82-2.14V1231a3.92,3.92,0,0,1-3.74,3.72,667.91,667.91,0,0,1-74.74.07,2.8,2.8,0,0,1-2.66-2.93,2.76,2.76,0,0,1,.38-1.28A24.26,24.26,0,0,1,693.41,1227.94Z"/><path class="cls-59" d="M750.49,1231.93c-19-.84-43.17-2.79-57.08-4,13.67-16.78,57.08-28.09,57.08-28.09H762.8a51.43,51.43,0,0,1,9.56,29.94C768.52,1231.31,761.93,1232.43,750.49,1231.93Z"/><path class="cls-60" d="M764.8,1179.84l-1.14,22.7a5.19,5.19,0,0,1-4.43,4.87,20,20,0,0,1-9.21-.76,6.12,6.12,0,0,1-4.12-4.71l-4-22.1Z"/><path class="cls-61" d="M907.1,1254.12c6-1.08,8.76-5.13,9.9-9.46v.11a10.81,10.81,0,0,1-5.28,11.56,27.5,27.5,0,0,1-14.63,3,13.53,13.53,0,0,1-11-6.54v-.06C890.66,1255.6,897,1255.94,907.1,1254.12Z"/><path class="cls-62" d="M878.66,1186.83H888.8c15.4-.41,25.07,41.57,28.23,57.83-1.14,4.33-3.87,8.38-9.9,9.46-10.06,1.82-16.44,1.48-21-1.43-8.32-14.15-12.44-34.87-14.42-47C869.43,1192,878.66,1186.83,878.66,1186.83Z"/><path class="cls-63" d="M887.47,1165.76l5.61,22.33a6,6,0,0,1-3.15,6.87c-3.14,1.61-7.56,3.3-11.63,2.81a5.08,5.08,0,0,1-4.13-3.38l-8.24-23.49Z"/><path class="cls-64" d="M690,871.69s50.17,313.59,49.35,315.31c0,0,13.85,6.3,29,.81,0,0-4.54-167.64-15.17-231.92,0,0,85.62,149.84,112.81,224.5,0,0,14.18-1.69,25.92-9.42,0,0-92.19-269.7-116.78-305.62Z"/><path class="cls-65" d="M459.8,564.61s33.85,7.47,54.44,17a18.78,18.78,0,0,1,9.21,9.26c6.16,13.49,24.58,47.32,60.31,63.46-5.15,6.83-13.43,21-17,44.91-21.46-16-40-42.64-48.88-86.39a17.45,17.45,0,0,1-15.22-.42c-4.47-2.17-9.62-5.24-13.49-7.66a17.63,17.63,0,0,1-7.84-10.53c-1.47-5.78-.61-10.86-.61-16.31l-17.4-5.39A6.19,6.19,0,0,1,459.8,564.61Z"/><path class="cls-66" d="M566.69,699.21c3.61-23.87,11.89-38.08,17-44.91,22.2,10,51.07,13.23,87.84.49A39.27,39.27,0,0,1,682,652.72c19.57-1.15,84.07-3.24,137.44,14.39a41.5,41.5,0,0,1,25,22.78C858.91,723,882.29,798.47,817.4,836.57a161.22,161.22,0,0,0-15.6-29.64c10.45-17.63,13.54-41.7-5-73-13.52,36.51-19.86,89.79-21.19,113.36a50.82,50.82,0,0,0,4,22.68l.33.78a2.69,2.69,0,0,1-1.42,3.52,2.44,2.44,0,0,1-.46.14c-36.53,8.21-74.53,6-85.88,5a4.66,4.66,0,0,1-4.17-3.57c-17.77-74.85-17.81-125.91-13.46-158.18C657.91,721.36,607.09,729.29,566.69,699.21Z"/><path class="cls-67" d="M764.6,609.12s3.7,39.07,7,50.63a4,4,0,0,1-1.86,4.51c-5.52,3.16-18.77,8.31-36.89-.57a8.23,8.23,0,0,1-4.56-7.74l1.6-37.76Z"/><path class="cls-68" d="M729,559.13s-11.82,27.15-12.61,41.41S712.56,624,729,626.91s30.36-5.34,37.88-19.54c0,0,11.78-21.87,9.14-30.83S729,559.13,729,559.13Z"/><path class="cls-69" d="M761.29,597.16l-.94-.41a2.27,2.27,0,0,1-1.15-3,.61.61,0,0,1,0-.12c2.32-4.49,6.85-14.78,1-17.18-7.54-3.09-37.42-9.18-43.86-19.78-6.2-10.19-.71-23.34,7.54-27.08a1.16,1.16,0,0,1,1.49.48l.68,1.31a1.12,1.12,0,0,0,1.51.47,1.08,1.08,0,0,0,.56-.69h0a1.11,1.11,0,0,1,1.4-.73,1.07,1.07,0,0,1,.6.44c2,3.18,7.33,8.32,21.63,11,20.33,3.75,33.77,12,34.1,26a1.13,1.13,0,0,0,1.15,1.11,1.11,1.11,0,0,0,.59-.18c1.5-.92,3.9-1.35,7.11,1.35,5.58,4.7,3.3,16.87-8.94,26.89a1.11,1.11,0,0,0-.19,1.56,1,1,0,0,0,.24.23c2.22,1.45,5.53,4.89-3,9.47-8.87,4.74-15.49,4.35-18,3.93a1.12,1.12,0,0,1-.92-1.29s0,0,0-.06l2.72-12.35a1.12,1.12,0,0,0-.85-1.33l-.24,0Z"/><path class="cls-70" d="M760.8,599.77s4.51-17.35,12.28-12.48-4,19.43-10.28,20.08Z"/><path class="cls-71" d="M508.8,609.32a2,2,0,0,1-1.57-.74c-4.86-6-13.14-15.48-16-17.1-2.53-1.44-4-3.05-4.43-4.93a6.26,6.26,0,0,1,1.18-5,2,2,0,0,1,2.06-.85l14.78,3a2.09,2.09,0,0,1,.92.45l7.86,6.74A2,2,0,1,1,511,594l-7.46-6.4L490.71,585a1.43,1.43,0,0,0,0,.65c.16.7,1.05,1.53,2.48,2.35,4.47,2.52,15.89,16.48,17.17,18.06a2,2,0,0,1-1.56,3.29Z"/><path class="cls-72" d="M761.11,863.25l-53.31-1.16s46.52-13.15,49.4-9.57c0,0,28.83-18.94,44.63-45.59a160.56,160.56,0,0,1,15.66,29.64C803.3,844.88,784.7,859.33,761.11,863.25Z"/><path class="cls-73" d="M762.62,854s1.1,21.25-26.8,18.16c-15.16-1.68-39.64-15.81-39.64-15.81S760,856.2,762.62,854Z"/><path class="cls-74" d="M751.69,859.72h-.3l-132.59-.14a5.88,5.88,0,1,1-.48-11.75h.48l132.62.15a5.87,5.87,0,1,1,.29,11.74Z"/><path class="cls-75" d="M499.54,740.58H610a21.08,21.08,0,0,1,19,11.94l51.06,107.13H542.8a12.8,12.8,0,0,1-11.89-8l-39.6-99.13a8.74,8.74,0,0,1,4.91-11.33A9,9,0,0,1,499.54,740.58Z"/><path class="cls-11" d="M696.56,807.45l-2.15-4.07a1,1,0,0,1,1.82-1h0l2.1,4h0a1,1,0,1,1-1.82,1Z"/><path class="cls-11" d="M690.15,793.48l-1.43-4.39a1.05,1.05,0,0,1,2-.65h0v.06l1.39,4.28v.06a1,1,0,1,1-2,.64Z"/><path class="cls-11" d="M686.45,778.53q-.32-2.28-.45-4.62a1,1,0,0,1,.89-1.1H687a1.06,1.06,0,0,1,1.12,1h0c.09,1.49.23,3,.43,4.46a1,1,0,1,1-2.08.28Z"/><path class="cls-11" d="M686.3,763.09q.27-2.31.72-4.59a1.07,1.07,0,0,1,1.33-.72,1.06,1.06,0,0,1,.76,1.14h0c-.3,1.47-.53,2.94-.71,4.42a1.06,1.06,0,0,1-1.11,1,1.07,1.07,0,0,1-1-1.11s0-.1,0-.15Z"/><path class="cls-11" d="M690.11,748.12c.57-1.43,1.19-2.85,1.87-4.24a1.07,1.07,0,0,1,1.93.93h0c-.66,1.35-1.26,2.72-1.82,4.1a1.08,1.08,0,1,1-2-.79h0Z"/><path class="cls-11" d="M697.47,734.57l2.76-3.72a1.09,1.09,0,0,1,1.52-.22,1.07,1.07,0,0,1,.22,1.51h0v.05l-2.69,3.6v.05a1.11,1.11,0,0,1-1.83-1.24Z"/><path class="cls-11" d="M707.46,722.86l3.38-3.15a1.1,1.1,0,0,1,1.55.06,1.09,1.09,0,0,1-.06,1.54h0L709,724.38h0a1.09,1.09,0,0,1-1.49-1.59Z"/><path class="cls-11" d="M719.23,713l3.78-2.64a1.1,1.1,0,1,1,1.26,1.81h0l-3.71,2.58h0a1.1,1.1,0,0,1-1.25-1.8Z"/><path class="cls-11" d="M732.16,704.75l4-2.19a1.13,1.13,0,1,1,1.05,2h0l-4,2.15h0a1.1,1.1,0,0,1-1.41-.65,1.12,1.12,0,0,1,.41-1.29Z"/><path class="cls-11" d="M745.88,697.93l4.22-1.8a1.12,1.12,0,0,1,1.47.59h0a1.12,1.12,0,0,1-.59,1.47h0L746.8,700h0a1.13,1.13,0,0,1-.94-2.06Z"/><path class="cls-11" d="M760.12,692.34l4.35-1.46a1.13,1.13,0,0,1,.72,2.14h0l-4.3,1.44h0a1.12,1.12,0,1,1-.71-2.13Z"/><path class="cls-11" d="M774.73,687.83l4.44-1.15a1.14,1.14,0,0,1,.75,2.16l-.18,0h0l-4.4,1.13h0a1.14,1.14,0,0,1-1.32-.92,1.15,1.15,0,0,1,.75-1.28Z"/><path class="cls-11" d="M789.6,684.31l4.5-.88a1.16,1.16,0,0,1,1.35.91,1.15,1.15,0,0,1-.91,1.34h0l-4.46.86h0a1.15,1.15,0,0,1-.44-2.25Z"/><path class="cls-11" d="M804.65,681.69l4.54-.62a1.17,1.17,0,0,1,1.23,1.09,1.16,1.16,0,0,1-.91,1.2h0L805,684h0a1.14,1.14,0,0,1-1.29-1,1.15,1.15,0,0,1,1-1.3h0Z"/><path class="cls-11" d="M819.8,679.9l4.57-.38a1.17,1.17,0,1,1,.29,2.32h-.1l-4.53.37h0a1.16,1.16,0,0,1-.19-2.32Z"/><path class="cls-11" d="M835.06,678.91l4.58-.14a1.18,1.18,0,0,1,.08,2.35h0l-4.55.14h0a1.18,1.18,0,0,1-.08-2.35Z"/><path class="cls-11" d="M850.33,678.69l4.58.08a1.19,1.19,0,1,1,.22,2.37h-.22l-4.54-.08h0a1.2,1.2,0,0,1-1.16-1.21A1.18,1.18,0,0,1,850.33,678.69Z"/><path class="cls-11" d="M865.59,679.22l4.58.3a1.19,1.19,0,1,1-.16,2.38h0l-4.54-.3h0a1.19,1.19,0,0,1,0-2.38h.13Z"/><path class="cls-11" d="M880.8,680.46l4.55.47a1.2,1.2,0,0,1-.25,2.39h0l-4.53-.47h0a1.2,1.2,0,0,1,.25-2.39Z"/><path class="cls-11" d="M896,682.17l4.53.59a1.21,1.21,0,1,1-.31,2.41h0l-4.52-.59h0a1.21,1.21,0,1,1,.32-2.4h0Z"/><path class="cls-11" d="M911.05,684.28l4.52.7a1.23,1.23,0,0,1,1,1.4,1.21,1.21,0,0,1-1.39,1h0l-4.5-.71h0a1.21,1.21,0,0,1,.37-2.4h0Z"/><path class="cls-11" d="M926.1,686.76l4.5.81a1.23,1.23,0,0,1-.44,2.42h0l-4.48-.81h0a1.22,1.22,0,0,1,.44-2.41Z"/><path class="cls-11" d="M941.07,689.6l4.48.92a1.25,1.25,0,0,1,1,1.46,1.23,1.23,0,0,1-1.46,1h0l-4.47-.92h0a1.23,1.23,0,0,1,.49-2.41Z"/><path class="cls-11" d="M956,692.78l4.46,1a1.24,1.24,0,0,1-.54,2.43h0l-4.44-1h0a1.24,1.24,0,0,1,.56-2.42Z"/><path class="cls-11" d="M970.8,696.29l4.43,1.12a1.25,1.25,0,0,1-.42,2.47l-.18,0h0l-4.42-1.12h0a1.25,1.25,0,0,1,.61-2.42Z"/><path class="cls-11" d="M985.56,700.11l4.41,1.2a1.26,1.26,0,0,1-.56,2.46l-.1,0h0l-4.39-1.21a1.25,1.25,0,0,1,.65-2.42Z"/><path class="cls-11" d="M1000.24,704.22l4.38,1.29a1.27,1.27,0,0,1,.86,1.57,1.26,1.26,0,0,1-1.57.85h0l-4.37-1.29a1.25,1.25,0,0,1-.85-1.56,1.26,1.26,0,0,1,1.56-.86Z"/><path class="cls-11" d="M1014.8,708.6l4.36,1.37a1.27,1.27,0,1,1-.76,2.43h0l-4.35-1.36a1.27,1.27,0,0,1,.75-2.43h0Z"/><path class="cls-11" d="M1029.34,713.24l4.34,1.44a1.28,1.28,0,0,1,.87,1.59,1.27,1.27,0,0,1-1.58.87l-.09,0h0l-4.32-1.44a1.28,1.28,0,0,1,.64-2.48l.15,0Z"/><path class="cls-11" d="M1043.8,718.11l4.31,1.51a1.29,1.29,0,1,1-.64,2.5l-.2-.07h0l-4.3-1.51a1.27,1.27,0,0,1-.8-1.62h0A1.31,1.31,0,0,1,1043.8,718.11Z"/><path class="cls-11" d="M1058.14,723.21l4.29,1.56a1.3,1.3,0,0,1-.89,2.44h0l-4.28-1.56a1.29,1.29,0,0,1,.89-2.43Z"/><path class="cls-11" d="M1072.42,728.5l4.27,1.62a1.31,1.31,0,0,1-.93,2.44h0l-4.26-1.63a1.28,1.28,0,0,1-.77-1.64v0a1.3,1.3,0,0,1,1.67-.76Z"/><path class="cls-11" d="M1086.63,734l4.25,1.67a1.32,1.32,0,0,1,.74,1.7,1.3,1.3,0,0,1-1.68.75h0l-4.24-1.68a1.31,1.31,0,0,1,1-2.43Z"/><path class="cls-11" d="M1100.8,739.62l4.24,1.72a1.32,1.32,0,1,1-1,2.45h0l-4.23-1.72a1.32,1.32,0,0,1,1-2.44Z"/><path class="cls-11" d="M1114.86,745.41l4.21,1.77a1.33,1.33,0,0,1-1,2.45h0l-4.2-1.76a1.33,1.33,0,1,1,.75-2.55l.25.1Z"/><path class="cls-11" d="M1128.88,751.34l4.2,1.8a1.34,1.34,0,0,1-1,2.46h0l-4.19-1.8a1.33,1.33,0,0,1,.75-2.55l.25.1Z"/><path class="cls-11" d="M1142.86,757.38l4.18,1.84a1.34,1.34,0,0,1,.69,1.77h0a1.36,1.36,0,0,1-1.77.69h0l-4.18-1.83a1.34,1.34,0,1,1,1.08-2.46h0Z"/><path class="cls-11" d="M1156.8,763.53l4.17,1.86a1.35,1.35,0,0,1-1.1,2.46h0l-4.16-1.86a1.35,1.35,0,1,1,1-2.53l.15.07Z"/><path class="cls-11" d="M1170.68,769.75l4.16,1.89a1.36,1.36,0,0,1-1.12,2.47h0l-4.16-1.89a1.34,1.34,0,0,1-.68-1.78h0A1.37,1.37,0,0,1,1170.68,769.75Z"/><path class="cls-11" d="M1184.53,776.05l4.16,1.9a1.36,1.36,0,1,1-1.14,2.48h0l-4.15-1.9a1.37,1.37,0,0,1-.67-1.81,1.35,1.35,0,0,1,1.79-.67Z"/><path class="cls-11" d="M1198.37,782.39l4.14,1.91a1.38,1.38,0,1,1-1,2.59.82.82,0,0,1-.19-.09h0l-4.14-1.92a1.37,1.37,0,1,1,1.15-2.49Z"/><path class="cls-11" d="M1212.18,788.77l4.15,1.91a1.38,1.38,0,1,1-1.16,2.51h0l-4.15-1.92a1.38,1.38,0,0,1,1.16-2.5Z"/><path class="cls-11" d="M1226,795.15l4.14,1.91a1.39,1.39,0,1,1-1.16,2.53h0l-4.14-1.92a1.39,1.39,0,0,1,1.16-2.52Z"/><path class="cls-11" d="M1239.8,801.52l4.15,1.91a1.41,1.41,0,0,1-1.15,2.57h0l-4.15-1.91a1.4,1.4,0,0,1,1.17-2.54Z"/><path class="cls-11" d="M1253.62,807.87l4.15,1.9a1.4,1.4,0,1,1-1.16,2.55h0l-4.15-1.9a1.4,1.4,0,0,1,1.16-2.55Z"/><path class="cls-11" d="M1267.46,814.18l4.16,1.88a1.41,1.41,0,1,1-1.12,2.59l0,0h0l-4.16-1.89a1.41,1.41,0,0,1,1-2.65l.21.09Z"/><path class="cls-11" d="M1281.33,820.42l4.17,1.86a1.42,1.42,0,1,1-1.06,2.64l-.1,0h0l-4.17-1.86a1.42,1.42,0,0,1,1.16-2.59Z"/><path class="cls-11" d="M1295.23,826.58l4.18,1.84a1.43,1.43,0,0,1-1.15,2.61h0l-4.18-1.84a1.41,1.41,0,0,1-.73-1.87h0A1.43,1.43,0,0,1,1295.23,826.58Z"/><path class="cls-11" d="M1309.17,832.66l4.19,1.8a1.44,1.44,0,0,1-1.13,2.64h0l-4.2-1.8a1.43,1.43,0,0,1,1.14-2.63Z"/><path class="cls-11" d="M1323.15,838.62l4.21,1.76a1.44,1.44,0,1,1-1.11,2.66h0l-4.21-1.77a1.44,1.44,0,0,1,1-2.7l.12,0Z"/><path class="cls-11" d="M1337.19,844.45l4.22,1.72a1.45,1.45,0,1,1-1.09,2.69h0l-4.23-1.72a1.45,1.45,0,0,1,1-2.73l.12.05Z"/><path class="cls-11" d="M1351.28,850.13l4.24,1.67a1.46,1.46,0,0,1-1.06,2.72h0l-4.25-1.68a1.46,1.46,0,0,1,1.07-2.71Z"/><path class="cls-11" d="M1365.44,855.65l4.26,1.62a1.47,1.47,0,0,1,.69,2,1.45,1.45,0,0,1-1.69.79h0l-4.27-1.63a1.46,1.46,0,1,1,1-2.73h0Z"/><path class="cls-11" d="M1379.67,861l4.28,1.56a1.47,1.47,0,1,1-1,2.77h0l-4.29-1.57a1.47,1.47,0,1,1,.85-2.81l.15,0Z"/><path class="cls-11" d="M1394,866.13l4.31,1.5a1.48,1.48,0,0,1,.92,1.88h0a1.5,1.5,0,0,1-1.89.92h0l-4.32-1.51a1.48,1.48,0,0,1,1-2.79h0Z"/><path class="cls-11" d="M1408.33,871.05l4.33,1.43a1.49,1.49,0,1,1-.77,2.88l-.15-.05h0l-4.34-1.44a1.49,1.49,0,0,1,.94-2.82Z"/><path class="cls-11" d="M1422.8,875.73l4.35,1.36h0a1.5,1.5,0,0,1-.89,2.86h0l-4.36-1.37a1.49,1.49,0,0,1,.9-2.85Z"/><path class="cls-11" d="M1437.31,880.17l4.37,1.27h0a1.51,1.51,0,0,1-.85,2.89h0l-4.39-1.28a1.51,1.51,0,0,1,.85-2.89Z"/><path class="cls-11" d="M1451.91,884.33l4.4,1.19h0a1.51,1.51,0,1,1-.79,2.92h0l-4.41-1.2a1.51,1.51,0,0,1,.79-2.91Z"/><path class="cls-11" d="M1466.59,888.2l4.42,1.11h0a1.54,1.54,0,0,1-.74,3h0l-4.44-1.11a1.54,1.54,0,0,1,.74-3Z"/><path class="cls-11" d="M1481.35,891.77l4.44,1h0a1.53,1.53,0,0,1,1.16,1.82h0a1.54,1.54,0,0,1-1.83,1.15h0l-4.46-1a1.54,1.54,0,0,1,.68-3Z"/><path class="cls-11" d="M1496.17,895l4.47.91h0a1.54,1.54,0,0,1-.62,3h0l-4.48-.92a1.54,1.54,0,1,1,.31-3.06,1.7,1.7,0,0,1,.31.06Z"/><path class="cls-11" d="M1511.07,897.94l4.48.81h0a1.54,1.54,0,1,1-.1,3.08,1.32,1.32,0,0,1-.44-.08h0l-4.5-.82a1.54,1.54,0,0,1,.13-3.08,2,2,0,0,1,.42.08Z"/><path class="cls-11" d="M1526,900.5l4.5.69h0a1.55,1.55,0,1,1-.47,3.07h0l-4.53-.7a1.55,1.55,0,0,1,.36-3.08l.12,0Z"/><path class="cls-11" d="M1541,902.65l4.52.56h0a1.56,1.56,0,0,1-.38,3.1h0l-4.54-.57a1.56,1.56,0,1,1,.18-3.11l.2,0Z"/><path class="cls-11" d="M1556.12,904.37l4.53.44h0a1.57,1.57,0,0,1-.11,3.14l-.19,0h0l-4.56-.44a1.57,1.57,0,0,1,.3-3.12Z"/><path class="cls-11" d="M1571.23,905.67l4.54.3h0a1.58,1.58,0,0,1-.21,3.15h0l-4.57-.31a1.57,1.57,0,0,1,.22-3.14Z"/><path class="cls-11" d="M1586.37,906.53l4.55.18h0a1.58,1.58,0,0,1-.12,3.16h0l-4.57-.18a1.58,1.58,0,1,1,.12-3.16Z"/><path class="cls-11" d="M1601.54,907h4.55a1.59,1.59,0,1,1,0,3.18h-4.58a1.59,1.59,0,0,1,0-3.17Z"/><path class="cls-11" d="M1616.7,907l4.55-.09h0a1.61,1.61,0,0,1,1.63,1.57,1.59,1.59,0,0,1-1.57,1.63h0l-4.58.08a1.6,1.6,0,0,1-.06-3.19Z"/><path class="cls-11" d="M1631.86,906.51l4.55-.23h0a1.61,1.61,0,1,1,.36,3.2h-.2l-4.57.22a1.6,1.6,0,0,1-.16-3.2h0Z"/><path class="cls-11" d="M1647,905.6l4.54-.37h0a1.62,1.62,0,0,1,.26,3.22h0l-4.57.36a1.61,1.61,0,0,1-.25-3.21Z"/><path class="cls-11" d="M1662.1,904.21l4.52-.5h0a1.63,1.63,0,0,1,.36,3.23h0l-4.55.5a1.62,1.62,0,1,1-.61-3.18,1.07,1.07,0,0,1,.25,0Z"/><path class="cls-11" d="M1677.15,902.35l4.5-.66h0a1.63,1.63,0,0,1,.47,3.23h0l-4.54.65a1.63,1.63,0,0,1-.68-3.19l.22,0Z"/><path class="cls-11" d="M1692.12,900l4.48-.81h0a1.64,1.64,0,0,1,.81,3.18l-.23,0h0l-4.51.81a1.63,1.63,0,0,1-.58-3.21h0Z"/><path class="cls-11" d="M1707,897.09l4.45-1h0a1.64,1.64,0,0,1,.71,3.21h0l-4.47,1a1.64,1.64,0,0,1-.7-3.21h0Z"/><path class="cls-11" d="M1721.8,893.66l4.4-1.14h0a1.65,1.65,0,1,1,.83,3.2h0l-4.44,1.14a1.65,1.65,0,0,1-1-3.14l.2-.05Z"/><path class="cls-11" d="M1736.38,889.67l4.35-1.32h0a1.67,1.67,0,0,1,1,3.18h0l-4.39,1.32a1.67,1.67,0,1,1-1-3.18Z"/><path class="cls-11" d="M1750.8,885.08l4.29-1.5h0a1.67,1.67,0,0,1,1.1,3.15h0l-4.33,1.51a1.67,1.67,0,1,1-1.24-3.1l.14,0Z"/><path class="cls-11" d="M1765,879.87l4.21-1.69h0a1.68,1.68,0,0,1,2.18.94,1.66,1.66,0,0,1-.91,2.17h0l-4.26,1.7a1.67,1.67,0,1,1-1.32-3.06l.08,0Z"/><path class="cls-11" d="M1779,874l4.13-1.88h0a1.68,1.68,0,1,1,1.39,3.06h0l-4.17,1.9a1.68,1.68,0,0,1-1.4-3.06h0Z"/><path class="cls-11" d="M1792.63,867.48l4-2.09h0a1.69,1.69,0,1,1,1.56,3h0l-4.07,2.12a1.69,1.69,0,0,1-2.28-.73,1.67,1.67,0,0,1,.71-2.26h0Z"/><path class="cls-11" d="M1805.91,860.26l3.89-2.26h0a1.7,1.7,0,1,1,1.73,2.93h0l-4,2.33a1.7,1.7,0,0,1-1.9-2.82l.17-.1Z"/><path class="cls-11" d="M1818.8,852.3l3.76-2.53h0a1.7,1.7,0,1,1,1.9,2.83h0l-3.81,2.56a1.7,1.7,0,0,1-1.9-2.83Z"/><path class="cls-11" d="M1831.13,843.61l3.6-2.75h0a1.72,1.72,0,0,1,2.3,2.56l-.21.16h0l-3.65,2.79a1.71,1.71,0,1,1-2.08-2.72h0Z"/><path class="cls-11" d="M1842.91,834.16l3.41-3h0a1.72,1.72,0,1,1,2.36,2.5l-.1.09h0l-3.46,3a1.72,1.72,0,1,1-2.36-2.5l.1-.09Z"/><path class="cls-11" d="M1854,824l3.21-3.21h0a1.74,1.74,0,0,1,2.45,0h0a1.74,1.74,0,0,1,0,2.45h0l-3.26,3.25A1.73,1.73,0,0,1,1854,824Z"/><path class="cls-11" d="M1864.46,813l3-3.41h0a1.73,1.73,0,0,1,2.61,2.28h0l-3,3.47a1.74,1.74,0,1,1-2.76-2.11c0-.07.1-.12.15-.18Z"/><path class="cls-11" d="M1874.12,801.44l2.74-3.6h0a1.75,1.75,0,0,1,2.78,2.11h0l-2.79,3.65a1.74,1.74,0,0,1-2.77-2.11h0Z"/><path class="cls-11" d="M1883,789.22l2.49-3.78h0a1.75,1.75,0,0,1,2.93,1.93h0l-2.54,3.84a1.76,1.76,0,0,1-2.43.49,1.74,1.74,0,0,1-.5-2.41v0Z"/><path class="cls-11" d="M1891,776.43l2.24-3.94h0a1.76,1.76,0,0,1,3.06,1.74h0l-2.27,4a1.76,1.76,0,1,1-3.06-1.75Z"/><path class="cls-11" d="M1898.16,763.14l2-4.08h0a1.77,1.77,0,0,1,3.18,1.55h0l-2,4.14a1.77,1.77,0,0,1-3.18-1.55Z"/><path class="cls-11" d="M1904.47,749.42l1.73-4.19h0a1.77,1.77,0,0,1,3.28,1.35h0l-1.75,4.25a1.77,1.77,0,1,1-3.28-1.35h0Z"/><path class="cls-11" d="M1909.92,735.33l1.46-4.29h0a1.79,1.79,0,0,1,3.38,1.15h0l-1.49,4.34a1.78,1.78,0,0,1-3.37-1.15Z"/><path class="cls-11" d="M1914.51,720.94l1.21-4.37h0a1.8,1.8,0,0,1,3.45,1h0l-1.23,4.43a1.8,1.8,0,1,1-3.45-1h0Z"/><path class="cls-11" d="M1918.26,706.3l1-4.43h0a1.8,1.8,0,0,1,3.56.52,2,2,0,0,1,0,.24h0l-1,4.49a1.8,1.8,0,1,1-3.56-.51,1.84,1.84,0,0,1,0-.25Z"/><path class="cls-11" d="M1921.18,691.47l.71-4.48h0a1.81,1.81,0,0,1,3.6.39l0,.18h0l-.73,4.53a1.81,1.81,0,0,1-3.57-.57Z"/><path class="cls-11" d="M1923.29,676.5l.51-4.5h0a1.8,1.8,0,0,1,2-1.61h0a1.82,1.82,0,0,1,1.62,2h0l-.49,4.57a1.81,1.81,0,1,1-3.61-.38Z"/><path class="cls-11" d="M1924.6,661.44l.24-4.53h0a1.82,1.82,0,0,1,3.64.19h0l-.25,4.58a1.82,1.82,0,0,1-3.63-.19Z"/><path class="cls-11" d="M1925.13,646.33v-4.54h0a1.83,1.83,0,0,1,3.66,0v0h0v4.59a1.81,1.81,0,0,1-1.82,1.82h0a1.85,1.85,0,0,1-1.83-1.84Z"/><path class="cls-11" d="M1924.93,631.2l-.2-4.53h0a1.84,1.84,0,0,1,3.68-.16h0l.2,4.59a1.84,1.84,0,0,1-3.67.16Z"/><path class="cls-11" d="M1924,616.11l-.42-4.52h0a1.85,1.85,0,0,1,3.68-.34h0l.42,4.57a1.84,1.84,0,1,1-3.67.34Z"/><path class="cls-11" d="M1922.35,601.07l-.64-4.49h0a1.85,1.85,0,0,1,3.67-.51h0l.64,4.54a1.85,1.85,0,1,1-3.67.52h0Z"/><path class="cls-11" d="M1920,586.13l-.84-4.46h0a1.86,1.86,0,0,1,1.34-2.26,1.84,1.84,0,0,1,2.26,1.34,1.11,1.11,0,0,1,0,.25h0l.84,4.51a1.86,1.86,0,1,1-3.61.91c0-.07,0-.15,0-.23Z"/><path class="cls-11" d="M1917,571.31l-1-4.42h0a1.87,1.87,0,0,1,3.64-.88v0h0l1.05,4.47a1.86,1.86,0,0,1-3.63.85Z"/><path class="cls-11" d="M1913.24,556.65l-1.24-4.37h0a1.88,1.88,0,0,1,3.62-1h0l1.25,4.42a1.88,1.88,0,0,1-3.61,1Z"/><path class="cls-11" d="M1908.88,542.16l-1.44-4.31h0a1.88,1.88,0,1,1,3.57-1.19h0l1.44,4.35a1.88,1.88,0,0,1-3.57,1.19h0Z"/><path class="cls-11" d="M1903.88,527.88l-1.62-4.24h0a1.89,1.89,0,0,1,3.54-1.35h0l1.63,4.29a1.89,1.89,0,0,1-3.53,1.35Z"/><path class="cls-11" d="M1898.27,513.82l-1.8-4.17h0a1.9,1.9,0,1,1,3.45-1.59.36.36,0,0,1,0,.09h0l1.82,4.21a1.9,1.9,0,0,1-3.45,1.59l0-.09Z"/><path class="cls-11" d="M1892.07,500l-2-4.09h0a1.91,1.91,0,0,1,3.44-1.66h0l2,4.14a1.9,1.9,0,1,1-3.43,1.65Z"/><path class="cls-11" d="M1885.29,486.49l-2.14-4h0a1.92,1.92,0,0,1,3.38-1.81h0l2.16,4.05a1.91,1.91,0,0,1-3.38,1.8h0Z"/><path class="cls-11" d="M1878,473.25l-2.31-3.92h0a1.93,1.93,0,0,1,3.32-1.95h0l2.32,4a1.92,1.92,0,0,1-3.31,1.95Z"/><path class="cls-11" d="M1870.09,460.31l-2.46-3.81h0a1.93,1.93,0,0,1,3.25-2.1h0l2.48,3.85a1.93,1.93,0,0,1-3.14,2.25c0-.05-.07-.1-.1-.16Z"/><path class="cls-11" d="M1861.72,447.71l-2.61-3.72h0a1.94,1.94,0,0,1,3.07-2.38l.1.15h0l2.63,3.76a1.94,1.94,0,1,1-3,2.45,1.88,1.88,0,0,1-.16-.23Z"/><path class="cls-11" d="M1852.85,435.44l-2.75-3.61h0a2,2,0,0,1,3.1-2.36h0l2.78,3.65a1.95,1.95,0,1,1-3,2.5.76.76,0,0,1-.11-.14Z"/><path class="cls-11" d="M1843.51,423.53l-2.89-3.51h0a2,2,0,1,1,3-2.49h0l2.92,3.54a2,2,0,0,1-2.41,3.19,2,2,0,0,1-.59-.71Z"/><path class="cls-11" d="M1833.72,412l-3-3.39h0a2,2,0,1,1,2.42-3.19,2.17,2.17,0,0,1,.51.58h0l3,3.43a2,2,0,0,1-2.41,3.19,1.92,1.92,0,0,1-.52-.58Z"/><path class="cls-11" d="M1823.5,400.82l-3.15-3.28h0a2,2,0,0,1,2.85-2.73h0l3.17,3.31a2,2,0,1,1-2.36,3.23,1.9,1.9,0,0,1-.48-.5Z"/><path class="cls-11" d="M1812.86,390l-3.27-3.15h0a2,2,0,1,1,2.35-3.24,1.85,1.85,0,0,1,.4.39h0l3.29,3.19a2,2,0,0,1-2.27,3.3,2.05,2.05,0,0,1-.47-.46Z"/><path class="cls-11" d="M1801.8,379.66l-3.38-3h0a2,2,0,0,1,2.65-3h0l3.41,3.07a2,2,0,0,1-2.65,2.95Z"/><path class="cls-11" d="M1790.44,369.69l-3.49-2.91h0a2,2,0,0,1,2.55-3.06h0l3.51,2.94a2,2,0,0,1-2.27,3.3,3.47,3.47,0,0,1-.29-.25Z"/><path class="cls-11" d="M1778.7,360.12l-3.58-2.79h0a2,2,0,1,1,2.46-3.16h0l3.62,2.82a2,2,0,0,1-2.46,3.15Z"/><path class="cls-11" d="M1766.65,351l-3.68-2.68h0a2,2,0,1,1,2.37-3.25h0l3.7,2.7a2,2,0,1,1-2.36,3.25Z"/><path class="cls-11" d="M1754.29,342.19l-3.76-2.55h0a2,2,0,1,1,2.26-3.34h0l3.79,2.58a2,2,0,1,1-2.26,3.33h0Z"/><path class="cls-11" d="M1741.66,333.82l-3.84-2.43h0A2,2,0,0,1,1740,328h0l3.87,2.46a2,2,0,1,1-2.17,3.41Z"/><path class="cls-11" d="M1728.8,325.85l-3.92-2.31h0A2,2,0,0,1,1727,320h0l3.94,2.34a2,2,0,1,1-2.07,3.49h0Z"/><path class="cls-11" d="M1715.65,318.28l-4-2.19h0a2.05,2.05,0,0,1,2-3.58h0l4,2.22a2,2,0,1,1-2,3.57Z"/><path class="cls-11" d="M1702.31,311.11l-4-2.08h0a2,2,0,0,1,1.87-3.64h0l4.07,2.09a2,2,0,1,1-1.87,3.64Z"/><path class="cls-11" d="M1688.8,304.32l-4.1-2h0a2.06,2.06,0,1,1,1.6-3.8l.18.09h0l4.13,2a2.06,2.06,0,0,1-1.77,3.71Z"/><path class="cls-11" d="M1675,297.94l-4.16-1.84h0a2.07,2.07,0,0,1,1.67-3.78h0l4.19,1.86A2.06,2.06,0,1,1,1675,298Z"/><path class="cls-11" d="M1661.09,291.94l-4.21-1.72h0a2.07,2.07,0,0,1,1.5-3.86l.07,0h0l4.24,1.74a2.07,2.07,0,0,1-1.57,3.83Z"/><path class="cls-11" d="M1647,286.34l-4.25-1.61h0a2.08,2.08,0,0,1,1.47-3.89h0l4.28,1.62a2.07,2.07,0,1,1-1.47,3.88Z"/><path class="cls-11" d="M1632.8,281.13l-4.3-1.49h0a2.08,2.08,0,1,1,1.36-3.94h0l4.33,1.5a2.09,2.09,0,1,1-1.12,4,1.25,1.25,0,0,1-.25-.09Z"/><path class="cls-11" d="M1618.41,276.31l-4.34-1.37h0a2.1,2.1,0,0,1,1-4.07l.22.07h0l4.37,1.38a2.1,2.1,0,1,1-1.27,4h0Z"/><path class="cls-11" d="M1603.91,271.88l-4.37-1.25h0a2.1,2.1,0,1,1,.61-4.15,2,2,0,0,1,.54.15h0l4.41,1.26a2.1,2.1,0,0,1-1.16,4Z"/><path class="cls-11" d="M1589.3,267.85l-4.4-1.13h0a2.11,2.11,0,1,1,1-4.09h0l4.43,1.14a2.11,2.11,0,0,1-1,4.09Z"/><path class="cls-11" d="M1574.59,264.22l-4.43-1h0a2.12,2.12,0,0,1,.94-4.13h0l4.46,1a2.12,2.12,0,1,1-1,4.12Z"/><path class="cls-11" d="M1559.8,261l-4.46-.89h0a2.13,2.13,0,0,1,.83-4.17h0l4.5.91a2.12,2.12,0,0,1-.87,4.15Z"/><path class="cls-11" d="M1544.89,258.14l-4.48-.77h0a2.13,2.13,0,1,1,.72-4.2h0l4.52.78a2.13,2.13,0,1,1-.73,4.2Z"/><path class="cls-11" d="M1529.93,255.7l-4.5-.65h0a2.14,2.14,0,0,1,.61-4.24h0l4.54.66a2.14,2.14,0,0,1-.62,4.24h0Z"/><path class="cls-11" d="M1514.91,253.67l-4.1-.48h0a2.15,2.15,0,0,1,.5-4.27h0l4.13.49a2.14,2.14,0,0,1-.5,4.26Z"/><polygon class="cls-76" points="1490.47 233.55 1489.16 259.68 1472.03 247.55 1490.47 233.55"/><path class="cls-9" d="M1373.73,212.62l67.44,65.46a6.62,6.62,0,0,0,9.36-.13l.18-.19,63.17-70.19a2.67,2.67,0,0,0,.41-2.94,2.64,2.64,0,0,0-2.57-1.48Z"/><polygon class="cls-76" points="1490.47 233.55 1373.73 212.62 1480.31 244.91 1480.25 252.17 1490.47 233.55"/><polygon class="cls-76" points="1474.23 251.6 1489.16 259.68 1480.31 244.91 1474.23 251.6"/><g class="cls-77"><path class="cls-11" d="M328.12,915.83a2,2,0,0,1-.41-.41c-1.18-1.55-2.41-3.09-3.64-4.56a2.23,2.23,0,0,1,3.25-3.06l.17.21c1.27,1.52,2.54,3.11,3.76,4.71a2.22,2.22,0,0,1-3.13,3.11Z"/><path class="cls-11" d="M218.41,1133.68a2.25,2.25,0,0,1-.86-1.8,2.21,2.21,0,0,1,2.23-2.19h0c3.78,0,7.6-.06,11.36-.33a2.23,2.23,0,0,1,.32,4.44c-3.89.28-7.84.4-11.74.34A2.28,2.28,0,0,1,218.41,1133.68Zm30.12-3a2.23,2.23,0,0,1,.89-3.94c3.69-.79,7.39-1.75,11-2.85a2.23,2.23,0,0,1,1.3,4.26c-3.74,1.14-7.56,2.13-11.36,2.94a2.18,2.18,0,0,1-1.83-.39Zm28.71-9.57a2.26,2.26,0,0,1,.36-3.8l.07,0c3.43-1.58,6.83-3.33,10.1-5.19a2.23,2.23,0,1,1,2.44,3.74l-.24.13c-3.38,1.92-6.89,3.73-10.44,5.36a2.2,2.2,0,0,1-2.29-.19Zm25.88-15.66a2.59,2.59,0,0,1-.4-.41,2.22,2.22,0,0,1,.4-3.11h0c3-2.3,5.91-4.76,8.69-7.31a2.23,2.23,0,0,1,3,3.28c-2.88,2.64-5.9,5.18-9,7.56a2.24,2.24,0,0,1-2.7,0Zm21.74-21v0a2.21,2.21,0,0,1-.3-3.12h0c.86-1,1.7-2.1,2.53-3.17,1.48-1.92,2.94-3.9,4.31-5.89a2.23,2.23,0,0,1,3.67,2.52c-1.43,2.07-2.93,4.12-4.46,6.1-.86,1.1-1.73,2.19-2.62,3.27a2.22,2.22,0,0,1-3.13.32Zm16.52-25.35a2.22,2.22,0,0,1-.62-2.76c1.7-3.37,3.27-6.85,4.68-10.36a2.23,2.23,0,0,1,4.13,1.66c-1.45,3.62-3.08,7.22-4.83,10.7a2.22,2.22,0,0,1-3,1h0a2.81,2.81,0,0,0-.36-.27Zm10.53-28.37a2.24,2.24,0,0,1-.79-2.3c.91-3.67,1.67-7.41,2.27-11.13a2.22,2.22,0,0,1,4.39.7c-.61,3.85-1.4,7.72-2.34,11.5a2.24,2.24,0,0,1-2.7,1.63,2.27,2.27,0,0,1-.83-.43Zm4-30a2.17,2.17,0,0,1-.86-1.8c.07-3.78,0-7.6-.27-11.36a2.22,2.22,0,0,1,4.44-.29c.26,3.88.35,7.83.28,11.74a2.23,2.23,0,0,1-2.27,2.18,2.15,2.15,0,0,1-1.34-.51Zm-2.82-30.13a2.36,2.36,0,0,1-.82-1.31c-.76-3.68-1.7-7.39-2.79-11a2.23,2.23,0,0,1,4.21-1.47l.06.2c1.12,3.74,2.09,7.57,2.88,11.37a2.22,2.22,0,0,1-1.69,2.64,2.19,2.19,0,0,1-1.85-.42Zm-9.42-28.76A2.17,2.17,0,0,1,343,941c-1.57-3.43-3.3-6.84-5.14-10.13a2.23,2.23,0,0,1,3.74-2.43,2,2,0,0,1,.14.25c1.91,3.4,3.69,6.92,5.31,10.47a2.23,2.23,0,0,1-3.39,2.68Z"/><path class="cls-11" d="M193.8,1131.06a2.22,2.22,0,0,1,1.8-3.94c1.9.38,3.83.72,5.74,1a2.23,2.23,0,0,1-.68,4.4c-2-.31-4-.66-5.94-1.06A2.23,2.23,0,0,1,193.8,1131.06Z"/></g><g class="cls-77"><path class="cls-11" d="M109.24,1075.87a1.91,1.91,0,0,1-.46-.48c-1.14-1.64-2.27-3.33-3.34-5a2.22,2.22,0,1,1,3.75-2.39c1,1.64,2.13,3.27,3.24,4.86a2.22,2.22,0,0,1-3.19,3Z"/><path class="cls-11" d="M97.13,1054.72a2.34,2.34,0,0,1-.66-.83c-1.59-3.48-3.06-7.08-4.37-10.69a2.23,2.23,0,0,1,4.19-1.52c1.26,3.5,2.69,7,4.23,10.35a2.23,2.23,0,0,1-3.39,2.69Zm-9.39-28.25a2.2,2.2,0,0,1-.82-1.3c-.81-3.75-1.46-7.58-2-11.38a2.22,2.22,0,1,1,4.41-.57h0c.48,3.67,1.11,7.38,1.9,11a2.23,2.23,0,0,1-3.54,2.23Zm-3-29.63a2.24,2.24,0,0,1-.87-1.78c0-3.84.24-7.72.6-11.54a2.22,2.22,0,0,1,4.43.41c-.35,3.7-.54,7.46-.57,11.17a2.23,2.23,0,0,1-2.25,2.2,2.11,2.11,0,0,1-1.36-.46Zm3.56-29.57a2.2,2.2,0,0,1-.8-2.27c.87-3.73,1.92-7.48,3.1-11.12a2.22,2.22,0,0,1,4.23,1.37c-1.14,3.53-2.15,7.15-3,10.77a2.21,2.21,0,0,1-2.66,1.66h0a2.22,2.22,0,0,1-.88-.41Zm9.93-28.07a2.22,2.22,0,0,1-.64-2.73c1.66-3.45,3.49-6.88,5.44-10.18a2.23,2.23,0,0,1,3.84,2.26c-1.89,3.19-3.66,6.51-5.27,9.86a2.22,2.22,0,0,1-3,1h0a2.93,2.93,0,0,1-.39-.21ZM114,914h0a2.24,2.24,0,0,1-.37-3.13c2.38-3,4.91-6,7.53-8.75a2.23,2.23,0,0,1,3.64,2.58,2,2,0,0,1-.39.42c-2.53,2.71-5,5.56-7.29,8.47A2.22,2.22,0,0,1,114,914Zm20.92-21.19a1.8,1.8,0,0,1-.37-.36,2.22,2.22,0,0,1,.32-3.12h0c3-2.41,6.09-4.73,9.26-6.89a2.23,2.23,0,0,1,2.51,3.69c-3.07,2.08-6.09,4.33-9,6.66a2.22,2.22,0,0,1-2.73,0ZM160,876.73a2.14,2.14,0,0,1-.63-.77,2.22,2.22,0,0,1,1-3l0,0c3.43-1.7,7-3.28,10.55-4.69a2.23,2.23,0,0,1,1.64,4.14c-3.46,1.37-6.89,2.89-10.21,4.54a2.21,2.21,0,0,1-2.35-.27Zm27.95-10.24a2.23,2.23,0,0,1-.38-3.13,2.21,2.21,0,0,1,1.21-.79c3.73-.92,7.54-1.7,11.32-2.3a2.22,2.22,0,1,1,.71,4.39h0c-3.67.59-7.35,1.34-11,2.23a2.23,2.23,0,0,1-1.86-.45Zm29.53-3.92a2.23,2.23,0,0,1,1.31-4c3.83-.08,7.72,0,11.55.24a2.22,2.22,0,0,1-.28,4.44c-3.71-.23-7.47-.31-11.18-.23a2.18,2.18,0,0,1-1.4-.5Z"/><path class="cls-11" d="M247.15,865.18a2.22,2.22,0,0,1,1.8-3.94c2,.4,4,.85,5.88,1.33A2.23,2.23,0,0,1,254,867l-.28-.07c-1.87-.47-3.79-.9-5.69-1.29A2.14,2.14,0,0,1,247.15,865.18Z"/></g><path class="cls-78" d="M259.28,899.21a1.62,1.62,0,0,0-1.87.27l-14.32,13.68a86.19,86.19,0,0,0-27.85-2.35L203.4,895a1.62,1.62,0,0,0-1.8-.58L179,901.65a1.63,1.63,0,0,0-1.13,1.51l-.45,19.78A86.17,86.17,0,0,0,156.05,941l-19.6-2.85a1.63,1.63,0,0,0-1.68.87l-10.89,21.11a1.66,1.66,0,0,0,.27,1.87l13.65,14.28a86.49,86.49,0,0,0-2.34,27.85L119.63,1016a1.64,1.64,0,0,0-.57,1.8l7.22,22.63a1.61,1.61,0,0,0,1.52,1.13l19.78.46a86.48,86.48,0,0,0,18,21.33l-2.84,19.6a1.63,1.63,0,0,0,.86,1.68l21.15,10.85a1.62,1.62,0,0,0,1.87-.27L201,1081.53a86.21,86.21,0,0,0,27.85,2.34l11.84,15.86a1.63,1.63,0,0,0,1.8.58l22.63-7.23a1.63,1.63,0,0,0,1.13-1.51l.45-19.79a86.29,86.29,0,0,0,21.34-18l19.6,2.84a1.62,1.62,0,0,0,1.68-.86l10.88-21.11a1.64,1.64,0,0,0-.26-1.87l-13.68-14.32a86.19,86.19,0,0,0,2.34-27.85l15.86-11.84A1.64,1.64,0,0,0,325,977l-7.22-22.68a1.63,1.63,0,0,0-1.52-1.13l-19.78-.45a86.71,86.71,0,0,0-18.05-21.34l2.84-19.59a1.63,1.63,0,0,0-.86-1.68Z"/><path class="cls-79" d="M206.36,1017.52a25.21,25.21,0,0,1-6-6.69,25.58,25.58,0,0,1,8.2-35.18h0a25.54,25.54,0,1,1-2.17,41.87Zm6.87-34.31a16.64,16.64,0,1,0,22.92,5.34A16.65,16.65,0,0,0,213.23,983.21Z"/><path class="cls-79" d="M185.8,1044.23a58.74,58.74,0,0,1-16.2-73.38,59.54,59.54,0,0,1,5.83-9.15A58.34,58.34,0,0,1,204,941.8c.76-.25,1.52-.47,2.29-.68h.05a61.3,61.3,0,0,1,7.69-1.57l.51-.07H215l1.23-.13a1.51,1.51,0,1,1,.29,3h0a56.52,56.52,0,0,0-11.64,2.4h0a55.83,55.83,0,1,0,53.91,11.3,1.48,1.48,0,0,1-.19-2l.06-.08a1.48,1.48,0,0,1,2.09-.13h0a58.79,58.79,0,0,1-74.94,90.39Z"/><g class="cls-77"><path class="cls-11" d="M460.64,848.44a1.48,1.48,0,0,1-.28-.28c-.73-1-1.48-1.91-2.26-2.84a1.48,1.48,0,0,1,2.28-1.9h0c.81,1,1.59,2,2.35,3a1.48,1.48,0,0,1-2.09,2.06Z"/><path class="cls-11" d="M395.88,970.38a1.48,1.48,0,0,1-.25-2.09,1.52,1.52,0,0,1,1.25-.57,61.59,61.59,0,0,0,7.06,0,1.5,1.5,0,0,1,.12,3h0c-2.43.11-4.9.09-7.34,0A1.45,1.45,0,0,1,395.88,970.38Zm14.37-.61a1.42,1.42,0,0,1-.56-1,1.5,1.5,0,0,1,1.27-1.68c2.31-.32,4.65-.75,6.93-1.3a1.5,1.5,0,0,1,1.79,1.11,1.47,1.47,0,0,1-1.1,1.78c-2.38.57-4.81,1-7.22,1.35A1.46,1.46,0,0,1,410.25,969.77Zm14-3.32a1.46,1.46,0,0,1-.5-.69,1.5,1.5,0,0,1,.93-1.89l1.07-.37c1.86-.66,3.72-1.4,5.51-2.2a1.48,1.48,0,1,1,1.21,2.71c-1.86.83-3.79,1.6-5.73,2.29l-1.11.39a1.46,1.46,0,0,1-1.38-.24Zm13.13-5.86a1.33,1.33,0,0,1-.38-.44,1.48,1.48,0,0,1,.56-2c2-1.15,4-2.42,6-3.76a1.49,1.49,0,1,1,1.86,2.33.91.91,0,0,1-.16.11c-2,1.39-4.09,2.71-6.21,3.9a1.45,1.45,0,0,1-1.67-.14Zm11.79-8.22a1.45,1.45,0,0,1-.22-.21,1.5,1.5,0,0,1,.17-2.09c1.79-1.52,3.52-3.14,5.15-4.82a1.48,1.48,0,0,1,2.13,2.06,72.24,72.24,0,0,1-5.36,5,1.49,1.49,0,0,1-1.87.06Zm10-10.31h0a1.46,1.46,0,0,1-.24-2.06v0c.27-.35.55-.69.81-1,1.17-1.5,2.29-3.07,3.34-4.67a1.5,1.5,0,0,1,2.06-.42,1.48,1.48,0,0,1,.43,2h0c-1.09,1.66-2.26,3.3-3.47,4.86l-.85,1.08a1.48,1.48,0,0,1-2.05.18Zm7.9-12a1.48,1.48,0,0,1-.4-1.87,69.84,69.84,0,0,0,3-6.38,1.48,1.48,0,0,1,1.92-.81h0a1.49,1.49,0,0,1,.8,1.94c-.94,2.25-2,4.48-3.14,6.63a1.47,1.47,0,0,1-2,.62h0a.8.8,0,0,1-.17-.15Zm5.53-13.28a1.48,1.48,0,0,1-.51-1.61c.69-2.25,1.28-4.54,1.76-6.84a1.49,1.49,0,0,1,2.91.61c-.5,2.38-1.12,4.77-1.84,7.1a1.47,1.47,0,0,1-1.82,1h0a1.34,1.34,0,0,1-.44-.27Zm2.93-14.08a1.47,1.47,0,0,1-.57-1.34c.26-2.33.41-4.7.45-7a1.5,1.5,0,0,1,3,0,66.48,66.48,0,0,1-.47,7.33A1.48,1.48,0,0,1,476.3,903a1.57,1.57,0,0,1-.74-.31Zm.22-14.39a1.47,1.47,0,0,1-.57-1c-.19-2.34-.49-4.69-.9-7a1.49,1.49,0,1,1,2.9-.67.8.8,0,0,1,0,.15c.42,2.4.73,4.85.93,7.28a1.4,1.4,0,0,1-2.34,1.23Zm-2.5-14.16a1.46,1.46,0,0,1-.53-.78c-.47-1.73-1-3.47-1.62-5.17l-.57-1.54a1.48,1.48,0,1,1,2.77-1c.21.53.4,1.06.59,1.6.63,1.77,1.2,3.57,1.7,5.37a1.5,1.5,0,0,1-1,1.83,1.45,1.45,0,0,1-1.31-.27Zm-5.11-13.45a1.42,1.42,0,0,1-.42-.52,66.56,66.56,0,0,0-3.41-6.18,1.48,1.48,0,1,1,2.53-1.55h0c1.28,2.07,2.47,4.24,3.54,6.43a1.48,1.48,0,0,1-2.24,1.82Z"/><path class="cls-11" d="M385,969a1.53,1.53,0,0,1-.55-1.47,1.49,1.49,0,0,1,1.75-1.16c1.19.24,2.38.44,3.58.62a1.49,1.49,0,0,1-.44,2.94c-1.25-.19-2.49-.4-3.72-.65A1.65,1.65,0,0,1,385,969Z"/></g><g class="cls-77"><path class="cls-11" d="M337.5,938a1.18,1.18,0,0,1-.3-.33c-.73-1-1.42-2.08-2.1-3.15a1.49,1.49,0,0,1,2.52-1.58c.67,1,1.33,2,2,3a1.49,1.49,0,0,1-2.13,2Z"/><path class="cls-11" d="M331.69,928.21a1.51,1.51,0,0,1-.42-.52,77.89,77.89,0,0,1-3.13-7.2,1.48,1.48,0,0,1,2.72-1.17l.06.17c.89,2.35,1.9,4.68,3,6.92a1.49,1.49,0,0,1-2.24,1.84Zm-5.41-14.4a1.49,1.49,0,0,1-.53-.79,77.47,77.47,0,0,1-1.63-7.67,1.48,1.48,0,0,1,2.93-.47h0a74.91,74.91,0,0,0,1.57,7.38,1.49,1.49,0,0,1-1.05,1.82,1.46,1.46,0,0,1-1.29-.27Zm-2.43-15.18a1.46,1.46,0,0,1-.57-1.09,76.11,76.11,0,0,1,0-7.85,1.5,1.5,0,0,1,3,.13,73.13,73.13,0,0,0,0,7.55,1.47,1.47,0,0,1-1.38,1.57,1.43,1.43,0,0,1-1-.31Zm.69-15.36a1.5,1.5,0,0,1-.56-1.4,77.49,77.49,0,0,1,1.54-7.69,1.49,1.49,0,0,1,2.94.51,1.8,1.8,0,0,1-.06.22,74.51,74.51,0,0,0-1.48,7.4,1.49,1.49,0,0,1-1.69,1.25,1.57,1.57,0,0,1-.69-.29Zm3.77-14.91a1.5,1.5,0,0,1-.48-1.68,76.29,76.29,0,0,1,3.05-7.23,1.48,1.48,0,1,1,2.67,1.29h0c-1.09,2.28-2.07,4.62-2.93,7a1.47,1.47,0,0,1-1.89.89h0a1.62,1.62,0,0,1-.41-.27ZM335,854.51a1.5,1.5,0,0,1-.35-2c1.36-2.22,2.85-4.4,4.43-6.48a1.49,1.49,0,0,1,2.08-.28h0a1.47,1.47,0,0,1,.27,2.07q-2.28,3-4.26,6.23a1.47,1.47,0,0,1-2,.49Zm9.32-12.23-.11-.09a1.49,1.49,0,0,1-.07-2.1,76.51,76.51,0,0,1,5.65-5.45,1.48,1.48,0,1,1,2,2.23,74.76,74.76,0,0,0-5.43,5.25,1.48,1.48,0,0,1-2,.16Zm11.59-10.11a1.3,1.3,0,0,1-.31-.31,1.49,1.49,0,0,1,.36-2.07q3.21-2.26,6.63-4.2a1.49,1.49,0,0,1,1.46,2.59,74,74,0,0,0-6.38,4,1.46,1.46,0,0,1-1.76,0Zm13.38-7.55a1.52,1.52,0,0,1-.45-.58,1.5,1.5,0,0,1,.72-2l.05,0c1.71-.75,3.46-1.44,5.22-2.07.71-.25,1.41-.49,2.12-.72a1.49,1.49,0,0,1,.91,2.83c-.67.22-1.33.45-2,.69-1.69.6-3.38,1.27-5,2a1.51,1.51,0,0,1-1.57-.15Zm14.64-4.73a1.44,1.44,0,0,1-.54-.86,1.46,1.46,0,0,1,1.11-1.75h0a73.17,73.17,0,0,1,7.75-1.27,1.51,1.51,0,1,1,.33,3,75.08,75.08,0,0,0-7.45,1.22,1.47,1.47,0,0,1-1.22-.33Zm15.28-1.7a1.49,1.49,0,0,1-.25-2.09,1.52,1.52,0,0,1,1.15-.57c2.6,0,5.24.09,7.84.33a1.51,1.51,0,1,1-.28,3c-2.5-.23-5-.34-7.54-.32a1.48,1.48,0,0,1-.92-.35Z"/><path class="cls-11" d="M414.57,819.63A1.49,1.49,0,0,1,415.8,817c1.24.24,2.47.52,3.69.82a1.48,1.48,0,1,1-.72,2.88c-1.17-.29-2.36-.55-3.55-.79A1.31,1.31,0,0,1,414.57,819.63Z"/></g><path class="cls-80" d="M421.9,838.62a1,1,0,0,0-1,.15l-8,7.69a48.46,48.46,0,0,0-15.64-1.32l-6.65-8.9a.92.92,0,0,0-1-.33L376.8,840a.91.91,0,0,0-.63.85L375.91,852a48.81,48.81,0,0,0-12,10.14l-11-1.6a.92.92,0,0,0-1,.49l-6.11,11.85a.9.9,0,0,0,.15,1l7.68,8a48.18,48.18,0,0,0-1.31,15.64l-8.91,6.65a.91.91,0,0,0-.32,1l4,12.71a.9.9,0,0,0,.85.63l11.11.26a48.63,48.63,0,0,0,10.14,12l-1.6,11a.93.93,0,0,0,.49,1l11.85,6.11a.9.9,0,0,0,1-.15L389,941a48.74,48.74,0,0,0,15.64,1.31l6.64,8.91a.92.92,0,0,0,1,.32L425,947.49a.92.92,0,0,0,.64-.85l.25-11.11a48.2,48.2,0,0,0,12-10.13l11,1.59a.9.9,0,0,0,.94-.48l6.11-11.86a.91.91,0,0,0-.15-1l-7.68-8A48.16,48.16,0,0,0,449.4,890l8.9-6.65a.92.92,0,0,0,.33-1l-4.06-12.7a.92.92,0,0,0-.85-.64l-11.11-.25a48.42,48.42,0,0,0-10.14-12l1.6-11a.92.92,0,0,0-.49-.94Z"/><path class="cls-79" d="M392.8,904.28a13.33,13.33,0,0,1-2.37-18.71,13.48,13.48,0,0,1,3.49-3.16h0a13.32,13.32,0,1,1-1.12,21.87Zm2.68-19.34a10.35,10.35,0,1,0,7.83-1.3A10.36,10.36,0,0,0,395.48,884.94Z"/><path class="cls-79" d="M380.22,920.58a33.68,33.68,0,0,1,10.4-58.66l.16,0a33.84,33.84,0,0,1,6.53-1.36h.33a1.49,1.49,0,0,1,1.62,1.35,1.45,1.45,0,0,1-.3,1,1.53,1.53,0,0,1-1,.57,31.2,31.2,0,0,0-6.41,1.32h0A30.68,30.68,0,1,0,421.2,871a1.48,1.48,0,0,1-.19-2l.06-.08a1.48,1.48,0,0,1,2.09-.13h0a33.67,33.67,0,0,1-42.91,51.85Z"/></g></g></g></svg>