<svg xmlns="http://www.w3.org/2000/svg" xmlns:xlink="http://www.w3.org/1999/xlink" viewBox="0 0 2187.21 1329.52"><defs><style>.cls-1{fill:url(#linear-gradient);}.cls-2{fill:#bdd0fb;}.cls-3{fill:url(#linear-gradient-2);}.cls-4{fill:#91b3fa;}.cls-5{fill:url(#linear-gradient-3);}.cls-6{fill:url(#linear-gradient-4);}.cls-7{fill:url(#linear-gradient-5);}.cls-8{fill:url(#linear-gradient-6);}.cls-9{fill:url(#linear-gradient-7);}.cls-10{fill:url(#linear-gradient-8);}.cls-11{fill:#2a6fae;}.cls-12{fill:url(#linear-gradient-9);}.cls-13{fill:url(#linear-gradient-10);}.cls-14{opacity:0.64;}.cls-15,.cls-69{fill:#fff;}.cls-16{fill:url(#linear-gradient-11);}.cls-17{fill:url(#linear-gradient-12);}.cls-18{fill:url(#linear-gradient-13);}.cls-19{fill:url(#linear-gradient-14);}.cls-20{fill:url(#linear-gradient-15);}.cls-21{fill:url(#linear-gradient-16);}.cls-22{fill:url(#linear-gradient-17);}.cls-23{fill:url(#linear-gradient-18);}.cls-24{fill:url(#linear-gradient-19);}.cls-25{fill:url(#linear-gradient-20);}.cls-26{fill:url(#linear-gradient-21);}.cls-27{fill:url(#linear-gradient-22);}.cls-28{fill:url(#linear-gradient-23);}.cls-29{fill:url(#linear-gradient-24);}.cls-30{fill:url(#linear-gradient-25);}.cls-31{fill:url(#linear-gradient-26);}.cls-32{fill:url(#linear-gradient-27);}.cls-33{fill:url(#linear-gradient-28);}.cls-34{fill:url(#linear-gradient-29);}.cls-35{fill:url(#linear-gradient-30);}.cls-36{fill:url(#linear-gradient-31);}.cls-37{fill:url(#linear-gradient-32);}.cls-38{fill:url(#linear-gradient-33);}.cls-39{fill:url(#linear-gradient-34);}.cls-40{opacity:0.41;}.cls-41{fill:url(#linear-gradient-35);}.cls-42{fill:url(#linear-gradient-36);}.cls-43{fill:url(#linear-gradient-37);}.cls-44{fill:url(#linear-gradient-38);}.cls-45{fill:url(#linear-gradient-39);}.cls-46{fill:url(#linear-gradient-40);}.cls-47{fill:#7d97f4;}.cls-48{fill:url(#linear-gradient-41);}.cls-49{fill:url(#linear-gradient-42);}.cls-50{fill:url(#linear-gradient-43);}.cls-51{fill:url(#linear-gradient-44);}.cls-52{fill:url(#linear-gradient-45);}.cls-53{fill:url(#linear-gradient-46);}.cls-54{fill:url(#linear-gradient-47);}.cls-55{fill:url(#linear-gradient-48);}.cls-56{fill:url(#linear-gradient-49);}.cls-57{fill:url(#linear-gradient-50);}.cls-58{fill:url(#linear-gradient-51);}.cls-59{fill:url(#linear-gradient-52);}.cls-60{fill:url(#linear-gradient-53);}.cls-61{fill:url(#linear-gradient-54);}.cls-62{fill:url(#linear-gradient-55);}.cls-63{fill:url(#linear-gradient-56);}.cls-64{fill:url(#linear-gradient-57);}.cls-65{fill:url(#linear-gradient-58);}.cls-66{fill:url(#linear-gradient-59);}.cls-67{fill:url(#linear-gradient-60);}.cls-68{fill:url(#linear-gradient-61);}.cls-69{opacity:0.78;isolation:isolate;}.cls-70{opacity:0.84;}</style><linearGradient id="linear-gradient" x1="1740.64" y1="721.03" x2="-457.16" y2="712.74" gradientTransform="matrix(0.96, -0.02, -0.02, -1, 237.4, 1429.31)" gradientUnits="userSpaceOnUse"><stop offset="0" stop-color="#dae3fe"/><stop offset="1" stop-color="#e9effd"/></linearGradient><linearGradient id="linear-gradient-2" x1="2494.93" y1="1122.92" x2="2222.93" y2="778.92" gradientTransform="matrix(1, 0, 0, -1, 0, 1391.96)" gradientUnits="userSpaceOnUse"><stop offset="0" stop-color="#09005d"/><stop offset="1" stop-color="#1a0f91"/></linearGradient><linearGradient id="linear-gradient-3" x1="2683.24" y1="1780.55" x2="2271.24" y2="1260.55" xlink:href="#linear-gradient-2"/><linearGradient id="linear-gradient-4" x1="2706.17" y1="1762.38" x2="2294.17" y2="1242.38" xlink:href="#linear-gradient-2"/><linearGradient id="linear-gradient-5" x1="244.99" y1="645.97" x2="320.21" y2="645.97" gradientTransform="matrix(1, 0, 0, -1, 0, 1391.96)" xlink:href="#linear-gradient"/><linearGradient id="linear-gradient-6" x1="41.11" y1="263.04" x2="284.2" y2="263.04" gradientTransform="matrix(1, 0, 0, -1, 0, 1391.96)" xlink:href="#linear-gradient"/><linearGradient id="linear-gradient-7" x1="1516.28" y1="792.16" x2="1591.51" y2="792.16" gradientTransform="matrix(1, 0, 0, -1, 0, 1391.96)" xlink:href="#linear-gradient"/><linearGradient id="linear-gradient-8" x1="2487" y1="-1675.69" x2="2642.1" y2="-1675.69" gradientTransform="matrix(0.85, 0.53, 0.53, -0.85, 426.12, -1826.63)" xlink:href="#linear-gradient-2"/><linearGradient id="linear-gradient-9" x1="870.46" y1="-160.81" x2="450.46" y2="-1572.82" gradientTransform="matrix(1, 0, 0, -1, 0, 1391.96)" gradientUnits="userSpaceOnUse"><stop offset="0" stop-color="#4042e2"/><stop offset="1" stop-color="#4f52ff"/></linearGradient><linearGradient id="linear-gradient-10" x1="1799.4" y1="2041.96" x2="1495.4" y2="1385.96" xlink:href="#linear-gradient-9"/><linearGradient id="linear-gradient-11" x1="1349.52" y1="978.13" x2="1047.52" y2="468.13" gradientTransform="matrix(1, 0, 0, -1, 0, 1391.96)" gradientUnits="userSpaceOnUse"><stop offset="0" stop-color="#fe7062"/><stop offset="1" stop-color="#ff928e"/></linearGradient><linearGradient id="linear-gradient-12" x1="1050.67" y1="1350.26" x2="1074.67" y2="964.26" gradientTransform="matrix(1, 0, 0, -1, 0, 1391.96)" gradientUnits="userSpaceOnUse"><stop offset="0" stop-color="#ff928e"/><stop offset="1" stop-color="#feb3b1"/></linearGradient><linearGradient id="linear-gradient-13" x1="1051.58" y1="1350.32" x2="1075.58" y2="964.32" xlink:href="#linear-gradient-12"/><linearGradient id="linear-gradient-14" x1="838.28" y1="859.38" x2="802.28" y2="693.38" xlink:href="#linear-gradient-11"/><linearGradient id="linear-gradient-15" x1="678.59" y1="927.13" x2="714.59" y2="564.14" xlink:href="#linear-gradient-12"/><linearGradient id="linear-gradient-16" x1="679.03" y1="927.17" x2="715.03" y2="564.19" xlink:href="#linear-gradient-12"/><linearGradient id="linear-gradient-17" x1="1314.01" y1="984.32" x2="1098.01" y2="562.32" xlink:href="#linear-gradient-11"/><linearGradient id="linear-gradient-18" x1="1219.68" y1="1232.38" x2="1230.18" y2="1037.39" xlink:href="#linear-gradient-12"/><linearGradient id="linear-gradient-19" x1="1220.01" y1="1232.4" x2="1230.51" y2="1037.41" xlink:href="#linear-gradient-12"/><linearGradient id="linear-gradient-20" x1="562.16" y1="695.05" x2="559.16" y2="628.05" xlink:href="#linear-gradient-2"/><linearGradient id="linear-gradient-21" x1="531.47" y1="526.97" x2="575.86" y2="526.97" xlink:href="#linear-gradient-2"/><linearGradient id="linear-gradient-22" x1="535.69" y1="539.51" x2="548.55" y2="539.51" xlink:href="#linear-gradient-12"/><linearGradient id="linear-gradient-23" x1="457.22" y1="699.75" x2="454.22" y2="632.75" xlink:href="#linear-gradient-2"/><linearGradient id="linear-gradient-24" x1="440.54" y1="532.52" x2="466.24" y2="532.52" xlink:href="#linear-gradient-2"/><linearGradient id="linear-gradient-25" x1="453.89" y1="550.26" x2="469.26" y2="550.26" xlink:href="#linear-gradient-12"/><linearGradient id="linear-gradient-26" x1="418.25" y1="505.28" x2="620.25" y2="733.82" xlink:href="#linear-gradient-2"/><linearGradient id="linear-gradient-27" x1="647.27" y1="871.21" x2="294.77" y2="564.62" xlink:href="#linear-gradient-11"/><linearGradient id="linear-gradient-28" x1="552.73" y1="714.6" x2="573.23" y2="803.6" xlink:href="#linear-gradient-9"/><linearGradient id="linear-gradient-29" x1="538.99" y1="840.84" x2="504.5" y2="757.34" xlink:href="#linear-gradient-12"/><linearGradient id="linear-gradient-30" x1="617.89" y1="903.69" x2="266.98" y2="598.48" xlink:href="#linear-gradient-11"/><linearGradient id="linear-gradient-31" x1="673.03" y1="840.3" x2="322.12" y2="535.1" xlink:href="#linear-gradient-11"/><linearGradient id="linear-gradient-32" x1="626.95" y1="769.79" x2="670.06" y2="769.79" xlink:href="#linear-gradient-12"/><linearGradient id="linear-gradient-33" x1="585.02" y1="884.99" x2="584.55" y2="804.49" xlink:href="#linear-gradient-12"/><linearGradient id="linear-gradient-34" x1="659.88" y1="787.04" x2="512.54" y2="711.71" xlink:href="#linear-gradient-2"/><linearGradient id="linear-gradient-35" x1="666.87" y1="838.31" x2="897.43" y2="838.31" xlink:href="#linear-gradient-2"/><linearGradient id="linear-gradient-36" x1="698.26" y1="884.79" x2="639.59" y2="884.79" xlink:href="#linear-gradient-12"/><linearGradient id="linear-gradient-37" x1="356.71" y1="-639.82" x2="404.04" y2="-639.82" gradientTransform="matrix(0.99, -0.14, -0.14, -0.99, 138.6, -71.75)" xlink:href="#linear-gradient-2"/><linearGradient id="linear-gradient-38" x1="328.87" y1="-668.75" x2="360.66" y2="-636.14" gradientTransform="matrix(0.99, -0.14, -0.14, -0.99, 138.6, -71.75)" xlink:href="#linear-gradient-12"/><linearGradient id="linear-gradient-39" x1="566.26" y1="829.58" x2="531.76" y2="746.08" xlink:href="#linear-gradient-12"/><linearGradient id="linear-gradient-40" x1="665.47" y1="774.85" x2="680.91" y2="774.85" xlink:href="#linear-gradient-12"/><linearGradient id="linear-gradient-41" x1="11131.01" y1="316.19" x2="11131.51" y2="225.19" gradientTransform="translate(12740.21 1391.96) rotate(180)" xlink:href="#linear-gradient-2"/><linearGradient id="linear-gradient-42" x1="11107.53" y1="92.91" x2="11120.55" y2="92.91" gradientTransform="translate(12740.21 1391.96) rotate(180)" xlink:href="#linear-gradient-12"/><linearGradient id="linear-gradient-43" x1="11076.63" y1="192.51" x2="11119.71" y2="192.51" gradientTransform="translate(12740.21 1391.96) rotate(180)" xlink:href="#linear-gradient-2"/><linearGradient id="linear-gradient-44" x1="11066.97" y1="315.86" x2="11067.47" y2="224.86" gradientTransform="translate(12740.21 1391.96) rotate(180)" xlink:href="#linear-gradient-2"/><linearGradient id="linear-gradient-45" x1="11060.58" y1="93.58" x2="11071.83" y2="93.58" gradientTransform="translate(12740.21 1391.96) rotate(180)" xlink:href="#linear-gradient-12"/><linearGradient id="linear-gradient-46" x1="11048.46" y1="193.91" x2="11109.55" y2="193.91" gradientTransform="translate(12740.21 1391.96) rotate(180)" xlink:href="#linear-gradient-2"/><linearGradient id="linear-gradient-47" x1="14921.79" y1="363.39" x2="15012.76" y2="270.23" gradientTransform="translate(16566.21 1391.96) rotate(180)" xlink:href="#linear-gradient-11"/><linearGradient id="linear-gradient-48" x1="1477.35" y1="546.82" x2="1554.35" y2="425.32" xlink:href="#linear-gradient-12"/><linearGradient id="linear-gradient-49" x1="1471.6" y1="543.18" x2="1548.6" y2="421.68" xlink:href="#linear-gradient-12"/><linearGradient id="linear-gradient-50" x1="1544.3" y1="521.41" x2="1501.8" y2="472.41" xlink:href="#linear-gradient-12"/><linearGradient id="linear-gradient-51" x1="11075.3" y1="343.4" x2="11166.27" y2="250.23" gradientTransform="translate(12740.21 1391.96) rotate(180)" xlink:href="#linear-gradient-11"/><linearGradient id="linear-gradient-52" x1="11015.51" y1="338.46" x2="11099.73" y2="338.46" gradientTransform="translate(12740.21 1391.96) rotate(180)" xlink:href="#linear-gradient-12"/><linearGradient id="linear-gradient-53" x1="1664.46" y1="446.24" x2="1628.46" y2="391.24" xlink:href="#linear-gradient-2"/><linearGradient id="linear-gradient-54" x1="10504.75" y1="-2171.78" x2="10496.25" y2="-2205.78" gradientTransform="translate(12740.21 1391.96) rotate(180)" xlink:href="#linear-gradient-9"/><linearGradient id="linear-gradient-55" x1="10505" y1="-2171.83" x2="10496.5" y2="-2205.83" gradientTransform="translate(12740.21 1391.96) rotate(180)" xlink:href="#linear-gradient-9"/><linearGradient id="linear-gradient-56" x1="1665.46" y1="387.15" x2="1643.96" y2="359.65" xlink:href="#linear-gradient-12"/><linearGradient id="linear-gradient-57" x1="1635.46" y1="477.87" x2="1652.96" y2="368.37" xlink:href="#linear-gradient-12"/><linearGradient id="linear-gradient-58" x1="4483.16" y1="-567.5" x2="4448.16" y2="-638" gradientTransform="matrix(-0.75, -0.67, 0.67, -0.75, 6265.35, 279.41)" xlink:href="#linear-gradient-12"/><linearGradient id="linear-gradient-59" x1="2999.55" y1="-3522.48" x2="3009.96" y2="-3581.85" gradientTransform="matrix(-0.75, -0.67, 0.67, -0.75, 6265.35, 279.41)" xlink:href="#linear-gradient-2"/><linearGradient id="linear-gradient-60" x1="4471.64" y1="-561.76" x2="4436.64" y2="-632.26" gradientTransform="matrix(-0.75, -0.67, 0.67, -0.75, 6265.35, 279.41)" xlink:href="#linear-gradient-12"/><linearGradient id="linear-gradient-61" x1="1554.2" y1="800.2" x2="2190.35" y2="1282.95" xlink:href="#linear-gradient-11"/></defs><title>Asset 3</title><g id="Layer_2" data-name="Layer 2"><g id="Layer_1-2" data-name="Layer 1"><g id="Illustration"><path class="cls-1" d="M2103.72,787.53l-46.59-55.35S1848,539.7,1840.38,322.67,1740.26,76.41,1518.72,62.61C1331.46,50.94,1115,18.11,941.11,141.14c-76.31,54-166.65,81.39-258.27,78l-202-7.4c-96.35-3.53-191.14,26.87-269.44,86.66C95.33,387-29.6,550.25,21.6,828.05c8.7,47.17,14.21,96.61,15.11,144.66l2.19,118c1.94,103.64,79.76,187.37,176.9,189.66L1731.5,1316c155.82,3.67,305.57-63,412.52-183.71,28.53-32.17,44-75,43.15-119.37C2185.68,929.67,2156,849.63,2103.72,787.53Z"/><path class="cls-2" d="M886.05,264.9H424.49A17.86,17.86,0,0,1,406.63,247h0a17.86,17.86,0,0,1,17.86-17.86H886.05A17.86,17.86,0,0,1,903.91,247h0a17.86,17.86,0,0,1-17.86,17.86Z"/><path class="cls-2" d="M941.51,334.86H480A17.84,17.84,0,0,1,462.09,317v0h0A17.86,17.86,0,0,1,480,299.12H941.51A17.86,17.86,0,0,1,959.37,317h0a17.86,17.86,0,0,1-17.82,17.88Z"/><path class="cls-2" d="M810.26,474.79H480A17.85,17.85,0,0,1,462.09,457h0a17.86,17.86,0,0,1,17.85-17.87H810.26A17.87,17.87,0,0,1,828.12,457h0A17.87,17.87,0,0,1,810.26,474.79Z"/><path class="cls-2" d="M993.26,404.82H531.71A17.85,17.85,0,0,1,513.85,387h0a17.86,17.86,0,0,1,17.86-17.86H993.26A17.86,17.86,0,0,1,1011.13,387h0a17.85,17.85,0,0,1-17.86,17.84Z"/><path class="cls-3" d="M2040.13,335.44l37.7,2.36a35,35,0,0,1,32.82,35.45l-13.16,895a36.73,36.73,0,0,1-37.27,36.18H2060l-259-5.53Z"/><path class="cls-4" d="M1587.83,336.18l478.1-23.11a17,17,0,0,1,17.75,16.2c0,.43,0,.86,0,1.28l-29.5,922.25a35.47,35.47,0,0,1-36.59,34.3h-.27l-336-13.51Z"/><path class="cls-2" d="M1613.35,355.57l420.5-53.65a17.84,17.84,0,0,1,19.94,15.43,19.23,19.23,0,0,1,.14,2.63l-20.45,930.18a24.64,24.64,0,0,1-23.92,24.09l-309.36,9Z"/><path class="cls-5" d="M1502.83,309.33l461-28.7A39.92,39.92,0,0,1,2006.15,318c0,.83.08,1.65.08,2.48v949.88a34.89,34.89,0,0,1-34.88,34.87h-425a37.73,37.73,0,0,1-37.69-35.71L1459.55,358A46.22,46.22,0,0,1,1502.83,309.33Z"/><rect class="cls-6" x="1970.41" y="371.26" width="71.67" height="283.46" rx="12.05"/><path class="cls-2" d="M260.58,939.33a11.58,11.58,0,0,1-16.35,1,11.47,11.47,0,0,1-2.7-3.56c-20.08-40.7-66.43-160.91-1.1-303.3,55.16-120.24,73.65-190.68,79.83-223.24a7.26,7.26,0,0,1,13.68-1.79C367.46,478.08,457.73,715.85,260.58,939.33Z"/><path class="cls-7" d="M249.52,936.68a4.51,4.51,0,0,1-4.51-4.43c0-2-2.74-203.23,66.51-374.13a4.51,4.51,0,1,1,8.36,3.39C251.31,730.72,254,930.09,254,932.09a4.53,4.53,0,0,1-4.43,4.59Z"/><path class="cls-4" d="M49.5,401.12c-11.12,89.51-66.79,641.51,226.79,817.65a13.94,13.94,0,0,0,21-11c4.76-65.79,7.74-274.86-113-521.61-87.09-178-119-258.24-129.09-285.7a3,3,0,0,0-5.7.66Z"/><path class="cls-2" d="M297.33,1212.33a4.49,4.49,0,0,1-4-2.35C215.14,1066.24,161.75,908.8,130.74,802c-33-113.78-50.48-203.47-48.64-209.27a4.51,4.51,0,0,1,8.76,2.07c0,14.75,63.22,340.18,210.43,610.83a4.49,4.49,0,0,1-4,6.66Z"/><path class="cls-2" d="M273.2,1240.08c-59.47,6.44-232.94-.7-273.11-292.86-1.14-8.3,9.43-12.75,14.52-6.1,23.84,31.15,66.44,84.27,104.82,102.69,118.92,57.07,157.16,136.31,168.92,172.92a18,18,0,0,1-11.56,22.59A18.36,18.36,0,0,1,273.2,1240.08Z"/><path class="cls-8" d="M279.73,1234.46a4.38,4.38,0,0,1-1.61-.3c-162.39-62-235.94-203.13-236.66-204.55a4.51,4.51,0,0,1,8-4.1c.71,1.39,72.8,139.46,231.85,200.23a4.51,4.51,0,0,1-1.61,8.72Z"/><path class="cls-2" d="M1575.92,793.14a11.58,11.58,0,0,0,16.35.89,11.91,11.91,0,0,0,2.65-3.49c20.07-40.7,66.43-160.9,1.1-303.29C1540.9,367,1522.42,296.56,1516.26,264a7.26,7.26,0,0,0-13.68-1.78C1469,331.89,1378.76,569.66,1575.92,793.14Z"/><path class="cls-9" d="M1587,790.49h-.08a4.51,4.51,0,0,1-4.44-4.58h0c0-2,2.7-201.42-65.85-370.58a4.51,4.51,0,1,1,8.37-3.38c69.25,170.89,66.54,372.1,66.51,374.12A4.52,4.52,0,0,1,1587,790.49Z"/><path class="cls-4" d="M1787,255c11.13,89.52,66.79,641.51-226.78,817.65a13.94,13.94,0,0,1-21-11c-4.76-65.79-7.73-274.86,113-521.61,87-178.09,119-258.34,129-285.8a3,3,0,0,1,5.73.71Z"/><path class="cls-2" d="M1539.16,1066.15a4.51,4.51,0,0,1-4-6.67c147.2-270.62,210.44-596.07,210.43-610.83a4.52,4.52,0,0,1,8.77-2.07c1.81,5.8-15.62,95.49-48.68,209.27-31,106.76-84.41,264.2-162.59,407.94A4.54,4.54,0,0,1,1539.16,1066.15Z"/><path class="cls-10" d="M1563.26,1093.89c59.47,6.44,232.94-.7,273.1-292.86,1.14-8.3-9.43-12.74-14.52-6.09C1798,826.08,1755.41,879.2,1717,897.62c-118.92,57.07-157.16,136.31-168.92,172.92a18,18,0,0,0,15.16,23.35Z"/><path class="cls-11" d="M1556.77,1088.27a4.51,4.51,0,0,1-1.61-8.72c159.18-60.82,231.13-198.84,231.84-200.23a4.51,4.51,0,0,1,8,4.11c-.73,1.41-74.28,142.51-236.66,204.55A4.5,4.5,0,0,1,1556.77,1088.27Z"/><path class="cls-12" d="M1567.26,697.73a11.68,11.68,0,0,1-11.42-11.47c-1.17-64.27-21.22-383.38-302.25-450.07-312.87-74.24-456,243.94-456,243.94S410.39,331.64,336.15,729.37C93.42,787.62,30.36,1104.62,188.26,1259.51a135.71,135.71,0,0,0,93.85,38.84L1802.23,1312a100.1,100.1,0,0,0,96.85-71.58C1946.53,1080.2,2008.77,708.07,1567.26,697.73Z"/><path class="cls-13" d="M1532.49,704.55a11.69,11.69,0,0,1-11.42-11.45c-1.25-61.64-21.1-357.54-285.78-419.57-295.85-69.33-431.23,227.8-431.23,227.8s-366-138.66-436.25,232.75C140.5,788,79.83,1078.84,223.71,1225a135.72,135.72,0,0,0,95.52,40.5l1431,12.73a100.09,100.09,0,0,0,96.92-71.85C1891.76,1054.13,1944.72,714.42,1532.49,704.55Z"/><g class="cls-14"><path class="cls-15" d="M813.52,924.66a3.38,3.38,0,0,1-3.25-2.43c-.85-2.91-1.67-5.85-2.43-8.79a3.38,3.38,0,0,1,6.52-1.76l0,.05c.75,2.88,1.55,5.75,2.38,8.59a3.39,3.39,0,0,1-2.29,4.2h0A3.41,3.41,0,0,1,813.52,924.66Z"/><path class="cls-15" d="M805.26,888.18a3.38,3.38,0,0,1-3.34-2.85c-.93-5.79-1.7-11.69-2.29-17.53a3.38,3.38,0,1,1,6.73-.68c.58,5.71,1.33,11.48,2.24,17.14a3.4,3.4,0,0,1-2.8,3.88A4.9,4.9,0,0,1,805.26,888.18Zm-3.75-45.7a3.39,3.39,0,0,1-3.39-3.37v-1.59c0-5.33.14-10.74.42-16.08a3.33,3.33,0,0,1,3.47-3.2h.09a3.39,3.39,0,0,1,3.2,3.55h0c-.27,5.22-.41,10.51-.41,15.74v1.54a3.38,3.38,0,0,1-3.36,3.4h0Zm3.24-45.73h-.5a3.38,3.38,0,0,1-2.86-3.82v0c.85-5.82,1.89-11.67,3.09-17.4a3.38,3.38,0,0,1,6.62,1.38c-1.16,5.6-2.18,11.32-3,17a3.38,3.38,0,0,1-3.35,2.86Zm10.15-44.7a3.38,3.38,0,0,1-3.23-4.39c1.73-5.58,3.66-11.21,5.73-16.72a3.38,3.38,0,0,1,6.33,2.38c-2,5.38-3.9,10.88-5.59,16.35a3.4,3.4,0,0,1-3.23,2.38Zm16.91-42.61a3.46,3.46,0,0,1-1.49-.34,3.39,3.39,0,0,1-1.55-4.53c2.58-5.28,5.36-10.55,8.25-15.66a3.38,3.38,0,1,1,5.89,3.33c-2.82,5-5.54,10.15-8.06,15.31a3.38,3.38,0,0,1-3,1.89ZM855.11,670a3.39,3.39,0,0,1-3.38-3.4,3.35,3.35,0,0,1,.61-1.93c3.36-4.8,6.91-9.57,10.55-14.19a3.39,3.39,0,0,1,5.32,4.19c-3.57,4.52-7,9.19-10.32,13.88A3.41,3.41,0,0,1,855.11,670Zm29.08-35.47a3.39,3.39,0,0,1-2.45-5.72c4-4.23,8.28-8.41,12.59-12.42a3.4,3.4,0,0,1,4.61,5h0c-4.21,3.92-8.35,8-12.31,12.14a3.39,3.39,0,0,1-2.44,1Zm34.13-30.61a3.39,3.39,0,0,1-2.06-6.07c4.66-3.58,9.48-7.06,14.32-10.35a3.39,3.39,0,0,1,3.81,5.6c-4.74,3.21-9.45,6.62-14,10.12a3.35,3.35,0,0,1-2.07.65Zm38.4-25a3.38,3.38,0,0,1-1.63-6.35c5.14-2.82,10.43-5.52,15.73-8a3.39,3.39,0,0,1,2.9,6.12c-5.18,2.46-10.35,5.1-15.38,7.85a3.24,3.24,0,0,1-1.62.28ZM1237.91,576a3.4,3.4,0,0,1-1.57-.38c-5.08-2.66-10.31-5.19-15.55-7.55a3.38,3.38,0,0,1,2.77-6.17c5.36,2.41,10.72,5,15.91,7.72a3.38,3.38,0,0,1-1.56,6.38ZM998.47,560a3.39,3.39,0,0,1-1.15-6.57c5.5-2,11.14-3.85,16.76-5.52a3.39,3.39,0,0,1,2.26,6.39l-.33.1c-5.49,1.63-11,3.45-16.39,5.39A3.25,3.25,0,0,1,998.47,560Zm197.27-2a3.32,3.32,0,0,1-1.09-.18c-5.42-1.83-11-3.53-16.52-5a3.38,3.38,0,1,1,1.78-6.53h0c5.68,1.55,11.36,3.29,16.91,5.17a3.38,3.38,0,0,1-1.08,6.59Zm-153.12-10.25A3.39,3.39,0,0,1,1042,541c5.76-1.12,11.63-2.08,17.44-2.87a3.39,3.39,0,0,1,1.26,6.66l-.36.05c-5.68.76-11.41,1.71-17,2.81a3.33,3.33,0,0,1-.7,0Zm108.64-1.07a2.91,2.91,0,0,1-.59,0c-5.64-1-11.4-1.8-17.11-2.45a3.39,3.39,0,0,1,.77-6.73c5.84.67,11.72,1.52,17.5,2.52a3.38,3.38,0,0,1-.57,6.71Zm-63.14-4.22a3.39,3.39,0,0,1-.13-6.77c5.84-.22,11.77-.28,17.68-.16a3.39,3.39,0,0,1,.21,6.78h-.34c-5.79-.12-11.58-.06-17.29.16Z"/><path class="cls-15" d="M1270.08,595.46a3.3,3.3,0,0,1-1.93-.61c-2.43-1.7-4.9-3.35-7.39-5a3.38,3.38,0,1,1,3.69-5.67h0q3.81,2.49,7.57,5.1a3.38,3.38,0,0,1-1.94,6.16Z"/></g><g class="cls-14"><path class="cls-15" d="M1394,790a3.39,3.39,0,0,1-3.33-2.82c-.51-2.93-1-5.85-1.64-8.76a3.38,3.38,0,0,1,6.63-1.35h0q.9,4.46,1.68,9a3.38,3.38,0,0,1-2.75,3.9h0A2.86,2.86,0,0,1,1394,790Z"/><path class="cls-15" d="M1100.26,1139c-3.8,0-7.65-.08-11.46-.22a3.38,3.38,0,1,1,.26-6.76c6,.23,12.16.27,18.17.13a3.38,3.38,0,1,1,.16,6.76C1105,1139,1102.62,1139,1100.26,1139Zm36.81-2.28a3.38,3.38,0,0,1-.41-6.74q9-1.11,18-2.79a3.38,3.38,0,0,1,1.25,6.65h0c-6.06,1.13-12.24,2.1-18.37,2.86a2.9,2.9,0,0,1-.51,0Zm-77.89-.52h-.46c-6.13-.84-12.29-1.88-18.34-3.09a3.39,3.39,0,0,1,1.34-6.64c5.9,1.19,11.93,2.2,17.92,3a3.39,3.39,0,0,1-.46,6.74Zm125.08-9.25a3.39,3.39,0,0,1-1-6.64c5.78-1.7,11.58-3.6,17.24-5.66a3.38,3.38,0,1,1,2.3,6.36c-5.78,2.11-11.71,4-17.63,5.8A3.59,3.59,0,0,1,1184.26,1127Zm-172.15-1.09a3.37,3.37,0,0,1-1-.15c-5.91-1.81-11.83-3.83-17.6-6a3.38,3.38,0,1,1,2.39-6.33c5.64,2.12,11.42,4.1,17.19,5.87a3.38,3.38,0,0,1-1,6.62Zm217.1-16.23a3.38,3.38,0,0,1-1.47-6.43c5.43-2.62,10.85-5.43,16.11-8.38a3.38,3.38,0,0,1,3.3,5.91c-5.38,3-10.92,5.89-16.47,8.57a3.34,3.34,0,0,1-1.52.3Zm-262-1.68a3.22,3.22,0,0,1-1.5-.36c-5.52-2.74-11-5.69-16.39-8.78a3.38,3.38,0,0,1,3.38-5.86c5.23,3,10.62,5.9,16,8.58a3.39,3.39,0,0,1-1.49,6.42Zm303.46-22.72a3.38,3.38,0,0,1-1.94-6.15c4.94-3.46,9.84-7.11,14.56-10.86a3.38,3.38,0,0,1,4.21,5.3h0c-4.83,3.83-9.84,7.57-14.89,11.1a3.33,3.33,0,0,1-1.92.64Zm37.15-30.69a3.37,3.37,0,0,1-2.36-5.81c4.33-4.2,8.58-8.6,12.65-13.06a3.38,3.38,0,1,1,5,4.56h0c-4.16,4.56-8.51,9-12.93,13.35a3.41,3.41,0,0,1-2.34,1Zm31.76-36.26a3.31,3.31,0,0,1-2-.66,3.38,3.38,0,0,1-.7-4.74c3.6-4.85,7.1-9.87,10.39-14.92a3.38,3.38,0,1,1,5.67,3.69h0c-3.37,5.17-6.94,10.3-10.63,15.27a3.4,3.4,0,0,1-2.71,1.39Zm25.53-40.9a3.32,3.32,0,0,1-1.55-.38,3.38,3.38,0,0,1-1.46-4.56c2.77-5.36,5.41-10.89,7.84-16.41a3.39,3.39,0,1,1,6.34,2.39c0,.11-.09.22-.14.33-2.49,5.66-5.19,11.31-8,16.8a3.42,3.42,0,0,1-3,1.86Zm18.57-44.51a3.37,3.37,0,0,1-3.18-4.42h0c1.85-5.73,3.56-11.6,5.06-17.45a3.39,3.39,0,0,1,6.56,1.69c-1.54,6-3.29,12-5.19,17.84a3.38,3.38,0,0,1-3.24,2.42Zm11.1-46.89h-.51a3.39,3.39,0,0,1-2.85-3.84h0q1.37-9,2.2-18a3.38,3.38,0,1,1,6.74.62c-.56,6.14-1.32,12.35-2.25,18.44a3.4,3.4,0,0,1-3.32,2.82Zm3.46-48.07a3.38,3.38,0,0,1-3.38-3.36c-.05-6-.29-12.15-.7-18.16A3.38,3.38,0,0,1,1401,816c.42,6.15.67,12.4.72,18.58a3.4,3.4,0,0,1-3.36,3.41Z"/><path class="cls-15" d="M925.81,1083a3.4,3.4,0,0,1-2-.64q-3.7-2.67-7.32-5.44a3.38,3.38,0,0,1,4.11-5.37q3.54,2.71,7.16,5.32a3.38,3.38,0,0,1-2,6.13Z"/></g><path class="cls-16" d="M938.78,1000.28a3.56,3.56,0,0,0,4,1.1l40.91-15a189.51,189.51,0,0,0,54.17,29.17l10,42.41a3.59,3.59,0,0,0,3.12,2.74l52,5.27a3.61,3.61,0,0,0,3.61-2.06l18.28-39.54a189.78,189.78,0,0,0,58.91-17.72l37.06,23a3.6,3.6,0,0,0,4.15-.27l40.51-33.06a3.62,3.62,0,0,0,1.1-4l-15-40.91a190.08,190.08,0,0,0,29.17-54.16l42.4-10a3.61,3.61,0,0,0,2.75-3.13l5.27-52a3.59,3.59,0,0,0-2.06-3.61l-39.54-18.28a190,190,0,0,0-17.72-58.91l22.94-37.06a3.58,3.58,0,0,0-.27-4.15l-33-40.51a3.59,3.59,0,0,0-4-1.1l-40.91,15a190.27,190.27,0,0,0-54.17-29.17l-10-42.4a3.61,3.61,0,0,0-3.13-2.75l-52-5.26a3.56,3.56,0,0,0-3.61,2.06l-18.28,39.54a189.68,189.68,0,0,0-58.91,17.71l-37.06-22.94a3.57,3.57,0,0,0-4.15.27l-40.51,33.05a3.59,3.59,0,0,0-1.1,4l15,40.91a189.59,189.59,0,0,0-29.17,54.16l-42.4,10a3.57,3.57,0,0,0-2.75,3.12l-5.27,52a3.57,3.57,0,0,0,2.06,3.61l39.54,18.28a189.43,189.43,0,0,0,17.72,58.91l-22.94,37.06a3.57,3.57,0,0,0,.27,4.15Z"/><path class="cls-17" d="M1100,884.71a49.92,49.92,0,1,1,7.37-.55h0A49.21,49.21,0,0,1,1100,884.71Zm.13-92.87a43,43,0,1,0,6.25,85.63h0a43,43,0,0,0-6.25-85.63Z"/><path class="cls-18" d="M1101,963.67a128.09,128.09,0,0,1-13.15-.67h0a130.23,130.23,0,0,1-27-5.66,3.37,3.37,0,0,1-2.34-3.21,2.88,2.88,0,0,1,.16-1,3.38,3.38,0,0,1,4.26-2.18,123.43,123.43,0,0,0,25.59,5.37h0a122.87,122.87,0,0,0,134.29-107.61l.24-2.17q.63-6.33.64-12.62a122.82,122.82,0,1,0-234,52.33A3.38,3.38,0,0,1,986.6,891a3.35,3.35,0,0,1-3.06-1.94,129.08,129.08,0,0,1-12.23-54.89A131.08,131.08,0,0,1,972,821a129.55,129.55,0,0,1,258.44,12.8c0,4.44-.23,8.89-.67,13.31C1223.05,913.82,1166.62,963.67,1101,963.67Z"/><g class="cls-14"><path class="cls-15" d="M609.17,1056a2.23,2.23,0,0,1-2.16-1.62q-.81-2.75-1.5-5.54a2.26,2.26,0,1,1,4.31-1.35,2.68,2.68,0,0,1,.07.27c.44,1.8.93,3.58,1.44,5.35a2.26,2.26,0,0,1-1.52,2.8h0A2.35,2.35,0,0,1,609.17,1056Z"/><path class="cls-15" d="M605.47,1039.45a2.25,2.25,0,0,1-2.23-1.91c-.58-3.8-1-7.67-1.26-11.51a2.26,2.26,0,1,1,4.5-.37.22.22,0,0,0,0,.08c.24,3.71.65,7.44,1.21,11.11a2.25,2.25,0,0,1-1.88,2.57h0ZM604,1016.77h0a2.26,2.26,0,0,1-2.21-2.3c0-2.06.14-4.12.29-6.18.12-1.8.29-3.59.48-5.37a2.26,2.26,0,0,1,4.49.5c-.2,1.72-.35,3.44-.47,5.18-.14,2-.24,4-.28,6a2.25,2.25,0,0,1-2.3,2.17Zm2.48-22.58a2.24,2.24,0,0,1-2.26-2.22,2,2,0,0,1,0-.48c.75-3.77,1.68-7.55,2.76-11.23a2.25,2.25,0,0,1,2.88-1.37,2.28,2.28,0,0,1,1.45,2.64c-1,3.55-1.94,7.2-2.67,10.85a2.26,2.26,0,0,1-2.21,1.81Zm6.39-21.8a2.29,2.29,0,0,1-.82-.15,2.27,2.27,0,0,1-1.29-2.93h0c1.4-3.57,3-7.13,4.69-10.57a2.26,2.26,0,0,1,4.29,1.41,2.49,2.49,0,0,1-.29.59c-1.65,3.33-3.18,6.76-4.53,10.21a2.27,2.27,0,0,1-2.06,1.44ZM623,952.05a2.3,2.3,0,0,1-1.18-.33,2.26,2.26,0,0,1-.75-3.11h0c2-3.27,4.19-6.5,6.48-9.58a2.26,2.26,0,1,1,3.79,2.45l-.17.24c-2.21,3-4.31,6.09-6.26,9.26a2.25,2.25,0,0,1-1.92,1.07Zm13.54-18.24a2.24,2.24,0,0,1-1.68-3.76c2.55-2.87,5.26-5.67,8-8.3A2.26,2.26,0,0,1,646,925c-2.69,2.54-5.31,5.24-7.78,8A2.27,2.27,0,0,1,636.54,933.81Zm16.52-15.61a2.25,2.25,0,0,1-2.24-2.26,2.22,2.22,0,0,1,.84-1.74c3-2.38,6.17-4.66,9.38-6.78a2.26,2.26,0,0,1,2.48,3.77c-3.11,2-6.15,4.25-9.06,6.55a2.24,2.24,0,0,1-1.4.46Zm19-12.48a2.26,2.26,0,0,1-1.08-4.24c3.39-1.83,6.9-3.52,10.42-5a2.26,2.26,0,0,1,1.78,4.15c-3.4,1.46-6.79,3.09-10,4.86a2.38,2.38,0,0,1-1.14.23Zm120.29-1.18a2.31,2.31,0,0,1-1-.25c-3.31-1.69-6.72-3.26-10.16-4.66a2.26,2.26,0,0,1,1.71-4.18c3.55,1.45,7.09,3.07,10.51,4.83a2.25,2.25,0,0,1-1,4.26Zm-99.42-7.8a2.26,2.26,0,0,1-.71-4.4c3.65-1.2,7.4-2.25,11.14-3.12a2.25,2.25,0,0,1,1,4.39h0c-3.61.85-7.23,1.86-10.75,3a2.16,2.16,0,0,1-.7.13Zm78.33-.76a2.07,2.07,0,0,1-.66-.1c-3.55-1.09-7.19-2-10.82-2.8a2.25,2.25,0,1,1,.93-4.41h0c3.77.8,7.54,1.77,11.21,2.9a2.26,2.26,0,0,1-.66,4.41ZM715,891.57a2.26,2.26,0,0,1-.32-4.49c3.81-.54,7.69-.91,11.52-1.11a2.29,2.29,0,0,1,2.37,2.13,2.26,2.26,0,0,1-2.13,2.37h0c-3.7.2-7.44.56-11.11,1.08Zm34-.31h-.28c-2.21-.27-4.47-.49-6.72-.64-1.48-.11-3-.18-4.42-.23a2.26,2.26,0,0,1-2.17-2.34,2.22,2.22,0,0,1,2.28-2.17h0c1.52,0,3,.13,4.57.24,2.33.16,4.67.38,7,.66a2.25,2.25,0,0,1-.27,4.49Z"/><path class="cls-15" d="M807,913.38a2.24,2.24,0,0,1-1.29-.4q-2.26-1.59-4.61-3.07a2.25,2.25,0,1,1,2.41-3.81q2.43,1.53,4.78,3.17a2.26,2.26,0,0,1-1.29,4.11Z"/></g><g class="cls-14"><path class="cls-15" d="M861,999.37a2.26,2.26,0,0,1-2.23-1.9c-.29-1.83-.62-3.64-1-5.45a2.26,2.26,0,0,1,4.42-.9q.57,2.8,1,5.64a2.29,2.29,0,0,1-1.88,2.59Z"/><path class="cls-15" d="M733.45,1149h-.52a2.26,2.26,0,0,1,0-4.51h.5c3.49,0,7-.15,10.49-.43a2.25,2.25,0,1,1,.37,4.49h0C740.71,1148.79,737.06,1149,733.45,1149Zm-11.68-.52h-.2c-3.79-.33-7.58-.84-11.29-1.49a2.25,2.25,0,1,1,.79-4.44c3.58.63,7.24,1.11,10.9,1.44a2.25,2.25,0,0,1-.2,4.5Zm33.45-1.33a2.26,2.26,0,0,1-.37-4.48c3.6-.62,7.21-1.4,10.73-2.32a2.25,2.25,0,0,1,1.15,4.36h0c-3.65,1-7.39,1.77-11.12,2.41Zm-55.47-2.55a2.33,2.33,0,0,1-.59-.08c-3.66-1-7.31-2.13-10.86-3.42a2.26,2.26,0,0,1,1.54-4.24c3.43,1.25,6.95,2.36,10.49,3.3a2.26,2.26,0,0,1-.58,4.44Zm77.09-3.12a2.26,2.26,0,0,1-.76-4.38c3.43-1.23,6.85-2.63,10.17-4.16a2.26,2.26,0,0,1,1.88,4.1c-3.43,1.58-7,3-10.53,4.3a2.21,2.21,0,0,1-.76.1Zm-98.11-4.52a2.14,2.14,0,0,1-1-.21c-3.43-1.59-6.83-3.36-10.11-5.25a2.26,2.26,0,1,1,2-4,2,2,0,0,1,.25.14c3.17,1.83,6.45,3.53,9.76,5.07a2.26,2.26,0,0,1-1,4.3Zm118.42-4.82a2.27,2.27,0,0,1-2.26-2.27,2.24,2.24,0,0,1,1.14-1.95c3.17-1.8,6.3-3.77,9.31-5.84a2.26,2.26,0,0,1,2.56,3.72c-3.11,2.14-6.35,4.18-9.64,6a2.18,2.18,0,0,1-1.11.3Zm18.4-12.69a2.25,2.25,0,0,1-1.44-4c2.83-2.33,5.58-4.8,8.18-7.36a2.26,2.26,0,0,1,3.16,3.22c-2.7,2.65-5.54,5.21-8.46,7.62a2.29,2.29,0,0,1-1.44.48Zm16-15.65a2.18,2.18,0,0,1-1.47-.55,2.24,2.24,0,0,1-.25-3.17h0c2.38-2.77,4.66-5.68,6.79-8.64a2.25,2.25,0,1,1,3.63,2.57c-2.2,3.07-4.57,6.08-7,9a2.27,2.27,0,0,1-1.75.76Zm13-18.17a2.25,2.25,0,0,1-2.25-2.25,2.22,2.22,0,0,1,.32-1.15c1.87-3.15,3.61-6.41,5.19-9.69a2.27,2.27,0,0,1,4.07,2c-1.64,3.39-3.45,6.77-5.38,10a2.26,2.26,0,0,1-2,1Zm9.71-20.14a2.26,2.26,0,0,1-2.26-2.26,2.15,2.15,0,0,1,.15-.8c1.28-3.4,2.44-6.91,3.43-10.43a2.26,2.26,0,0,1,4.35,1.22c-1,3.65-2.23,7.29-3.56,10.81a2.28,2.28,0,0,1-2.11,1.42Zm6.06-21.51h-.43a2.27,2.27,0,0,1-1.79-2.64c.68-3.58,1.21-7.24,1.58-10.88a2.25,2.25,0,0,1,4.48.47c-.38,3.77-.94,7.56-1.64,11.26a2.27,2.27,0,0,1-2.21,1.75Zm2.27-22.24h0a2.26,2.26,0,0,1-2.23-2.29v-2.15c0-3-.1-5.93-.3-8.85a2.26,2.26,0,0,1,4.5-.31c.21,3,.31,6.11.31,9.16v2.22a2.27,2.27,0,0,1-2.29,2.18Z"/><path class="cls-15" d="M659.26,1125.67a2.25,2.25,0,0,1-1.29-.41q-2.37-1.65-4.63-3.39a2.26,2.26,0,0,1,2.75-3.58q2.19,1.68,4.47,3.27a2.26,2.26,0,0,1-1.3,4.11Z"/></g><path class="cls-19" d="M663.45,1088a1.54,1.54,0,0,0,1.74.48l17.73-6.52a82.24,82.24,0,0,0,23.47,12.64l4.33,18.38a1.55,1.55,0,0,0,1.35,1.19l22.54,2.28a1.55,1.55,0,0,0,1.57-.89l7.92-17.14a82.21,82.21,0,0,0,25.53-7.68l16.06,10a1.55,1.55,0,0,0,1.8-.12l17.56-14.33a1.56,1.56,0,0,0,.47-1.73L799,1066.81a82.43,82.43,0,0,0,12.64-23.48L830,1039a1.55,1.55,0,0,0,1.19-1.35l2.28-22.55a1.55,1.55,0,0,0-.89-1.56l-17.14-7.92a82.39,82.39,0,0,0-7.68-25.53l10-16.06a1.57,1.57,0,0,0-.12-1.8l-14.4-17.57a1.56,1.56,0,0,0-1.74-.47l-17.73,6.52a82.5,82.5,0,0,0-23.47-12.64L756,919.7a1.57,1.57,0,0,0-1.35-1.19l-22.55-2.28a1.53,1.53,0,0,0-1.56.89l-7.92,17.14a82.11,82.11,0,0,0-25.53,7.67l-16-9.95a1.55,1.55,0,0,0-1.8.12l-17.56,14.32a1.56,1.56,0,0,0-.47,1.74l6.52,17.73a82.37,82.37,0,0,0-12.64,23.47l-18.38,4.33a1.53,1.53,0,0,0-1.19,1.35l-2.27,22.55a1.54,1.54,0,0,0,.89,1.57l17.11,7.92a82.19,82.19,0,0,0,7.67,25.53L649,1068.67a1.53,1.53,0,0,0,.12,1.8Z"/><path class="cls-20" d="M733.32,1038.73a22.44,22.44,0,1,1,3.31-.25A21.7,21.7,0,0,1,733.32,1038.73Zm.06-40.25a17.57,17.57,0,0,0-2.62.2,17.8,17.8,0,1,0,2.62-.2Z"/><path class="cls-21" d="M733.76,1073a55.65,55.65,0,0,1-5.78-.3,57.6,57.6,0,0,1-11.35-2.32l-.51-.16a2.23,2.23,0,0,1-1.56-2.15,1.82,1.82,0,0,1,.11-.69,2.24,2.24,0,0,1,2.81-1.46h0a52.48,52.48,0,0,0,68.36-44.58c.17-1.77.26-3.55.27-5.33a52.42,52.42,0,1,0-99.9,22.29,2.31,2.31,0,0,1-2,3.29,2.24,2.24,0,0,1-2.06-1.29,56.54,56.54,0,0,1-5.37-24.13,53,53,0,0,1,.29-5.77A56.93,56.93,0,0,1,790.65,1016q0,2.88-.29,5.79A57,57,0,0,1,733.76,1073Z"/><g class="cls-14"><path class="cls-15" d="M1150.34,580.15a2.25,2.25,0,0,1-2.17-1.62c-.54-1.85-1-3.73-1.45-5.59a2.25,2.25,0,1,1,4.39-1c.41,1.76.87,3.55,1.39,5.32a2.25,2.25,0,0,1-2.16,2.89Z"/><path class="cls-15" d="M1147,563.24a2.26,2.26,0,0,1-2.25-2c-.32-3.22-.49-6.5-.49-9.76v-2.12a2.26,2.26,0,0,1,2.26-2.21h0a2.26,2.26,0,0,1,2.2,2.3h0v2a90.21,90.21,0,0,0,.47,9.3,2.25,2.25,0,0,1-2,2.47h0Zm.5-23.16h-.33a2.26,2.26,0,0,1-1.91-2.56,94.15,94.15,0,0,1,2.42-11.63,2.25,2.25,0,0,1,4.35,1.19,89.45,89.45,0,0,0-2.3,11.09,2.27,2.27,0,0,1-2.23,1.91Zm6.1-22.35a2.28,2.28,0,0,1-2.12-3.11l0-.06a94.2,94.2,0,0,1,5.21-10.69,2.25,2.25,0,1,1,3.92,2.22,89.83,89.83,0,0,0-5,10.19,2.27,2.27,0,0,1-2,1.45ZM1165,497.56a2.26,2.26,0,0,1-1.35-.45,2.23,2.23,0,0,1-.43-3.13,94.8,94.8,0,0,1,7.65-9.09,2.26,2.26,0,0,1,3.44,2.92,1.54,1.54,0,0,1-.17.19,91.46,91.46,0,0,0-7.3,8.67,2.28,2.28,0,0,1-1.84.89Zm16-16.78a2.24,2.24,0,0,1-1.47-4,96.83,96.83,0,0,1,9.63-6.95,2.25,2.25,0,1,1,2.41,3.81,92.23,92.23,0,0,0-9.18,6.63,2.2,2.2,0,0,1-1.41.49Zm19.57-12.38a2.26,2.26,0,0,1-1-4.3,95.83,95.83,0,0,1,11-4.39A2.25,2.25,0,0,1,1212,464h0a96.39,96.39,0,0,0-10.52,4.19,2.25,2.25,0,0,1-.91.22Zm78.78-.71a2.21,2.21,0,0,1-.92-.2,91.48,91.48,0,0,0-10.6-4,2.26,2.26,0,1,1,1.05-4.4l.28.09a98.66,98.66,0,0,1,11.12,4.19,2.26,2.26,0,0,1-.93,4.32Zm-56.78-6.52a2.26,2.26,0,0,1-.44-4.47,95.33,95.33,0,0,1,11.79-1.55,2.26,2.26,0,0,1,.31,4.5,92,92,0,0,0-11.23,1.48,2.28,2.28,0,0,1-.45,0Zm34.64-.29h-.39a97.16,97.16,0,0,0-9.75-1.19c-.5,0-1-.07-1.51-.09a2.26,2.26,0,0,1-2.14-2.38,2.29,2.29,0,0,1,2.38-2.13l1.58.1a100.73,100.73,0,0,1,10.22,1.25,2.26,2.26,0,0,1-.39,4.48Z"/><path class="cls-15" d="M1294.46,476.23a2.24,2.24,0,0,1-1.29-.4c-1.48-1-3-2.05-4.6-3a2.26,2.26,0,0,1,2.35-3.85c1.64,1,3.27,2.07,4.83,3.15a2.26,2.26,0,0,1-1.29,4.11Z"/></g><g class="cls-14"><path class="cls-15" d="M1334,540.39a2.24,2.24,0,0,1-2.23-1.94c-.26-1.83-.57-3.66-.93-5.43a2.26,2.26,0,0,1,4.42-.9c.38,1.86.7,3.78,1,5.69a2.27,2.27,0,0,1-1.92,2.55Z"/><path class="cls-15" d="M1242.08,647.81a2.26,2.26,0,0,1,0-4.51,92,92,0,0,0,11.11-.82,2.26,2.26,0,0,1,.88,4.43l-.27,0a96.84,96.84,0,0,1-11.66.86Zm-11.4-.53h-.24a97.66,97.66,0,0,1-11.53-1.93,2.26,2.26,0,0,1,1-4.4,94.92,94.92,0,0,0,11,1.85,2.26,2.26,0,0,1-.24,4.5Zm34-2.52a2.26,2.26,0,0,1-.57-4.44,92.16,92.16,0,0,0,10.58-3.48,2.26,2.26,0,0,1,1.94,4.08l-.27.11a96.67,96.67,0,0,1-11.1,3.65,2.47,2.47,0,0,1-.6.08Zm-56.19-2.62a2,2,0,0,1-.77-.14,94.48,94.48,0,0,1-10.73-4.66,2.26,2.26,0,0,1,1.41-4.29,2.31,2.31,0,0,1,.59.29,91.7,91.7,0,0,0,10.22,4.44,2.26,2.26,0,0,1-.77,4.38Zm77.36-5.8a2.26,2.26,0,0,1-1.08-4.24,93.13,93.13,0,0,0,9.43-5.92,2.26,2.26,0,0,1,2.8,3.55l-.17.12a97.7,97.7,0,0,1-9.9,6.21,2.25,2.25,0,0,1-1.1.28Zm18.54-13.26a2.26,2.26,0,0,1-1.53-3.92,91.48,91.48,0,0,0,7.75-8,2.26,2.26,0,0,1,3.43,2.93,97.71,97.71,0,0,1-8.13,8.4,2.2,2.2,0,0,1-1.54.59Zm14.83-17.3a2.19,2.19,0,0,1-1.25-.38,2.26,2.26,0,0,1-.63-3.13,94.38,94.38,0,0,0,5.61-9.63,2.25,2.25,0,1,1,4.22,1.55,2.35,2.35,0,0,1-.22.45,97.84,97.84,0,0,1-5.88,10.11,2.27,2.27,0,0,1-1.87,1Zm10.24-20.37a2.27,2.27,0,0,1-2.26-2.27,2,2,0,0,1,.13-.73,92.22,92.22,0,0,0,3.11-10.7,2.26,2.26,0,0,1,4.4,1,97.24,97.24,0,0,1-3.26,11.22,2.26,2.26,0,0,1-2.14,1.48Zm5-22.23h-.2a2.25,2.25,0,0,1-2-2.47c.1-1,.18-2,.25-3,.15-2.13.23-4.29.23-6.44v-1.71a2.26,2.26,0,0,1,4.5-.38,2.81,2.81,0,0,1,0,.29v1.8c0,2.25-.08,4.52-.23,6.75-.08,1.05-.17,2.09-.27,3.13a2.27,2.27,0,0,1-2.3,2Z"/><path class="cls-15" d="M1188.07,631.73a2.25,2.25,0,0,1-1.26-.38c-1.57-1.07-3.15-2.2-4.68-3.38a2.25,2.25,0,0,1,2.74-3.58c1.47,1.12,3,2.21,4.47,3.22a2.25,2.25,0,0,1-1.27,4.12Z"/></g><path class="cls-22" d="M1189.88,602.83a1.12,1.12,0,0,0,1.27.35l12.91-4.75a59.81,59.81,0,0,0,17.1,9.21l3.15,13.38a1.12,1.12,0,0,0,1,.87l16.42,1.66a1.12,1.12,0,0,0,1.14-.65l5.77-12.48a60.06,60.06,0,0,0,18.6-5.59l11.7,7.24a1.13,1.13,0,0,0,1.32-.09l12.79-10.44a1.13,1.13,0,0,0,.34-1.26l-4.75-12.92a59.94,59.94,0,0,0,9.21-17.1l13.39-3.15a1.12,1.12,0,0,0,.86-1l1.67-16.42a1.15,1.15,0,0,0-.65-1.14l-12.49-5.77a60,60,0,0,0-5.59-18.6l7.25-11.7a1.16,1.16,0,0,0-.09-1.31l-10.43-12.79a1.14,1.14,0,0,0-1.27-.34l-12.91,4.75a60.07,60.07,0,0,0-17.1-9.21l-3.15-13.39a1.14,1.14,0,0,0-1-.86l-16.42-1.67a1.14,1.14,0,0,0-1.14.66L1233,490.8a59.9,59.9,0,0,0-18.6,5.59l-11.7-7.24a1.13,1.13,0,0,0-1.31.08l-12.78,10.44a1.09,1.09,0,0,0-.36,1.31L1193,513.9A59.89,59.89,0,0,0,1183.8,531l-13.38,3.15a1.13,1.13,0,0,0-.87,1l-1.66,16.42a1.11,1.11,0,0,0,.65,1.14l12.48,5.77a59.8,59.8,0,0,0,5.59,18.6l-7.24,11.7a1.15,1.15,0,0,0,.08,1.31Z"/><path class="cls-23" d="M1240.77,567.54a17,17,0,1,1,2.5-.19h0A16.19,16.19,0,0,1,1240.77,567.54Zm.06-29.32A12.26,12.26,0,1,0,1253,548.63,12.32,12.32,0,0,0,1240.83,538.22Z"/><path class="cls-24" d="M1241.09,592.46c-1.41,0-2.84-.07-4.27-.21a43,43,0,0,1-8.12-1.63h0l-.4-.12-.25-.08a2.25,2.25,0,0,1-1.56-2.14,2.09,2.09,0,0,1,.11-.7,2.25,2.25,0,0,1,2.83-1.45h0a37.87,37.87,0,0,0,7.83,1.64h.39a37.58,37.58,0,0,0,40.65-32.53v-.09c0-.33.09-.67.12-1,.12-1.27.19-2.54.19-3.82a37.57,37.57,0,1,0-71.6,16,2.31,2.31,0,0,1-2,3.29,2.24,2.24,0,0,1-2.06-1.29,41.83,41.83,0,0,1-4-17.83c0-1.42.06-2.85.2-4.27a42.08,42.08,0,0,1,84,4.2c0,1.42-.06,2.85-.2,4.28A42.16,42.16,0,0,1,1241.09,592.46Z"/><path class="cls-25" d="M575.86,871.69c-7.83.67-21.41,1.77-32.12,2.24-6.43.29-10.14-.34-12.27-1.2v.68a2.2,2.2,0,0,0,2.1,2.09,379.64,379.64,0,0,0,42,0,1.58,1.58,0,0,0,1.49-1.66,1.77,1.77,0,0,0-.21-.71A13.75,13.75,0,0,0,575.86,871.69Z"/><path class="cls-26" d="M543.74,874c10.71-.47,24.29-1.57,32.12-2.24-7.7-9.44-32.12-15.8-32.12-15.8h-6.89a28.8,28.8,0,0,0-5.38,16.84C533.6,873.59,537.31,874.22,543.74,874Z"/><path class="cls-27" d="M535.69,844.63l.64,12.77a2.91,2.91,0,0,0,2.49,2.74,11.11,11.11,0,0,0,5.18-.43,3.45,3.45,0,0,0,2.32-2.65l2.23-12.43Z"/><path class="cls-28" d="M446.11,873.84c-3.4-.47-4.93-2.24-5.57-4.12h0c-.5,2,.66,4,3,5a19.71,19.71,0,0,0,8.23,1.29,8.19,8.19,0,0,0,6.17-2.85h0C455.36,874.48,451.77,874.63,446.11,873.84Z"/><path class="cls-29" d="M462.11,844.55h-5.69c-8.66-.18-14.1,18.09-15.88,25.17.64,1.88,2.17,3.65,5.57,4.12,5.66.79,9.25.64,11.8-.63,4.68-6.16,7-15.18,8.12-20.44A7.18,7.18,0,0,0,462.11,844.55Z"/><path class="cls-30" d="M457.15,832.69,454,845.25a3.4,3.4,0,0,0,1.78,3.87,12.13,12.13,0,0,0,6.54,1.58,2.86,2.86,0,0,0,2.32-1.9l4.63-13.21Z"/><path class="cls-31" d="M453.38,836.32c3.93,3.49,16.71,3.95,16.71,3.95,46-110.5,64.87-126.19,64.87-126.19-6.64,41.7-1.07,134-1.07,134,7.6,3.36,17.39,0,17.39,0a711.64,711.64,0,0,1,23.51-174.76c-31.11-.7-47.66-11.35-53.06-15.62C495.79,699.54,453.38,836.32,453.38,836.32Z"/><path class="cls-32" d="M529.63,530.66c-5.89,29.37-3.78,82-2.39,105.94.39,6.74-4.32,16.08-8.12,22.46a2,2,0,0,0,.68,2.74l.12.07c6.37,3.27,28,13.42,53,14.68a3.59,3.59,0,0,0,3.59-2.67c18.54-69.25,40.08-113.5,40.08-113.5C592.76,522.4,529.63,530.66,529.63,530.66Z"/><path class="cls-33" d="M538.11,711.46a1.38,1.38,0,0,1-.77-.22,1.45,1.45,0,0,1-.49-2,46.08,46.08,0,0,1,18.25-15.85,1.48,1.48,0,1,1,1.47,2.57l-.19.09a43.89,43.89,0,0,0-17,14.72A1.47,1.47,0,0,1,538.11,711.46Z"/><path class="cls-34" d="M492.69,615c1.89,13.68,7.48,28.61,18.66,44.47L515.6,656a130.79,130.79,0,0,1-2.12-42.5C506.59,612.13,498.44,613.51,492.69,615Z"/><path class="cls-35" d="M536.26,566.9l-6.58-36.24s-44,33.59-36.94,84.31c5.75-1.46,13.9-2.84,20.79-1.5C515.49,597.2,521.49,579.53,536.26,566.9Z"/><path class="cls-36" d="M616.54,560.38l-17,36.54c2.74,22.06,14.59,31.6,27.37,35.26a77.27,77.27,0,0,1,5.7-23.8C616.32,591.53,616.54,560.38,616.54,560.38Z"/><path class="cls-37" d="M632.65,608.38a77.27,77.27,0,0,0-5.7,23.8c34.09,13.22,43.11-12.43,43.11-12.43l-6.3-1.11C649.53,620.14,639.59,615.55,632.65,608.38Z"/><path class="cls-38" d="M600.91,515.27l-8.19,30.11a5.86,5.86,0,0,1-7.18,4.12,5,5,0,0,1-.65-.22,117.52,117.52,0,0,1-11.81-5.39,7.9,7.9,0,0,1-3.22-10.7,6.31,6.31,0,0,1,.4-.65l17-25.39Z"/><path class="cls-39" d="M685.68,599.6,475.81,676a16.06,16.06,0,0,0-9.61,20.58,12,12,0,0,0,.48,1.17l.63,1.4a14.94,14.94,0,0,0,19.78,7.42l.09,0L691,612.23Z"/><g class="cls-40"><ellipse class="cls-2" cx="782.15" cy="553.65" rx="103.6" ry="101.73"/></g><path class="cls-41" d="M782.15,440.45c-63.67,0-115.28,50.68-115.28,113.2s51.61,113.21,115.28,113.21,115.28-50.68,115.28-113.21S845.82,440.45,782.15,440.45Zm0,209.78c-54.32,0-98.35-43.24-98.35-96.58s44-96.57,98.35-96.57,98.35,43.24,98.35,96.57S836.46,650.23,782.15,650.23Z"/><path class="cls-2" d="M675.63,568a1.12,1.12,0,0,1-1.12-1c-.34-2.68-.58-5.43-.72-8.15a1.12,1.12,0,0,1,1.07-1.18,1.1,1.1,0,0,1,1.17,1,.11.11,0,0,0,0,0c.14,2.67.37,5.35.71,8a1.14,1.14,0,0,1-1,1.26h-.13Zm.79-31.65h-.2a1.12,1.12,0,0,1-.91-1.31,104,104,0,0,1,6.24-21.36h0c16.68-40.45,56.16-66.58,100.6-66.58a109.58,109.58,0,0,1,58.25,16.64,1.13,1.13,0,1,1-1.09,2,.41.41,0,0,1-.11-.07,107.44,107.44,0,0,0-57.05-16.3c-43.52,0-82.19,25.59-98.51,65.19h0a101.58,101.58,0,0,0-6.11,20.9,1.13,1.13,0,0,1-1.11.91Z"/><path class="cls-42" d="M618.83,492.4c.08.51-6.83,34.36-6.83,34.36l-19.24-4.36,1.78-33S617.58,483.74,618.83,492.4Z"/><path class="cls-43" d="M598.87,496.72,596.57,514a2.51,2.51,0,0,0,0,.67c.2,1.35,1.21,6,5.87,4.66,4.24-1.2,8.12-2.24,10.8-1.42a2.45,2.45,0,0,1,1.68,2.83,106.38,106.38,0,0,1-4.43,15.77,2.42,2.42,0,0,1-3,1.43c-3.65-1.06-11.29-3.52-17-6.93a2.44,2.44,0,0,1-1.19-2.2c.18-4.37.69-17.67.26-21.4-.4-3.49-4.69-5.59-6.56-6.34a2.4,2.4,0,0,1-1.33-1.34c-.87-2.16-2.06-7.17,4.25-9.23a2.44,2.44,0,0,0,1.58-3.07l0-.09c-.93-2.6-1.33-6.57,3.55-8.76s8.67.42,10.67,2.57a2.46,2.46,0,0,0,3.12.37,1.91,1.91,0,0,1,2.19.08,2.41,2.41,0,0,0,3.31-.83l.1-.17c1.19-2.44,3.61-5,8.47-4.22,8.62,1.48,9.6,11,7.32,16.63s-11.53,3.47-16.17.65c-3.53-2.15-8.11.1-10.11,1.3A2.38,2.38,0,0,0,598.87,496.72Z"/><path class="cls-44" d="M588.88,513.77s3.54-9.92-.1-12.36-9-1.16-7.85,6C582.41,516.38,588.88,513.77,588.88,513.77Z"/><path class="cls-45" d="M513.85,655.37l19.84-1.62,8.59,7.92s-2,2.81-8.39,1.2a90.06,90.06,0,0,0-15.06-2s-8.77,4-8.88-3.45Z"/><path class="cls-46" d="M667.53,624.44c1.72,1.35,7.59-1.45,11.19-3.39a4.15,4.15,0,0,0,2-4.89c-.86-2.73-2.31-6.25-4.08-6.7C673.69,608.73,660.46,618.92,667.53,624.44Z"/><path class="cls-2" d="M480,704a1.1,1.1,0,0,1-.37-.06c-8.39-2.9-10.34-7.89-10.5-11.56A12.82,12.82,0,0,1,477.45,680l25.2-9.83a1.13,1.13,0,1,1,1,2l-.14.06L478.26,682a10.57,10.57,0,0,0-6.93,10.17c.18,4.33,3.2,7.53,9,9.53a1.13,1.13,0,0,1-.37,2.19Z"/><path class="cls-2" d="M510.82,669.26a1.13,1.13,0,0,1-.41-2.18l3.27-1.27a1.13,1.13,0,1,1,1,2l-.14.06-3.24,1.27A1,1,0,0,1,510.82,669.26Z"/><path class="cls-4" d="M596.26,1326.72a3.69,3.69,0,0,1-3.69-3.68V882.44a3.69,3.69,0,0,1,7.37,0V1323a3.68,3.68,0,0,1-3.68,3.68Z"/><path class="cls-4" d="M496.32,1326.72a3.69,3.69,0,0,1-3.69-3.68V882.44a3.69,3.69,0,0,1,7.37,0V1323a3.68,3.68,0,0,1-3.68,3.68Z"/><path class="cls-4" d="M250.9,1329.52a3.7,3.7,0,0,1-3.68-3.72,3.59,3.59,0,0,1,.29-1.41L436,881a3.69,3.69,0,0,1,6.79,2.89l-188.53,443.4A3.7,3.7,0,0,1,250.9,1329.52Z"/><path class="cls-4" d="M367.33,1329.52a3.7,3.7,0,0,1-3.68-3.72,3.59,3.59,0,0,1,.29-1.41L552.43,881a3.69,3.69,0,0,1,6.79,2.89l-188.5,443.38A3.68,3.68,0,0,1,367.33,1329.52Z"/><path class="cls-4" d="M601.93,886.5H429.26a5.19,5.19,0,0,1-5.19-5.19h0a5.19,5.19,0,0,1,5.19-5.19H601.93a5.19,5.19,0,0,1,5.19,5.19h0a5.2,5.2,0,0,1-5.18,5.2Z"/><path class="cls-4" d="M527.35,954H410.57a3.69,3.69,0,0,1,0-7.38H527.35a3.69,3.69,0,1,1,0,7.38Z"/><rect class="cls-4" x="374.74" y="1030.41" width="116.78" height="7.37"/><rect class="cls-4" x="340.05" y="1114.27" width="116.78" height="7.37"/><path class="cls-4" d="M420.45,1205.49H303.68a3.69,3.69,0,1,1-.39-7.37H420.45a3.69,3.69,0,0,1,.38,7.37Z"/><path class="cls-4" d="M385.26,1289.35H268.51a3.69,3.69,0,1,1-.39-7.37H385.26a3.69,3.69,0,0,1,.38,7.37Z"/><path class="cls-47" d="M1765.92,1061.47H1409.26a13.78,13.78,0,0,1-13.8-13.78h0a13.8,13.8,0,0,1,13.8-13.8h356.62a13.79,13.79,0,0,1,13.79,13.79h0A13.79,13.79,0,0,1,1765.92,1061.47Z"/><path class="cls-47" d="M1808.76,1115.53H1452.15a13.8,13.8,0,0,1-13.8-13.8h0a13.8,13.8,0,0,1,13.8-13.8h356.61a13.8,13.8,0,0,1,13.8,13.8h0a13.8,13.8,0,0,1-13.8,13.8Z"/><path class="cls-47" d="M1707.35,1223.64h-255.2a13.8,13.8,0,0,1-13.8-13.8h0a13.8,13.8,0,0,1,13.8-13.8h255.2a13.8,13.8,0,0,1,13.8,13.8h0a13.8,13.8,0,0,1-13.8,13.8Z"/><path class="cls-47" d="M1848.76,1169.58H1492.14a13.8,13.8,0,0,1-13.8-13.8h0a13.8,13.8,0,0,1,13.8-13.8h356.62a13.8,13.8,0,0,1,13.8,13.8h0a13.8,13.8,0,0,1-13.8,13.8Z"/><path class="cls-48" d="M1631.45,1299.08s1.52,8.6,2.26,17.11a5.87,5.87,0,0,1-5.34,6.34l-.27,0c-11.33.47-35.57,1.39-44.27,1a1.9,1.9,0,0,1-1.68-2.62h0a4.23,4.23,0,0,1,2.18-2.3l40-18.4Z"/><path class="cls-49" d="M1632.69,1294l-1.22,10.29s-7,3.26-11.8-.42l2.9-11.46Z"/><path class="cls-50" d="M1631.78,1100.69c.53,2.69,2.83,134-11.21,192.87a2,2,0,0,0,1.17,2.33,34.65,34.65,0,0,0,11.43,2.32,3.47,3.47,0,0,0,3.42-2.47c4-13.65,23.24-82.07,25.75-147.42,2.8-73,0-2.49,0-2.49l-1.65-45.14Z"/><path class="cls-51" d="M1677.52,1303.57s2.41,4.34,4.75,15.87a3.58,3.58,0,0,1-2.76,4.23l-.38.06c-3.75.37-9.51.84-14.12.81a3.57,3.57,0,0,1-3.56-3.58,3,3,0,0,1,0-.42c.51-4.21,2.1-11.12,7-16.5Z"/><path class="cls-52" d="M1679.64,1290.34l-2.85,15.55s-2.82,2.1-8.4.58l1.36-16.73Z"/><path class="cls-53" d="M1687.34,1104.72c11.48,69.29-2.49,171.26-7.2,191.22a3.13,3.13,0,0,1-2.51,2.36,20.71,20.71,0,0,1-9-.36,2.84,2.84,0,0,1-2.06-2.62c-.63-16.14.51-115.19-10.19-154.34a9,9,0,0,0-3.43-4.9l-20.69-14.76-1.59-23.86Z"/><path class="cls-54" d="M1614.18,973.43c34.41-.57,72.37,9,72.37,9,10.26,59.84,1.8,128.87,1.8,128.87-26.64,7-56.69-4.27-56.69-4.27-4.43-25-25.08-95.41-25.08-95.41-16.81-2.09-30.66-6.94-42.07-13.35,8.7-10.09,12.8-22.92,14.58-30.5C1591.26,971.59,1603.57,973.61,1614.18,973.43Z"/><path class="cls-55" d="M1512.55,922.75a6.59,6.59,0,0,1,7.66-2.15c5.06,21.39,31.61,38.73,58.88,47.21-1.78,7.58-5.88,20.41-14.58,30.5C1519.26,972.85,1512.55,922.75,1512.55,922.75Z"/><path class="cls-56" d="M1513.37,923.79c-.36,1.12,3.74,2.84,6.15-1.76.09-2.21,1.43-11.65.11-13.44C1512.63,899,1499,887,1499,887a3.22,3.22,0,0,0-.41,4.49l6.6,6.87c-1.38,2.5-3.06,4.6-3.85,7.62a9.22,9.22,0,0,0,.92,6.8c1.16,2.09,2.74,4.8,4.23,6.92A9.11,9.11,0,0,0,1513.37,923.79Z"/><path class="cls-57" d="M1508.09,902.86l6,5.1L1516,913l-5.36,6s-1.8-10.07-3.14-12.25S1506.85,903.5,1508.09,902.86Z"/><path class="cls-58" d="M1673.36,1015.78l13.19-33.31s32.14,21.83,37.43,49.52a76.09,76.09,0,0,0-27.94,7.49C1693.66,1026.4,1673.36,1015.78,1673.36,1015.78Z"/><path class="cls-59" d="M1645.26,1047.13s36.08,20.39,48.26,3a13.72,13.72,0,0,0,2.51-10.63A76.09,76.09,0,0,1,1724,1032a38.22,38.22,0,0,1-4.16,26.19c-21.32,39-79.32-2.15-79.32-2.15Z"/><path class="cls-60" d="M1649.61,1073l-19.7-68.77a2,2,0,0,0-1.69-1.45c-3.57-.41-13.91-1.58-25.85-2.59-14.37-1.22-31.07-2.2-41-1.36a2,2,0,0,0-1.65,2.89c5.68,11.48,29,58.18,40.71,73.47a2,2,0,0,0,1.62.8l45.69-.42a2,2,0,0,0,2-2A2.34,2.34,0,0,0,1649.61,1073Z"/><path class="cls-61" d="M1600.33,994.16l-14.28-2.38a1,1,0,0,0-1.19.78,1,1,0,0,0,.05.55l1.42,4.28a1,1,0,0,0,.83.7l13.74,1.83a1,1,0,0,0,1.16-.81,1.29,1.29,0,0,0,0-.44l-.88-3.74A1,1,0,0,0,1600.33,994.16Z"/><path class="cls-62" d="M1611,1006.24l-1.17-6.12a1.41,1.41,0,0,0-1.25-1.14l-28.84-2.93a1.42,1.42,0,0,0-1.56,1.25,1.36,1.36,0,0,0,0,.49l1.83,7.63a1.43,1.43,0,0,0,1.31,1.09l28.18,1.42a1.42,1.42,0,0,0,1.48-1.35A1.27,1.27,0,0,0,1611,1006.24Z"/><path class="cls-63" d="M1644.85,1056.32s2.74-11.28,1.64-15.29-3.25-9.14-10.4-8a104.28,104.28,0,0,0-15.58,4.15s.43,5.22,5.86,3.53l-3.37,2.61s.48,4.17,5.07,1.94l-3.13,3.46s2,3.43,5.34,1.23S1635.26,1057.67,1644.85,1056.32Z"/><path class="cls-64" d="M1649,945.5l11,31.66a1.15,1.15,0,0,1-.52,1.37c-3,1.65-13.73,6.42-26.69-1.79a5.36,5.36,0,0,1-2.47-3.84l-3.55-27.4Z"/><path class="cls-65" d="M1625.26,916.18s-12,22.63-10.48,31.77,16.44,8.49,29.45,1.06l9.09-24.43Z"/><path class="cls-66" d="M1643.61,937a.92.92,0,0,1-.49-1.22.64.64,0,0,1,.08-.14,25,25,0,0,0,3.35-7.11s2.16-1.38-5.51-3.21-19.08-4.68-21.48-11.21c-2.35-6.35,3.81-22.34,13.62-9.6a.93.93,0,0,0,1.31.16,1.29,1.29,0,0,0,.17-.16c1.61-2.1,5.84-6.44,11.71-3.81,5.5,2.47,6.12,6.49,6,8.52a.91.91,0,0,0,.81,1,.94.94,0,0,0,.29,0c2.78-.53,9.45-1,12.56,5.86,2.56,5.63.9,8.82-.62,10.38a.92.92,0,0,0,0,1.32.84.84,0,0,0,.4.23c1.82.56,4.18,2.1,4,6.38-.33,5.92-6.94,5.4-8.83,5.13a.91.91,0,0,0-.83.29c-1.61,1.79-8.88,9.37-16.76,10.29a.94.94,0,0,1-1.05-.82.91.91,0,0,1,.05-.43l3.4-9.9a1,1,0,0,0-.5-1.16Z"/><path class="cls-67" d="M1642.26,938.42s8.56-5.88,9.18-.93-7.7,7.16-11.83,5.32Z"/><path class="cls-47" d="M1084.26,165.79a3.73,3.73,0,0,1-2.84-1.15,2.46,2.46,0,0,1-.57-2.17l.6-2.76a3.51,3.51,0,0,1,3.26-2.54l8.16-.67,1.33-21c-14.73.42-27.91.76-36.56,1a11.35,11.35,0,0,1-11.55-11l-3.5-68.81a8.42,8.42,0,0,1,7.67-9.12h.1c23.06-1.69,88-3.06,114.84-3.57a9,9,0,0,1,9,7.21h0c3.71,17.8,4.92,56.55,5.27,72.38a8.8,8.8,0,0,1-8.23,9c-8.38.55-22.23,1.15-42.3,1.84l4.15,18.75,6.3-.54a3.47,3.47,0,0,1,3.73,2.08l1.55,4.43a2.55,2.55,0,0,1-.3,2.26,3.78,3.78,0,0,1-3,1.49l-56.87,2.9Zm11.15-32.57a1.14,1.14,0,0,1,.81.34,1.18,1.18,0,0,1,.32.86l-1.48,23.2a1.13,1.13,0,0,1-1,1l-9.13.75a1.35,1.35,0,0,0-1.24.76l-.6,2.75a.24.24,0,0,0,.06.23,1.61,1.61,0,0,0,1.28.37l56.88-2.9a1.65,1.65,0,0,0,1.25-.51.3.3,0,0,0,0-.26l-1.55-4.42c-.11-.33-.67-.63-1.41-.57l-7.28.62a1.09,1.09,0,0,1-1.2-.88l-4.66-21a1.13,1.13,0,0,1,1.07-1.37c20.78-.71,35-1.32,43.58-1.89a6.57,6.57,0,0,0,6.13-6.69c-.35-15.77-1.56-54.35-5.22-72h0a6.81,6.81,0,0,0-6.78-5.4c-26.82.51-91.71,1.87-114.72,3.56a6.21,6.21,0,0,0-5.69,6.69v.08l3.5,68.8a9,9,0,0,0,9.13,8.86h.11c8.89-.22,22.57-.57,37.8-1Z"/><path class="cls-47" d="M1056.73,128.35a7.22,7.22,0,0,1-7.17-6.82l-3.3-65.37h0a5.78,5.78,0,0,1,5.48-6.08h.15l113.55-3a5.48,5.48,0,0,1,5.58,5.18L1174.1,117a7,7,0,0,1-6.64,7.34h-.13l-110.31,4Zm-8.25-72.3,3.33,65.36a5,5,0,0,0,5.1,4.68l110.32-4a4.77,4.77,0,0,0,4.58-5v0l-3.07-64.79a3.19,3.19,0,0,0-3.27-3l-113.55,3a3.55,3.55,0,0,0-3.45,3.65.22.22,0,0,0,0,.08Z"/><path class="cls-47" d="M1109.36,132.88a2.66,2.66,0,0,1-.14-5.31,2.65,2.65,0,0,1,.28,5.3Zm0-3h0a.39.39,0,0,0-.37.41.32.32,0,0,0,.13.28.29.29,0,0,0,.28.1.52.52,0,0,0,.28-.13.48.48,0,0,0,.1-.29h0a.4.4,0,0,0-.4-.37Z"/><path class="cls-47" d="M1115.85,160.49a1.13,1.13,0,0,1-.06-2.25l2.34-.14a1.13,1.13,0,0,1,.29,2.24h-.15l-2.35.14Z"/><path class="cls-47" d="M1085.05,164.38h-.27A1.12,1.12,0,0,1,1084,163l.27-1.13c.26-1.07,1.51-1.85,3.08-1.94l24.92-1.46a1.1,1.1,0,0,1,1.18,1v0a1.14,1.14,0,0,1-1.06,1.19l-24.91,1.46a1.87,1.87,0,0,0-1.08.34l-.23,1A1.13,1.13,0,0,1,1085.05,164.38Z"/><path class="cls-47" d="M1079.51,192.53c-8.58,0-16.37-.27-22.89-.81-15.14-1.26-23.25-3.85-24.79-7.9-5.3-13.88-22.62-142.17-5.1-161.34a1.15,1.15,0,0,1,.74-.37c16.38-1.35,160.3-12.92,170.5-2.36,5.62,5.81,7.47,43.45,7.34,76.73-.13,32.69-2.26,71.26-6.62,78.68s-41.29,12.07-57,13.79A595.38,595.38,0,0,1,1079.51,192.53Zm-51.4-168.21c-15.26,18.4-.72,141.55,5.82,158.7.54,1.41,3.85,4.86,22.87,6.45,45.47,3.79,134.41-6,140-15.46,3.49-5.95,6.15-38.56,6.31-77.54.16-40.63-2.54-70.83-6.71-75.15-7.14-7.34-104.39-2.26-168.29,3Z"/><path class="cls-47" d="M737.18,160.22a6.4,6.4,0,0,1-6.38-5.92c-1.92-26.14-3.31-99.8-3.69-121.76a7.86,7.86,0,0,1,7-8c19.29-2.07,58.49-.15,74.45.77a8.37,8.37,0,0,1,7.82,7.3h0c3.63,28.55,5.26,89.86,5.8,114.9A10,10,0,0,1,813,157.68c-22.12,1.87-60.4,2.41-75.83,2.55ZM757.87,25.86c-8.94,0-17.25.25-23.46.92a5.61,5.61,0,0,0-5,5.72c.38,21.94,1.77,95.55,3.69,121.63a4.15,4.15,0,0,0,4.13,3.84h0c15.41-.15,53.62-.69,75.67-2.54a7.8,7.8,0,0,0,7.1-7.88c-.54-25-2.17-86.23-5.79-114.67h0a6.13,6.13,0,0,0-5.71-5.33c-10.76-.57-32-1.69-50.63-1.69ZM757.26,142c-6.65,0-12.45-.07-16.45-.13a7.12,7.12,0,0,1-7-6.61c-1.64-21.26-1.74-79.14-1.73-96.38A6.93,6.93,0,0,1,738.37,32c15.91-1.54,51.23-.11,65.67.57a7.8,7.8,0,0,1,7.4,7.19c1.61,21.24,1.12,76.21.93,92.55a7.93,7.93,0,0,1-6.94,7.76C792.37,141.66,772.55,142,757.26,142Zm1.43-108.47c-7.84,0-15,.19-20.12.68a4.69,4.69,0,0,0-4.25,4.68c0,17.21.09,75,1.72,96.19a4.88,4.88,0,0,0,4.81,4.53c13.14.22,45.71.47,64.28-1.81a5.66,5.66,0,0,0,5-5.54h0c.19-16.32.69-71.21-.92-92.36A5.54,5.54,0,0,0,804,34.77c-9.76-.42-29-1.22-45.26-1.22Z"/><path class="cls-47" d="M772.76,156.38a6.76,6.76,0,1,1,6.77-7h0a6.78,6.78,0,0,1-6.48,7Zm0-11.27h-.19a4.51,4.51,0,1,0,4.69,4.31h0a4.52,4.52,0,0,0-4.49-4.31Z"/><path class="cls-47" d="M778.35,30.81h0c-4.09-.07-13.24-.16-16.49-.2a2.34,2.34,0,0,1-2.34-2.26h0a2.34,2.34,0,0,1,2.17-2.46,159.39,159.39,0,0,1,16.79.05,2.4,2.4,0,0,1,2.18,1.82,2.46,2.46,0,0,1-.42,2.16A2.39,2.39,0,0,1,778.35,30.81ZM768.12,28a62.49,62.49,0,0,0-6.29.2l-.1.12a.11.11,0,0,0,.11.1c3.25,0,12.41.13,16.51.19l.07-.28C776.72,28.14,772.43,28,768.12,28Z"/><path class="cls-47" d="M778.42,175.85c-26,0-51.66-1.62-68.56-4.43-15-2.5-22.85-5.74-24.06-9.9C681.65,147.25,674.9,18,693.94.3l.32-.3h.44c16.45,0,160.81.24,170.12,11.6,5.12,6.26,3.89,43.92,1,77.08-2.81,32.57-8.09,70.83-13,77.87s-42.13,8.65-57.93,9.08C789.43,175.78,783.92,175.85,778.42,175.85ZM695.16,2.25c-16.73,17.08-12.32,141-7.2,158.64.42,1.45,3.44,5.17,22.27,8.3,45,7.51,134.45,5,140.74-3.94,4-5.64,9.28-37.93,12.63-76.76,3.5-40.49,3.28-70.81-.52-75.46C856.56,5.08,759.26,2.24,695.16,2.25Z"/><path class="cls-47" d="M740.79,85.62a1.13,1.13,0,0,1-1.13-1.08l-1.47-36.88a1.12,1.12,0,0,1,1.06-1.17h0a1.15,1.15,0,0,1,1.18,1.08l1.47,36.88a1.14,1.14,0,0,1-1.09,1.17h0Z"/><path class="cls-47" d="M1441.26,234.87c-11.23,0-39.6-13.35-52.29-19.6-28-13.81-56.71-30.85-73.22-43.41-12.08-9.2-17.52-15.74-16.65-20,3-14.56,57.36-132,82.45-138.79L1382,13l.39.21c14.53,7.66,142.1,75.27,145,89.66,1.61,7.93-17.06,40.66-35.06,68.65-17.69,27.5-40.22,58.87-47.88,62.78A7.23,7.23,0,0,1,1441.26,234.87ZM1381.72,15.4c-22.77,7.29-76.71,119-80.41,136.93-.3,1.48.63,6.17,15.81,17.73,36.3,27.64,116.58,67.19,126.31,62.21,6.15-3.14,25.92-29.21,47-62,22-34.17,36-61.09,34.75-67-2.06-10-86.77-58-143.48-87.87Z"/><path class="cls-47" d="M1448.89,198.4a8.27,8.27,0,0,1-3-.55h0c-27.59-10.43-83.91-38.4-106.84-49.94a10.23,10.23,0,0,1-4.8-13.15c9-20.95,26.84-55.86,34.12-69.9a6.54,6.54,0,0,1,8.42-3c24.54,10.79,92,44.93,112,55.14a8,8,0,0,1,3.85,10.21c-7.39,18.46-28,53-36.45,67.05A8.58,8.58,0,0,1,1448.89,198.4Zm-2.22-2.66a6.31,6.31,0,0,0,7.61-2.62c8.47-14,29-48.41,36.29-66.72a5.81,5.81,0,0,0-2.78-7.36c-20.06-10.2-87.44-44.32-111.92-55.08a4.28,4.28,0,0,0-5.52,1.94c-7.26,14-25.13,48.87-34,69.74a8,8,0,0,0,3.73,10.25c22.91,11.53,79.14,39.46,106.63,49.85Zm-1.67-5.2a8.34,8.34,0,0,1-3.38-.72c-20.39-9-71.22-36.52-86.31-44.74h0a8.15,8.15,0,0,1-3.91-9.9c6.61-17.59,22.11-46.26,28.48-57.77a7.25,7.25,0,0,1,9.37-3c20.52,9,74.25,37.43,90.23,45.92a7.12,7.12,0,0,1,3.43,8.91c-6,14.78-23.82,45.16-31.2,57.54A7.78,7.78,0,0,1,1445,190.54Zm-88.61-47.44c15.07,8.21,65.83,35.69,86.15,44.66a5.69,5.69,0,0,0,7.23-2.09c7.36-12.34,25.1-42.6,31-57.24a4.88,4.88,0,0,0-2.4-6.07c-16-8.48-69.63-36.84-90.08-45.84a5,5,0,0,0-6.49,2c-6.34,11.46-21.78,40-28.34,57.48a5.89,5.89,0,0,0,2.88,7.12Z"/><path class="cls-47" d="M1359.93,104.43a4.84,4.84,0,0,1-2.12-.48h0a4.93,4.93,0,1,1,2.12.48Zm-1.15-2.51a2.68,2.68,0,1,0-1.26-3.58A2.68,2.68,0,0,0,1358.78,101.92Z"/><path class="cls-47" d="M1465.11,125a1.17,1.17,0,0,1-.49-.11l-34.11-16.39a1.13,1.13,0,0,1,.7-2.15,1.4,1.4,0,0,1,.3.15l34.11,16.38a1.13,1.13,0,0,1-.49,2.15Z"/><path class="cls-47" d="M1666.17,224.9a5.88,5.88,0,0,1,1.31,1.58c.54,1,.88,2.57,1.61,3.93a45.33,45.33,0,0,1,2.34,5.23h0c.43.87.62,1.69-.3,2.18a1.6,1.6,0,0,1-2.18-.62l-.07-.16s-1.25-2.61-2.63-5.16c-.33-.64-.6-1.32-.92-1.92s-.47-1-.67-1.41-.3-.68-.47-1l-.25-.43-.4-.69a1.5,1.5,0,0,1,.22-2.12,1.53,1.53,0,0,1,.21-.14,1.49,1.49,0,0,1,2.06.44,2,2,0,0,1,.13.25Z"/><path class="cls-47" d="M1678.26,245l6.23,9.72a1.8,1.8,0,0,1-.63,2.44l0,0a1.85,1.85,0,0,1-2.54-.47L1675,247a1.79,1.79,0,0,1,.64-2.46h0A1.87,1.87,0,0,1,1678.26,245Z"/><path class="cls-47" d="M1690.26,265l7.44,8.72a1.45,1.45,0,0,1,0,2.06,1.18,1.18,0,0,1-.21.18,1.77,1.77,0,0,1-2.47-.4l-7-9.22c-.59-.77-.76-1.44.08-2s1.38.34,2.19.71Z"/><path class="cls-47" d="M1704,283.84l8.57,7.6c.65.7.9,1.34.12,2a1.69,1.69,0,0,1-2.37-.25l0-.05-7.8-8.63c-.65-.7-1.2-.94-.42-1.6s1.13.93,1.92.93Z"/><path class="cls-47" d="M1723.7,295.12l7.64,9.42c.71.62.16,2.57-.54,3.29s-2.13,1.22-2.85.59l-8.89-7.44c-.72-.63.31-3.32,1-4a8.14,8.14,0,0,1,3.62-1.77Z"/><path class="cls-47" d="M1739,315.43l9.8,5.64c.78.54,1,1.09.38,1.87a1.83,1.83,0,0,1-2.5.18l-9.63-6.81c-.79-.54-1.07-.64-.45-1.42s1.68-1.72,2.4.54Z"/><path class="cls-47" d="M1760.87,324.45l9.52,6.19c.85.44.61,1.85.1,2.69a2.33,2.33,0,0,1-2.7.92L1757.11,329c-.85-.43-.17-2.19.34-3s.29-1.46,3.42-1.46Z"/><path class="cls-47" d="M1780.06,335.73l11.35,4.06a1.62,1.62,0,0,1,1,2.06.78.78,0,0,1-.05.14,1.91,1.91,0,0,1-2.32,1l-11.28-4a1.66,1.66,0,0,1-1-2.1.69.69,0,0,1,0-.13,2.35,2.35,0,0,1,2.29-1.1Z"/><path class="cls-47" d="M1802.26,343.89l11.73,3.42a1.58,1.58,0,0,1,1.17,1.89l0,.11a1.8,1.8,0,0,1-2.21,1.06l-11.45-3.55a1.58,1.58,0,0,1-1.31-1.82,1.21,1.21,0,0,1,0-.18c.35-.89,1.76-1.56,2-1Z"/><path class="cls-47" d="M1825,351.52l12.08,2.29c.92.22,1.61.84,1.31,1.73a1.69,1.69,0,0,1-2.1,1.07l-11.68-2.91c-.92-.22-1.77-.6-1.48-1.49s1.18-.69,1.86-.69Z"/><path class="cls-47" d="M1849.39,355.06l11.93,2a1.61,1.61,0,0,1,1.3,1.88s0,.08,0,.12a1.94,1.94,0,0,1-2.08,1.46l-12-1.71a1.72,1.72,0,0,1-1.25-2.09v0c.2-.91,1.34-2,2.16-1.65Z"/><path class="cls-47" d="M1873.07,358.29h6.18l6-.33h.13a1.57,1.57,0,0,1,1.7,1.4c0,.05,0,.09,0,.14a1.81,1.81,0,0,1-1.73,1.72l-6.31.32h-6.14a1.57,1.57,0,0,1-1.66-1.48.29.29,0,0,1,0-.13,1.89,1.89,0,0,1,1.79-1.61Z"/><path class="cls-47" d="M1896.72,355.33a6.09,6.09,0,0,0,2.07-.24c.55-.18,1.34-.2,2-.46s1.38-.42,2.07-.68a40.4,40.4,0,0,0,3.72-1.73l1.64-.88.14-.06a1.68,1.68,0,0,1,2.29.55A1.64,1.64,0,0,1,1910,354l0,0-1.78,1c-1.06.64-2.57,1.26-4,1.94l-2.28.86c-.73.29-1.37.46-1.93.64l-1.87.56a2,2,0,0,1-2.29-1.35c-.23-.86,1-1.61,1-2.37Z"/><path class="cls-47" d="M1917,343.79a9.45,9.45,0,0,1,.93-1.67,14.41,14.41,0,0,0,.89-1.64c.15-.29.28-.6.45-.9.06-.1.2-.43.18-.35l.19-.53c.13-.34.31-.72.39-1s.14-.58.21-.85a13.25,13.25,0,0,0,.29-1.65c.07-1,.09-1.67.09-1.67v-.08a1.79,1.79,0,0,1,1.74-1.66,1.54,1.54,0,0,1,1.64,1.44v.1s0,.79-.11,2a18.63,18.63,0,0,1-.36,2.09c-.11.4-.22.81-.34,1.23a10.9,10.9,0,0,1-.41,1.07l-.21.52c-.19.41-.22.42-.34.65s-.38.7-.57,1a13.84,13.84,0,0,1-1,1.75l-1.06,1.59a1.66,1.66,0,0,1-2.22.68c-.78-.44-.34-1.46-.34-2.12Z"/><path class="cls-47" d="M1917.34,323.37a42.69,42.69,0,0,0-2.25-5.31c-1.55-2.27-2.91-4.65-2.91-4.65v-.19a1.49,1.49,0,0,1,.54-2.05l.11-.06c.78-.51,1.26-1.53,2.39.49h0s1.65,2.36,3.35,4.85c1.33,2.55,2.64,5,2.64,5,.4.77-.38,1.91-1.22,2.35s-2.28.33-2.66-.45Z"/><path class="cls-47" d="M1905.39,303.75a2.22,2.22,0,0,1-1.93-.22c-.45-.28-1.2-.33-1.76-.59s-1.26-.42-1.85-.74a19,19,0,0,0-1.92-.67,6.62,6.62,0,0,0-1.69-.46c-1-.22-1.66-.33-1.66-.33l-.31-.05a1.46,1.46,0,0,1-1.17-1.72.94.94,0,0,1,0-.16,1.77,1.77,0,0,1,2-1.19l2,.43a9.6,9.6,0,0,1,2,.61,22.92,22.92,0,0,1,2.19.9l2.07,1.13a17.94,17.94,0,0,1,1.61,1l1.51,1c.73.5,1.28.67.72,1.39s-1.16-.06-1.92-.4Z"/><path class="cls-47" d="M1885.44,303.53a6.31,6.31,0,0,0-2.47.77c-.24.16-.92.18-1.2.37a7.06,7.06,0,0,0-.93.54c-.48.42-1.1.84-1.61,1.29s-1,1.06-1.47,1.56a14.35,14.35,0,0,0-1.38,1.32,6.52,6.52,0,0,1-1.28,1.34l-.1.12a1.55,1.55,0,0,1-2.1.61,1.4,1.4,0,0,1-.4-1.94,1,1,0,0,1,.13-.16s.52-.62,1.23-1.59a12.62,12.62,0,0,1,1.31-1.61c.52-.58,1.08-1.18,1.62-1.79a20.32,20.32,0,0,1,1.92-1.67,10.32,10.32,0,0,1,1.68-1.25l1.63-1.07a3,3,0,0,1,3.11.66,4.55,4.55,0,0,1,.31,2.5Z"/><path class="cls-47" d="M1869.65,320.84a58.54,58.54,0,0,1-1.52,6c-.7,2.8-1.23,5.76-1.23,5.76l.06.18a1.74,1.74,0,0,1-1.92,1.3,1.43,1.43,0,0,1-1.22-1.62.94.94,0,0,1,0-.16s.75-3,1.49-5.93c.93-2.85,1.87-5.69,1.87-5.69.27-.83.85-1.63,1.71-1.42s.72.8.72,1.6Z"/><path class="cls-47" d="M1866.85,342.5a45.86,45.86,0,0,0-.95,6.69c0,2.86-.25,6.13-.25,6.13l-.17.29a1.88,1.88,0,0,1-1.68,1.76,1.46,1.46,0,0,1-1.67-1.22.66.66,0,0,1,0-.14s-.08-3-.13-5.95c.12-2.93.24-5.84.24-5.84a3.36,3.36,0,0,1,2.37-2.41c.9,0,1.6.69,2.25.69Z"/><path class="cls-47" d="M1866.62,365.06l2.07,12.42a2.31,2.31,0,0,1-1.35,2.36c-.87.2-1.73,0-1.89-.86l-2.2-11.26c-.16-.82.52-2.62,1.39-2.82s3.18-2.1,2,.16Z"/><path class="cls-47" d="M1871.54,389.87l3.75,10.73a1.48,1.48,0,0,1-1,1.85h0a1.54,1.54,0,0,1-2-.87v0l-3.75-11a1.39,1.39,0,0,1,.89-1.75l.11,0c.84-.3,1.28,1,2,1Z"/><path class="cls-47" d="M1879.56,411l.71,1.65,1.62,3.59,2.38,5.25a1.6,1.6,0,0,1-.91,2.07,1.58,1.58,0,0,1-2-.73s-1.19-2.63-2.39-5.25c-.59-1.32-1.19-2.65-1.64-3.64l-.72-1.65a1.56,1.56,0,0,1,.88-2,1.53,1.53,0,0,1,2,.71Z"/><path class="cls-47" d="M1889.26,431.82l5.33,10.23a1.58,1.58,0,0,1-2.81,1.43l-5.34-10.22a1.51,1.51,0,0,1,.73-2,1.55,1.55,0,0,1,2.09.57Z"/><path class="cls-47" d="M1900.26,452l6,9.87a1.5,1.5,0,0,1-.6,2,1.52,1.52,0,0,1-2.1-.44l-6-9.86a1.48,1.48,0,0,1,.6-2,1.53,1.53,0,0,1,2.11.44Z"/><path class="cls-47" d="M1912.48,471.47l6.7,9.42a1.46,1.46,0,0,1-.45,2,1.53,1.53,0,0,1-2.12-.3l-6.71-9.41a1.44,1.44,0,0,1,.45-2,1.53,1.53,0,0,1,2.12.3Z"/><path class="cls-47" d="M1926.49,489.8l7.34,8.91a1.49,1.49,0,0,1-.34,2.07h0a1.59,1.59,0,0,1-2.16-.12l-7.52-8.82a1.53,1.53,0,0,1,.41-2.12C1924.88,489.2,1926.15,489.11,1926.49,489.8Z"/><path class="cls-47" d="M1941.31,507.54l7.43,8.88a1.42,1.42,0,0,1-.26,2l0,0a1.54,1.54,0,0,1-2.11-.15l-7.44-8.88a1.42,1.42,0,0,1,.29-2,1.54,1.54,0,0,1,2.11.15Z"/><path class="cls-47" d="M1956,525.49l7,9.18a1.42,1.42,0,0,1-.33,2l0,0a1.5,1.5,0,0,1-2.07-.23l-7.06-9.16a1.41,1.41,0,0,1,.32-2l0,0a1.51,1.51,0,0,1,2.08.22Z"/><path class="cls-47" d="M1969.94,544l6.63,9.46a1.42,1.42,0,0,1-.36,2l-.08,0a1.48,1.48,0,0,1-2-.3l-6.65-9.45a1.41,1.41,0,0,1,.38-2l.07,0a1.48,1.48,0,0,1,2,.3Z"/><path class="cls-47" d="M1983,563.14l6.2,9.74a1.4,1.4,0,0,1-.51,1.91l0,0a1.45,1.45,0,0,1-2-.38l-6.21-9.73a1.41,1.41,0,0,1,.5-1.93h0a1.46,1.46,0,0,1,2,.38Z"/><path class="cls-47" d="M1995.26,582.81l5.73,10a1.41,1.41,0,0,1-.61,1.89h0a1.44,1.44,0,0,1-2-.46l-5.74-10a1.41,1.41,0,0,1,.6-1.9h0a1.43,1.43,0,0,1,2,.44l0,0Z"/><path class="cls-47" d="M2006.47,603l5.23,10.28a1.4,1.4,0,0,1-.68,1.85h0a1.42,1.42,0,0,1-1.91-.54l-5.25-10.27a1.46,1.46,0,0,1,2.6-1.32Z"/><path class="cls-47" d="M2016.71,623.77l4.71,10.53a1.45,1.45,0,0,1-.8,1.88,1.43,1.43,0,0,1-1.82-.69L2014.08,625a1.44,1.44,0,0,1,.9-1.84,1.46,1.46,0,0,1,1.73.65Z"/><path class="cls-47" d="M2025.89,645l4.16,10.76a1.4,1.4,0,0,1-.85,1.76,1.36,1.36,0,0,1-1.79-.68v0l-4.14-10.73a1.39,1.39,0,0,1,.85-1.76,1.34,1.34,0,0,1,1.78.67l0,0Z"/><path class="cls-47" d="M2033.94,666.71l3.58,11a1.39,1.39,0,0,1-.92,1.7,1.33,1.33,0,0,1-1.72-.73v0l-3.59-11a1.39,1.39,0,0,1,.92-1.71,1.31,1.31,0,0,1,1.71.73Z"/><path class="cls-47" d="M2040.82,688.84l3,11.19a1.38,1.38,0,0,1-1,1.64,1.3,1.3,0,0,1-1.65-.79s0,0,0-.06l-3-11.19a1.4,1.4,0,0,1,1-1.65,1.31,1.31,0,0,1,1.65.81l0,.05Z"/><path class="cls-47" d="M2046.46,711.37l2.33,11.37a1.39,1.39,0,0,1-1.08,1.57,1.27,1.27,0,0,1-1.58-.87s0,0,0-.06L2043.78,712a1.4,1.4,0,0,1,1.08-1.59,1.27,1.27,0,0,1,1.58.87S2046.45,711.35,2046.46,711.37Z"/><path class="cls-47" d="M2050.8,734.24l1.64,11.5a1.39,1.39,0,0,1-1.15,1.51,1.25,1.25,0,0,1-1.5-.94.13.13,0,0,1,0-.06l-1.66-11.5a1.38,1.38,0,0,1,1.15-1.52,1.26,1.26,0,0,1,1.51.94s0,0,0,.06Z"/><path class="cls-47" d="M2053.75,757.38s.24,2.9.49,5.8c.12,1.43.25,2.93.31,4s.12,1.82.12,1.82a1.39,1.39,0,0,1-1.24,1.41,1.21,1.21,0,0,1-1.4-1,.41.41,0,0,1,0-.11s-.05-.72-.13-1.81-.18-2.51-.31-4l-.5-5.8a1.38,1.38,0,0,1,1.23-1.44,1.22,1.22,0,0,1,1.42,1s0,0,0,.08Z"/><path class="cls-47" d="M2055.2,780.74l.15,11.69a1.39,1.39,0,0,1-1.3,1.35,1.2,1.2,0,0,1-1.33-1.06v-.1l-.16-11.64a1.38,1.38,0,0,1,1.3-1.35,1.21,1.21,0,0,1,1.33,1.07.28.28,0,0,0,0,.09Z"/><path class="cls-47" d="M2055.09,804.23l-.68,11.73a1.38,1.38,0,0,1-1.37,1.25,1.19,1.19,0,0,1-1.23-1.15.11.11,0,0,1,0-.08l.67-11.73a1.36,1.36,0,0,1,1.37-1.25,1.17,1.17,0,0,1,1.23,1.12A.37.37,0,0,1,2055.09,804.23Z"/><path class="cls-47" d="M2053.26,827.77l-1.56,11.7a1.39,1.39,0,0,1-1.44,1.15,1.14,1.14,0,0,1-1.12-1.18.49.49,0,0,1,0-.12l1.54-11.71a1.38,1.38,0,0,1,1.44-1.15,1.17,1.17,0,0,1,1.13,1.2v.11Z"/><path class="cls-47" d="M2049.7,851.23l-2.5,11.61a1.37,1.37,0,0,1-1.5,1,1.14,1.14,0,0,1-1-1.23l0-.14,2.49-11.61a1.37,1.37,0,0,1,1.51-1,1.14,1.14,0,0,1,1,1.25.59.59,0,0,0,0,.13Z"/><path class="cls-47" d="M2044.19,874.47l-3.49,11.43a1.34,1.34,0,0,1-1.56.9,1.11,1.11,0,0,1-.89-1.3.65.65,0,0,1,0-.13l3.47-11.43a1.35,1.35,0,0,1,1.58-.91,1.1,1.1,0,0,1,.88,1.29l0,.15Z"/><path class="cls-47" d="M2036.66,897.31l-4.54,11.15a1.31,1.31,0,0,1-1.61.76,1.1,1.1,0,0,1-.75-1.37.61.61,0,0,1,0-.12l4.52-11.15a1.34,1.34,0,0,1,1.62-.77,1.12,1.12,0,0,1,.75,1.38Z"/><path class="cls-47" d="M2027,919.53l-4.6,8.89a1.33,1.33,0,0,1-1.66.61,1.09,1.09,0,0,1-.6-1.42.34.34,0,0,1,.06-.12l4.6-8.89a1.32,1.32,0,0,1,1.66-.62,1.1,1.1,0,0,1,.59,1.44Z"/><polygon class="cls-47" points="1676.1 180.02 1652.84 202.16 1647.85 176.89 1676.1 180.02"/><path class="cls-4" d="M1589.92,62.72,1594.59,178a8.13,8.13,0,0,0,8.45,7.79l.31,0,115.53-9.05a3.26,3.26,0,0,0,3-3.51,3.32,3.32,0,0,0-1.17-2.25Z"/><polygon class="cls-47" points="1676.09 180.02 1589.91 62.72 1657.44 181.54 1651.26 187.95 1676.09 180.02"/><polygon class="cls-47" points="1646.38 182.35 1652.84 202.16 1657.44 181.54 1646.38 182.35"/><path class="cls-2" d="M690.75,1282.29H658.31a2.26,2.26,0,0,1-2.25-2.26v-97a2.26,2.26,0,0,1,2.25-2.26h32.44A2.26,2.26,0,0,1,693,1183h0v97a2.26,2.26,0,0,1-2.26,2.26Zm-30.18-4.51H688.5v-92.54H660.57Z"/><path class="cls-2" d="M754.69,1282.29H710.36a2.26,2.26,0,0,1-2.26-2.26h0v-160.2a2.26,2.26,0,0,1,2.26-2.25h44.33a2.27,2.27,0,0,1,2.26,2.25V1280a2.26,2.26,0,0,1-2.26,2.26Zm-42.08-4.51h39.83V1122.09H712.61Z"/><path class="cls-2" d="M838.26,1282.29H776.71a2.26,2.26,0,0,1-2.25-2.26V1086a2.26,2.26,0,0,1,2.25-2.26h61.55a2.26,2.26,0,0,1,2.26,2.26h0v194.09A2.27,2.27,0,0,1,838.26,1282.29ZM779,1277.78h57V1088.19H779Z"/><path class="cls-2" d="M949.66,1282.29H876a2.26,2.26,0,0,1-2.26-2.26h0V1045.21A2.26,2.26,0,0,1,876,1043h73.69a2.27,2.27,0,0,1,2.26,2.25V1280A2.26,2.26,0,0,1,949.66,1282.29Zm-71.4-4.51h69.19V1047.47H878.26Z"/><path class="cls-47" d="M299.59,340.17c-5.51,0-8.94-1-10.39-3.05-8.63-12.1-57.68-131.9-45.54-154.86a1,1,0,0,1,.62-.54c15.51-5.43,151.89-52.85,164.41-45.21,6.9,4.22,18.17,40.17,26.42,72.42,8.1,31.67,15.75,69.53,13.4,77.81-2.31,8.11-36.91,22.07-51.69,27.69-29.15,11.1-61.19,20.56-81.63,24.09A95.14,95.14,0,0,1,299.59,340.17ZM245.46,183.7C235.31,205.35,280.38,320.87,291,335.82c.88,1.23,5,3.74,23.77.48,45-7.78,128.56-39.67,131.54-50.18,1.88-6.64-3.76-38.87-13.42-76.63-10.06-39.37-20.27-67.92-25.4-71.05C398.75,133.08,306,162.51,245.46,183.7Z"/><path class="cls-47" d="M308.84,303.3a6.54,6.54,0,0,1-3.38-.61c-6.75-4.53-29.69-56-27.19-79.9.65-6.18,3-10.13,6.92-11.72l4.36-1.76c13.88-5.62,39.72-16.1,62.17-23.55.48-.55.67-4.43.78-6.75.25-5,.47-7.93,2.25-8.48,26.58-8.28,31.75-6.36,33.28-3.76,4.23,7.22,41.74,94.33,34.54,101.77C416.42,274.92,328.5,303.29,308.84,303.3ZM286,213.17c-3.1,1.25-5,4.57-5.51,9.86-2.49,23.76,20.76,74.14,26.2,77.79,2.46,1.65,21.18-1.68,57.47-12.82,28.58-8.79,54.05-18.22,56.76-21,.59-.61,2.7-5.77-13.23-47.88-9.17-24.22-19.09-46.85-21.64-51.19-.71-1.21-5.13-3.18-30.66,4.77-.38.52-.56,4.23-.67,6.44-.25,5.2-.48,8.17-2.32,8.78-22.38,7.43-48.18,17.89-62,23.5Z"/><path class="cls-47" d="M292,228.14a1.12,1.12,0,0,1-1.08-.8c-.35-1.15-.26-2.89,2.1-4.62a20.17,20.17,0,0,1,5.72-2.61,1.13,1.13,0,0,1,1.45.67,1.14,1.14,0,0,1-.67,1.45l-.13,0a17,17,0,0,0-5,2.27c-1.05.76-1.48,1.49-1.28,2.14a1.14,1.14,0,0,1-.78,1.41,1,1,0,0,1-.3,0Z"/><path class="cls-47" d="M313.54,216.45a1.11,1.11,0,0,1-1.15-1.09,1.13,1.13,0,0,1,.66-1.05c.2-.1,20.85-10,37.38-12.78a1.13,1.13,0,1,1,.37,2.23c-16.21,2.74-36.57,12.48-36.77,12.58A1.24,1.24,0,0,1,313.54,216.45Z"/><path class="cls-68" d="M1642.09,538.07a8.58,8.58,0,0,0-6.64-2.29c-26.08,2.35-67-24.42-106.53-42.75a8.61,8.61,0,0,0-8.77.91c-35.36,26.43-94,31.9-114.33,33a8.57,8.57,0,0,0-8.06,7.69c-18.51,178.75,97.87,243.52,122,255a8.61,8.61,0,0,0,8.22-.47c120.3-74.94,115.15-172.38,116.82-244.59A8.66,8.66,0,0,0,1642.09,538.07Z"/><path class="cls-69" d="M1520.26,780a2.26,2.26,0,0,1-1.26-.39c-.33-.22-33.42-22.81-62.74-61.78-27.14-36.07-56.57-94-42.69-164.93a2.29,2.29,0,0,1,2.38-1.82,209.44,209.44,0,0,0,44.59-2.7c22-3.75,51.77-13,68.59-35.76a2.25,2.25,0,0,1,3.14-.49,2.46,2.46,0,0,1,.41.38c.3.36,30.41,36,54.15,44.6s40.9,4.88,41.08,4.84a2.27,2.27,0,0,1,2.69,1.75c0,.13,0,.27.05.4,0,1.36,2,137-109.09,215.48A2.26,2.26,0,0,1,1520.26,780Zm-102.6-224.29C1405,624.11,1433.51,680,1459.81,715a299.25,299.25,0,0,0,60.47,60c99.43-71.28,105.55-189.22,105.88-208.17-6,.76-21.25,1.59-40.83-5.45-21.7-7.82-47.24-35.8-54.26-43.83-14.29,17.78-38.36,30-69.84,35.32A215.52,215.52,0,0,1,1417.66,555.69Z"/><g class="cls-70"><path class="cls-15" d="M1557,701.18h-73.93c-6.12,0-10.61-3.89-10.92-9.47h0l-4-70.18a9.93,9.93,0,0,1,2.88-7.57,11.07,11.07,0,0,1,7.76-3.55l78.21-2.55a11.8,11.8,0,0,1,8.38,3.07c2.77,2.67,4.17,5.32,4.17,7.86V692C1569.62,698,1563.26,701.18,1557,701.18Zm-80.35-9.72c.22,3.84,3.59,5.21,6.42,5.21H1557c3.13,0,8.09-1.28,8.09-4.71V618.79c0-1.24-1-2.88-2.79-4.62a7.46,7.46,0,0,0-5.1-1.8L1479,614.92a6.53,6.53,0,0,0-4.58,2.09,5.41,5.41,0,0,0-1.71,4.27Z"/><path class="cls-15" d="M1488.32,614.61a2.25,2.25,0,0,1-2.23-1.93c-2.51-17.08-.1-30.54,7.15-40a32,32,0,0,1,20-12.19c20.57-2.41,36.09,9.76,40.48,31.73v.27l1.35,17.58a2.26,2.26,0,0,1-2.07,2.42h0a2.27,2.27,0,0,1-2.42-2.08L1549.33,593c-4-19.67-17.26-30.14-35.5-28a27.9,27.9,0,0,0-17.06,10.53c-6.44,8.45-8.53,20.74-6.22,36.53a2.26,2.26,0,0,1-1.9,2.56h-.33Z"/><path class="cls-15" d="M1501.11,614.61a2.24,2.24,0,0,1-2.22-1.91c-.12-.75-2.73-18.56,5.85-28.55,3.71-4.33,8.9-6.52,15.42-6.52,6.7,0,11.93,2.21,15.52,6.59,7.93,9.64,4.77,26.24,4.64,26.94a2.26,2.26,0,0,1-4.48-.65,1.42,1.42,0,0,1,.05-.22c0-.15,2.87-15.23-3.7-23.22-2.74-3.32-6.67-4.93-12-4.93s-9.13,1.61-12,4.94c-7.23,8.41-4.85,24.77-4.82,24.94a2.26,2.26,0,0,1-1.89,2.57Z"/><path class="cls-15" d="M1518.94,687.64h-.68c-4.16,0-7.3-3.52-7.3-8.19V650.76c-5.36-2.63-8.77-7.38-8.77-12.35,0-7.92,7.72-14.36,17.21-14.36s17.18,6.44,17.18,14.36c0,6.2-3.55,10.87-9.83,13v28a8,8,0,0,1-7.77,8.23Zm-5.49-40.7a2.27,2.27,0,0,1,2,2.23v30.28c0,1.77.87,3.68,2.79,3.68h.67a3.52,3.52,0,0,0,3.3-3.68v-29.7a2.28,2.28,0,0,1,1.71-2.19c5.32-1.35,8.13-4.51,8.13-9.15,0-5.43-5.68-9.85-12.67-9.85s-12.69,4.42-12.69,9.85c0,3.38,2.66,6.7,6.76,8.57Z"/></g></g></g></g></svg>