<?xml version="1.0" encoding="utf-8"?>
<!-- Generator: Adobe Illustrator 26.0.1, SVG Export Plug-In . SVG Version: 6.00 Build 0)  -->
<svg version="1.1" id="OBJECTS" xmlns="http://www.w3.org/2000/svg" xmlns:xlink="http://www.w3.org/1999/xlink" x="0px" y="0px"
	 viewBox="0 0 500 500" style="enable-background:new 0 0 500 500;" xml:space="preserve">
<style type="text/css">
	.st0{fill:#D3E8EE;}
	.st1{fill:#0172D2;}
	.st2{fill:#0056C7;}
	.st3{fill:#0036AF;}
	.st4{fill:#FC5F2D;}
	.st5{fill:#FF8B54;}
	.st6{fill:#0C375A;}
	.st7{fill:#FFFFFF;}
	.st8{fill:#FFAA95;}
	.st9{fill:#001030;}
	.st10{opacity:0.3;fill:#FFFFFF;}
	.st11{fill:#FF8B6B;}
	.st12{fill:#00607F;}
	.st13{fill:#D85C48;}
	.st14{fill:#D53E2F;}
	.st15{opacity:0.5;fill:#FFFFFF;}
</style>
<path class="st0" d="M470.69,430.07c0,5.88-90.92,10.66-203.07,10.66c-112.15,0-203.07-4.77-203.07-10.66s90.92-10.66,203.07-10.66
	C379.77,419.42,470.69,424.19,470.69,430.07z"/>
<g>
	<g>
		<path class="st0" d="M228.52,148.89c-15.21-55.17-83.74-72.94-123.02-31.71c-0.56,0.59-1.13,1.19-1.69,1.81
			c-56.31,61.21-29.71,212.04,87.8,250.27c117.51,38.23,239.74-31.58,246.61-93.99c6.87-62.41-47.35-82.02-131.48-64.57
			C259.21,220.56,237.99,183.23,228.52,148.89z"/>
		<path class="st0" d="M363.12,363.14c-13.85,7.86-13.1,22.44,1.71,27.49c4.9,1.67,11.21,2.22,19.34,0.66
			c30.95-5.96,41.65-24.6,23.76-37C396.89,346.64,376.85,355.35,363.12,363.14z"/>
		<path class="st0" d="M410.22,336.68c-4.46,6.3-0.99,13.78,6.67,14.07c2.53,0.09,5.46-0.62,8.73-2.72
			c12.47-8.02,13.21-19.44,2.6-23.07C421.68,322.72,414.65,330.44,410.22,336.68z"/>
		<g>
			<path class="st0" d="M311.68,96.84l1.24-6.3l-5.9-1.16c0-1.55-0.27-3.11-0.78-4.61l4.86-3.27l-3.58-5.33l-4.65,3.13
				c-1.39-1.41-3.01-2.49-4.78-3.21l1.16-5.9l-6.3-1.24l-1.19,6.08c-1.29,0.07-2.58,0.32-3.83,0.75l-3.27-4.86l-5.33,3.58l3.13,4.65
				c-1.41,1.39-2.49,3.01-3.21,4.78l-5.16-1.01l-1.24,6.3l5.34,1.05c0.09,1.65,0.46,3.29,1.13,4.86l-4.65,3.13l3.58,5.33l4.86-3.27
				c1.39,1.22,2.99,2.13,4.69,2.73l-1.17,5.94l6.3,1.24l1.26-6.43c1.38-0.15,2.76-0.51,4.08-1.08l3.13,4.65l5.33-3.58l-3.27-4.86
				c0.87-1,1.58-2.1,2.14-3.27L311.68,96.84z M295.87,94.32c-2.69,1.81-6.35,1.09-8.16-1.6c-1.81-2.69-1.09-6.35,1.6-8.16
				c2.69-1.81,6.35-1.09,8.16,1.6C299.28,88.85,298.56,92.51,295.87,94.32z"/>
			<path class="st0" d="M267.02,67.25l0.68-3.44l-3.22-0.63c0-0.85-0.15-1.7-0.43-2.52l2.66-1.78l-1.96-2.91l-2.54,1.71
				c-0.76-0.77-1.65-1.36-2.61-1.76l0.63-3.23l-3.44-0.68l-0.65,3.32c-0.71,0.04-1.41,0.17-2.09,0.41l-1.78-2.66l-2.91,1.96
				l1.71,2.54c-0.77,0.76-1.36,1.65-1.76,2.61l-2.82-0.55l-0.68,3.44l2.92,0.57c0.05,0.9,0.25,1.8,0.62,2.66l-2.54,1.71l1.96,2.91
				l2.66-1.78c0.76,0.66,1.63,1.16,2.56,1.49l-0.64,3.24l3.44,0.68l0.69-3.52c0.76-0.08,1.51-0.28,2.23-0.59l1.71,2.54l2.91-1.96
				l-1.78-2.66c0.48-0.55,0.87-1.15,1.17-1.78L267.02,67.25z M258.38,65.87c-1.47,0.99-3.47,0.6-4.46-0.88
				c-0.99-1.47-0.6-3.47,0.88-4.46c1.47-0.99,3.47-0.6,4.46,0.88C260.24,62.88,259.85,64.88,258.38,65.87z"/>
		</g>
		<g>
			<path class="st0" d="M110.18,376.25l-0.21-6.41l-6.01,0.2c-0.35-1.51-0.96-2.96-1.8-4.32l4-4.28l-4.69-4.39l-3.83,4.09
				c-1.67-1.06-3.5-1.75-5.38-2.06l-0.2-6.01l-6.41,0.21l0.21,6.19c-1.24,0.36-2.44,0.89-3.57,1.59l-4.28-4l-4.39,4.69l4.09,3.83
				c-1.06,1.67-1.75,3.5-2.06,5.38l-5.25,0.17l0.21,6.41l5.44-0.18c0.46,1.59,1.19,3.1,2.2,4.48l-3.83,4.09l4.69,4.39l4-4.28
				c1.63,0.87,3.39,1.4,5.18,1.6l0.2,6.05l6.41-0.21l-0.22-6.55c1.31-0.46,2.57-1.12,3.73-1.96l4.09,3.83l4.39-4.69l-4.28-4
				c0.62-1.17,1.07-2.4,1.35-3.66L110.18,376.25z M94.21,377.35c-2.22,2.37-5.95,2.49-8.31,0.28c-2.37-2.22-2.49-5.95-0.28-8.31
				c2.22-2.37,5.95-2.49,8.31-0.28C96.3,371.25,96.42,374.98,94.21,377.35z"/>
			<path class="st0" d="M187.7,390.53l-0.12-3.51l-3.28,0.11c-0.19-0.83-0.52-1.62-0.98-2.36l2.19-2.34l-2.56-2.4l-2.09,2.24
				c-0.91-0.58-1.91-0.95-2.94-1.12l-0.11-3.28l-3.51,0.12l0.11,3.39c-0.68,0.2-1.33,0.49-1.95,0.87l-2.34-2.19l-2.4,2.56l2.24,2.09
				c-0.58,0.91-0.95,1.91-1.12,2.94l-2.87,0.09l0.12,3.51l2.97-0.1c0.25,0.87,0.65,1.7,1.2,2.45l-2.09,2.24l2.56,2.4l2.19-2.34
				c0.89,0.48,1.85,0.77,2.83,0.87l0.11,3.3l3.51-0.12l-0.12-3.58c0.72-0.25,1.41-0.61,2.04-1.07l2.24,2.09l2.4-2.56l-2.34-2.19
				c0.34-0.64,0.59-1.31,0.74-2L187.7,390.53z M178.97,391.13c-1.21,1.29-3.25,1.36-4.54,0.15c-1.29-1.21-1.36-3.25-0.15-4.54
				c1.21-1.29,3.25-1.36,4.54-0.15C180.11,387.8,180.18,389.83,178.97,391.13z"/>
		</g>
	</g>
</g>
<g>
	<g>
		<g>
			<g>
				<path class="st0" d="M204.76,74.3c-0.12,0.03-0.25,0.03-0.38,0c-1.35-0.36-2.14-0.5-2.15-0.5c-0.41-0.07-0.68-0.47-0.61-0.88
					c0.07-0.41,0.47-0.68,0.88-0.61c0.03,0.01,0.84,0.15,2.26,0.53c0.4,0.11,0.64,0.52,0.54,0.92
					C205.23,74.04,205.01,74.24,204.76,74.3z"/>
			</g>
			<g>
				<path class="st0" d="M248.59,108.88c0.7,1.28,1.38,2.61,2.01,3.95c0.16,0.33,0.52,0.5,0.87,0.41c0.05-0.01,0.09-0.03,0.14-0.05
					c0.38-0.18,0.54-0.63,0.36-1c-0.65-1.37-1.34-2.72-2.05-4.03c-0.2-0.36-0.66-0.5-1.02-0.3
					C248.52,108.05,248.39,108.51,248.59,108.88z"/>
				<path class="st0" d="M252.37,116.89c0.54,1.35,1.06,2.75,1.54,4.16c0.13,0.38,0.52,0.59,0.9,0.49c0.02,0,0.04-0.01,0.06-0.02
					c0.39-0.13,0.61-0.56,0.47-0.96c-0.49-1.43-1.01-2.86-1.57-4.24c-0.16-0.39-0.6-0.57-0.98-0.42
					C252.4,116.07,252.22,116.51,252.37,116.89z"/>
				<path class="st0" d="M258.77,138.99c0.36-0.09,0.61-0.44,0.56-0.83c-0.19-1.5-0.42-3-0.68-4.46c-0.07-0.41-0.46-0.68-0.87-0.61
					c-0.42,0.07-0.68,0.46-0.61,0.87c0.25,1.44,0.48,2.92,0.67,4.4c0.05,0.41,0.43,0.71,0.84,0.65
					C258.71,139.01,258.74,139,258.77,138.99z"/>
				<path class="st0" d="M255.74,124.36c-0.4,0.11-0.64,0.53-0.52,0.93c0.18,0.66,0.36,1.33,0.53,1.99
					c0.19,0.76,0.38,1.54,0.55,2.31c0.09,0.41,0.49,0.66,0.9,0.57c0.01,0,0.01,0,0.02,0c0.39-0.1,0.64-0.5,0.55-0.9
					c-0.18-0.79-0.37-1.58-0.56-2.35c-0.17-0.67-0.35-1.35-0.54-2.03c-0.11-0.4-0.52-0.63-0.91-0.53
					C255.75,124.36,255.74,124.36,255.74,124.36z"/>
				<path class="st0" d="M246.34,105.06c0.18,0.28,0.51,0.41,0.82,0.33c0.07-0.02,0.15-0.05,0.22-0.09
					c0.35-0.22,0.46-0.69,0.23-1.04c-0.8-1.27-1.66-2.53-2.54-3.75c-0.24-0.34-0.72-0.41-1.05-0.17c-0.34,0.24-0.41,0.72-0.17,1.05
					C244.71,102.58,245.55,103.82,246.34,105.06z"/>
				<path class="st0" d="M208.62,75.58c1.38,0.47,2.77,1,4.15,1.57c0.16,0.06,0.32,0.07,0.47,0.03c0.22-0.06,0.42-0.21,0.51-0.44
					c0.16-0.39-0.02-0.83-0.41-0.99c-1.41-0.58-2.83-1.12-4.24-1.6c-0.39-0.13-0.82,0.08-0.96,0.47
					C208.01,75.02,208.22,75.45,208.62,75.58z"/>
				<path class="st0" d="M220.76,81.01c0.18,0.1,0.37,0.12,0.55,0.07c0.19-0.05,0.37-0.18,0.47-0.36c0.2-0.36,0.07-0.82-0.29-1.03
					c-1.31-0.73-2.66-1.44-4.02-2.09c-0.38-0.18-0.83-0.02-1.01,0.35c-0.18,0.38-0.02,0.83,0.35,1.01
					C218.15,79.61,219.47,80.3,220.76,81.01z"/>
				<path class="st0" d="M235.07,91.43c0.19,0.18,0.46,0.24,0.7,0.18c0.14-0.03,0.26-0.11,0.36-0.22c0.28-0.3,0.27-0.78-0.04-1.07
					c-1.09-1.03-2.24-2.03-3.4-2.99c-0.32-0.27-0.8-0.22-1.06,0.1c-0.27,0.32-0.22,0.8,0.1,1.06
					C232.87,89.45,233.99,90.43,235.07,91.43z"/>
				<path class="st0" d="M228.23,85.79c0.19,0.14,0.42,0.17,0.63,0.12c0.16-0.04,0.32-0.14,0.42-0.29c0.24-0.34,0.17-0.81-0.17-1.05
					c-1.21-0.88-2.47-1.74-3.74-2.55c-0.35-0.22-0.82-0.12-1.04,0.23c-0.22,0.35-0.12,0.82,0.23,1.04
					C225.81,84.09,227.05,84.93,228.23,85.79z"/>
				<path class="st0" d="M241.14,97.89c0.19,0.23,0.49,0.32,0.77,0.25c0.11-0.03,0.21-0.08,0.3-0.15c0.32-0.27,0.37-0.74,0.1-1.06
					c-0.96-1.16-1.97-2.3-3-3.4c-0.29-0.3-0.76-0.32-1.07-0.03c-0.3,0.29-0.32,0.76-0.03,1.07
					C239.21,95.64,240.2,96.75,241.14,97.89z"/>
			</g>
		</g>
		<g>
			<g>
				<polygon class="st1" points="204.01,69.19 205.53,56.62 165.53,62.73 				"/>
				<polygon class="st2" points="165.53,62.73 202.48,72.4 202.58,72.42 204.44,74.69 204.01,69.19 				"/>
				<polygon class="st3" points="204.44,74.69 201.12,74.64 202.58,72.42 				"/>
				<polygon class="st1" points="197.93,71.2 202.58,72.42 195.02,83.89 165.53,62.73 				"/>
			</g>
		</g>
	</g>
	<g>
		<g>
			<rect x="350.8" y="85.74" class="st4" width="35.65" height="24.63"/>
			<polygon class="st5" points="350.8,85.74 368.62,98.06 386.45,85.74 			"/>
		</g>
		<g>
			<g>
				<path class="st0" d="M345.03,91.39h-11.49c-0.42,0-0.76-0.34-0.76-0.76c0-0.42,0.34-0.76,0.76-0.76h11.49
					c0.42,0,0.76,0.34,0.76,0.76C345.78,91.05,345.44,91.39,345.03,91.39z"/>
			</g>
			<g>
				<path class="st0" d="M345.03,98.81h-11.49c-0.42,0-0.76-0.34-0.76-0.76c0-0.42,0.34-0.76,0.76-0.76h11.49
					c0.42,0,0.76,0.34,0.76,0.76C345.78,98.48,345.44,98.81,345.03,98.81z"/>
			</g>
			<g>
				<path class="st0" d="M345.03,106.24h-11.49c-0.42,0-0.76-0.34-0.76-0.76s0.34-0.76,0.76-0.76h11.49c0.42,0,0.76,0.34,0.76,0.76
					S345.44,106.24,345.03,106.24z"/>
			</g>
		</g>
	</g>
</g>
<g>
	<g>
		<path class="st2" d="M466.32,228.12c-12.26,7.81-22.49-1.63-29.68,7.11c-7.19,8.74-18.18,10.57-24.2,2.6
			c-6.02-7.97-10.01-14.17-20.75-8.59c-10.74,5.58-25.16,0.52-23.59-9.88c0.39-2.59,0.82-5.39,1.24-8.14
			c0.12-0.75,0.23-1.5,0.34-2.23c0.03-0.17,0.05-0.34,0.08-0.51c1.7-11.05,11.39-19.22,22.55-18.69c4.52,0.22,8.76,1.81,11.47,6.05
			c8.5,13.25,14.34-1.79,25.34-0.75c12.68,1.2,13.9,13.35,23.4,13.24C465.73,208.16,478.58,220.3,466.32,228.12z"/>
		<g>
			<path class="st3" d="M448.76,220.86l-79.43-9.64c0.12-0.75,0.23-1.5,0.34-2.23l79.35,9.63c0.62,0.08,1.06,0.64,0.99,1.26
				C449.94,220.5,449.38,220.94,448.76,220.86z"/>
		</g>
	</g>
	<g>
		<path class="st2" d="M31.11,335.99c10.64,7.18,19.88-0.92,26.02,6.96c6.14,7.88,15.8,9.75,21.29,2.86
			c5.5-6.89,9.16-12.27,18.51-7.1c9.34,5.17,22.19,1.04,21.04-8.17c-0.28-2.29-0.59-4.77-0.9-7.21c-0.08-0.66-0.17-1.33-0.25-1.98
			c-0.02-0.15-0.04-0.3-0.06-0.45c-1.24-9.78-9.6-17.23-19.46-17.02c-3.99,0.09-7.77,1.4-10.26,5.07
			c-7.81,11.49-12.61-1.91-22.34-1.25c-11.21,0.76-12.58,11.45-20.95,11.13C32.08,318.39,20.47,328.81,31.11,335.99z"/>
		<g>
			<g>
				<path class="st3" d="M46.76,329.99l70.3-6.66c-0.08-0.66-0.17-1.33-0.25-1.98l-70.24,6.65c-0.55,0.05-0.95,0.54-0.9,1.09
					C45.73,329.64,46.22,330.05,46.76,329.99z"/>
			</g>
		</g>
	</g>
	<g>
		<path class="st2" d="M98.11,155.48l-2.3,0.05l-1.22,0.02l-3.46,0.07c0,0-35.16-52.28-16.22-71.15
			c5.83-5.81,16.86-1.94,15.98,23.21C90.06,130.98,98.11,155.48,98.11,155.48z"/>
		<g>
			<path class="st3" d="M95.8,155.52l-1.22,0.02c-6.36-12.8-10.01-26.73-12-36.55c-2.36-11.66-2.95-20.19-2.95-20.27
				c-0.02-0.3,0.21-0.57,0.51-0.59c0.3-0.02,0.57,0.21,0.59,0.51c0.01,0.09,0.59,8.56,2.94,20.15
				C85.67,128.66,89.36,142.71,95.8,155.52z"/>
		</g>
	</g>
	<g>
		<path class="st1" d="M109.33,158.28l-2.78,1.85l-1.47,0.98l-4.17,2.78c0,0-83.65-36.39-75.24-74.17
			c2.59-11.63,19.06-15.51,37.58,15.86C80.42,134.67,109.33,158.28,109.33,158.28z"/>
		<g>
			<path class="st2" d="M106.56,160.14l-1.47,0.98c-17.73-10.66-33.05-24.81-43.13-35.24c-11.97-12.38-19.33-22.33-19.4-22.43
				c-0.26-0.36-0.19-0.86,0.17-1.12c0.36-0.26,0.86-0.19,1.12,0.17c0.07,0.1,7.39,9.98,19.28,22.29
				C73.25,135.26,88.71,149.53,106.56,160.14z"/>
		</g>
	</g>
	<g>
		<path class="st1" d="M20.95,269.27c4.14,13.93,18.06,13.5,17.76,24.81c-0.3,11.31,6.81,19.9,16.58,17.82
			c9.77-2.07,16.85-4.15,21.3,7.1c4.46,11.25,18.67,16.88,24.29,7.99c1.4-2.21,2.92-4.61,4.4-6.96c0.4-0.64,0.81-1.28,1.2-1.91
			c0.09-0.15,0.19-0.29,0.28-0.44c5.96-9.46,3.99-21.99-4.79-28.9c-3.55-2.8-7.81-4.37-12.63-2.95
			c-15.1,4.44-9.66-10.75-18.66-17.17c-10.36-7.4-19.25,0.98-26.35-5.33C34.46,254.58,16.8,255.34,20.95,269.27z"/>
		<g>
			<path class="st2" d="M38.96,275.3l66.32,44.75c0.4-0.64,0.81-1.28,1.2-1.91l-66.26-44.71c-0.52-0.35-1.22-0.21-1.57,0.3
				C38.31,274.25,38.45,274.95,38.96,275.3z"/>
		</g>
	</g>
	<g>
		<path class="st1" d="M472.08,152.29c-3.14,14.19-17.05,14.75-15.95,26.01c1.1,11.26-5.38,20.33-15.27,18.96
			c-9.89-1.37-17.1-2.94-20.74,8.6c-3.64,11.54-17.42,18.16-23.66,9.7c-1.56-2.1-3.24-4.39-4.88-6.63c-0.45-0.61-0.9-1.22-1.34-1.82
			c-0.1-0.14-0.21-0.28-0.31-0.42c-6.61-9.01-5.55-21.65,2.72-29.17c3.35-3.04,7.48-4.92,12.39-3.84
			c15.38,3.35,8.87-11.41,17.38-18.46c9.81-8.12,19.27-0.4,25.9-7.19C457.56,138.59,475.22,138.09,472.08,152.29z"/>
		<g>
			<g>
				<path class="st2" d="M454.54,159.58l-62.96,49.37c-0.45-0.61-0.9-1.22-1.34-1.82l62.91-49.32c0.49-0.38,1.2-0.3,1.59,0.19
					C455.12,158.48,455.03,159.19,454.54,159.58z"/>
			</g>
		</g>
	</g>
</g>
<path class="st4" d="M129.7,176.06c0,0,1.27,3.88,5.22,3.96c3.96,0.08,0-4.91,0-4.91s2.9,3.54,4.62,3.01
	c1.73-0.54-3.55-5.34-6.01-5.42C131.09,172.62,129.7,176.06,129.7,176.06z"/>
<g>
	<g>
		<path class="st6" d="M415.35,127.02v210c0,3.51-2.85,6.36-6.36,6.36H90.21c-3.51,0-6.36-2.85-6.36-6.36v-210
			c0-3.51,2.85-6.36,6.36-6.36h318.78C412.5,120.66,415.35,123.51,415.35,127.02z"/>
		<path class="st7" d="M406.56,136.02v192c0,3.57-2.89,6.46-6.46,6.46H99.09c-0.79,0-1.54-0.14-2.24-0.41
			c-2.46-0.9-4.21-3.27-4.21-6.05v-192c0-3.57,2.89-6.46,6.45-6.46H400.1c0.86,0,1.69,0.17,2.44,0.48
			C404.9,131,406.56,133.32,406.56,136.02z"/>
		<g>
			<path class="st0" d="M406.56,136.02v9.56H92.64v-9.56c0-3.57,2.89-6.46,6.46-6.46H400.1
				C403.67,129.56,406.56,132.45,406.56,136.02z"/>
			<g>
				<path class="st8" d="M381.93,137.57c0,1.73-1.4,3.14-3.14,3.14c-1.73,0-3.14-1.4-3.14-3.14c0-1.73,1.4-3.14,3.14-3.14
					C380.53,134.43,381.93,135.84,381.93,137.57z"/>
				<path class="st1" d="M370.33,137.57c0,1.73-1.4,3.14-3.14,3.14s-3.14-1.4-3.14-3.14c0-1.73,1.4-3.14,3.14-3.14
					S370.33,135.84,370.33,137.57z"/>
				<path class="st4" d="M393.53,137.57c0,1.73-1.4,3.14-3.14,3.14c-1.73,0-3.14-1.4-3.14-3.14c0-1.73,1.4-3.14,3.14-3.14
					C392.13,134.43,393.53,135.84,393.53,137.57z"/>
			</g>
		</g>
	</g>
	<rect x="226.99" y="343.38" class="st9" width="49.43" height="70.4"/>
	<path class="st6" d="M308.27,426.46H201.02v-1.5c0-7.51,6.09-13.61,13.61-13.61h80.03c7.51,0,13.61,6.09,13.61,13.61V426.46z"/>
	<g>
		<path class="st9" d="M353.16,347.22h-12.92c-1.91,0-3.46-1.55-3.46-3.46v-0.38h19.83v0.38
			C356.62,345.67,355.07,347.22,353.16,347.22z"/>
		<path class="st9" d="M383.58,347.22h-12.92c-1.91,0-3.46-1.55-3.46-3.46v-0.38h19.83v0.38
			C387.04,345.67,385.49,347.22,383.58,347.22z"/>
		<path class="st9" d="M322.74,347.22h-12.92c-1.91,0-3.46-1.55-3.46-3.46v-0.38h19.83v0.38
			C326.2,345.67,324.65,347.22,322.74,347.22z"/>
	</g>
	<g>
		<g>
			<path class="st0" d="M357.59,180.99L357.59,180.99c0,5.89-4.77,10.66-10.66,10.66H162.07c-5.89,0-10.66-4.77-10.66-10.66l0,0
				c0-5.89,4.77-10.66,10.66-10.66h184.85C352.81,170.33,357.59,175.11,357.59,180.99z"/>
			<path class="st1" d="M346.93,170.33h-29.3v21.33h29.3c5.89,0,10.66-4.77,10.66-10.66l0,0
				C357.59,175.11,352.81,170.33,346.93,170.33z"/>
			<g>
				<g>
					<path class="st7" d="M339.48,183.1c-2.04-1.88-2.16-5.06-0.28-7.1c1.88-2.03,5.06-2.16,7.1-0.28c2.04,1.88,2.16,5.06,0.28,7.1
						C344.7,184.85,341.51,184.98,339.48,183.1z M345.17,176.94c-1.36-1.26-3.5-1.17-4.76,0.19c-1.26,1.36-1.17,3.5,0.19,4.76
						c1.36,1.26,3.5,1.17,4.76-0.19C346.61,180.33,346.53,178.2,345.17,176.94z"/>
				</g>
				<g>
					<path class="st7" d="M333.93,189.11c-0.34-0.31-0.36-0.83-0.05-1.17l5.55-6.01c0.31-0.34,0.83-0.36,1.17-0.05
						c0.34,0.31,0.36,0.83,0.05,1.17l-5.55,6.01C334.79,189.4,334.26,189.42,333.93,189.11z"/>
				</g>
			</g>
		</g>
		<g>
			<path class="st0" d="M151.41,217.15L151.41,217.15c0,2.48,2.01,4.49,4.49,4.49H353.1c2.48,0,4.49-2.01,4.49-4.49l0,0
				c0-2.48-2.01-4.49-4.49-4.49H155.89C153.42,212.66,151.41,214.67,151.41,217.15z"/>
			<path class="st0" d="M151.41,236.58L151.41,236.58c0,2.48,2.01,4.49,4.49,4.49H353.1c2.48,0,4.49-2.01,4.49-4.49l0,0
				c0-2.48-2.01-4.49-4.49-4.49H155.89C153.42,232.09,151.41,234.1,151.41,236.58z"/>
			<path class="st0" d="M151.41,256.01L151.41,256.01c0,2.48,2.01,4.49,4.49,4.49H353.1c2.48,0,4.49-2.01,4.49-4.49l0,0
				c0-2.48-2.01-4.49-4.49-4.49H155.89C153.42,251.53,151.41,253.53,151.41,256.01z"/>
		</g>
		<path class="st0" d="M349.6,313.01h-18.51c-4.41,0-7.99-3.58-7.99-7.99v-18.51c0-4.41,3.58-7.99,7.99-7.99h18.51
			c4.41,0,7.99,3.58,7.99,7.99v18.51C357.59,309.43,354.01,313.01,349.6,313.01z"/>
		<path class="st0" d="M308.3,313.01h-18.51c-4.41,0-7.99-3.58-7.99-7.99v-18.51c0-4.41,3.58-7.99,7.99-7.99h18.51
			c4.41,0,7.99,3.58,7.99,7.99v18.51C316.28,309.43,312.71,313.01,308.3,313.01z"/>
		<path class="st0" d="M219.45,313.01h-18.51c-4.41,0-7.99-3.58-7.99-7.99v-18.51c0-4.41,3.58-7.99,7.99-7.99h18.51
			c4.41,0,7.99,3.58,7.99,7.99v18.51C227.43,309.43,223.86,313.01,219.45,313.01z"/>
		<path class="st0" d="M178.14,313.01h-18.51c-4.41,0-7.99-3.58-7.99-7.99v-18.51c0-4.41,3.58-7.99,7.99-7.99h18.51
			c4.41,0,7.99,3.58,7.99,7.99v18.51C186.13,309.43,182.55,313.01,178.14,313.01z"/>
	</g>
	<path class="st10" d="M406.56,136.02v192c0,3.57-2.89,6.46-6.46,6.46H99.09c-0.79,0-1.54-0.14-2.24-0.41l305.69-204.03
		C404.9,131,406.56,133.32,406.56,136.02z"/>
</g>
<g>
	<g>
		<g>
			<path class="st8" d="M227.72,196.55l2.02,6.17c-6.36,3.73-22.41,12.5-29.56,15.13c-2.12,0.78-5.1,1.75-8.48,2.8
				c-1.29,0.4-2.64,0.81-4.02,1.23c-1.19,0.36-2.41,0.72-3.64,1.08c-0.05,0.02-0.11,0.03-0.16,0.05c-1.63,0.19-3.7,0.42-6.04,0.66
				l0.02-9.83l3.86-1.07l2.27-0.63l3.21-0.89l7.02-1.94C199.48,206.08,222.36,199.38,227.72,196.55z"/>
			<g>
				<path class="st8" d="M236.76,192.81c0.17-0.07,2.28-0.84,2.89,0.03c0.65,0.91-0.1,1.83-0.1,1.83s1.54,0.87,1.58,1.77
					c0.04,0.9-0.7,1.51-0.7,1.51s0.99,0.49,0.96,1.34c-0.03,0.85-1.2,2.09-2.93,2.55c-1.54,0.4-2.3,0.08-2.45,0
					c-0.02-0.01-0.03-0.02-0.03-0.02s-0.29,0.11-0.78,0.27c-0.83,0.28-2.26,0.72-3.94,1.09c-2.67,0.6-5.98-3.08-6.22-5.45
					c0,0,0.98-3.18,2.1-5.01c1.12-1.83,1.94-2.26,3.3-2.08c1.36,0.18,2.69,0.64,2.99,0.58c0.29-0.05,7.23-3.65,8.82-3.19
					C243.83,188.49,237.06,192.62,236.76,192.81z"/>
				<g>
					<g>
						<path class="st11" d="M229.25,196c-0.06,0-0.12-0.01-0.18-0.05c-0.18-0.1-0.25-0.33-0.15-0.51l0.84-1.56
							c0.05-0.09,0.14-0.16,0.24-0.19c0.1-0.03,0.21-0.01,0.3,0.05c0.02,0.01,1.74,1.12,3.32,0.73c0.48-0.12,0.81-0.32,0.94-0.58
							c0.15-0.29,0.02-0.61,0.02-0.61c-0.08-0.19,0.01-0.41,0.2-0.49c0.19-0.08,0.41,0.01,0.49,0.2c0.03,0.06,0.26,0.63-0.04,1.23
							c-0.23,0.47-0.72,0.81-1.44,0.99c-1.45,0.36-2.9-0.27-3.56-0.62l-0.66,1.21C229.51,195.93,229.38,196,229.25,196z"/>
					</g>
					<g>
						<path class="st11" d="M236.03,201.84c-0.02-0.01-0.03-0.02-0.03-0.02s-0.29,0.11-0.78,0.27c-0.66-0.78-0.71-1.72-0.75-2.5
							c-0.04-0.68-0.07-1.28-0.43-1.71c-0.37-0.44-0.52-0.94-0.55-1.41c-0.03-0.45,0.05-0.89,0.16-1.24
							c0.04-0.13,0.08-0.25,0.13-0.36c0.11-0.27,0.21-0.45,0.23-0.47c0.11-0.18,0.34-0.24,0.52-0.13c0.18,0.11,0.24,0.34,0.13,0.52
							c0,0-0.02,0.03-0.04,0.08c-0.11,0.21-0.37,0.78-0.37,1.41c0,0.38,0.1,0.77,0.38,1.11c0.52,0.62,0.57,1.4,0.61,2.15
							C235.27,200.4,235.31,201.21,236.03,201.84z"/>
					</g>
					<g>
						<path class="st11" d="M230.77,199.03c-0.14,0-0.28-0.08-0.34-0.22c-0.09-0.19-0.01-0.41,0.18-0.5l0,0
							c0.02-0.01,2.27-1.1,2.49-3.24c0.02-0.21,0.21-0.36,0.42-0.34c0.21,0.02,0.36,0.21,0.34,0.42c-0.27,2.57-2.81,3.79-2.92,3.84
							C230.88,199.02,230.83,199.03,230.77,199.03z"/>
					</g>
				</g>
			</g>
			<path class="st11" d="M184.03,222.97c2.66-0.79,5.26-1.57,7.66-2.31c-0.47-4.46-2.67-7.55-4.5-9.4l-5.48,1.52L184.03,222.97z"/>
			<path class="st1" d="M185.39,224.71c0,0-7.72,3.14-15.14,3.84c-2.59,0.25-5.14,0.19-7.31-0.39l-1.32-2.43l-7.45-13.69
				c0,0,17.52,3.51,28.89-0.53C183.06,211.51,185.56,218.58,185.39,224.71z"/>
			<path class="st2" d="M170.26,228.56c-2.59,0.25-5.14,0.19-7.31-0.39l-1.32-2.43c0.28-1.22,0.98-2.22,2.36-2.76
				C163.98,222.97,165.73,226.53,170.26,228.56z"/>
		</g>
		<g>
			<path class="st8" d="M112.27,399.44l-5.81,7.77c0,0,1.06,3.48,5.37,6.15l6.95-8.94L112.27,399.44z"/>
			<g>
				<path class="st4" d="M110.86,410.96c0,0,2.72-0.59,3.65,0.35c0.93,0.94,3.26,13.73,5.45,16.53c2.18,2.8-0.01,4.28-1.36,4.85
					c-1.34,0.57-20.61-18.68-20.61-18.68s4.76-6.58,7.06-7.86C107.34,404.88,108.42,409.61,110.86,410.96z"/>
				<g>
					<g>
						<g>
							<path class="st7" d="M111.38,418.91c-0.12-0.05-0.21-0.15-0.26-0.28c-0.09-0.25,0.05-0.53,0.3-0.62
								c0.09-0.03,2.1-0.72,3.66-0.32c2.07,0.53,2.48,2.32,2.5,2.4c0.06,0.26-0.11,0.52-0.37,0.58c-0.26,0.06-0.52-0.11-0.58-0.37
								c-0.01-0.05-0.31-1.28-1.78-1.66c-1.27-0.33-3.08,0.29-3.09,0.3C111.61,418.97,111.49,418.97,111.38,418.91z"/>
						</g>
					</g>
					<g>
						<path class="st7" d="M111.18,416.92c-0.12-0.05-0.21-0.15-0.26-0.28c-0.09-0.25,0.05-0.53,0.3-0.62
							c0.09-0.03,2.1-0.72,3.66-0.32c2.07,0.53,2.48,2.32,2.5,2.4c0.06,0.26-0.11,0.52-0.37,0.58c-0.26,0.06-0.52-0.11-0.58-0.37
							c-0.01-0.05-0.31-1.28-1.78-1.66c-1.27-0.33-3.08,0.29-3.09,0.3C111.42,416.98,111.3,416.97,111.18,416.92z"/>
					</g>
					<g>
						<path class="st7" d="M112.13,421.05c-0.12-0.05-0.21-0.15-0.26-0.28c-0.09-0.25,0.05-0.53,0.3-0.62
							c0.09-0.03,2.1-0.72,3.66-0.32c2.07,0.53,2.48,2.32,2.5,2.4c0.06,0.26-0.11,0.52-0.37,0.58c-0.26,0.06-0.52-0.11-0.58-0.37
							c-0.01-0.05-0.31-1.28-1.78-1.66c-1.27-0.33-3.08,0.29-3.09,0.3C112.37,421.11,112.24,421.1,112.13,421.05z"/>
					</g>
				</g>
			</g>
		</g>
		<g>
			<path class="st8" d="M147.92,412.79l0.88,9.67c0,0,3.11,1.87,8.1,0.98l-0.82-11.3L147.92,412.79z"/>
			<g>
				<path class="st4" d="M155.14,422.08c0,0,1.7-2.35,3.08-2.27c1.38,0.08,12.12,8.37,15.77,9.02c3.65,0.65,2.98,3.33,2.33,4.71
					c-0.65,1.38-28.89,0.59-28.89,0.59s-1.04-9.12-0.15-11.71C148.17,419.82,152.31,422.74,155.14,422.08z"/>
				<g>
					<g>
						<path class="st7" d="M161.1,427.89c-0.13,0.04-0.27,0.03-0.4-0.04c-0.25-0.14-0.34-0.45-0.2-0.69
							c0.05-0.08,1.13-2.03,2.61-2.8c1.98-1.03,3.54,0.07,3.61,0.12c0.23,0.16,0.28,0.48,0.12,0.71c-0.16,0.23-0.48,0.28-0.71,0.12
							c-0.04-0.03-1.13-0.77-2.54-0.04c-1.21,0.63-2.18,2.37-2.19,2.39C161.33,427.77,161.22,427.85,161.1,427.89z"/>
					</g>
					<g>
						<path class="st7" d="M159.56,426.48c-0.13,0.04-0.27,0.03-0.4-0.04c-0.25-0.14-0.34-0.45-0.2-0.69
							c0.05-0.08,1.13-2.03,2.61-2.8c1.98-1.03,3.54,0.07,3.61,0.12c0.23,0.16,0.28,0.48,0.12,0.71c-0.16,0.23-0.48,0.28-0.71,0.12
							c-0.04-0.03-1.13-0.77-2.54-0.04c-1.22,0.63-2.18,2.37-2.19,2.39C159.79,426.36,159.68,426.44,159.56,426.48z"/>
					</g>
					<g>
						<path class="st7" d="M163.17,429.03c-0.13,0.04-0.27,0.03-0.4-0.04c-0.25-0.14-0.34-0.45-0.2-0.69
							c0.05-0.08,1.13-2.03,2.61-2.8c1.98-1.03,3.54,0.07,3.61,0.12c0.23,0.16,0.28,0.48,0.12,0.71c-0.16,0.23-0.48,0.28-0.71,0.12
							c-0.04-0.03-1.14-0.77-2.54-0.04c-1.22,0.63-2.18,2.37-2.19,2.39C163.4,428.91,163.3,428.99,163.17,429.03z"/>
					</g>
				</g>
			</g>
		</g>
		<g>
			<path class="st9" d="M142.5,307.87l-5.87,48.58c0,0-5.27,7.15-10.29,16.29c-4.21,7.67-15.44,27.59-15.44,27.59l6.79,5.18
				l37.19-38.54l9.9-59.57L142.5,307.87z"/>
			<path class="st6" d="M119.37,405.38c-0.61,1.53-1.75,2.57-3.08,3.45l-7.89-6.66c0.66-1.4,1.57-2.61,2.69-3.65L119.37,405.38z"/>
		</g>
		<g>
			<path class="st6" d="M112.46,309.88c0,0,10.47,25.75,24.09,45.83c0,0,2.03,19.54,5.51,29.95c1.52,4.56,4.47,26.14,4.47,26.14
				l10.33-0.47l-2.66-60.01l-10.92-43.46L112.46,309.88z"/>
			<path class="st12" d="M157.82,410.97c0.66,1.79,0.48,3.57,0,5.36l-11.95,0.33c-0.51-1.72-0.66-3.46-0.49-5.22L157.82,410.97z"/>
		</g>
		<g>
			<g>
				<g>
					<g>
						<g>
							<path class="st1" d="M166.34,306.53c0,2.11,0,3.79-0.02,4.92c-5,1.35-10,2.32-15,2.92c-0.13,0.02-0.26,0.03-0.4,0.05
								c-0.22,0.03-0.44,0.05-0.67,0.08c-0.06,0.01-0.11,0.01-0.17,0.02c-0.87,0.1-1.73,0.18-2.6,0.25c-4.3,0.35-8.6,0.43-12.9,0.23
								c-0.38-0.02-0.75-0.04-1.13-0.06c-0.34-0.02-0.68-0.04-1.02-0.06c-0.15-0.01-0.31-0.02-0.46-0.03
								c-0.29-0.02-0.57-0.04-0.86-0.06c-6.32-0.51-12.63-1.62-18.95-3.33c-0.03-2.49-0.06-7.56-0.07-14.09c0-0.36,0-0.72,0-1.09
								c-0.01-7.21,0.02-16.06,0.11-25.17c0.01-0.72,0.02-1.44,0.03-2.16c0.01-0.83,0.02-1.68,0.03-2.52c0-0.14,0-0.29,0-0.43
								c0.01-0.2,0.01-0.39,0.01-0.59c0-0.4,0.01-0.79,0.02-1.19c0.01-0.58,0.02-1.15,0.03-1.73c0.01-0.44,0.01-0.87,0.02-1.31
								c0.01-0.87,0.03-1.74,0.04-2.6c0.31-18.09,0.92-34.71,2.08-38.94c0.11-0.39,0.22-0.68,0.34-0.85
								c0.12-0.19,0.28-0.38,0.45-0.58c0.22-0.25,0.47-0.5,0.75-0.76c1.94-1.78,5.3-3.85,8.71-5.82c0.4-0.23,0.8-0.46,1.19-0.68
								c0.06-0.03,9.26-3.14,9.32-3.17l9.62,0.67c1.16,0.68,10.26,3.77,11.38,4.47c0.33,0.21,0.66,0.41,0.98,0.62
								c2.62,1.69,4.84,3.37,5.81,4.79c1.4,2.06,2.25,20.53,2.74,40.62c0.01,0.46,0.02,0.93,0.04,1.39c0.05,2.13,0.1,4.26,0.14,6.4
								c0.04,2.11,0.08,4.21,0.12,6.3c0.06,3.42,0.11,6.78,0.15,10.02c0,0.37,0.01,0.73,0.01,1.1c0.04,3.16,0.07,6.19,0.09,9.02
								c0,0.37,0.01,0.74,0.01,1.1c0.03,4.25,0.05,8.01,0.06,11.03v0C166.34,305.74,166.34,306.14,166.34,306.53z"/>
						</g>
					</g>
				</g>
			</g>
			<g>
				<path class="st2" d="M121.74,243.18c0-0.48-0.61-0.69-0.9-0.31c-3.87,5.09-6.2,10.65-7.58,15.04c-0.35,1.13-0.66,2.22-0.92,3.26
					c0,0.44-0.01,0.87-0.02,1.31c-0.01,0.57-0.02,1.15-0.03,1.73c-0.01,0.39-0.01,0.79-0.02,1.19c0,0.2,0,0.4-0.01,0.59
					c0,0.14,0,0.29,0,0.43c0.36-2.2,0.97-5.07,1.96-8.23c1.35-4.3,3.64-9.73,7.42-14.7C121.71,243.4,121.74,243.29,121.74,243.18
					L121.74,243.18z"/>
			</g>
			<g>
				<path class="st2" d="M123.7,288.34C123.7,288.34,123.7,288.34,123.7,288.34c10.39-0.05,19.26-4.77,24.88-8.73
					c6.07-4.28,9.75-8.62,9.78-8.66c0.18-0.21,0.15-0.53-0.06-0.7c-0.21-0.18-0.53-0.15-0.7,0.06c-0.04,0.04-3.65,4.3-9.62,8.51
					c-5.49,3.87-14.16,8.49-24.28,8.53c-0.28,0-0.5,0.23-0.5,0.5C123.2,288.12,123.42,288.34,123.7,288.34z"/>
			</g>
			<g>
				<path class="st2" d="M134.53,291.87c9.02,0,18.01-5.14,18.42-5.38c0.24-0.14,0.32-0.44,0.18-0.68
					c-0.14-0.24-0.44-0.32-0.68-0.18c-0.11,0.06-10.69,6.1-20.07,5.13c-0.28-0.03-0.52,0.17-0.55,0.45
					c-0.03,0.27,0.17,0.52,0.45,0.55C133.02,291.84,133.78,291.87,134.53,291.87z"/>
			</g>
			<g>
				<path class="st2" d="M142.51,228.7c0.24,0,0.45-0.17,0.49-0.41c0.05-0.27-0.13-0.53-0.4-0.58
					c-12.67-2.4-16.49-10.55-16.53-10.64c-0.11-0.25-0.41-0.36-0.66-0.25c-0.25,0.11-0.36,0.41-0.25,0.66
					c0.16,0.35,4.07,8.71,17.25,11.21C142.45,228.7,142.48,228.7,142.51,228.7z"/>
			</g>
		</g>
		<g>
			<g>
				<path class="st8" d="M94.9,322.1c-0.24,2.57,2.89,1.18,2.01-4.03c-0.88-5.2,1.62-9.92,2.71-9.77c1.08,0.15-0.9,5.68,0.07,7.68
					c0.96,1.99,2.2-1.88,3.44-4.23c1.28-2.44,1.21-7.76,0.62-11.56c-0.58-3.8,6.3-26.87,6.34-33.56l0.84-2.83l3.07-10.38l4.81-16.25
					c0,0-2.88-12.3-7.74-11.24c0,0-2.57,8.57-5.32,18.23c-0.47,1.64-0.94,3.31-1.4,4.98c-1.96,7.01-3.8,13.92-4.65,18.03
					c-2.26,10.84-2.43,33.36-2.43,33.36s-3.99,8.28-4.08,11.96C93.08,316.41,95.14,319.54,94.9,322.1z"/>
				<path class="st11" d="M104.34,249.14l6.58,14.66l3.07-10.38l-8.25-9.26C105.28,245.8,104.81,247.47,104.34,249.14z"/>
				<path class="st1" d="M104.02,244.77c2.89,4.95,5.82,9.87,8.74,14.8c0.96-3.22,1.96-6.32,2.9-9.17c0-0.01,0.01-0.01,0.01-0.02
					c0.37-1.14,0.74-2.24,1.09-3.28c0.01-0.02,0.01-0.04,0.02-0.05c0.12-0.37,0.24-0.73,0.36-1.09v0c1.4-4.22,2.48-7.57,2.79-9.53
					c0.83-5.26-1.44-15.57-4.64-17.61l0,0c-0.08,0.19-0.34-0.39-0.49-0.04c-0.56,1.3-3.06,4.51-4.29,7.63
					c-0.16,0.4-0.32,0.81-0.49,1.23C108.23,232.25,106.04,238.23,104.02,244.77z"/>
				<g>
					<path class="st9" d="M96.66,291.98c0,0,6.24-0.46,8.89,1.43l-0.55,3.65c0,0-7.3-0.82-9-0.72
						C96,296.34,95.83,292.73,96.66,291.98z"/>
					<path class="st6" d="M99.8,294.45c0,1.67-1.13,3.03-2.52,3.03c-1.39,0-2.52-1.36-2.52-3.03c0-1.67,1.13-3.03,2.52-3.03
						C98.68,291.41,99.8,292.77,99.8,294.45z"/>
					<path class="st12" d="M98.7,294.34c0,1.23-0.82,2.22-1.84,2.22s-1.84-0.99-1.84-2.22c0-1.22,0.82-2.22,1.84-2.22
						S98.7,293.11,98.7,294.34z"/>
				</g>
			</g>
		</g>
		<g>
			<path class="st6" d="M125.22,183.16c0,8.35,5.14,14.11,13.5,14.11c8.35,0,14.18-6.19,14.18-14.54c0-8.35-4.95-14.68-13.3-14.68
				C129.57,168.04,125.22,174.8,125.22,183.16z"/>
			<path class="st6" d="M126.17,188.15c0,0-1.83-2.2-1.6-7.83c0.24-5.64,2.14-7.24,2.14-7.24s-2.37-4.04-0.18-5.22
				c2.2-1.19,4.1,0,4.1,0s-1.6-2.49,0-2.85c1.6-0.36,3.91,1.13,3.91,1.13s11.4-4.27,14.96-1.78c3.56,2.49,1.18,9.92,0.24,10.75
				L126.17,188.15z"/>
			<g>
				<path class="st11" d="M127.1,186.75c0,0-2.32-3.09-4.05-0.54c-1.73,2.56,0.71,10.12,4.94,8.27L127.1,186.75z"/>
				<g>
					<path class="st13" d="M127.07,192.15c-0.16,0-0.3-0.1-0.34-0.26c-0.65-2.33-3.07-3.28-3.1-3.29c-0.18-0.07-0.28-0.28-0.21-0.46
						c0.07-0.18,0.28-0.28,0.46-0.21c0.11,0.04,2.78,1.08,3.53,3.76c0.05,0.19-0.06,0.39-0.25,0.44
						C127.13,192.15,127.1,192.15,127.07,192.15z"/>
				</g>
				<g>
					<path class="st13" d="M124.63,190.98c-0.07,0-0.13-0.02-0.19-0.06c-0.17-0.11-0.21-0.33-0.11-0.49
						c0.02-0.03,0.45-0.68,1.34-1.08c0.18-0.08,0.39,0,0.47,0.18c0.08,0.18,0,0.39-0.18,0.47c-0.69,0.31-1.03,0.81-1.03,0.82
						C124.86,190.92,124.74,190.98,124.63,190.98z"/>
				</g>
			</g>
			<g>
				<path class="st11" d="M151.02,186.75c0,0,2.32-3.09,4.05-0.54c1.73,2.56-0.71,10.12-4.94,8.27L151.02,186.75z"/>
				<g>
					<g>
						<g>
							<path class="st13" d="M151.05,192.15c0.16,0,0.3-0.1,0.34-0.26c0.65-2.33,3.07-3.28,3.1-3.29c0.18-0.07,0.28-0.28,0.21-0.46
								c-0.07-0.18-0.28-0.28-0.46-0.21c-0.11,0.04-2.78,1.08-3.53,3.76c-0.05,0.19,0.06,0.39,0.25,0.44
								C150.98,192.15,151.02,192.15,151.05,192.15z"/>
						</g>
					</g>
				</g>
				<g>
					<g>
						<path class="st13" d="M153.49,190.98c0.07,0,0.13-0.02,0.19-0.06c0.17-0.11,0.21-0.33,0.11-0.49
							c-0.02-0.03-0.45-0.68-1.34-1.08c-0.18-0.08-0.39,0-0.47,0.18c-0.08,0.18,0,0.39,0.18,0.47c0.69,0.31,1.03,0.81,1.03,0.82
							C153.26,190.92,153.37,190.98,153.49,190.98z"/>
					</g>
				</g>
			</g>
			<path class="st8" d="M144.77,200.9v7.52c0,0-2.24,3.83-5.27,4.09c-3.03,0.26-5.72-3.3-5.72-3.3v-7.78L144.77,200.9z"/>
			<path class="st11" d="M144.77,200.9v3.34c-2.03,2.26-5.65,2.82-10.99,2.03v-4.84L144.77,200.9z"/>
			<path class="st8" d="M152.7,181.6c-0.14,2.92-0.42,6.57-0.98,9.5c-0.14,0.73-0.3,1.41-0.47,2.03
				c-1.58,5.54-5.54,15.04-16.62,11.08c-4.89-1.75-7.16-7.2-8.17-12.74c-0.69-3.76-0.79-7.57-0.74-10.28
				c0.05-2.77,1.57-5.31,3.98-6.68c6.54-3.71,13.44-2.32,17.98-0.58C150.84,175.13,152.86,178.23,152.7,181.6z"/>
			<path class="st6" d="M134.98,187.19c0,0.8-0.41,1.45-0.92,1.45c-0.51,0-0.92-0.65-0.92-1.45c0-0.8,0.41-1.45,0.92-1.45
				C134.56,185.74,134.98,186.39,134.98,187.19z"/>
			<path class="st6" d="M145.69,187.19c0,0.8-0.41,1.45-0.92,1.45c-0.51,0-0.92-0.65-0.92-1.45c0-0.8,0.41-1.45,0.92-1.45
				C145.28,185.74,145.69,186.39,145.69,187.19z"/>
			<path class="st6" d="M147.28,182.71c0,0-2.91-1.15-5.16-0.18l0.22,1.25c0,0,3.29-0.28,4.95,0.39
				C147.45,183.69,147.47,183.2,147.28,182.71z"/>
			<path class="st6" d="M130.3,182.71c0,0,2.91-1.15,5.16-0.18l-0.22,1.25c0,0-3.29-0.28-4.95,0.39
				C130.13,183.69,130.11,183.2,130.3,182.71z"/>
			<g>
				<path class="st11" d="M139.42,193.49c-0.6,0.07-1.22-0.09-1.32-0.11c-0.19-0.05-0.3-0.25-0.25-0.44
					c0.05-0.19,0.25-0.3,0.44-0.25c0.34,0.09,1.13,0.2,1.44-0.04c0.06-0.05,0.14-0.13,0.13-0.35c-0.02-1.25-0.87-5.36-0.88-5.4
					c-0.04-0.19,0.08-0.38,0.28-0.42c0.19-0.04,0.38,0.08,0.42,0.28c0.04,0.17,0.87,4.21,0.89,5.53c0.01,0.5-0.22,0.78-0.41,0.93
					C139.96,193.38,139.69,193.46,139.42,193.49z"/>
			</g>
			<path class="st7" d="M134.54,195.64c0.29,1.47,1.26,4.17,4.53,4.17c3.28,0,4.19-2.47,4.51-4.17H134.54z"/>
			<g>
				<path class="st11" d="M138.79,202.02c0.92,0,1.71-0.47,1.74-0.49c0.17-0.1,0.22-0.32,0.12-0.49c-0.1-0.17-0.32-0.22-0.49-0.12
					c-0.01,0-0.65,0.38-1.37,0.38c-0.66,0-1.29-0.38-1.3-0.38c-0.17-0.1-0.39-0.05-0.49,0.12c-0.1,0.17-0.05,0.39,0.12,0.49
					C137.15,201.55,137.92,202.02,138.79,202.02z"/>
			</g>
			<path class="st6" d="M152.32,186.82h-1.62c0.18-1.62-0.41-3.59-0.9-4.9c-1.11-2.97,1.25-4.28-0.66-5.76
				c-1.9-1.49-6.64-0.85-9.94-0.96c-3.31-0.11-8.64-0.06-9.94,0.24c-1.3,0.3-0.59,2.45-0.11,4.12c0.48,1.66-1.59,3.51-1.94,5.23
				c-0.1,0.49-0.08,1.23,0,2.03h-1.35c-0.16-2.1-0.18-4.05-0.16-5.64c0.05-2.77,1.57-5.31,3.98-6.68
				c6.54-3.71,13.44-2.32,17.98-0.58c3.15,1.21,5.17,4.31,5.01,7.67C152.62,183.2,152.5,185.02,152.32,186.82z"/>
		</g>
	</g>
</g>
<g>
	<g>
		<g>
			<path class="st4" d="M60.85,214.81c-2.97,0-5.38-2.42-5.38-5.38s2.42-5.38,5.38-5.38c2.97,0,5.38,2.42,5.38,5.38
				S63.81,214.81,60.85,214.81z M60.85,205.73c-2.04,0-3.7,1.66-3.7,3.7c0,2.04,1.66,3.7,3.7,3.7c2.04,0,3.7-1.66,3.7-3.7
				C64.54,207.38,62.88,205.73,60.85,205.73z"/>
		</g>
		<g>
			<path class="st1" d="M50.51,188.14c-2.97,0-5.38-2.42-5.38-5.38s2.42-5.38,5.38-5.38c2.97,0,5.38,2.42,5.38,5.38
				S53.48,188.14,50.51,188.14z M50.51,179.06c-2.04,0-3.7,1.66-3.7,3.7c0,2.04,1.66,3.7,3.7,3.7c2.04,0,3.7-1.66,3.7-3.7
				C54.21,180.71,52.55,179.06,50.51,179.06z"/>
		</g>
		<g>
			<g>
				<g>
					<g>
						<path class="st1" d="M64.98,240.46c-0.47,0-0.84-0.38-0.84-0.84v-3.72c0-0.47,0.38-0.84,0.84-0.84s0.84,0.38,0.84,0.84v3.72
							C65.82,240.08,65.44,240.46,64.98,240.46z"/>
					</g>
					<g>
						<path class="st1" d="M64.98,246.98c-0.47,0-0.84-0.38-0.84-0.84v-3.72c0-0.47,0.38-0.84,0.84-0.84s0.84,0.38,0.84,0.84v3.72
							C65.82,246.6,65.44,246.98,64.98,246.98z"/>
					</g>
				</g>
				<g>
					<g>
						<path class="st1" d="M70.2,241.86h-3.35c-0.47,0-0.84-0.38-0.84-0.84c0-0.47,0.38-0.84,0.84-0.84h3.35
							c0.47,0,0.84,0.38,0.84,0.84C71.05,241.48,70.67,241.86,70.2,241.86z"/>
					</g>
					<g>
						<path class="st1" d="M63.09,241.86h-3.35c-0.47,0-0.84-0.38-0.84-0.84c0-0.47,0.38-0.84,0.84-0.84h3.35
							c0.47,0,0.84,0.38,0.84,0.84C63.94,241.48,63.56,241.86,63.09,241.86z"/>
					</g>
				</g>
			</g>
		</g>
		<g>
			<g>
				<g>
					<g>
						<path class="st4" d="M32.86,210.56c-0.47,0-0.84-0.38-0.84-0.84v-3.72c0-0.47,0.38-0.84,0.84-0.84s0.84,0.38,0.84,0.84v3.72
							C33.7,210.18,33.32,210.56,32.86,210.56z"/>
					</g>
					<g>
						<path class="st4" d="M32.86,217.08c-0.47,0-0.84-0.38-0.84-0.84v-3.72c0-0.47,0.38-0.84,0.84-0.84s0.84,0.38,0.84,0.84v3.72
							C33.7,216.7,33.32,217.08,32.86,217.08z"/>
					</g>
				</g>
				<g>
					<g>
						<path class="st4" d="M38.08,211.95h-3.35c-0.47,0-0.84-0.38-0.84-0.84c0-0.47,0.38-0.84,0.84-0.84h3.35
							c0.47,0,0.84,0.38,0.84,0.84C38.93,211.58,38.55,211.95,38.08,211.95z"/>
					</g>
					<g>
						<path class="st4" d="M30.97,211.95h-3.35c-0.47,0-0.84-0.38-0.84-0.84c0-0.47,0.38-0.84,0.84-0.84h3.35
							c0.47,0,0.84,0.38,0.84,0.84C31.82,211.58,31.44,211.95,30.97,211.95z"/>
					</g>
				</g>
			</g>
		</g>
	</g>
	<g>
		<g>
			<path class="st1" d="M425.03,77.22c-2.97,0-5.38-2.42-5.38-5.38s2.42-5.38,5.38-5.38s5.38,2.42,5.38,5.38S428,77.22,425.03,77.22
				z M425.03,68.14c-2.04,0-3.7,1.66-3.7,3.7c0,2.04,1.66,3.7,3.7,3.7s3.7-1.66,3.7-3.7C428.73,69.8,427.07,68.14,425.03,68.14z"/>
		</g>
		<g>
			<path class="st1" d="M434.3,103.08c-2.97,0-5.38-2.42-5.38-5.38c0-2.97,2.42-5.38,5.38-5.38c2.97,0,5.38,2.42,5.38,5.38
				C439.69,100.66,437.27,103.08,434.3,103.08z M434.3,94c-2.04,0-3.7,1.66-3.7,3.7c0,2.04,1.66,3.7,3.7,3.7s3.7-1.66,3.7-3.7
				C438,95.66,436.34,94,434.3,94z"/>
		</g>
		<g>
			<g>
				<g>
					<path class="st4" d="M438,123.29c-0.47,0-0.84-0.38-0.84-0.84v-3.72c0-0.47,0.38-0.84,0.84-0.84c0.47,0,0.84,0.38,0.84,0.84
						v3.72C438.84,122.92,438.46,123.29,438,123.29z"/>
				</g>
				<g>
					<path class="st4" d="M438,129.81c-0.47,0-0.84-0.38-0.84-0.84v-3.72c0-0.47,0.38-0.84,0.84-0.84c0.47,0,0.84,0.38,0.84,0.84
						v3.72C438.84,129.43,438.46,129.81,438,129.81z"/>
				</g>
			</g>
			<g>
				<g>
					<path class="st4" d="M443.23,124.69h-3.35c-0.47,0-0.84-0.38-0.84-0.84s0.38-0.84,0.84-0.84h3.35c0.47,0,0.84,0.38,0.84,0.84
						S443.69,124.69,443.23,124.69z"/>
				</g>
				<g>
					<path class="st4" d="M436.11,124.69h-3.35c-0.47,0-0.84-0.38-0.84-0.84s0.38-0.84,0.84-0.84h3.35c0.47,0,0.84,0.38,0.84,0.84
						S436.58,124.69,436.11,124.69z"/>
				</g>
			</g>
		</g>
		<g>
			<g>
				<g>
					<g>
						<path class="st4" d="M405.88,93.39c-0.47,0-0.84-0.38-0.84-0.84v-3.72c0-0.47,0.38-0.84,0.84-0.84s0.84,0.38,0.84,0.84v3.72
							C406.72,93.01,406.34,93.39,405.88,93.39z"/>
					</g>
					<g>
						<path class="st4" d="M405.88,99.91c-0.47,0-0.84-0.38-0.84-0.84v-3.72c0-0.47,0.38-0.84,0.84-0.84s0.84,0.38,0.84,0.84v3.72
							C406.72,99.53,406.34,99.91,405.88,99.91z"/>
					</g>
				</g>
				<g>
					<g>
						<path class="st4" d="M411.11,94.79h-3.35c-0.47,0-0.84-0.38-0.84-0.84s0.38-0.84,0.84-0.84h3.35c0.47,0,0.84,0.38,0.84,0.84
							S411.57,94.79,411.11,94.79z"/>
					</g>
					<g>
						<path class="st4" d="M404,94.79h-3.35c-0.47,0-0.84-0.38-0.84-0.84s0.38-0.84,0.84-0.84H404c0.47,0,0.84,0.38,0.84,0.84
							S404.46,94.79,404,94.79z"/>
					</g>
				</g>
			</g>
		</g>
	</g>
</g>
<g>
	<g>
		<path class="st4" d="M453.02,432.45h-23.76c-3.23,0-6.09-2.47-7.09-6.12l-10.07-36.84c-0.41-1.51,0.47-3.07,1.8-3.2
			c18.34-1.69,36.51-1.69,54.49,0c1.33,0.12,2.21,1.69,1.8,3.2l-10.08,36.85C459.11,429.98,456.25,432.45,453.02,432.45z"/>
		<path class="st6" d="M468.08,388.97c0,0.98-11.99,1.77-26.77,1.77c-14.79,0-26.77-0.79-26.77-1.77c0-0.98,11.99-1.77,26.77-1.77
			C456.09,387.19,468.08,387.99,468.08,388.97z"/>
		<path class="st1" d="M471.63,339.18c-9.63-2.54-24.36,17.46-28.83,36.96v-28.41c2.25-3.99,6.53-9.98,14.31-16.32
			c12.1-9.85,23.23-22.5,13.58-25.04c-9.05-2.38-22.57,15.1-27.89,33.38v-36.48c1.56-2.42,4.11-5.59,8.19-8.92
			c7.62-6.21,14.64-14.18,8.56-15.78c-5.28-1.39-12.98,7.95-16.75,18.49v-11.82c0.62-3.66,1.51-8.88,3.93-14.22
			c5.61-12.37,8.64-25.12,1.24-24.18c-7.4,0.95-12.2,22.99-8.15,39.91v6.08c-2.73-12.38-12.11-25.2-18.23-23.59
			c-6.08,1.6,0.94,9.57,8.56,15.78c5.8,4.73,8.52,9.15,9.67,11.53v28.74c-4.38-19.59-19.21-39.82-28.9-37.27
			c-9.65,2.54,1.48,15.19,13.58,25.04c9.14,7.45,13.46,14.42,15.31,18.22v34.46c-4.69-19.24-19.13-38.65-28.63-36.15
			c-9.65,2.54-1.37,11.78,12.22,22.96c9.24,7.6,14.19,15.61,16.41,19.97v16.23c1.08,0.3,2.09,0.3,2.98,0v-6.46
			c1.89-3.83,6.21-10.72,15.24-18.08C470.14,354.36,481.28,341.72,471.63,339.18z"/>
	</g>
</g>
<g>
	<g>
		<polygon class="st8" points="357.14,416.5 357.14,423.68 363.72,423.58 364.15,415.96 		"/>
		<g>
			<g>
				<path class="st4" d="M358.29,423.02c0,0-1.65-2.16-2.94-2.06s-11.15,8.14-14.56,8.83c-3.4,0.69-2.71,3.2-2.07,4.47
					c0.64,1.28,27.01-0.34,27.01-0.34s0.83-8.38-0.07-10.79C364.77,420.73,360.96,423.56,358.29,423.02z"/>
				<g>
					<g>
						<path class="st7" d="M352.85,428.6c0.12,0.03,0.26,0.02,0.37-0.05c0.23-0.13,0.3-0.43,0.17-0.65
							c-0.04-0.08-1.11-1.87-2.52-2.56c-1.88-0.92-3.32,0.15-3.38,0.2c-0.21,0.16-0.25,0.46-0.09,0.67
							c0.16,0.21,0.46,0.25,0.67,0.09c0.04-0.03,1.04-0.75,2.38-0.1c1.15,0.56,2.1,2.17,2.11,2.19
							C352.64,428.5,352.74,428.57,352.85,428.6z"/>
					</g>
					<g>
						<path class="st7" d="M354.26,427.24c0.12,0.03,0.26,0.02,0.37-0.05c0.23-0.13,0.3-0.43,0.17-0.65
							c-0.04-0.08-1.11-1.87-2.52-2.56c-1.88-0.92-3.32,0.15-3.38,0.2c-0.21,0.16-0.25,0.46-0.09,0.67
							c0.16,0.21,0.46,0.25,0.67,0.09c0.04-0.03,1.04-0.75,2.38-0.1c1.15,0.57,2.1,2.17,2.11,2.19
							C354.04,427.13,354.15,427.21,354.26,427.24z"/>
					</g>
					<g>
						<path class="st7" d="M350.93,429.72c0.12,0.03,0.26,0.02,0.37-0.05c0.23-0.13,0.3-0.43,0.17-0.65
							c-0.04-0.08-1.11-1.87-2.52-2.56c-1.88-0.92-3.32,0.15-3.38,0.2c-0.21,0.16-0.25,0.46-0.09,0.67
							c0.16,0.21,0.46,0.25,0.67,0.09c0.04-0.03,1.04-0.75,2.38-0.1c1.15,0.57,2.1,2.17,2.11,2.19
							C350.72,429.61,350.82,429.68,350.93,429.72z"/>
					</g>
				</g>
			</g>
		</g>
		<path class="st1" d="M351.35,296.11c0.62,21.94,2.77,96.51,3.92,120.49h10.48c0,0,0.1-28.87,2.07-47.92
			c1.17-11.34,3.67-51.8,4.93-72.58H351.35z"/>
		<g>
			<path class="st2" d="M368.28,296.11c-0.97,19.57-2.5,48.34-3.66,60.32c-1.2,12.38-2.36,46.52-2.79,60.17h1.37
				c0.43-13.67,1.59-47.71,2.78-60.04c1.16-12.02,2.7-40.87,3.67-60.46H368.28z"/>
			<polygon class="st2" points="354.11,412.82 354.59,417.62 367.16,417.62 367.53,412.82 			"/>
		</g>
	</g>
	<g>
		<polygon class="st8" points="379.8,416.06 380.07,423.24 386.64,422.89 386.78,415.26 		"/>
		<g>
			<g>
				<path class="st4" d="M383.03,421.3c0,0,3.5-0.77,4.46-0.71c0.96,0.06,7.05,7.52,9.19,8.04c3.88,0.94,3.61,7.05,1.22,7.25
					c-6.93,0.57-18.59-2.87-18.59-2.87s-0.74-7.89-0.15-10.33C379.73,420.24,381.07,421.94,383.03,421.3z"/>
				<g>
					<g>
						<path class="st7" d="M388.44,428.25c-0.12,0.02-0.26-0.01-0.37-0.09c-0.21-0.16-0.26-0.46-0.1-0.67
							c0.05-0.07,1.3-1.74,2.78-2.28c1.96-0.72,3.28,0.5,3.34,0.56c0.19,0.18,0.2,0.48,0.02,0.68c-0.18,0.19-0.48,0.2-0.68,0.02
							c-0.04-0.03-0.96-0.86-2.36-0.35c-1.2,0.44-2.32,1.94-2.33,1.95C388.66,428.17,388.55,428.23,388.44,428.25z"/>
					</g>
					<g>
						<path class="st7" d="M387.18,426.75c-0.12,0.02-0.26-0.01-0.37-0.09c-0.21-0.16-0.26-0.46-0.1-0.67
							c0.05-0.07,1.3-1.74,2.78-2.28c1.96-0.72,3.28,0.5,3.34,0.56c0.19,0.18,0.2,0.48,0.02,0.68c-0.18,0.19-0.48,0.2-0.68,0.02
							c-0.04-0.03-0.96-0.86-2.36-0.35c-1.21,0.44-2.32,1.94-2.33,1.95C387.41,426.66,387.3,426.73,387.18,426.75z"/>
					</g>
					<g>
						<path class="st7" d="M390.23,429.56c-0.12,0.02-0.26-0.01-0.37-0.09c-0.21-0.16-0.26-0.46-0.1-0.67
							c0.05-0.07,1.3-1.74,2.78-2.28c1.96-0.72,3.28,0.5,3.34,0.56c0.19,0.18,0.2,0.48,0.02,0.68c-0.18,0.19-0.48,0.2-0.68,0.02
							c-0.04-0.03-0.96-0.86-2.36-0.35c-1.21,0.44-2.32,1.94-2.33,1.95C390.45,429.48,390.34,429.54,390.23,429.56z"/>
					</g>
				</g>
			</g>
		</g>
		<path class="st1" d="M371.39,296.11c1.25,20.77,3.76,61.24,4.93,72.58c1.97,19.05,2.07,47.92,2.07,47.92h10.48
			c1.16-23.98,3.3-98.56,3.92-120.49H371.39z"/>
		<g>
			<path class="st2" d="M375.85,296.11h-1.37c0.97,19.58,2.51,48.44,3.67,60.46c1.19,12.33,2.35,46.37,2.78,60.04h1.37
				c-0.43-13.65-1.59-47.79-2.79-60.17C378.35,344.46,376.82,315.68,375.85,296.11z"/>
			<polygon class="st2" points="390.02,412.82 389.55,417.62 376.98,417.62 376.6,412.82 			"/>
		</g>
	</g>
	<path class="st14" d="M359.61,241.53c-6.5,9.55-24.08,17.87-24.08,17.87c-6.46-1.37-10.56-3.31-14.63-5.55
		c1.2-2.89,1.73-5.82,2.4-9.62c6,1.67,11.19,2.56,11.19,2.56c12.67-5.87,27.55-35.5,27.55-35.5
		C366.15,219.73,359.61,241.53,359.61,241.53z"/>
	<g>
		<path class="st6" d="M399.58,226c-5.27,4.68-11.45,2.58-19.31-1.42c-7.87-4-2.83,3.87-10.55,5.21
			c-7.72,1.34-6.82-17.77-7.34-27.32c-0.33-5.99-2.7-13.52-2.7-16.55v-0.04c-0.04-0.5-0.06-1-0.07-1.5
			c-0.06-7.27,4.42-20.54,20.18-18.43c0,0,13.07,1.49,14.56,14.27c0,0,0.62,5.89,1.03,10.16c1.17,12.09,5.62,5.79,4.2,20.52
			C399.11,215.77,405.74,220.53,399.58,226z"/>
		<g>
			<g>
				<path class="st4" d="M351.46,298.28c12.86,9.48,42.6,0.5,42.6,0.5c3.35-4.09-1.3-13.45-2.66-24.4
					c-1.15-9.22,0.17-21.72,1.88-30.97c0.32-1.73,0.65-3.35,0.98-4.81c2.09-9.26,2.3-24.73,2.3-24.73
					c-1.61-0.83-4.22-1.94-6.85-3.01c-1.64-0.67-3.3-1.32-4.74-1.88c-2.56-1-4.47-1.7-4.47-1.7l-10.61,1.63l-2.09,0.64l-3.45,1.05
					l-2.3,0.7c0,0-1.63,10.47-3.18,16.83c-0.43,1.74-0.85,3.18-1.23,4c-1.77,3.84-1.33,5.7,0.53,10.79
					c0.44,1.21,0.73,2.49,0.88,3.88c0.04,0.35,0.07,0.7,0.09,1.06c0.27,4.3-0.57,9.63-1.97,16.85c-1.63,8.42-5.61,24.67-6.97,30.19
					C349.88,296.17,350.39,297.49,351.46,298.28z"/>
				<g>
					<g>
						<path class="st14" d="M359.04,246.79c0.04,0.35,0.07,0.7,0.09,1.06c5.28,4.47,14.38,10.57,24.76,10.57
							c0.2,0,0.37-0.17,0.37-0.37c0-0.2-0.17-0.37-0.37-0.37C373.35,257.67,364.13,251.22,359.04,246.79z"/>
					</g>
					<g>
						<path class="st14" d="M369.72,229.79c5.27,0,10.14-5.61,10.35-5.85c0.13-0.16,0.12-0.39-0.04-0.52
							c-0.16-0.13-0.39-0.12-0.52,0.04c-0.05,0.06-5.15,5.93-10.24,5.58c-0.2-0.01-0.38,0.14-0.4,0.35c-0.01,0.2,0.14,0.38,0.35,0.4
							C369.38,229.78,369.55,229.79,369.72,229.79z"/>
					</g>
					<g>
						<path class="st14" d="M382.05,283.13c0.19,0,0.35-0.14,0.37-0.33c0.02-0.2-0.12-0.39-0.33-0.41
							c-13.62-1.57-19.27-25.15-19.32-25.39c-0.05-0.2-0.25-0.32-0.45-0.28c-0.2,0.05-0.32,0.25-0.28,0.45
							c0.23,0.99,5.82,24.33,19.96,25.96C382.02,283.13,382.03,283.13,382.05,283.13z"/>
					</g>
					<g>
						<path class="st14" d="M376.62,276c0.12,0,0.25-0.06,0.32-0.18c0.11-0.17,0.05-0.4-0.12-0.51c-7.25-4.47-8.32-11.05-8.33-11.12
							c-0.03-0.2-0.22-0.34-0.42-0.31c-0.2,0.03-0.34,0.22-0.31,0.42c0.04,0.28,1.12,6.98,8.68,11.64
							C376.49,275.98,376.56,276,376.62,276z"/>
					</g>
				</g>
			</g>
		</g>
		<g>
			<g>
				<g>
					<path class="st11" d="M365.03,186.76c0,0-2.25-2.85-3.92-0.49c-1.67,2.36,0.69,9.32,4.79,7.62L365.03,186.76z"/>
					<path class="st7" d="M364.06,193.4c0,0.41-0.34,0.75-0.75,0.75c-0.41,0-0.75-0.34-0.75-0.75c0-0.41,0.34-0.75,0.75-0.75
						C363.73,192.66,364.06,192.99,364.06,193.4z"/>
					<g>
						<path class="st13" d="M365,191.74c-0.15,0-0.29-0.1-0.33-0.24c-0.63-2.15-2.98-3.02-3-3.03c-0.18-0.06-0.27-0.25-0.2-0.42
							c0.07-0.17,0.27-0.26,0.45-0.19c0.11,0.04,2.69,0.99,3.42,3.47c0.05,0.18-0.06,0.36-0.24,0.41
							C365.06,191.73,365.03,191.74,365,191.74z"/>
					</g>
					<g>
						<path class="st13" d="M362.63,190.65c-0.06,0-0.13-0.02-0.19-0.05c-0.16-0.1-0.21-0.3-0.1-0.45c0.02-0.03,0.43-0.63,1.3-1
							c0.17-0.07,0.38,0,0.46,0.17c0.08,0.17,0,0.36-0.17,0.43c-0.67,0.29-1,0.75-1,0.75C362.86,190.6,362.75,190.65,362.63,190.65z
							"/>
					</g>
				</g>
				<path class="st8" d="M382.38,201.33v7.68c0,0-3.97,3.93-7.07,4.19c-3.09,0.27-4.16-3.38-4.16-3.38v-7.95L382.38,201.33z"/>
				<path class="st11" d="M382.38,202.16v3.41c-2.08,2.31-5.77,3.12-11.23,2.32l0-5.19L382.38,202.16z"/>
				<path class="st8" d="M363.68,190.01c0.1,0.82,0.22,1.66,0.36,2.5c0.98,5.56,4.5,11.56,8.93,12.56
					c9.58,2.17,13.56-5.35,15.09-10.9c0.17-0.62-0.15-1.32-0.01-2.05c0.32-1.73,1.02-3.7,1.18-5.63c0.11-1.34,0.19-2.67,0.24-3.87
					c0.16-3.38-1.8-6.48-4.86-7.69c-4.4-1.75-11.09-3.14-17.43,0.58c-2.34,1.37-3.81,3.91-3.86,6.69
					C363.29,184.32,363.34,187.1,363.68,190.01z"/>
				<g>
					<path class="st11" d="M375.37,194.31c0.18,0,0.34-0.13,0.37-0.31c0.03-0.2-0.1-0.39-0.31-0.43l-1.28-0.21l1.76-4.69
						c0.07-0.19-0.03-0.41-0.22-0.48c-0.19-0.07-0.41,0.03-0.48,0.22l-2.08,5.54l2.17,0.36
						C375.33,194.3,375.35,194.31,375.37,194.31z"/>
				</g>
				<path class="st6" d="M367.37,180.65c-3.75,1.71-2.56,6.16-3.82,8.39c-0.08,0.15-0.17,0.17-0.26,0.1
					c-0.36-2.97-0.41-5.8-0.37-7.96c0.06-2.84,1.6-5.42,4.07-6.82c6.68-3.79,13.73-2.37,18.37-0.59c3.22,1.24,5.28,4.4,5.12,7.84
					c-0.06,1.22-0.14,2.57-0.26,3.94c-0.62,0.37-2.14,0.54-2.2,1.54c-0.17,2.64-0.3,4.45-0.85,4.29c-0.93-0.27-1.51-3.47-0.44-5.54
					c0,0-0.86-1.39-4.35-2.74c-4.48-1.72-8.78-4.28-8.78-4.28s-1.7-1.02-2.35-2.14C371.24,176.68,370.22,179.35,367.37,180.65z"/>
				<ellipse class="st6" cx="370.07" cy="188.1" rx="0.94" ry="1.48"/>
				<ellipse class="st6" cx="380.27" cy="188.1" rx="0.94" ry="1.48"/>
				<path class="st6" d="M367.52,184.21c0.76-0.15,2.29-0.39,3.93-0.33c0.43,0.02,0.77,0.34,0.72,0.68l0,0.01
					c-0.05,0.27-0.34,0.46-0.68,0.43c-1.11-0.08-4.03-0.07-5.38,0.34c-0.04-0.2,0.09-0.4,0.29-0.59
					C366.67,184.47,367.08,184.29,367.52,184.21z"/>
				<path class="st6" d="M382.7,184.39c-0.76-0.16-2.29-0.42-3.92-0.39c-0.43,0.01-0.78,0.33-0.72,0.67l0,0.01
					c0.04,0.27,0.33,0.46,0.68,0.44c1.12-0.07,4.03-0.01,5.38,0.41c0.04-0.2-0.09-0.41-0.28-0.59
					C383.55,184.66,383.14,184.48,382.7,184.39z"/>
				<path class="st7" d="M371.24,196.52c0.28,1.3,1.19,3.71,4.28,3.71c3.1,0,3.96-2.19,4.26-3.71H371.24z"/>
				<g>
					<path class="st11" d="M375.48,202.47c-0.89,0-1.68-0.48-1.71-0.5c-0.17-0.11-0.22-0.33-0.12-0.5c0.11-0.17,0.33-0.22,0.5-0.12
						l0,0c0.01,0,0.65,0.39,1.33,0.39c0.74,0,1.4-0.39,1.4-0.39c0.17-0.1,0.4-0.05,0.5,0.12c0.1,0.17,0.05,0.4-0.12,0.5
						C377.23,201.99,376.43,202.47,375.48,202.47z"/>
				</g>
			</g>
			<g>
				<path class="st8" d="M388.11,186.74c0,0,2.62-3.18,4.16-0.89c1.54,2.29-0.64,9.05-4.42,7.4L388.11,186.74z"/>
				<path class="st7" d="M390.23,193.4c0,0.41-0.34,0.75-0.75,0.75c-0.41,0-0.75-0.34-0.75-0.75c0-0.41,0.34-0.75,0.75-0.75
					C389.89,192.66,390.23,192.99,390.23,193.4z"/>
				<g>
					<path class="st11" d="M388.68,191.16c0.14,0,0.27-0.09,0.31-0.23c0.59-2.09,2.75-2.93,2.77-2.94c0.16-0.06,0.25-0.25,0.18-0.41
						c-0.06-0.16-0.25-0.25-0.41-0.19c-0.1,0.04-2.48,0.96-3.16,3.37c-0.05,0.17,0.05,0.35,0.22,0.39
						C388.62,191.16,388.65,191.16,388.68,191.16z"/>
				</g>
				<g>
					<g>
						<g>
							<path class="st11" d="M390.86,190.11c0.06,0,0.12-0.02,0.17-0.05c0.15-0.1,0.19-0.29,0.1-0.44c-0.02-0.02-0.4-0.61-1.2-0.97
								c-0.16-0.07-0.35,0-0.42,0.16c-0.07,0.16,0,0.35,0.16,0.42c0.62,0.28,0.92,0.73,0.92,0.73
								C390.65,190.06,390.76,190.11,390.86,190.11z"/>
						</g>
					</g>
				</g>
			</g>
		</g>
	</g>
	<g>
		<path class="st1" d="M335.37,257.19l-9.2,7.05c-1.16,0.89-2.83,0.67-3.72-0.49l-17.87-23.29l-7.39-9.63l13.4-10.28l4.38,5.71
			l20.88,27.22C336.75,254.63,336.54,256.3,335.37,257.19z"/>
		<path class="st2" d="M314.98,226.25c-1.86,4.39-5.06,9.9-10.39,14.21l-7.39-9.63l13.4-10.28L314.98,226.25z"/>
		<path class="st6" d="M362.9,301.74l-0.83,0.63c-2.07,1.59-5.03,1.2-6.62-0.87l-28.84-37.6l8.32-6.38l28.84,37.6
			C365.36,297.19,364.97,300.16,362.9,301.74z"/>
		<g>
			<path class="st6" d="M248.75,154.17c-20.74,16.08-24.52,45.92-8.44,66.66c16.07,20.74,45.92,24.52,66.65,8.44
				s24.52-45.92,8.44-66.65C299.33,141.88,269.49,138.1,248.75,154.17z M302.5,223.51c-17.53,13.59-42.85,10.38-56.43-7.15
				c-13.59-17.53-10.38-42.85,7.15-56.43c17.53-13.59,42.85-10.38,56.43,7.15C323.24,184.61,320.03,209.93,302.5,223.51z"/>
			<path class="st15" d="M316.72,181.34c5.73,21.43-7.05,43.52-28.47,49.24c-1.84,0.49-3.68,0.85-5.52,1.07
				c-4.76,0.58-9.49,0.29-13.98-0.76c-4.69-1.1-9.13-3.03-13.11-5.67c-6.26-4.15-11.38-10.04-14.55-17.22
				c-0.83-1.88-1.53-3.85-2.07-5.89c-5.73-21.43,7.05-43.52,28.47-49.25c2.05-0.55,4.1-0.93,6.14-1.14
				c7.8-0.83,15.47,0.67,22.18,4.03c4.28,2.13,8.17,5.02,11.46,8.54c3.16,3.37,5.76,7.32,7.64,11.74
				C315.61,177.73,316.23,179.5,316.72,181.34z"/>
			<path class="st15" d="M295.8,155.75l-40.17,69.47c-6.26-4.15-11.38-10.04-14.55-17.22l32.55-56.28
				C281.41,150.89,289.08,152.39,295.8,155.75z"/>
			<path class="st15" d="M314.89,176.02l-32.17,55.63c-4.76,0.58-9.49,0.29-13.98-0.76l38.52-66.61
				C310.41,167.65,313.02,171.6,314.89,176.02z"/>
		</g>
	</g>
	<g>
		<path class="st8" d="M354.92,277.23h-1.62c-1.45,0-2.55-0.85-3.19-2.14c-0.29-0.57-0.68-1.62-0.95-1.98
			c-0.76-1.01-2.82-2.7-3.59-2.75c-0.77-0.05-0.63,1.39-0.08,2.02s1.41,1.43,1.87,2.32c0.46,0.89-3.78,2.7-5.51,3.12
			c-1.72,0.42-4.75-0.5-5.05,0.92s1.98,1.64,1.98,1.64s-0.67,1.29,1.22,2.35c0,0-0.34,1.26,0.88,1.93c0,0-0.14,1.6,1.28,2.02
			c1.41,0.42,5.83,1.7,14.49-3.55L354.92,277.23z"/>
		<g>
			<g>
				<g>
					<g>
						<path class="st14" d="M385.47,240.67c-1.54,10.43-6.41,18.09-6.41,18.09s-4.57,5.12-12.11,10.42
							c-5.24,3.68-13.65,8.04-13.65,8.04c1.45,1.89,2.48,5.62,1.92,6.73c16.03-3.6,32.06-17.1,32.06-17.1
							c12.53-14.53,12.29-46.96,12.29-46.96s-0.41-4.81-3.01-6.03c0,0-5.25,1.96-7.07,8.11
							C387.66,228.14,385.47,240.67,385.47,240.67z"/>
					</g>
				</g>
			</g>
		</g>
	</g>
	<path class="st8" d="M305.4,242.52c0,0,3.89-1.38,5.68-0.63c1.79,0.74-3.17,3.43-3.17,3.43s6.01-3.2,7.05-1.91
		c1.04,1.29-4.71,4.56-4.71,4.56s4.4-1.55,5.29-0.64c0.89,0.91-3.21,3.47-3.21,3.47s3.61-0.87,4.37-0.26
		c0.75,0.61-2.45,3.19-4.48,3.87c-2.03,0.68-2.36-2.18-2.36-2.18s-1.91-1.68-1.66-2.85c0,0-1.98-1.34-2.12-2.7
		C306.07,246.68,303.28,244.21,305.4,242.52z"/>
</g>
</svg>
