<svg xmlns="http://www.w3.org/2000/svg" viewBox="0 0 428.71 405"><defs><style>.cls-1{fill:#bbd2ff;}.cls-2{fill:#fafcff;}.cls-3{fill:#7794f2;}.cls-4{fill:#fd3359;}.cls-5{fill:#ff486f;}.cls-6{fill:#ff9a32;}.cls-7{fill:#ffa452;}.cls-8{fill:#99b999;}.cls-9{fill:#b7d7b7;}.cls-10{fill:#ecf3ff;}.cls-11{fill:#ffcdc5;}.cls-12{fill:#fcd9d2;}.cls-13{fill:#001c44;}.cls-14,.cls-19,.cls-20,.cls-21,.cls-22,.cls-23,.cls-26,.cls-27,.cls-29,.cls-33{fill:none;}.cls-14{stroke:#fff;}.cls-14,.cls-20,.cls-21,.cls-23,.cls-26,.cls-29{stroke-linecap:round;}.cls-14,.cls-19,.cls-20,.cls-21,.cls-22,.cls-23,.cls-26,.cls-29,.cls-31,.cls-33{stroke-miterlimit:10;}.cls-14,.cls-17,.cls-19,.cls-20{opacity:0.44;}.cls-15{fill:#a8bef4;}.cls-16,.cls-31{fill:#002664;}.cls-18{fill:#5170f2;}.cls-19,.cls-20,.cls-31,.cls-33{stroke:#5170f2;}.cls-19{stroke-width:0.5px;}.cls-21{stroke:#fcd9d2;}.cls-22,.cls-23{stroke:#7794f2;}.cls-22,.cls-23,.cls-31,.cls-33{stroke-width:1.42px;}.cls-24{fill:#ff8b22;}.cls-25{fill:#fff;}.cls-26,.cls-29{stroke:#002664;}.cls-26{stroke-width:4px;}.cls-28{fill:#54293a;}.cls-29{stroke-width:2px;}.cls-30{fill:#ffa350;}.cls-32,.cls-33{opacity:0.25;}</style></defs><g id="Layer_2" data-name="Layer 2"><g id="OBJECTS"><path class="cls-1" d="M168.92,29.59C203.57,29.45,238,23,269.9,9.52c19-8,64.09-12.71,93.13-7,25.21,5,85.2,27.15,59.33,100.57S364,183.92,387.57,232.15c17.29,35.42,47.15,70.68,20.57,98.7-41.35,43.57-210.43,107.31-297.66,53.66S4.81,311.64,31.69,228.84-9.57,135.45,26.48,74.17C48.11,37.41,117.14,29.8,168.92,29.59Z"/><path class="cls-2" d="M112.72,62H308.32a7.81,7.81,0,0,1,7.81,7.81V297.94a0,0,0,0,1,0,0H104.92a0,0,0,0,1,0,0V69.82A7.81,7.81,0,0,1,112.72,62Z"/><path class="cls-3" d="M112.72,62H308.32a7.81,7.81,0,0,1,7.81,7.81V80.45a0,0,0,0,1,0,0H104.92a0,0,0,0,1,0,0V69.82A7.81,7.81,0,0,1,112.72,62Z"/><path class="cls-4" d="M135.4,71.23a2.87,2.87,0,0,0-2.83-2.91,2.8,2.8,0,0,0-1.46.42c.28,1.63,1,3.85,3,4.92A2.92,2.92,0,0,0,135.4,71.23Z"/><path class="cls-5" d="M131.11,68.74a2.93,2.93,0,0,0-1.38,2.49,2.88,2.88,0,0,0,2.84,2.92,2.72,2.72,0,0,0,1.55-.49C132.14,72.59,131.39,70.37,131.11,68.74Z"/><path class="cls-6" d="M127.3,71.23a2.87,2.87,0,0,0-2.84-2.91,2.79,2.79,0,0,0-1.45.42c.28,1.63,1,3.85,3,4.92A2.92,2.92,0,0,0,127.3,71.23Z"/><path class="cls-7" d="M123,68.74a2.93,2.93,0,0,0-1.38,2.49,2.88,2.88,0,0,0,2.83,2.92,2.72,2.72,0,0,0,1.56-.49C124,72.59,123.29,70.37,123,68.74Z"/><path class="cls-8" d="M119.19,71.23a2.86,2.86,0,0,0-2.83-2.91,2.79,2.79,0,0,0-1.45.42c.28,1.63,1,3.85,3,4.92A2.94,2.94,0,0,0,119.19,71.23Z"/><path class="cls-9" d="M114.91,68.74a2.93,2.93,0,0,0-1.38,2.49,2.88,2.88,0,0,0,2.83,2.92,2.72,2.72,0,0,0,1.56-.49C115.94,72.59,115.19,70.37,114.91,68.74Z"/><rect class="cls-10" x="116.89" y="150.43" width="185.15" height="45.63"/><rect class="cls-10" x="116.89" y="206.2" width="185.15" height="12.14"/><rect class="cls-10" x="116.89" y="230.94" width="185.15" height="12.14"/><rect class="cls-10" x="116.89" y="255.68" width="185.15" height="12.14"/><path class="cls-11" d="M377.45,268.2l-2.76-1.15a2.28,2.28,0,0,1-1.39-2.29l.19-2.43-5.8-2-.36,1.65c-.43,1.24-.13,2.91-1,3.88l-1,1Z"/><polygon class="cls-12" points="351.54 384.78 351.43 393.07 346.1 394.02 341.84 383.25 351.54 384.78"/><polygon class="cls-12" points="407.26 376.85 403.38 381.9 394.19 378.55 398.28 369.9 407.26 376.85"/><path class="cls-6" d="M401.51,389.11c-.86-.51,2-6.64,2.35-7.3l2.22-5.35c.38-.66,1.55-.2,2.41.31l2.33,1.51-6.89,12.2Z"/><path class="cls-13" d="M405.3,390l6-10.26a1,1,0,0,0-.37-1.42l-.78-.45-7,12.05.79.46A1,1,0,0,0,405.3,390Z"/><line class="cls-14" x1="403.02" y1="383.57" x2="404.93" y2="383.98"/><line class="cls-14" x1="402.62" y1="384.89" x2="404.09" y2="385.21"/><line class="cls-14" x1="401.97" y1="386.17" x2="403.26" y2="386.44"/><path class="cls-12" d="M404,382.2c1.23.31,2.61-1.18,3-2.75s-.26-3.1-1.49-3.42-4.19.74-4.59,2.32S402.75,381.89,404,382.2Z"/><path class="cls-6" d="M338.72,396.54c-.11-1,6.61-2.43,7.38-2.52l5.33-.95c.76-.1,1.48.66,1.59,1.67l.18,2.82-14.48,1.78Z"/><path class="cls-13" d="M339.79,400.17l12.57-1.38a1,1,0,0,0,.86-1.08l-.12-1-14.38,1.61v.88A1,1,0,0,0,339.79,400.17Z"/><line class="cls-14" x1="344.15" y1="394.4" x2="344.98" y2="396.21"/><line class="cls-14" x1="342.83" y1="394.88" x2="343.47" y2="396.28"/><line class="cls-14" x1="341.4" y1="395.13" x2="341.96" y2="396.34"/><path class="cls-12" d="M346.27,394.13c.49,1.18,2.12,1.63,3.65,1s1.88-3.28,1.39-4.47-2.66-1.79-4.19-1.16S345.78,392.94,346.27,394.13Z"/><path class="cls-3" d="M373.27,363.31c-4.7-1.66-5.36-2.19-6.5-9s4.29-11.48,3.12-16.87S374.1,329,376.82,326a10,10,0,0,1,2-1.69l-5.32,30.36a2.5,2.5,0,0,0,1.28,2.64l23.53,12.57c2.09,1.13-2.87,1.75-5.19,2.31h0C390.66,373,378,365,373.27,363.31Z"/><path class="cls-3" d="M345.18,368c-.61-6.37-1.61-3.39-4.74-8.1s3.56-12.94,8-19.46c9.66-14.11,17.63-12,16.57-8.16L354.66,346.9a33.28,33.28,0,0,0-5.53,25.8l1.62,8.13a12.18,12.18,0,0,1-2.14-1.6C344.42,375.18,345.79,374.42,345.18,368Z"/><path class="cls-3" d="M345,321l4.09-12.4,18.57,9.4-.8,11.66-1.76,1.68c-2.53-1.59-11,.8-15.47,9-3.79,6.93-12.36,14.85-9.22,19.55s4.13,1.73,4.74,8.1-.76,7.14,3.43,11.19a12.18,12.18,0,0,0,2.14,1.6l1.81,9.11a.86.86,0,0,1-1,1l-7.48-1-7.25-21.39a32,32,0,0,1-.34-19.52C339.72,338.48,344.42,322.9,345,321Z"/><path class="cls-15" d="M359.51,329.46V316.89l20,6.29c-2.9,6.34-10.66,8.17-9.2,14.89,1.29,6-10.08,19.86,4.71,25.08,4.7,1.66,16.67,7.64,19.21,7.64a10.48,10.48,0,0,0,4.09-.89l6.26,4.73-4.87,6C357.18,365.55,358,371.32,359.51,329.46Z"/><path class="cls-12" d="M312.18,267.53l1.79.64-.75-.92a34,34,0,0,1,3.56,1.94l20.15,7.28L356,269l3.3,9.53L339,284.9l-2.09.66-1.26-.65L310.26,272a3,3,0,0,1-.74-3.26C310,267.45,312.18,267.53,312.18,267.53Z"/><polygon class="cls-11" points="377.45 268.2 364.38 266.41 360.86 275.62 381.92 273.48 377.45 268.2"/><path class="cls-16" d="M362,266.92l-12.48,3a2.41,2.41,0,0,0-1.52,3.54l4.72,8.2Z"/><path class="cls-12" d="M365.25,239.8a5.8,5.8,0,0,1,.6-2.17c4.48-.91,10.12-.89,9.23,5.36-1,7.14-1.76,15.31-1.43,19.42l-3.26-.11c-3.65-.12-8.41-4.07-8.18-7.48Z"/><path class="cls-12" d="M395.37,322.36l1.3-3.55h0l-.56-22.51-12.89-14.87,7.62-7,12.58,17.16.45.62a3.47,3.47,0,0,1,.64,2.55h0l-5.35,24.5h0a6.77,6.77,0,0,1,.06,2.72,3.12,3.12,0,0,1-1.8,2.56A1.65,1.65,0,0,1,395.37,322.36Z"/><path class="cls-16" d="M387.06,270.8l9.21,6.83a2.88,2.88,0,0,1,.5,4.13L390.82,289a2.85,2.85,0,0,1-4.67-.4l-3.34-5.85Z"/><g class="cls-17"><path class="cls-18" d="M378.37,326.58l.1-.44c-3.31-.46-3.93-4.4-3.94-4.56l-.66-.22C373.87,321.41,374.17,326,378.37,326.58Z"/></g><path class="cls-19" d="M353.31,314.77s-1.38,6.12-7.29,3.3"/><path class="cls-16" d="M377.45,268.2c0,.21.24.46.12.64-2.16,3.18-4.1,6.86-9.93,5.47-5.54-1.33-4.77-5.16-3.26-7.9l-2.41.51-11.1,2.69-5.05,39.91a2.9,2.9,0,0,0,1.92,3.44l33.63,10.93c2.17.71,2.86-.58,2.92-2.86l.11-4.69,2.68-45.54Z"/><path class="cls-16" d="M381,257.3c-3.38,2.68-6.51,10.15-9.22,2.38-1.56-4.46,3.13-13.38,1.29-16.78s-9.54-1-10.88-2.79c-.71-1-.72-2.62-.57-4,.12-1,1.42-.47,2.18-1.19,11.35-10.81,22.94,5.31,21.62,12.79C383.94,256.16,381,257.3,381,257.3Z"/><path class="cls-16" d="M317.8,277.84l.79,1.65a3.51,3.51,0,0,1-1.65,4.69l-.79.38a3.52,3.52,0,0,1-4.69-1.65l-.79-1.65Z"/><polygon class="cls-13" points="310.77 262.71 310.96 262.8 317.99 277.36 310.24 281.11 303.21 266.55 303.25 266.34 310.77 262.71"/><polygon class="cls-13" points="304.7 259.74 305.88 260.32 304.43 260.98 304.7 259.74"/><polygon class="cls-10" points="305.88 260.32 310.77 262.71 303.25 266.34 304.43 260.98 305.88 260.32"/><rect class="cls-18" x="308.95" y="278.55" width="10.49" height="1.62" rx="0.77" transform="translate(715.06 406.12) rotate(155.91)"/><line class="cls-20" x1="310.35" y1="264.55" x2="316.1" y2="276.58"/><line class="cls-20" x1="308.55" y1="265.36" x2="314.3" y2="277.39"/><line class="cls-20" x1="306.75" y1="266.16" x2="312.5" y2="278.19"/><line class="cls-20" x1="304.95" y1="266.97" x2="310.7" y2="278.99"/><line class="cls-21" x1="315.67" y1="269.25" x2="311.38" y2="268.73"/><circle class="cls-22" cx="221.5" cy="20.11" r="14.34" transform="translate(8.93 85.53) rotate(-22.29)"/><circle class="cls-22" cx="221.5" cy="20.11" r="17.77"/><path class="cls-3" d="M219.08,20.85a2.42,2.42,0,1,1,2.42,2.42A2.41,2.41,0,0,1,219.08,20.85Z"/><line class="cls-23" x1="221.31" y1="13.48" x2="221.31" y2="19.75"/><line class="cls-23" x1="222.18" y1="21.08" x2="225.27" y2="23.84"/><line class="cls-23" x1="229.55" y1="27.45" x2="231.82" y2="29.72"/><line class="cls-23" x1="221.21" y1="5.8" x2="221.27" y2="8.23"/><rect class="cls-22" x="352.6" y="52.49" width="19.89" height="29.25" rx="7.18"/><line class="cls-22" x1="355.5" y1="60.64" x2="368.98" y2="60.64"/><line class="cls-22" x1="355.5" y1="67.11" x2="368.98" y2="67.11"/><line class="cls-22" x1="355.5" y1="73.59" x2="368.98" y2="73.59"/><rect class="cls-22" x="367.26" y="139.4" width="28.67" height="8.1" rx="3.49"/><path class="cls-22" d="M370.75,147.13c0,10.69,4.82,19.35,10.77,19.35s10.77-8.66,10.77-19.35"/><rect class="cls-22" x="373.66" y="174.48" width="15.73" height="3.22" rx="1.39"/><path class="cls-22" d="M392.11,149.34c4,.34,7.36-.15,7,3.87s-8.23,10.73-12.26,10.39"/><path class="cls-22" d="M370.93,149.34c-4,.34-7.35-.15-7,3.87s8.23,10.73,12.26,10.39"/><line class="cls-22" x1="380.22" y1="174.48" x2="380.22" y2="166.33"/><line class="cls-22" x1="382.82" y1="174.48" x2="382.82" y2="166.33"/><path class="cls-22" d="M373.66,150.55s2.11,7.92,2.51,8.41"/><circle class="cls-22" cx="17.49" cy="135.4" r="8.78" transform="translate(-118.97 131.04) rotate(-80.81)"/><path class="cls-22" d="M22.26,135.58a4.77,4.77,0,1,1-4.77-4.77A4.78,4.78,0,0,1,22.26,135.58Z"/><path class="cls-22" d="M19.88,120.36h0a3,3,0,0,1,5.41,2h0A3,3,0,0,0,29,125.4h0a3,3,0,0,1,2.88,5h0a3,3,0,0,0,.83,4.7h0a3,3,0,0,1-1,5.67h0a3,3,0,0,0-2.39,4.14h0a3,3,0,0,1-4.41,3.7h0a3,3,0,0,0-4.49,1.64h0a3,3,0,0,1-5.76,0h0a3,3,0,0,0-4.49-1.64h0a3,3,0,0,1-4.41-3.7h0a3,3,0,0,0-2.39-4.14h0a3,3,0,0,1-1-5.67h0a3,3,0,0,0,.83-4.7h0a3,3,0,0,1,2.88-5H6a3,3,0,0,0,3.66-3.07h0a3,3,0,0,1,5.41-2h0A3,3,0,0,0,19.88,120.36Z"/><circle class="cls-22" cx="38.38" cy="111.88" r="7.13"/><path class="cls-22" d="M42.25,112a3.87,3.87,0,1,1-3.87-3.87A3.88,3.88,0,0,1,42.25,112Z"/><path class="cls-22" d="M40.32,99.66h0a2.46,2.46,0,0,1,4.4,1.6h0a2.45,2.45,0,0,0,3,2.49h0a2.46,2.46,0,0,1,2.34,4h0a2.47,2.47,0,0,0,.67,3.83h0a2.45,2.45,0,0,1-.81,4.6h0A2.47,2.47,0,0,0,48,119.6h0a2.45,2.45,0,0,1-3.58,3h0a2.47,2.47,0,0,0-3.65,1.33h0a2.46,2.46,0,0,1-4.68,0h0a2.47,2.47,0,0,0-3.65-1.33h0a2.45,2.45,0,0,1-3.58-3h0a2.47,2.47,0,0,0-1.94-3.37h0a2.45,2.45,0,0,1-.82-4.6h0a2.47,2.47,0,0,0,.68-3.83h0a2.46,2.46,0,0,1,2.34-4h0a2.45,2.45,0,0,0,3-2.49h0a2.46,2.46,0,0,1,4.4-1.6h0A2.46,2.46,0,0,0,40.32,99.66Z"/><path class="cls-12" d="M86.5,249.85c5.92-1.74,14.53-30.5,3.25-42.49-5.8-6.18-3,2.35-3,2.35,2.68,13.26-.29,26.84-6.57,38.57C77.36,253.55,86.5,249.85,86.5,249.85Z"/><path class="cls-12" d="M93.58,215.78s-2.87-7.07-3.25-8.1c-2-5.57-6.43-9.3-7.51-8-2.8,3.4,4.05,9.69,4.05,9.69A34.55,34.55,0,0,1,93.58,215.78Z"/><path class="cls-3" d="M78.23,247c2.08-2.27,3.28-5.18,4.69-7.91a5.68,5.68,0,0,1,2-2.48,4,4,0,0,1,4,.38,11.86,11.86,0,0,1,2.91,3.08,8.19,8.19,0,0,1,.9,2.4,2.68,2.68,0,0,1-.25,1.21c-3.31,8.66-10.73,14.68-19.43,17.89a9.52,9.52,0,0,1-3.48.74A5.65,5.65,0,0,1,64.73,259a5.47,5.47,0,0,1,.18-4.77c.91-1.41,2.26-1.44,3.83-1.94C72.22,251.23,75.72,249.76,78.23,247Z"/><path class="cls-12" d="M116.94,235.81a15.36,15.36,0,0,0,1.48,7,15.41,15.41,0,0,0,.79-5.07Z"/><path class="cls-24" d="M65.17,228.16c.37,4.49,9.93,18.72,5.75,24.21-4.34,5.7-6.57-5.93-15.47-4.33-10.74,1.92-11.8-29.71,6.9-29,.78,0,1.35-1.75,1.77-1.13C69.22,225.47,64.77,223.45,65.17,228.16Z"/><path class="cls-11" d="M63.05,305.36l12.5,1.9c13.81,9.88-4.14,83.31-3.83,89.87l-1.89-.35c-2.08-8.95.33-18.91-.55-26.3C64.45,329.88,53.87,320.55,63.05,305.36Z"/><path class="cls-12" d="M55.25,310.42l12,2.77c12.85,11.92-13.17,79.57-13.2,87.06l-.78.34c-1.55-10.29,3-31.27,2.5-39.73C52.75,313.43,45.59,327.28,55.25,310.42Z"/><path class="cls-3" d="M77.66,298.18s22.49,40.39,3.94,41.14c-27.15,1.09-41.81,10.7-40.1-6.69,2.64-26.82,4.06-23.94,6.87-29.37,2.5-4.8,7.49-14.4,9.68-9.07C61.51,302.63,77.66,298.18,77.66,298.18Z"/><path class="cls-16" d="M68.51,252.57S77.66,255,78.24,265s-6.81,10.45-1.7,26.29c1.73,5.36,3.82,7.64,2.71,11-1.72,5.15-26.3,11.38-30.65,4.26-3.17-5.19,2.71-3.5,4.76-16.37s-13.44-28.53-3.06-33.6C58.29,252.68,66.5,260.08,68.51,252.57Z"/><path class="cls-11" d="M63,243.12s4.1,9.55,5.91,10.45c1,.47,10.09,9.14,1.19,10.4-12.73,1.8-12.57-6.27-14-7.32-3.13-2.21.28-4.18,1.49-12.33C58,241.22,63,243.12,63,243.12Z"/><path class="cls-12" d="M56.42,244.55c2.16-.35,6.24.75,8.43.84a3.11,3.11,0,0,0,2.05-.34c.77-.58.82-1.75.78-2.74-.29-6.55-2.91-19.27-4.42-18.21a10.6,10.6,0,0,0-5.25.57,9.85,9.85,0,0,0-3.17,1.51,12.85,12.85,0,0,0-2.6,2.85c-1.74,2.37-3.39,5.17-3.05,8.16a13.13,13.13,0,0,0,.92,3.16,17.58,17.58,0,0,0,2,4c.88,1.22.14-.49,1.56-.15.5.12,1,.16,1.52.31S56.08,244.88,56.42,244.55Z"/><path class="cls-6" d="M57,232.81a4,4,0,0,1-.7-2.68c1-5.12,13.76-3.28,9.53-10.3-5.61-9.32-29.51-1.58-25.2,19.16,2.94,14.1,4.69,15.69,19.32,19.09a3.1,3.1,0,0,0,2.65-.77,3.89,3.89,0,0,0,1-2.93C63.68,252.14,57.33,233.43,57,232.81Z"/><path class="cls-3" d="M70.55,396.61c.26.24.55.45.79.71s.48.69.75,1c1,1.19,2.67,1.48,4.21,1.6a3.13,3.13,0,0,1,1.42.34,1,1,0,0,1,.49,1.26,1.42,1.42,0,0,1-1,.61,9.73,9.73,0,0,1-2.52.21c-.79,0-1.93-.07-2.45-.67A14.25,14.25,0,0,0,71,400c-.6,0,0,1.08-.11,1.63s0,.73-.86.76c-.6,0-.69-1.12-.79-1.71-.43-2.71-1.27-3.34-.55-4.52S70,396.07,70.55,396.61Z"/><path class="cls-11" d="M73.17,397.68c9.3,4.89-2.13,4.25-3.34-.9-.42-1.79-.29-2.35.7-2.08C71.94,395.09,70.63,396.34,73.17,397.68Z"/><path class="cls-3" d="M53.48,395.33c-.12.36.29.69.38,1.05s.1.89.18,1.33c.3,1.59,1.72,2.7,3.07,3.58a3.18,3.18,0,0,1,1.15,1,1.08,1.08,0,0,1-.18,1.4,1.48,1.48,0,0,1-1.27,0,10.33,10.33,0,0,1-2.43-1.07c-.71-.43-1.75-1-1.92-1.85a16.53,16.53,0,0,0-.26-2.13c-.57-.28-.78,1-1.13,1.46s-.17.66-1,.26c-.56-.29-.08-1.38.13-2,1-2.73.59-1.46,1-2.73a1.83,1.83,0,0,1,1.66-1.32A.62.62,0,0,1,53.48,395.33Z"/><path class="cls-12" d="M55.57,397.71c3,8.88-4.33-.6-2.73-2.72.74-1,.94-.79,1.86-.94C56.21,393.79,54.89,395.65,55.57,397.71Z"/><path class="cls-25" d="M66.68,210.75l70.08,62.83a7.88,7.88,0,0,0,11.1-.48l20.62-23a7.88,7.88,0,0,0-.73-11.09L97.68,176.19a7.89,7.89,0,0,0-11.11.48L66,199.66A7.88,7.88,0,0,0,66.68,210.75Z"/><path class="cls-6" d="M121.72,235.71l2-.66a8.69,8.69,0,1,0,16.82-4,5.66,5.66,0,0,1,3.34,6.4l-3.22,15.3a5.69,5.69,0,0,1-9.37,3.07l-11.64-10.44A5.7,5.7,0,0,1,121.72,235.71Z"/><path class="cls-3" d="M136.58,230.85l-12.82,4.2a8.68,8.68,0,0,1,16.82-4A5.59,5.59,0,0,0,136.58,230.85Z"/><path class="cls-6" d="M139.55,238.73a8.69,8.69,0,0,1-15.79-3.68l12.82-4.2a5.59,5.59,0,0,1,4,.18A8.67,8.67,0,0,1,139.55,238.73Z"/><path class="cls-3" d="M95.22,200.54,120.5,223.2a2.7,2.7,0,0,0,3.8-.2l0,0a2.7,2.7,0,0,0-.21-3.8L98.83,196.51a2.7,2.7,0,0,0-3.8.21l0,0A2.71,2.71,0,0,0,95.22,200.54Z"/><path class="cls-3" d="M89.45,206.43l13.78,12.36a2.71,2.71,0,0,0,3.82-.21h0a2.71,2.71,0,0,0-.21-3.82L93.06,202.4a2.71,2.71,0,0,0-3.82.21h0A2.71,2.71,0,0,0,89.45,206.43Z"/><path class="cls-12" d="M67,271c4.86,3.8,33.24-6,36.41-22.14,1.63-8.31-3.66-1.07-3.66-1.07-9.22,9.91-22,15.41-35.17,17.16C58.68,265.77,67,271,67,271Z"/><path class="cls-12" d="M98.82,256.93s4.07-6.46,4.69-7.37c3.32-4.92,3.81-10.64,2.11-10.76-4.4-.3-5.5,8.93-5.5,8.93A34.84,34.84,0,0,1,98.82,256.93Z"/><path class="cls-3" d="M64.5,262.68c3,.36,6.11-.36,9.15-.8a5.6,5.6,0,0,1,3.2.19,4,4,0,0,1,2,3.5,11.73,11.73,0,0,1-.81,4.15,8.06,8.06,0,0,1-1.42,2.14,2.88,2.88,0,0,1-1.13.5c-9,2.36-18.19-.16-25.86-5.35a9.43,9.43,0,0,1-2.63-2.4,5.63,5.63,0,0,1-.18-5.89,5.41,5.41,0,0,1,4-2.63c1.68-.09,2.5,1,3.81,2C57.57,260.25,60.8,262.23,64.5,262.68Z"/><path class="cls-12" d="M99.65,240.15a15.23,15.23,0,0,0,1.48,7,15.68,15.68,0,0,0,.79-5.07Z"/><path class="cls-12" d="M248.86,281.15a22.91,22.91,0,0,0,2.18,3.3c3.12,3.81,3.18-1.51.19-5.21Z"/><rect class="cls-3" x="88.36" y="93.97" width="102.75" height="44.32" rx="7.42" transform="translate(-8.35 10.85) rotate(-4.32)"/><circle class="cls-6" cx="111.65" cy="118.45" r="11.4" transform="translate(-50.79 128.89) rotate(-50.37)"/><line class="cls-10" x1="131.13" y1="104.06" x2="161.77" y2="102.26"/><path class="cls-10" d="M130.22,106.48a2.58,2.58,0,0,1,.75-5l30.65-1.81a2.59,2.59,0,0,1,.3,5.17l-30.64,1.8A2.36,2.36,0,0,1,130.22,106.48Z"/><line class="cls-3" x1="132.74" y1="115.06" x2="182.29" y2="112.15"/><line class="cls-26" x1="132.74" y1="115.06" x2="182.29" y2="112.15"/><line class="cls-3" x1="134.13" y1="125.69" x2="183.67" y2="122.78"/><line class="cls-26" x1="134.13" y1="125.69" x2="183.67" y2="122.78"/><path class="cls-16" d="M250.31,273.67l-.87-3-.78-3-1.54-6.05c-.9-4.08-1.88-8.12-2.63-12.22-1.6-8.15-2.9-16.35-3.85-24.57q-.7-6.16-1.19-12.3c-.14-2.05-.3-4.09-.39-6.12-.06-1-.1-2-.14-3l0-1.48c0-.49,0-1,0-1.38l-15,1.75-3.5.41c.12.67.23,1.2.35,1.77l.36,1.65c.24,1.08.49,2.17.75,3.23.51,2.14,1.07,4.25,1.61,6.36,1.13,4.21,2.33,8.36,3.6,12.49s2.56,8,3.95,11.92c1.47,4.15,3,8.27,4.63,12.33s3.28,7.87,4.94,11.77l2.68,5.76,1.34,2.86,1.44,2.82c.91,1.87,1.85,3.71,2.82,5.54l3.54-.48C251.67,278.35,251,276,250.31,273.67Z"/><path class="cls-27" d="M245.4,274.9,244,272.07l-1.34-2.86-2.68-5.76c-1.66-3.9-3.41-7.79-4.94-11.77s-3.16-8.17-4.63-12.32q.47,5.59,1.12,11.19c.44,4.15,1.1,8.25,1.69,12.4l1.08,6.17.55,3.09.64,3.07q.65,3.36,1.43,6.68l11.34-1.53Q246.77,277.69,245.4,274.9Z"/><path class="cls-13" d="M235.45,272.93l-.55-3.09-1.08-6.17c-.59-4.15-1.25-8.25-1.69-12.4q-.66-5.6-1.12-11.2-2.08-5.9-3.95-11.92c-1.27-4.13-2.47-8.28-3.6-12.49-.54-2.11-1.1-4.22-1.61-6.36-.26-1.06-.51-2.15-.75-3.23l-.36-1.65c-.12-.57-.23-1.1-.35-1.77l3.5-.41-12.23.33c.07.68.14,1.22.22,1.79l.23,1.68c.16,1.11.32,2.21.5,3.29.34,2.18.74,4.33,1.12,6.48q1.22,6.44,2.64,12.76,2.87,12.66,6.71,24.93c1.22,4.1,2.67,8.13,4,12.16l2.24,6,1.12,3,1.21,2.94q1.13,2.82,2.33,5.6l3.52-.48c-.51-2.22-1-4.44-1.43-6.68Z"/><path class="cls-11" d="M234.77,144.92a25.25,25.25,0,0,0-3.27,9.25c-.52,3.12,8.17,2.88,8.17,2.88s-14,6.79-19.35,1.65-.65-8.12-.65-8.12,1.23,1.06,5-.12c2.51-.78.27-8.25.27-8.25Z"/><path class="cls-6" d="M231.5,153.77s8,2.33,8.6,4.25-10,17,.69,46.31c0,3.63-28.55,3.06-29.88-1.94-4.66-17.45-4.6-51.83,4.72-52.62a10.39,10.39,0,0,1,5,1.11,5,5,0,0,0,2.41,5.63C226.51,158.43,231.5,153.77,231.5,153.77Z"/><path class="cls-12" d="M229.63,125.85s-2,4-4.25,8.52c-1.12,1.88-3.74,8.18-3.52,9.71s9.08,6.18,14.74,0c4.51-4.91,6.88-7.87,5-11.31S232.88,121.88,229.63,125.85Z"/><path class="cls-28" d="M248.73,127.28c-.4-1.18-.64-2.4-1.11-3.57-1.43-3.59-3.55-4.22-5-3.68,2.4-6.62-21.38-7.79-15.11,4.86,1.13,2.28,2.38,1.75,6.09,3.94,5.37,2.52,3.64,1.48,3.15,4-.53,2.72-2.21,2.27-.28,3.19s2.68-4.73,4.07-.84c.3.86-1.51,2.25-2.76,3.09a3.54,3.54,0,0,0-1.46,1.94c-.33,1.11-.91,2.94-1.83,5.4-1.59,4.31,8.4-1.39,12-3C255.29,138.55,249.09,128.38,248.73,127.28Z"/><path class="cls-12" d="M233.73,281.15s.38,6,3,5.86.6-5.08.6-5.08Z"/><line class="cls-29" x1="232.28" y1="282.01" x2="238.11" y2="282.01"/><line class="cls-29" x1="248.3" y1="281.74" x2="253.16" y2="280.73"/><path class="cls-16" d="M234.06,284.28l-4.44,1.41a.62.62,0,0,0-.31.22h0a.68.68,0,0,0,.48,1.1h8.88a.65.65,0,0,0,.63-.67v-1.41a.66.66,0,0,0-.63-.68h-4.43Z"/><path class="cls-16" d="M250,283.76l-2.3,1.41a.59.59,0,0,0-.3.22h0a.68.68,0,0,0,.48,1.1h6.73a.65.65,0,0,0,.63-.67l-.47-1.41a.65.65,0,0,0-.62-.68h-4Z"/><path class="cls-12" d="M199.12,126s-5.08,1.15-5.17,3.27c0,1.33,1.57,8.51,5.59,14.25,3.19,4.54,12.12,9.32,12.12,9.32s2.22-3.1-8-19.91C199.5,126,199.12,126,199.12,126Z"/><path class="cls-12" d="M194.81,131.17s-5.49-6.5-4.61-24.52c1.16-3.57,1.56,0,1.56,0s8.67,18.13,8.34,20.84S194.81,131.17,194.81,131.17Z"/><path class="cls-12" d="M190.75,108.91a9.22,9.22,0,0,1-1.18-3.67c.16-2.75.06-6.12.06-6.12,3.73-.61,2.12,6.86,2.12,6.86Z"/><path class="cls-12" d="M246.8,190.84s6.73-.51,7.41-2.58c.42-1.3.47-8.52-2.7-14.61-2.51-4.82-12.9-12.51-12.9-12.51s-2.26,4.77,5.14,22.43Z"/><path class="cls-12" d="M254.29,188.19s-2,11.43-18.66,21.29c-3.91,1.13-1-1.78-1-1.78s10.31-17.13,12.94-18.45S254.29,188.19,254.29,188.19Z"/><path class="cls-30" d="M238.5,157.17c4.94-.07,11.91,7.39,14.55,17.05-7.19,2.41-8.78,3.11-10.71,3.82-1.67.62-4.66-4.5-6.06-8.92C234.62,163.9,234.65,157.22,238.5,157.17Z"/><path class="cls-30" d="M216.21,149.75s-1.31-4.3-8-11.3c-1.34-2.71-13.4,7.22-11,8.9s11.93,13.27,11.93,13.27l1.2-2.34a38.54,38.54,0,0,1,4.63-7Z"/><line class="cls-31" x1="203.17" y1="210.75" x2="196.73" y2="381.71"/><line class="cls-31" x1="256.46" y1="210.75" x2="262.9" y2="381.71"/><g class="cls-32"><rect class="cls-18" x="206.65" y="234.94" width="53.48" height="0.95"/></g><g class="cls-32"><rect class="cls-18" x="208.19" y="247.91" width="53.34" height="0.95"/></g><g class="cls-32"><rect class="cls-18" x="210.01" y="260.89" width="53.85" height="0.95"/></g><g class="cls-32"><rect class="cls-18" x="212.15" y="273.86" width="53.29" height="0.95"/></g><g class="cls-32"><rect class="cls-18" x="213.64" y="286.84" width="53.63" height="0.95"/></g><g class="cls-32"><rect class="cls-18" x="215.81" y="299.81" width="53.29" height="0.95"/></g><g class="cls-32"><rect class="cls-18" x="217.64" y="312.79" width="53.29" height="0.95"/></g><g class="cls-32"><rect class="cls-18" x="219.48" y="325.76" width="53.29" height="0.95"/></g><g class="cls-32"><rect class="cls-18" x="221.31" y="338.74" width="53.29" height="0.95"/></g><g class="cls-32"><rect class="cls-18" x="222.97" y="351.71" width="53.47" height="0.95"/></g><g class="cls-32"><rect class="cls-18" x="224.87" y="364.69" width="53.79" height="0.95"/></g><line class="cls-33" x1="203.17" y1="210.75" x2="226.01" y2="372.48"/><line class="cls-33" x1="256.46" y1="210.75" x2="279.3" y2="372.48"/><rect class="cls-16" x="203.17" y="213.61" width="53.29" height="4.75"/><rect class="cls-3" x="203.17" y="210.75" width="53.29" height="2.85"/><path class="cls-12" d="M241,202.71s-1.61,2.71-2.79,5.09c-.71,1.46-1.28,1.87-3.28,3.19-2.3,1.53-3.42.31-3.72,0-2.32-2.59,5.61-4.75,5.61-4.75Z"/></g></g></svg>