<svg xmlns="http://www.w3.org/2000/svg" xmlns:xlink="http://www.w3.org/1999/xlink" viewBox="0 0 2774.43 2799.93"><defs><style>.cls-1{fill:url(#linear-gradient);}.cls-2{fill:#bdd0fb;}.cls-3,.cls-6,.cls-7{fill:#fff;}.cls-3{opacity:0.43;}.cls-3,.cls-6{isolation:isolate;}.cls-4{fill:#91b3fa;}.cls-5{fill:url(#linear-gradient-2);}.cls-6{opacity:0.5;}.cls-8{fill:url(#linear-gradient-3);}.cls-9{fill:url(#linear-gradient-4);}.cls-10{fill:url(#linear-gradient-5);}.cls-11{fill:url(#linear-gradient-6);}.cls-12{fill:url(#linear-gradient-7);}.cls-13{fill:url(#linear-gradient-8);}.cls-14{fill:url(#linear-gradient-9);}.cls-15{fill:url(#linear-gradient-10);}.cls-16{fill:url(#linear-gradient-11);}.cls-17{fill:url(#linear-gradient-12);}.cls-18{fill:url(#linear-gradient-13);}.cls-19{fill:url(#linear-gradient-14);}.cls-20{fill:url(#linear-gradient-15);}.cls-21{fill:url(#linear-gradient-16);}.cls-22{fill:url(#linear-gradient-17);}.cls-23{fill:url(#linear-gradient-18);}.cls-24{fill:url(#linear-gradient-19);}.cls-25{fill:url(#linear-gradient-20);}.cls-26{fill:url(#linear-gradient-21);}.cls-27{fill:url(#linear-gradient-22);}.cls-28{fill:url(#linear-gradient-23);}.cls-29{fill:url(#linear-gradient-24);}.cls-30{fill:url(#linear-gradient-25);}.cls-31{fill:url(#linear-gradient-26);}.cls-32{fill:url(#linear-gradient-27);}.cls-33{fill:url(#linear-gradient-28);}.cls-34{fill:url(#linear-gradient-29);}.cls-35{fill:url(#linear-gradient-30);}.cls-36{fill:url(#linear-gradient-31);}.cls-37{fill:url(#linear-gradient-32);}.cls-38{fill:url(#linear-gradient-33);}.cls-39{fill:url(#linear-gradient-34);}.cls-40{fill:url(#linear-gradient-35);}.cls-41{fill:url(#linear-gradient-36);}.cls-42{fill:url(#linear-gradient-37);}.cls-43{fill:url(#linear-gradient-38);}</style><linearGradient id="linear-gradient" x1="3121.69" y1="-656.69" x2="652.09" y2="2410.39" gradientTransform="matrix(1, 0, 0, -1, 0, 2937.84)" gradientUnits="userSpaceOnUse"><stop offset="0" stop-color="#dae3fe"/><stop offset="1" stop-color="#e9effd"/></linearGradient><linearGradient id="linear-gradient-2" x1="516.39" y1="1345.23" x2="2133.42" y2="1345.23" gradientTransform="matrix(1, 0, 0, -1, 0, 2937.84)" gradientUnits="userSpaceOnUse"><stop offset="0" stop-color="#09005d"/><stop offset="1" stop-color="#1a0f91"/></linearGradient><linearGradient id="linear-gradient-3" x1="1125.05" y1="2621.88" x2="1115.99" y2="1743.08" gradientTransform="matrix(1, 0, 0, -1, 0, 2937.84)" gradientUnits="userSpaceOnUse"><stop offset="0" stop-color="#e1473d"/><stop offset="1" stop-color="#e9605a"/></linearGradient><linearGradient id="linear-gradient-4" x1="189.61" y1="1050.14" x2="523.05" y2="1346.9" gradientTransform="matrix(1, 0, 0, -1, 0, 2937.84)" gradientUnits="userSpaceOnUse"><stop offset="0" stop-color="#4f52ff"/><stop offset="1" stop-color="#4042e2"/></linearGradient><linearGradient id="linear-gradient-5" x1="598.85" y1="1208.6" x2="928.99" y2="1637.38" gradientTransform="matrix(1, 0, 0, -1, 0, 2937.84)" gradientUnits="userSpaceOnUse"><stop offset="0" stop-color="#febbba"/><stop offset="1" stop-color="#ff928e"/></linearGradient><linearGradient id="linear-gradient-6" x1="1162.09" y1="191.32" x2="1235.32" y2="191.32" gradientTransform="translate(1394.62 2937.84) rotate(180)" xlink:href="#linear-gradient-4"/><linearGradient id="linear-gradient-7" x1="852.65" y1="-97.44" x2="958.04" y2="1134.28" gradientTransform="translate(1394.62 2937.84) rotate(180)" xlink:href="#linear-gradient-5"/><linearGradient id="linear-gradient-8" x1="821.86" y1="204.72" x2="940.38" y2="204.72" gradientTransform="translate(1394.62 2937.84) rotate(180)" xlink:href="#linear-gradient-4"/><linearGradient id="linear-gradient-9" x1="1064.65" y1="-115.76" x2="1170.06" y2="1116.28" gradientTransform="translate(1394.62 2937.84) rotate(180)" xlink:href="#linear-gradient-5"/><linearGradient id="linear-gradient-10" x1="181.57" y1="337.44" x2="516.77" y2="1098.46" xlink:href="#linear-gradient-3"/><linearGradient id="linear-gradient-11" x1="1145.53" y1="1120.66" x2="882.05" y2="699.09" gradientTransform="translate(1394.62 2937.84) rotate(180)" xlink:href="#linear-gradient-4"/><linearGradient id="linear-gradient-12" x1="551.6" y1="1512.65" x2="517.38" y2="1178.48" xlink:href="#linear-gradient-5"/><linearGradient id="linear-gradient-13" x1="952.37" y1="1255.16" x2="1125.11" y2="1562.57" gradientTransform="translate(1281.02 3048.43) rotate(-169.03)" xlink:href="#linear-gradient-5"/><linearGradient id="linear-gradient-14" x1="140.09" y1="1105.77" x2="473.53" y2="1402.53" xlink:href="#linear-gradient-4"/><linearGradient id="linear-gradient-15" x1="989.13" y1="1234.5" x2="1161.86" y2="1541.9" gradientTransform="translate(1281.02 3048.43) rotate(-169.03)" xlink:href="#linear-gradient-5"/><linearGradient id="linear-gradient-16" x1="619.47" y1="1192.73" x2="949.61" y2="1621.52" xlink:href="#linear-gradient-5"/><linearGradient id="linear-gradient-17" x1="869.78" y1="1552.11" x2="899.97" y2="1755.43" xlink:href="#linear-gradient-5"/><linearGradient id="linear-gradient-18" x1="138.17" y1="1004.77" x2="489.74" y2="1004.77" xlink:href="#linear-gradient-5"/><linearGradient id="linear-gradient-19" x1="2046.42" y1="3142.22" x2="198.79" y2="99.07" xlink:href="#linear-gradient-3"/><linearGradient id="linear-gradient-20" x1="2187.46" y1="3056.59" x2="339.84" y2="13.43" xlink:href="#linear-gradient-3"/><linearGradient id="linear-gradient-21" x1="938.98" y1="2116.93" x2="843.86" y2="1202.02" gradientTransform="matrix(1, 0.03, 0.03, -1, 44.4, 2943.42)" xlink:href="#linear-gradient-3"/><linearGradient id="linear-gradient-22" x1="1069.16" y1="2103.4" x2="974.05" y2="1188.52" gradientTransform="matrix(1, 0.03, 0.03, -1, 44.4, 2943.42)" xlink:href="#linear-gradient-3"/><linearGradient id="linear-gradient-23" x1="1208.26" y1="2088.94" x2="1113.15" y2="1174.03" gradientTransform="matrix(1, 0.03, 0.03, -1, 44.4, 2943.42)" xlink:href="#linear-gradient-3"/><linearGradient id="linear-gradient-24" x1="1484.01" y1="2060.27" x2="1388.9" y2="1145.39" gradientTransform="matrix(1, 0.03, 0.03, -1, 44.4, 2943.42)" xlink:href="#linear-gradient-3"/><linearGradient id="linear-gradient-25" x1="1623.1" y1="2045.81" x2="1527.99" y2="1130.93" gradientTransform="matrix(1, 0.03, 0.03, -1, 44.4, 2943.42)" xlink:href="#linear-gradient-3"/><linearGradient id="linear-gradient-26" x1="1338.47" y1="2075.41" x2="1243.36" y2="1160.52" gradientTransform="matrix(1, 0.03, 0.03, -1, 44.4, 2943.42)" xlink:href="#linear-gradient-3"/><linearGradient id="linear-gradient-27" x1="704.41" y1="2062.48" x2="716.21" y2="2062.48" xlink:href="#linear-gradient"/><linearGradient id="linear-gradient-28" x1="289.37" y1="1812.27" x2="735.6" y2="1812.27" xlink:href="#linear-gradient"/><linearGradient id="linear-gradient-29" x1="233.29" y1="1645.37" x2="252.74" y2="1645.37" xlink:href="#linear-gradient"/><linearGradient id="linear-gradient-30" x1="128.33" y1="1947.28" x2="654.96" y2="1947.28" xlink:href="#linear-gradient-4"/><linearGradient id="linear-gradient-31" x1="333.53" y1="1947.28" x2="449.79" y2="1947.28" xlink:href="#linear-gradient"/><linearGradient id="linear-gradient-32" x1="243.37" y1="1948.34" x2="541.49" y2="1948.34" xlink:href="#linear-gradient"/><linearGradient id="linear-gradient-33" x1="583.58" y1="2302.01" x2="876.13" y2="2302.01" xlink:href="#linear-gradient-4"/><linearGradient id="linear-gradient-34" x1="695.27" y1="2302.01" x2="764.45" y2="2302.01" xlink:href="#linear-gradient"/><linearGradient id="linear-gradient-35" x1="864.95" y1="2407.74" x2="880.06" y2="2407.74" xlink:href="#linear-gradient"/><linearGradient id="linear-gradient-36" x1="753.05" y1="2244.59" x2="910.73" y2="2244.59" xlink:href="#linear-gradient"/><linearGradient id="linear-gradient-37" x1="695.03" y1="2126.18" x2="715.5" y2="2126.18" xlink:href="#linear-gradient"/><linearGradient id="linear-gradient-38" x1="645.09" y1="2302.61" x2="815.35" y2="2302.61" xlink:href="#linear-gradient"/></defs><title>Asset 1</title><g id="Layer_2" data-name="Layer 2"><g id="Layer_1-2" data-name="Layer 1"><g id="Illustration"><path class="cls-1" d="M2442.32,2385c-56.73,59.71-110.4,98.23-152.81,128.65-498.48,357.66-1088.3,253.41-1213.66,228C890.74,2704,532.93,2631.31,274.2,2327.08c-391.38-460.26-330.44-1185.38-26.85-1664,55.53-87.56,348.85-573.51,945-651.44,360.81-47.17,781.39,48,1086,303.13C2917.69,850.35,2872.2,1932.42,2442.32,2385Z"/><path class="cls-2" d="M2774.34,1053.67c-.12-16.25-22-21.57-29.48-7.15-72.47,139.46-273.93,499.17-503,664.58-372.91,269.32-687.6,767.33-551.56,1087.66C1690.35,2798.76,2786,2824.77,2774.34,1053.67Z"/><path class="cls-3" d="M2701,1259c-1.39,4.76-2.91,8.58-4.37,12.76l-4.56,12.23-9.38,24.34c-6.37,16.17-13,32.24-19.59,48.32q-20,48.14-41.11,95.81c-28.17,63.55-58.07,126.32-88.89,188.63s-63.24,123.86-97,184.65-68.53,121-105.2,180.18c-73.09,118.37-152.69,232.88-240.06,341.3-44.25,53.74-89.93,106.35-138.56,156.21-49,49.48-100.07,96.9-154.39,140.39a2.74,2.74,0,1,1-3.51-4.21h0a2018.44,2018.44,0,0,0,149.68-144c47.55-50.35,92.12-103.42,135.27-157.57s84-110.1,123.67-166.9,76.88-115.28,113.78-173.91c73.35-117.62,140.37-239.11,204-362.31q47.53-92.52,91.47-186.86,22.08-47.1,43.18-94.65l20.68-47.73,10.09-24,4.91-12c1.54-4,3.27-8.2,4.48-11.73l.2-.58A2.72,2.72,0,0,1,2701,1259Z"/><path class="cls-4" d="M2333.38,365.67c-4.53-14.87-26-13.78-29,1.49-28.4,147.65-115,532.49-279.93,746.66-268.51,348.71-421.23,891.25-209.09,1147.9C1815.37,2261.72,2827.25,1986.67,2333.38,365.67Z"/><path class="cls-3" d="M2322.2,574c0,4.76-.32,8.67-.51,12.91l-.85,12.46-2,24.88c-1.42,16.57-3.1,33.11-4.77,49.65q-5.22,49.62-11.54,99.09c-8.49,66-18.78,131.69-30,197.24S2248.32,1101,2233.93,1166s-29.82,129.71-47.32,193.94c-34.73,128.49-76.5,255.22-127.07,378.49-25.92,61.35-53.46,122.06-84.47,181-31.42,58.73-65.37,116.16-103.35,170.85a2.67,2.67,0,0,1-4.44-2.95h0a1935,1935,0,0,0,97.92-172.92c29.86-59.14,56.26-120,81-181.4s47-123.89,67.87-186.8,39-126.68,56.9-190.51c35.18-127.87,63.5-257.56,88.27-387.9q18.36-97.8,32.93-196.3,7.41-49.2,13.8-98.58l6-49.41,2.72-24.72,1.23-12.37c.33-4,.76-8.41.91-12v-.6a2.65,2.65,0,0,1,5.29.09Z"/><path class="cls-5" d="M546,508.38c-9.53,384.72-40.47,1711.76-25.7,2182a94.41,94.41,0,0,0,91.32,91.44c246.4,8.06,955.23,28.5,1358.27,11.59A159,159,0,0,0,2122.35,2638c8.37-403.81,26.85-1539.59-17.08-2059.88a129.76,129.76,0,0,0-116.43-118.22C1720.5,433,1007.78,367.36,659.59,390A121.61,121.61,0,0,0,546,508.38Z"/><path class="cls-4" d="M646.14,628c-13.45,315.08-55.9,1363.29-42.43,1750.9a109.67,109.67,0,0,0,103.2,105.78c233,13.62,830.64,43.7,1172.41,16.33a123.23,123.23,0,0,0,113.14-116.34c17.32-321.45,67.05-1297.48,54.13-1680.74a121.16,121.16,0,0,0-110.35-116.55c-252.07-22.63-899.48-76.48-1189.9-60.63A106,106,0,0,0,646.14,628Z"/><path class="cls-6" d="M1155,457.18h0a22.15,22.15,0,0,0,21,22.16c58.2,3,222.14,11.67,295.41,15.92a22.17,22.17,0,0,0,23.37-20.89,22.8,22.8,0,0,0-.37-5.47l-.47-2.42a22.18,22.18,0,0,0-19.74-17.9c-49.53-4.53-199-17.12-298-13.58A22.13,22.13,0,0,0,1155,457.18Z"/><path class="cls-7" d="M1806.87,1764.07l-990.65-19c-32.31-.63-56.62,37-54,83.59,2.64,46.12,36.31,60,68,59.55l969.13,7.75c19.85-.3,37.55-29.47,39.74-65.4C1841.32,1794.33,1827,1764.44,1806.87,1764.07Z"/><path class="cls-7" d="M1809.55,2068,818.9,2049c-32.29-.62-56.62,37-54,83.59,2.64,46.13,36.33,60,68,59.56l969.13,7.75c19.85-.31,37.56-29.47,39.74-65.4C1844,2098.18,1829.66,2068.31,1809.55,2068Z"/><path class="cls-8" d="M1384.2,1805.61,846.58,1800c-17.53-.19-30.71,9.91-29.24,22.42s19.74,16.14,36.92,16L1380.2,1841c10.77-.07,20.37-7.9,21.53-17.55S1395.13,1805.73,1384.2,1805.61Z"/><path class="cls-9" d="M497,1476.06s-29.12,14.17-34.47,30.43c-4.3,13.07-36.49,14.74-39.67,40.41a29.48,29.48,0,0,1-24.65,25.91c-32.88,5-83.56,22.11-91.66,79.19-6.19,43.58,16,60.11,39.33,65.82,17.13,4.19,28.51,20.86,25,38.14-3.32,16.58,1.63,35.74,30.36,50.9,64.37,34,128.65-80.47,128.65-80.47l13.18-199.8Z"/><path class="cls-10" d="M847.29,1428.7S718.77,1632,565.94,1671.25c0,0,29.78,84.83,52.76,94.52,0,0,188-156.88,236.35-308.18Z"/><path class="cls-11" d="M232.45,2729l-4.17,34.25a14.16,14.16,0,0,1-12.4,12.38c-11,1.26-28.6,2.54-45.83.71a12.07,12.07,0,0,1-10.17-15.7c4.2-13.22,11.88-33.07,23-44.74h38a11.69,11.69,0,0,1,11.65,11.74A12.26,12.26,0,0,1,232.45,2729Z"/><path class="cls-12" d="M530,2327.79l6.41,37.71S514.91,2583,511.09,2670a68,68,0,0,0,10.09,38.74l37.34,60.63-94.89-56-1.89-11.58,15.54-21.36-20.35-243.63a74.64,74.64,0,0,1,8.51-41.35l19.62-36.87Z"/><path class="cls-13" d="M564.76,2778.13H534.48A18.2,18.2,0,0,1,520,2771c-9.43-12.26-29-36.19-38.34-36.82-12.59-.84-11,43.92-11,43.92h-7.06l-8.94-55.61A32.93,32.93,0,0,1,472,2688.1h0s2.88,21.29,18.48,30.7,63.5,43.13,63.5,43.13a43.35,43.35,0,0,1,12.3.32C575.81,2764,574.47,2778.13,564.76,2778.13Z"/><path class="cls-14" d="M400,2345.7S274.2,2584.31,254.2,2638.77s-27,99.92-27.26,104.23c-.42,6.72-8.79,13.17-31.84,13.17-11.9,0-17.73-4.77-20.58-9.38a13.42,13.42,0,0,1-.51-13c7.28-14.72,30.37-61.78,38.92-83.12,10.21-25.48,32.17-141,44.22-181.11s25.66-83.71,78.11-123.84C335.29,2345.7,371.3,2310.43,400,2345.7Z"/><path class="cls-15" d="M479.47,1954.75c32.45-137.49-49.75-215.25-49.75-215.25,51.86-49.79,146.36-72.43,146.36-72.43s90.17,65.91,79.47,117.52c-6.27,30.24-63.38,181.13-63.38,181.13S539.36,1990.72,479.47,1954.75Z"/><path class="cls-16" d="M407.53,2022.82c13.21-39.79,71.94-68.07,71.94-68.07,59.89,36,112.7,11,112.7,11S604,2011,595.84,2053.1s-59.46,312.43-59.46,312.43c-80.8,16.38-205.08-16.46-205.08-16.46C382.77,2257.65,394.33,2062.59,407.53,2022.82Z"/><path class="cls-17" d="M517.13,1576.2l-26.38,118.49c-2.52,10.44,7,8.73,17.54,6.74,17.28-3.25,39.56-10,47-23.41a12.68,12.68,0,0,0,1.35-4.46L568,1591.39a14.79,14.79,0,0,0-8.64-15.51l-21.87-9.69A14.76,14.76,0,0,0,518,1573.7,14.17,14.17,0,0,0,517.13,1576.2Z"/><path class="cls-18" d="M567.66,1468.18s28.08,19,40.15,67.43-7.54,65.78-27.64,64.72-49.25-7.29-74.51-42S530.86,1445,567.66,1468.18Z"/><path class="cls-19" d="M531.13,1538.78s-10.29-69.37,47.3-58.76l11.65,12.13s28.19-31.75-3-55.75-74.49-17.85-98.44,25.84-32.64,74.39-12.57,101.54,35.18,3.86,35.18,3.86-9.21-23.49-1.57-33.58S527.2,1540,527.2,1540Z"/><path class="cls-20" d="M523.26,1544.72S518.18,1509,500,1519.24s6.57,33.34,16.51,41.21Z"/><path class="cls-21" d="M846.41,1470.55c.39,4.19-15.21,7.09-20.17-10.79,1.37-7.76,3.79-41.75,9.74-47,31.69-28.15,88.22-59.81,88.22-59.81,6.32,9.65-2,16-2,16L894,1388c2.94,9.75,7.24,18.36,7.72,29.49a33,33,0,0,1-8.33,23.07c-5.62,6.42-13.18,14.7-20,21C860.51,1473.47,846.41,1470.55,846.41,1470.55Z"/><path class="cls-22" d="M861.72,1456.68l-4.28-1.75c.58-1.4,14.11-34.3,20.66-41.14,2.49-2.6,3.69-4.83,3.58-6.63a4.87,4.87,0,0,0-1.46-2.93l-22.85,12.22-10.09,15.79-3.89-2.48L854.12,1413l26.72-14.29,1.2,1c2.7,2.21,4.09,4.58,4.26,7.25.19,3.18-1.39,6.49-4.86,10.11C876.51,1422.15,865.53,1447.39,861.72,1456.68Z"/><path class="cls-23" d="M429.72,1739.5s-146,299.85-198.92,326c0,0-53.7,5.62-86.56,15.56-8.27,2.5-8,14.23.34,16.51,22.88,6.24,60.8,11.45,95.55-7.4,0,0-18.67,28-7.78,38.87,0,0,24.89-29.55,34.22-38.87C274.79,2082,424.34,1919,487.2,1820.62c5.08-8,1.56-31.56-2-40.3C477.12,1760.19,459.1,1728.07,429.72,1739.5Z"/><circle class="cls-7" cx="1324.91" cy="1126.52" r="438.04"/><path class="cls-24" d="M1467,968.82c0,74.74-60.59,155.42-135.32,155.42s-135.32-80.68-135.32-155.42,60.57-127.76,135.32-127.76S1467,894.08,1467,968.82Z"/><path class="cls-25" d="M1163.73,1412h330.35a80,80,0,0,0,76.16-55.6L1588,1300.8c13-40.68-8.14-84.73-48.26-99.39-134.44-49.16-273.45-42.85-415.85,4.53-39.9,13.28-62,56-51,96.53l13.69,50.45A80,80,0,0,0,1163.73,1412Z"/><path class="cls-26" d="M913.84,2119.39a36.11,36.11,0,0,1-36.27,34.86,34.39,34.39,0,0,1-34.12-34.66c0-.34,0-.68,0-1a36.13,36.13,0,0,1,36.35-34.87,34.38,34.38,0,0,1,34,34.71C913.86,2118.74,913.85,2119.07,913.84,2119.39Z"/><path class="cls-27" d="M1045.45,2121a35.9,35.9,0,0,1-36,34.72,34.16,34.16,0,0,1-33.83-34.49c0-.34,0-.69,0-1a35.9,35.9,0,0,1,36.06-34.72,34.16,34.16,0,0,1,33.76,34.56C1045.47,2120.3,1045.46,2120.63,1045.45,2121Z"/><path class="cls-28" d="M1186.56,2123.25a36.14,36.14,0,0,1-36.27,34.87,34.39,34.39,0,0,1-34.12-34.65c0-.34,0-.69,0-1a36.11,36.11,0,0,1,36.35-34.86,34.38,34.38,0,0,1,34,34.72C1186.57,2122.62,1186.57,2122.94,1186.56,2123.25Z"/><path class="cls-29" d="M1465.64,2126.58a35.92,35.92,0,0,1-36,34.71,34.17,34.17,0,0,1-33.83-34.53c0-.33,0-.67,0-1A35.89,35.89,0,0,1,1431.9,2091a34.18,34.18,0,0,1,33.76,34.58C1465.66,2125.94,1465.65,2126.26,1465.64,2126.58Z"/><path class="cls-30" d="M1606.74,2128.89a36.11,36.11,0,0,1-36.27,34.86,34.38,34.38,0,0,1-34.12-34.64c0-.34,0-.69,0-1a36.11,36.11,0,0,1,36.35-34.86,34.39,34.39,0,0,1,34,34.73C1606.75,2128.26,1606.75,2128.58,1606.74,2128.89Z"/><path class="cls-31" d="M1318.2,2124.78a35.9,35.9,0,0,1-36,34.72,34.15,34.15,0,0,1-33.83-34.47c0-.35,0-.7,0-1.06a35.9,35.9,0,0,1,36-34.72,34.17,34.17,0,0,1,33.82,34.52C1318.22,2124.11,1318.21,2124.45,1318.2,2124.78Z"/><path class="cls-4" d="M87.9,1146.34a3.45,3.45,0,0,1-3.23-1.86c-2.08-4-4.1-8.18-6-12.33a3.36,3.36,0,0,1,1.66-4.45l.07,0c4.22-1.9,4.86,2.84,10.48,13.77a3.34,3.34,0,0,1-1.46,4.5l-.08,0A3.67,3.67,0,0,1,87.9,1146.34Z"/><path class="cls-4" d="M63.28,1092.32c-2.6-8.33-4.9-16.86-6.83-25.36a3.39,3.39,0,0,1,2.63-4c5.1-1.08,3.15,2.88,10.82,27.41a3.38,3.38,0,0,1-2.26,4.22h0A3.47,3.47,0,0,1,63.28,1092.32ZM49.7,1025c-.83-8.72-1.33-17.63-1.47-26.18-.07-4.6,6.86-4.53,6.93-.12.14,8.52.62,17.12,1.43,25.66a3.46,3.46,0,0,1-6.89.64Zm.6-68.73c1-8.65,2.35-17.37,4-25.92.87-4.42,7.66-3.13,6.8,1.26-1.65,8.38-3,16.93-3.94,25.4-.48,4.41-7.36,3.66-6.86-.79Zm17.18-62.93a3.35,3.35,0,0,1-2.22-4.2l0-.06c2.78-8.28,5.93-16.55,9.37-24.6,1.77-4.14,8.16-1.54,6.39,2.6-3.37,7.88-6.46,16-9.19,24.1a3.46,3.46,0,0,1-4.37,2.11Zm27.78-62.46a3.32,3.32,0,0,1-1.33-4.51l.06-.11c4.45-7.55,9.25-15,14.29-22.22,2.59-3.68,8.3.12,5.71,3.82-4.93,7-9.64,14.37-14,21.77a3.51,3.51,0,0,1-4.73,1.2ZM137.84,776a3.4,3.4,0,0,1-2.44-.85,3.3,3.3,0,0,1-.38-4.66l.1-.11c5.92-6.53,12.17-12.9,18.58-18.94a3.54,3.54,0,0,1,4.9.08,3.36,3.36,0,0,1,0,4.74l-.05,0c-6.29,5.93-12.41,12.16-18.22,18.57A3.49,3.49,0,0,1,137.84,776Zm51.29-46a3.43,3.43,0,0,1-2.92-1.35,3.34,3.34,0,0,1,.63-4.68l.08-.06c7.14-5.21,14.59-10.21,22.12-14.85a3.52,3.52,0,0,1,4.78,1,3.35,3.35,0,0,1-1,4.62l-.08.06c-7.38,4.55-14.67,9.44-21.67,14.55A3.41,3.41,0,0,1,189.13,730Zm56.51-36.85a3.35,3.35,0,0,1,1.63-4.47l.06,0c8.07-3.67,16.4-7.08,24.76-10.12,4.31-1.56,6.7,4.78,2.41,6.34-8.19,3-16.35,6.32-24.26,9.92a3.5,3.5,0,0,1-4.6-1.68Zm232.48-18.34c-25.21-6.48-29.39-4.43-28.45-9.48a3.46,3.46,0,0,1,4-2.72c8.76,1.54,17.57,3.44,26.19,5.67,4.45,1.08,2.69,7.63-1.74,6.49ZM311.2,670.19a3.39,3.39,0,0,1,2.54-4.06h.05c8.66-2,17.53-3.65,26.34-5a3.38,3.38,0,1,1,1,6.69c-8.64,1.3-17.33,2.94-25.82,4.87A3.44,3.44,0,0,1,311.2,670.19ZM410,664.4c-26-1.3-29.71,1.55-29.85-3.6-.08-3.26,3.75-3.65,3.38-3.47,8.93-.24,18-.13,26.83.31a3.4,3.4,0,0,1,3.27,3.51v.05a3.42,3.42,0,0,1-3.59,3.2Z"/><path class="cls-4" d="M531.38,693.26c-10.6-4.7-16.25-5.43-14.48-9.69a3.49,3.49,0,0,1,4.52-1.86c11.16,4.43,16.42,5.85,14.55,9.87A4,4,0,0,1,531.38,693.26Z"/><path class="cls-32" d="M712.88,885.08a3.45,3.45,0,0,1-3.4-2.25c-1.51-4.2-3.14-8.42-4.82-12.53a3.37,3.37,0,0,1,1.88-4.39l.05,0a3.51,3.51,0,0,1,4.5,1.88c1.72,4.2,3.38,8.5,4.92,12.79a3.38,3.38,0,0,1-2.06,4.31h-.05A3.3,3.3,0,0,1,712.88,885.08Z"/><path class="cls-33" d="M395.14,1329.13c-9.6.11-19.32-.17-28.88-.84a3.39,3.39,0,0,1-3.2-3.57v0c.39-5.25,3.91-2,32-2.31a3.41,3.41,0,0,1,3.49,3.32v0C398.6,1329,394.76,1329.3,395.14,1329.13Zm42.84-6.51c-.78-5.2,3.51-2.8,30.72-9a3.47,3.47,0,0,1,4.16,2.52,3.4,3.4,0,0,1-2.57,4.07h0c-9.31,2.13-18.85,3.91-28.37,5.29A3.43,3.43,0,0,1,438,1322.62Zm-118.16-.75c-9.37-2-18.78-4.31-28-7a3.38,3.38,0,0,1-2.32-4.18l0,0c1.57-5,4.25-1.06,31.72,4.64a3.38,3.38,0,0,1,2.67,4v0A3.46,3.46,0,0,1,319.82,1321.87Zm194.19-15a3.45,3.45,0,0,1-3.37-2.17,3.37,3.37,0,0,1,1.94-4.35l.06,0c8.79-3.31,17.52-7,26-11a3.51,3.51,0,0,1,4.56,1.62,3.38,3.38,0,0,1-1.56,4.5l0,0c-8.62,4.09-17.53,7.88-26.5,11.25a3.42,3.42,0,0,1-1.08.23Zm66.52-33.72a3.41,3.41,0,0,1-3-1.5,3.33,3.33,0,0,1,.91-4.63l.09,0c7.81-5.1,15.5-10.6,22.86-16.33a3.51,3.51,0,0,1,4.87.53,3.33,3.33,0,0,1-.49,4.69l-.07.07c-7.5,5.85-15.36,11.46-23.33,16.67a3.48,3.48,0,0,1-1.84.58ZM637.9,1226a3.42,3.42,0,0,1-2.53-.93,3.33,3.33,0,0,1-.18-4.72l.07-.07c6.49-6.64,12.78-13.65,18.68-20.81a3.54,3.54,0,0,1,4.87-.51,3.35,3.35,0,0,1,.59,4.68l-.07.08c-6,7.3-12.44,14.45-19.06,21.23a3.41,3.41,0,0,1-2.37,1.08Zm45.52-58.24a3.4,3.4,0,0,1-1.92-.48,3.34,3.34,0,0,1-1.23-4.57l.05-.08c4.85-7.86,9.43-16,13.6-24.28a3.55,3.55,0,0,1,4.65-1.54,3.36,3.36,0,0,1,1.61,4.46.56.56,0,0,1,0,.08c-4.26,8.41-8.93,16.74-13.89,24.78a3.42,3.42,0,0,1-2.82,1.66Zm30.23-66.69c-5.1-1.67-1-4.18,5.64-30.88,1.08-4.35,7.81-2.78,6.73,1.57-2.26,9.12-5,18.25-8,27.15a3.49,3.49,0,0,1-4.37,2.18Zm16.48-71.5c-5.35-.53-1.91-3.82-1.45-31.32.07-4.46,7-4.39,6.92.09-.15,9.39-.72,18.87-1.68,28.18a3.45,3.45,0,0,1-3.79,3.07Zm-.27-73.21a3.44,3.44,0,0,1-3.57-3c-1.12-9.16-2.64-18.35-4.52-27.3a3.4,3.4,0,0,1,2.65-4h.05a3.43,3.43,0,0,1,4.07,2.61c1.93,9.15,3.47,18.53,4.62,27.86a3.41,3.41,0,0,1-3,3.78Z"/><path class="cls-34" d="M247.81,1298.47c-11-4.93-16.13-6.59-14.07-10.52,2.15-4.09,5.76-.68,17,4.38a3.34,3.34,0,0,1,1.72,4.4.36.36,0,0,0,0,.09A3.48,3.48,0,0,1,247.81,1298.47Z"/><path class="cls-35" d="M249.13,1204.74,292,1180a219.24,219.24,0,0,0,66.71,21.07c20.21,42.83,18.59,47.27,23.9,46.85l59.44-4.7a4.09,4.09,0,0,0,3.63-3l12.44-47A218.73,218.73,0,0,0,520.55,1162l46.26,17.69a4.13,4.13,0,0,0,4.6-1.13l38.7-44.39a3.93,3.93,0,0,0,.42-4.62l-25.23-41.81A208.8,208.8,0,0,0,607,1022.44L652.51,1003a4,4,0,0,0,2.44-4l-4.7-58.08a4,4,0,0,0-3-3.55l-48.09-12.07a209.49,209.49,0,0,0-31.89-61c16.82-44.56,21.06-46.39,17-49.74-45.12-36.25-45.38-40.85-50.07-38.15l-42.82,24.73A220.24,220.24,0,0,0,424.67,780c-20.2-42.81-18.59-47.27-23.91-46.85-59,5.68-61.73,2.63-63.06,7.68l-12.44,47a218.76,218.76,0,0,0-62.48,31.27c-45-16.15-47.37-20.56-50.86-16.55-37.52,44.6-41.84,44.49-39.11,49L198,893.4a208.46,208.46,0,0,0-21.68,65.25c-43.08,19.48-48.4,18.16-48,23.45,5.68,57.37,2.54,60.32,7.75,61.63l48.1,12.11a209.24,209.24,0,0,0,31.89,61c-16.76,44.41-21.08,46.37-17,49.74C244.2,1202.84,244.44,1207.44,249.13,1204.74Z"/><path class="cls-36" d="M336.6,1008.86c-10.27-29.66,6.07-62,36.44-72.09s63.42,5.83,73.69,35.49-6.08,62-36.44,72.09h0C379.92,1054.45,346.86,1038.51,336.6,1008.86Zm39.74-62.48c-24.64,8.19-38.49,34.49-29.92,59.21,8.43,24.36,35.58,37.44,60.52,29.15s38.36-34.85,29.93-59.21-35.62-37.43-60.51-29.15Z"/><path class="cls-37" d="M398.06,1135.12h0a151.4,151.4,0,0,1-25.63-1.13,5.08,5.08,0,0,1,.38-10.12,4.79,4.79,0,0,1,1,.05,141.42,141.42,0,0,0,29.52.72h0c74.32-5.87,130.47-68.3,127.63-140.45-.07-1.85-.18-3.7-.33-5.56-6.07-74.94-73.06-130.16-149.16-124.17s-133.27,71.27-127.27,146c3.61,44.49,26,65.9,26.16,70.56.2,5-6.44,7.24-9.42,3.17a143.26,143.26,0,0,1-27.45-78.87c-5-126.4,147.3-198.68,245.7-116.76,30.28,25.2,48.69,60.44,51.82,99.24q.25,3,.37,6A142.92,142.92,0,0,1,505.77,1084a149.52,149.52,0,0,1-101.57,50.81Q401.11,1135,398.06,1135.12Z"/><path class="cls-38" d="M683.25,747.57a119.8,119.8,0,0,0,37.93,9l13,24.35c1.44,2.7,3.24.45,35.08-4.08,2.92-.47,1.45-2.68,6.63-29a120.56,120.56,0,0,0,33.2-20.46l26.44,8c2.94.88,2.61-2,21.92-27.69a2.27,2.27,0,0,0,0-2.63l-15.88-22.61a121.08,121.08,0,0,0,9-37.94c23-12.93,26-12.41,25.52-15.38-5.77-32.31-4.16-34.09-7.1-34.6l-27.2-4.75a120.77,120.77,0,0,0-20.45-33.2l8-26.44c.89-2.93-2-2.62-27.69-21.92-2.39-1.72-2.82.8-25.24,15.86a121.09,121.09,0,0,0-37.93-9l-13-24.34c-1.44-2.71-3.24-.46-35.08,4.08-2.91.46-1.43,2.54-6.63,29a120.71,120.71,0,0,0-33.2,20.45l-26.44-8a2.28,2.28,0,0,0-2.49.84L602.26,564a2.25,2.25,0,0,0,0,2.64l15.89,22.6a120,120,0,0,0-9,37.93c-23,12.94-26,12.41-25.52,15.39,5.77,32.3,4.16,34.08,7.1,34.59l27.2,4.76a119.8,119.8,0,0,0,20.45,33.19c-7.12,25.42-9.62,27.17-7.17,28.94l26.84,19.43C660.4,765.17,660.94,762.56,683.25,747.57Z"/><path class="cls-39" d="M698.1,649.5a34.58,34.58,0,1,1,45.43,18.1h0A34.61,34.61,0,0,1,698.1,649.5Zm9.47-4.07a24.28,24.28,0,0,0,31.89,12.7h0c19.74-8.5,19.42-36.87-.61-44.85S699,625.56,707.57,645.43Z"/><path class="cls-4" d="M598.69,760.7c-3.21-3.36-6.32-6.89-9.26-10.51a3.42,3.42,0,0,1,.49-4.82h0c3.7-3,5.47,1.93,13.73,10.6a3.44,3.44,0,0,1-5,4.74h0Z"/><path class="cls-4" d="M565.2,711.17a182.93,182.93,0,0,1-9.75-26.57c-1.23-4.38,5.39-6.22,6.62-1.85,6.78,24.15,12.91,27.73,7.68,30.12a3.42,3.42,0,0,1-4.55-1.69Zm-13-68.63a3.44,3.44,0,0,1-3.5-3.38,180.42,180.42,0,0,1,1.71-28.25c.63-4.5,7.44-3.56,6.81,1a171.71,171.71,0,0,0-1.64,27.18,3.5,3.5,0,0,1-3.32,3.45Zm13.57-71.19a3.27,3.27,0,0,1-1.45-.25,3.44,3.44,0,0,1-1.86-4.49,181.67,181.67,0,0,1,12.81-25.23A3.46,3.46,0,0,1,581.2,545h0a176.24,176.24,0,0,0-12.32,24.28,3.42,3.42,0,0,1-3,2.12Zm40.7-59.91a3.39,3.39,0,0,1-2.52-5.86,180.78,180.78,0,0,1,21.82-18A3.44,3.44,0,0,1,630,493l-.28.19a174.92,174.92,0,0,0-21,17.31,3.41,3.41,0,0,1-2.18.92Zm57.93-40.86a3.44,3.44,0,0,1,2-4.42,183,183,0,0,1,27.2-7.84c4.43-.93,5.84,5.82,1.37,6.74a175,175,0,0,0-26.17,7.54,3.44,3.44,0,0,1-4.34-2Z"/><path class="cls-4" d="M752.68,463.05c-12.49-1.66-16.9-.24-16.65-4.88a3.4,3.4,0,0,1,3.56-3.24h.06c4.62.25,9.31.69,13.94,1.31a3.44,3.44,0,0,1-.92,6.81Z"/><path class="cls-40" d="M873.8,537.56c-7.13-10.46-11.11-12.77-7.48-15.67a3.44,3.44,0,0,1,4.82.54c2.9,3.61,5.7,7.4,8.33,11.26a3.44,3.44,0,0,1-5.68,3.87Z"/><path class="cls-41" d="M753.13,812c-.86-5.64,5.3-2.52,29-10,4.32-1.37,6.41,5.19,2.06,6.57a182.83,182.83,0,0,1-27.11,6.3,3.44,3.44,0,0,1-4-2.85Zm67.36-23.34a3.42,3.42,0,0,1,1.12-4.72c21.3-13.16,22.74-19.76,26.47-15.42a3.47,3.47,0,0,1-.38,4.85,181.3,181.3,0,0,1-22.48,16.41,3.45,3.45,0,0,1-4.73-1.12Zm52.77-47.88c-4.68-3.29,1.8-5.51,12.82-27.81,2-4.08,8.17-1,6.16,3a184.63,184.63,0,0,1-14.19,23.93,3.44,3.44,0,0,1-4.79.89ZM903,676c-5.61-1.19-.49-5.78.9-30.62.25-4.53,7.11-4.16,6.86.38a181.61,181.61,0,0,1-3.68,27.59A3.45,3.45,0,0,1,903,676Zm-2.14-74c-4.87-24.53-10.56-28.23-5.17-30.18a3.41,3.41,0,0,1,4.4,2,182.43,182.43,0,0,1,7.51,26.8,3.44,3.44,0,0,1-6.74,1.34Z"/><path class="cls-42" d="M711.73,816c-4.63-.47-9.3-1.13-13.87-2a3.42,3.42,0,0,1-2.77-4h0c.85-4.69,5.4-2.11,17.33-.9a3.44,3.44,0,0,1-.69,6.84Z"/><path class="cls-43" d="M725.83,720.25a5.15,5.15,0,0,1,.34-10.3,75,75,0,0,0,64.67-30.85c38.89-53.75-6.89-128.25-72.46-117.72a74.94,74.94,0,0,0-62.91,76.76c1.47,37.55,25.37,45.3,16.82,52.47A5.14,5.14,0,0,1,665,690h0a85.14,85.14,0,1,1,78.69,29.31h0A85.06,85.06,0,0,1,725.83,720.25Z"/></g></g></g></svg>