<svg xmlns="http://www.w3.org/2000/svg" xmlns:xlink="http://www.w3.org/1999/xlink" viewBox="0 0 3710 3710"><defs><style>.cls-1,.cls-4,.cls-7{fill:#fff;}.cls-2{fill:url(#linear-gradient);}.cls-3{fill:#bdd0fb;}.cls-4{opacity:0.43;}.cls-5{fill:#91b3fa;}.cls-6{fill:url(#linear-gradient-2);}.cls-7{opacity:0.5;}.cls-8{fill:url(#linear-gradient-3);}.cls-9{fill:url(#linear-gradient-4);}.cls-10{fill:url(#linear-gradient-5);}.cls-11{fill:url(#linear-gradient-6);}.cls-12{fill:url(#linear-gradient-7);}.cls-13{fill:url(#linear-gradient-8);}.cls-14{fill:url(#linear-gradient-9);}.cls-15{fill:url(#linear-gradient-10);}.cls-16{fill:url(#linear-gradient-11);}.cls-17{fill:url(#linear-gradient-12);}.cls-18{fill:url(#linear-gradient-13);}.cls-19{fill:url(#linear-gradient-14);}.cls-20{fill:url(#linear-gradient-15);}.cls-21{fill:url(#linear-gradient-16);}.cls-22{fill:url(#linear-gradient-17);}.cls-23{fill:url(#linear-gradient-18);}.cls-24{fill:url(#linear-gradient-19);}.cls-25{fill:url(#linear-gradient-20);}.cls-26{fill:url(#linear-gradient-21);}.cls-27{fill:url(#linear-gradient-22);}.cls-28{fill:url(#linear-gradient-23);}.cls-29{fill:url(#linear-gradient-24);}.cls-30{fill:url(#linear-gradient-25);}.cls-31{fill:url(#linear-gradient-26);}.cls-32{fill:url(#linear-gradient-27);}.cls-33{fill:url(#linear-gradient-28);}.cls-34{fill:url(#linear-gradient-29);}.cls-35{fill:url(#linear-gradient-30);}.cls-36{fill:url(#linear-gradient-31);}.cls-37{fill:url(#linear-gradient-32);}.cls-38{fill:url(#linear-gradient-33);}.cls-39{fill:url(#linear-gradient-34);}.cls-40{fill:url(#linear-gradient-35);}.cls-41{fill:url(#linear-gradient-36);}.cls-42{fill:url(#linear-gradient-37);}.cls-43{fill:url(#linear-gradient-38);}</style><linearGradient id="linear-gradient" x1="3628.52" y1="4049.56" x2="1158.92" y2="982.48" gradientUnits="userSpaceOnUse"><stop offset="0" stop-color="#dae3fe"/><stop offset="1" stop-color="#e9effd"/></linearGradient><linearGradient id="linear-gradient-2" x1="1023.19" y1="2047.68" x2="2640.23" y2="2047.68" gradientUnits="userSpaceOnUse"><stop offset="0" stop-color="#09005d"/><stop offset="1" stop-color="#1a0f91"/></linearGradient><linearGradient id="linear-gradient-3" x1="1631.88" y1="771.01" x2="1622.82" y2="1649.81" gradientUnits="userSpaceOnUse"><stop offset="0" stop-color="#e1473d"/><stop offset="1" stop-color="#e9605a"/></linearGradient><linearGradient id="linear-gradient-4" x1="696.42" y1="2342.76" x2="1029.86" y2="2046" gradientUnits="userSpaceOnUse"><stop offset="0" stop-color="#4f52ff"/><stop offset="1" stop-color="#4042e2"/></linearGradient><linearGradient id="linear-gradient-5" x1="1105.66" y1="2184.29" x2="1435.8" y2="1755.51" gradientUnits="userSpaceOnUse"><stop offset="0" stop-color="#febbba"/><stop offset="1" stop-color="#ff928e"/></linearGradient><linearGradient id="linear-gradient-6" x1="-1904.77" y1="3201.54" x2="-1831.54" y2="3201.54" gradientTransform="matrix(-1, 0, 0, 1, -1165.43, 0)" xlink:href="#linear-gradient-4"/><linearGradient id="linear-gradient-7" x1="-2214.22" y1="3490.33" x2="-2108.83" y2="2258.61" gradientTransform="matrix(-1, 0, 0, 1, -1165.43, 0)" xlink:href="#linear-gradient-5"/><linearGradient id="linear-gradient-8" x1="-2245" y1="3188.17" x2="-2126.51" y2="3188.17" gradientTransform="matrix(-1, 0, 0, 1, -1165.43, 0)" xlink:href="#linear-gradient-4"/><linearGradient id="linear-gradient-9" x1="-2002.22" y1="3508.65" x2="-1896.81" y2="2276.61" gradientTransform="matrix(-1, 0, 0, 1, -1165.43, 0)" xlink:href="#linear-gradient-5"/><linearGradient id="linear-gradient-10" x1="688.37" y1="3055.45" x2="1023.57" y2="2294.43" xlink:href="#linear-gradient-3"/><linearGradient id="linear-gradient-11" x1="-1921.34" y1="2272.22" x2="-2184.82" y2="2693.79" gradientTransform="matrix(-1, 0, 0, 1, -1165.43, 0)" xlink:href="#linear-gradient-4"/><linearGradient id="linear-gradient-12" x1="1058.4" y1="1880.23" x2="1024.18" y2="2214.4" xlink:href="#linear-gradient-5"/><linearGradient id="linear-gradient-13" x1="-2420.99" y1="1764.35" x2="-2248.25" y2="1456.94" gradientTransform="matrix(-0.98, -0.19, -0.19, 0.98, -936.34, -99.24)" xlink:href="#linear-gradient-5"/><linearGradient id="linear-gradient-14" x1="646.89" y1="2287.11" x2="980.33" y2="1990.35" xlink:href="#linear-gradient-4"/><linearGradient id="linear-gradient-15" x1="-2384.22" y1="1785.01" x2="-2211.49" y2="1477.61" gradientTransform="matrix(-0.98, -0.19, -0.19, 0.98, -936.34, -99.24)" xlink:href="#linear-gradient-5"/><linearGradient id="linear-gradient-16" x1="1126.28" y1="2200.17" x2="1456.42" y2="1771.38" xlink:href="#linear-gradient-5"/><linearGradient id="linear-gradient-17" x1="1376.58" y1="1840.78" x2="1406.77" y2="1637.46" xlink:href="#linear-gradient-5"/><linearGradient id="linear-gradient-18" x1="644.98" y1="2388.14" x2="996.56" y2="2388.14" xlink:href="#linear-gradient-5"/><linearGradient id="linear-gradient-19" x1="2553.23" y1="250.67" x2="705.6" y2="3293.82" xlink:href="#linear-gradient-3"/><linearGradient id="linear-gradient-20" x1="2694.27" y1="336.3" x2="846.65" y2="3379.46" xlink:href="#linear-gradient-3"/><linearGradient id="linear-gradient-21" x1="1500.17" y1="1217.69" x2="1405.06" y2="2132.57" gradientTransform="translate(97.33 47.54) rotate(1.84)" xlink:href="#linear-gradient-3"/><linearGradient id="linear-gradient-22" x1="1630.36" y1="1231.22" x2="1535.25" y2="2146.1" gradientTransform="translate(97.33 47.54) rotate(1.84)" xlink:href="#linear-gradient-3"/><linearGradient id="linear-gradient-23" x1="1769.45" y1="1245.68" x2="1674.34" y2="2160.56" gradientTransform="translate(97.33 47.54) rotate(1.84)" xlink:href="#linear-gradient-3"/><linearGradient id="linear-gradient-24" x1="2045.2" y1="1274.35" x2="1950.09" y2="2189.23" gradientTransform="translate(97.33 47.54) rotate(1.84)" xlink:href="#linear-gradient-3"/><linearGradient id="linear-gradient-25" x1="2184.29" y1="1288.81" x2="2089.18" y2="2203.69" gradientTransform="translate(97.33 47.54) rotate(1.84)" xlink:href="#linear-gradient-3"/><linearGradient id="linear-gradient-26" x1="1899.64" y1="1259.21" x2="1804.53" y2="2174.1" gradientTransform="translate(97.33 47.54) rotate(1.84)" xlink:href="#linear-gradient-3"/><linearGradient id="linear-gradient-27" x1="1211.21" y1="1330.42" x2="1223.01" y2="1330.42" xlink:href="#linear-gradient"/><linearGradient id="linear-gradient-28" x1="796.2" y1="1580.65" x2="1242.4" y2="1580.65" xlink:href="#linear-gradient"/><linearGradient id="linear-gradient-29" x1="740.09" y1="1747.51" x2="759.53" y2="1747.51" xlink:href="#linear-gradient"/><linearGradient id="linear-gradient-30" x1="635.15" y1="1445.61" x2="1161.77" y2="1445.61" xlink:href="#linear-gradient-4"/><linearGradient id="linear-gradient-31" x1="840.33" y1="1445.61" x2="956.6" y2="1445.61" xlink:href="#linear-gradient"/><linearGradient id="linear-gradient-32" x1="750.14" y1="1444.55" x2="1048.26" y2="1444.55" xlink:href="#linear-gradient"/><linearGradient id="linear-gradient-33" x1="1090.33" y1="1090.88" x2="1383.01" y2="1090.88" xlink:href="#linear-gradient-4"/><linearGradient id="linear-gradient-34" x1="1202.07" y1="1090.88" x2="1271.24" y2="1090.88" xlink:href="#linear-gradient"/><linearGradient id="linear-gradient-35" x1="1371.75" y1="985.15" x2="1386.87" y2="985.15" xlink:href="#linear-gradient"/><linearGradient id="linear-gradient-36" x1="1259.86" y1="1148.33" x2="1417.54" y2="1148.33" xlink:href="#linear-gradient"/><linearGradient id="linear-gradient-37" x1="1201.84" y1="1266.75" x2="1222.31" y2="1266.75" xlink:href="#linear-gradient"/><linearGradient id="linear-gradient-38" x1="1151.9" y1="1090.28" x2="1322.17" y2="1090.28" xlink:href="#linear-gradient"/></defs><title>20943394 [Converted]</title><g id="Background"><rect class="cls-1" width="3710" height="3710"/></g><g id="Illustration"><path class="cls-2" d="M2949.12,2840c-56.73,59.71-110.4,98.23-152.81,128.65-498.48,357.66-1088.3,253.41-1213.66,227.95C1397.54,3159,1039.73,3086.35,781,2782.13c-391.38-460.26-330.44-1185.38-26.85-1664,55.53-87.56,348.85-573.51,945-651.44,360.81-47.17,781.39,48,1086,303.13C3424.49,1305.4,3379,2387.47,2949.12,2840Z"/><path class="cls-3" d="M3281.14,1508.72c-.11-16.25-22-21.57-29.48-7.15-72.47,139.46-273.93,499.17-503,664.58-372.91,269.32-687.59,767.33-551.55,1087.66C2197.15,3253.81,3292.81,3279.82,3281.14,1508.72Z"/><path class="cls-4" d="M3207.81,1714c-1.39,4.76-2.91,8.58-4.37,12.76l-4.56,12.23-9.38,24.34c-6.37,16.17-13,32.24-19.59,48.32q-20,48.13-41.1,95.81c-28.18,63.55-58.07,126.32-88.9,188.63s-63.24,123.86-97,184.65-68.53,121.05-105.2,180.18c-73.09,118.37-152.69,232.88-240.06,341.3-44.25,53.74-89.93,106.35-138.55,156.21-49,49.48-100.07,96.9-154.4,140.39a2.74,2.74,0,0,1-3.51-4.21l0,0a2019,2019,0,0,0,149.68-144c47.55-50.35,92.13-103.42,135.27-157.57s84-110.1,123.68-166.9,76.87-115.28,113.78-173.91c73.34-117.62,140.37-239.11,204-362.31q47.52-92.52,91.47-186.86,22.08-47.1,43.18-94.65l20.68-47.73,10.09-24,4.91-12c1.54-4,3.27-8.2,4.48-11.73l.2-.58a2.72,2.72,0,0,1,5.18,1.64Z"/><path class="cls-5" d="M2840.18,820.72c-4.53-14.87-26-13.78-29,1.49-28.4,147.65-115,532.49-279.93,746.66-268.51,348.71-421.23,891.25-209.09,1147.9C2322.17,2716.77,3334.05,2441.72,2840.18,820.72Z"/><path class="cls-4" d="M2829,1029c0,4.76-.32,8.67-.51,12.91l-.85,12.46-2,24.88c-1.42,16.57-3.09,33.11-4.77,49.65q-5.21,49.61-11.53,99.09c-8.49,66-18.78,131.69-30,197.24S2755.12,1556,2740.73,1621s-29.82,129.71-47.32,193.94c-34.73,128.49-76.5,255.22-127.06,378.49-25.93,61.35-53.47,122.06-84.48,181-31.42,58.73-65.36,116.16-103.34,170.85a2.67,2.67,0,0,1-4.44-2.95l0,0A1935,1935,0,0,0,2472,2369.41c29.86-59.14,56.26-120,81-181.4s47-123.9,67.87-186.8,39-126.68,56.9-190.51c35.18-127.87,63.5-257.56,88.27-387.9q18.36-97.8,32.93-196.3,7.41-49.21,13.8-98.58l6-49.41,2.72-24.72,1.23-12.37c.33-4.05.76-8.41.91-12l0-.6a2.65,2.65,0,0,1,5.29.09Z"/><path class="cls-6" d="M1052.82,963.43c-9.53,384.72-40.47,1711.76-25.7,2182a94.42,94.42,0,0,0,91.32,91.44c246.4,8.06,955.23,28.5,1358.27,11.59A159,159,0,0,0,2629.15,3093c8.37-403.81,26.85-1539.59-17.07-2059.89a129.75,129.75,0,0,0-116.44-118.21C2227.3,888,1514.58,822.41,1166.39,845A121.61,121.61,0,0,0,1052.82,963.43Z"/><path class="cls-5" d="M1152.94,1083c-13.45,315.08-55.9,1363.29-42.43,1750.89a109.67,109.67,0,0,0,103.21,105.78c233,13.63,830.64,43.7,1172.4,16.33a123.24,123.24,0,0,0,113.15-116.34c17.32-321.45,67.05-1297.48,54.13-1680.74a121.17,121.17,0,0,0-110.35-116.55c-252.07-22.63-899.48-76.48-1189.9-60.63A106,106,0,0,0,1152.94,1083Z"/><path class="cls-7" d="M1661.78,912.23h0a22.16,22.16,0,0,0,21,22.16c58.2,3,222.14,11.67,295.41,15.92a22.17,22.17,0,0,0,23-26.36l-.47-2.42a22.17,22.17,0,0,0-19.74-17.9c-49.53-4.53-199-17.12-298-13.58A22.13,22.13,0,0,0,1661.78,912.23Z"/><path class="cls-1" d="M2313.67,2219.11l-990.65-19c-32.3-.62-56.62,37-54,83.59,2.64,46.13,36.32,60,68,59.55l969.13,7.75c19.85-.3,37.55-29.47,39.74-65.4C2348.12,2249.37,2333.77,2219.49,2313.67,2219.11Z"/><path class="cls-1" d="M2316.35,2523l-990.65-19c-32.29-.62-56.62,37-54,83.59,2.64,46.13,36.33,60,68,59.55l969.13,7.75c19.85-.3,37.56-29.47,39.74-65.4C2350.8,2553.23,2336.46,2523.35,2316.35,2523Z"/><path class="cls-8" d="M1891,2260.66l-537.62-5.58c-17.53-.19-30.71,9.91-29.24,22.42s19.74,16.14,36.92,16l525.94,2.55c10.77-.07,20.37-7.9,21.53-17.55S1901.93,2260.78,1891,2260.66Z"/><path class="cls-9" d="M1003.84,1931.11s-29.12,14.17-34.47,30.43c-4.3,13.06-36.49,14.74-39.67,40.41-1.64,13.26-11.45,23.87-24.65,25.9-32.88,5-83.56,22.11-91.66,79.2-6.19,43.57,16,60.1,39.33,65.81,17.13,4.2,28.51,20.86,25,38.15-3.32,16.58,1.63,35.74,30.36,50.9,64.37,34,128.65-80.47,128.65-80.47l13.18-199.8Z"/><path class="cls-10" d="M1354.09,1883.75S1225.57,2087,1072.74,2126.3c0,0,29.78,84.82,52.76,94.52,0,0,188-156.88,236.35-308.19Z"/><path class="cls-11" d="M739.25,3184l-4.17,34.25a14.14,14.14,0,0,1-12.4,12.37c-11,1.26-28.6,2.54-45.83.72a12.11,12.11,0,0,1-10.17-15.71c4.2-13.22,11.88-33.06,23-44.74h38A11.7,11.7,0,0,1,739.25,3184Z"/><path class="cls-12" d="M1036.77,2782.84l6.41,37.71S1021.71,3038,1017.89,3125a68.14,68.14,0,0,0,10.09,38.74l37.34,60.63-94.89-56-1.89-11.58,15.54-21.36-20.35-243.63a74.71,74.71,0,0,1,8.51-41.35l19.62-36.87Z"/><path class="cls-13" d="M1071.56,3233.18h-30.28a18.23,18.23,0,0,1-14.47-7.1c-9.43-12.26-29-36.19-38.34-36.82-12.59-.84-11,43.92-11,43.92h-7.06l-8.94-55.61a32.93,32.93,0,0,1,17.28-34.42h0s2.88,21.29,18.48,30.7,63.5,43.13,63.5,43.13a43.21,43.21,0,0,1,12.3.32C1082.61,3219,1081.27,3233.18,1071.56,3233.18Z"/><path class="cls-14" d="M906.81,2800.75S781,3039.35,761,3093.82s-27,99.92-27.26,104.23c-.42,6.72-8.79,13.17-31.84,13.17-11.9,0-17.73-4.77-20.58-9.38a13.46,13.46,0,0,1-.51-13c7.28-14.73,30.37-61.78,38.92-83.13,10.21-25.48,32.17-141,44.22-181.11s25.66-83.71,78.11-123.83C842.09,2800.75,878.1,2765.48,906.81,2800.75Z"/><path class="cls-15" d="M986.27,2409.8c32.45-137.49-49.75-215.25-49.75-215.25,51.86-49.79,146.36-72.44,146.36-72.44s90.17,65.92,79.47,117.52c-6.27,30.24-63.38,181.14-63.38,181.14S1046.16,2445.77,986.27,2409.8Z"/><path class="cls-16" d="M914.33,2477.86c13.21-39.78,71.94-68.06,71.94-68.06,59.89,36,112.7,11,112.7,11s11.85,45.27,3.67,87.34-59.46,312.44-59.46,312.44c-80.8,16.38-205.08-16.47-205.08-16.47C889.57,2712.7,901.13,2517.64,914.33,2477.86Z"/><path class="cls-17" d="M1023.93,2031.25l-26.38,118.49c-2.52,10.44,7,8.73,17.54,6.74,17.28-3.25,39.56-10,47-23.41a12.67,12.67,0,0,0,1.35-4.47l11.34-82.16a14.76,14.76,0,0,0-8.64-15.51l-21.87-9.7A14.77,14.77,0,0,0,1023.93,2031.25Z"/><path class="cls-18" d="M1074.46,1923.23s28.08,19,40.15,67.43-7.54,65.78-27.64,64.71-49.25-7.28-74.51-42S1037.66,1900,1074.46,1923.23Z"/><path class="cls-19" d="M1037.93,1993.83s-10.29-69.37,47.3-58.76l11.65,12.13s28.19-31.75-3-55.75-74.49-17.85-98.44,25.84-32.64,74.39-12.57,101.54,35.18,3.86,35.18,3.86-9.21-23.49-1.57-33.58S1034,1995,1034,1995Z"/><path class="cls-20" d="M1030.06,1999.77s-5.08-35.69-23.31-25.48,6.57,33.34,16.51,41.21Z"/><path class="cls-21" d="M1353.21,1925.6c.39,4.19-15.21,7.09-20.17-10.79,1.37-7.76,3.79-41.75,9.74-47C1374.47,1839.66,1431,1808,1431,1808c6.32,9.65-2,16-2,16l-28.21,19c2.94,9.75,7.24,18.36,7.72,29.49a33,33,0,0,1-8.33,23.07c-5.62,6.42-13.18,14.7-20,21C1367.31,1928.52,1353.21,1925.6,1353.21,1925.6Z"/><path class="cls-22" d="M1368.52,1911.73l-4.28-1.75c.58-1.4,14.11-34.3,20.66-41.14,2.49-2.6,3.69-4.83,3.58-6.63a4.8,4.8,0,0,0-1.46-2.93l-22.85,12.22-10.09,15.79-3.89-2.48,10.73-16.81,26.72-14.29,1.2,1c2.7,2.21,4.09,4.58,4.26,7.25.19,3.18-1.39,6.49-4.86,10.11C1383.31,1877.2,1372.33,1902.44,1368.52,1911.73Z"/><path class="cls-23" d="M936.52,2194.55s-146,299.84-198.92,326c0,0-53.7,5.61-86.56,15.55-8.27,2.5-8,14.24.34,16.51,22.88,6.24,60.8,11.46,95.55-7.4,0,0-18.67,28-7.78,38.88,0,0,24.89-29.55,34.22-38.88C781.59,2537,931.14,2374,994,2275.67c5.08-8,1.56-31.56-2-40.3C983.92,2215.24,965.9,2183.11,936.52,2194.55Z"/><circle class="cls-1" cx="1831.71" cy="1581.57" r="438.04"/><path class="cls-24" d="M1973.79,1423.87c0,74.74-60.59,155.42-135.32,155.42s-135.32-80.68-135.32-155.42,60.58-127.76,135.32-127.76S1973.79,1349.13,1973.79,1423.87Z"/><path class="cls-25" d="M1670.53,1867h330.35a80,80,0,0,0,76.16-55.6l17.77-55.55c13-40.68-8.14-84.73-48.26-99.39-134.44-49.16-273.45-42.85-415.85,4.53-39.9,13.28-62,56-51,96.53l13.69,50.45A80,80,0,0,0,1670.53,1867Z"/><path class="cls-26" d="M1420.64,2574.44a36.11,36.11,0,0,1-36.27,34.86,34.39,34.39,0,0,1-34.09-35.68,36.12,36.12,0,0,1,36.35-34.86A34.37,34.37,0,0,1,1420.64,2574.44Z"/><path class="cls-27" d="M1552.25,2576a35.9,35.9,0,0,1-36,34.72,34.16,34.16,0,0,1-33.8-35.53,35.9,35.9,0,0,1,36.06-34.72A34.16,34.16,0,0,1,1552.25,2576Z"/><path class="cls-28" d="M1693.36,2578.3a36.13,36.13,0,0,1-36.27,34.86,34.38,34.38,0,0,1-34.09-35.68,36.12,36.12,0,0,1,36.35-34.86A34.38,34.38,0,0,1,1693.36,2578.3Z"/><path class="cls-29" d="M1972.44,2581.62a35.92,35.92,0,0,1-36,34.72,34.18,34.18,0,0,1-33.8-35.54,35.89,35.89,0,0,1,36.06-34.71A34.17,34.17,0,0,1,1972.44,2581.62Z"/><path class="cls-30" d="M2113.54,2583.94a36.11,36.11,0,0,1-36.27,34.86,34.38,34.38,0,0,1-34.09-35.68,36.11,36.11,0,0,1,36.35-34.85A34.38,34.38,0,0,1,2113.54,2583.94Z"/><path class="cls-31" d="M1825,2579.83a35.9,35.9,0,0,1-36,34.72,34.15,34.15,0,0,1-33.8-35.53,35.89,35.89,0,0,1,36-34.72A34.17,34.17,0,0,1,1825,2579.83Z"/><path class="cls-5" d="M594.7,1601.39a3.48,3.48,0,0,1-3.23-1.86c-2.08-4-4.1-8.18-6-12.33a3.36,3.36,0,0,1,1.73-4.48c4.22-1.9,4.86,2.84,10.48,13.76a3.35,3.35,0,0,1-1.54,4.55A3.64,3.64,0,0,1,594.7,1601.39Z"/><path class="cls-5" d="M570.08,1547.37c-2.6-8.33-4.9-16.86-6.83-25.36a3.39,3.39,0,0,1,2.63-4c5.1-1.08,3.15,2.88,10.82,27.41a3.38,3.38,0,0,1-2.3,4.23A3.48,3.48,0,0,1,570.08,1547.37ZM556.5,1480c-.83-8.72-1.33-17.63-1.47-26.18-.07-4.6,6.86-4.53,6.93-.12.14,8.52.62,17.12,1.43,25.66a3.46,3.46,0,0,1-6.89.64Zm.6-68.73c1-8.65,2.35-17.37,4-25.92.87-4.42,7.66-3.13,6.8,1.26-1.65,8.38-3,16.93-3.94,25.4C563.48,1416.42,556.6,1415.67,557.1,1411.22Zm17.18-62.93a3.36,3.36,0,0,1-2.2-4.26c2.78-8.28,5.93-16.55,9.37-24.6,1.77-4.14,8.16-1.54,6.39,2.6-3.37,7.88-6.46,16-9.19,24.1A3.47,3.47,0,0,1,574.28,1348.29Zm27.78-62.46a3.33,3.33,0,0,1-1.27-4.62c4.45-7.55,9.25-15,14.29-22.22,2.59-3.69,8.3.12,5.71,3.82-4.93,7-9.64,14.37-14,21.77A3.52,3.52,0,0,1,602.06,1285.83ZM644.64,1231a3.45,3.45,0,0,1-2.44-.85,3.31,3.31,0,0,1-.28-4.77c5.92-6.53,12.17-12.9,18.58-18.94a3.53,3.53,0,0,1,4.9.08,3.35,3.35,0,0,1-.09,4.79c-6.29,5.92-12.41,12.16-18.22,18.56A3.48,3.48,0,0,1,644.64,1231ZM695.93,1185a3.46,3.46,0,0,1-2.92-1.35,3.34,3.34,0,0,1,.71-4.74c7.14-5.21,14.59-10.21,22.12-14.85a3.51,3.51,0,0,1,4.78,1,3.34,3.34,0,0,1-1.09,4.67c-7.38,4.55-14.67,9.45-21.67,14.55A3.41,3.41,0,0,1,695.93,1185Zm56.51-36.85a3.37,3.37,0,0,1,1.69-4.5c8.07-3.67,16.4-7.08,24.76-10.12,4.31-1.56,6.7,4.78,2.41,6.34-8.19,3-16.35,6.32-24.26,9.92A3.51,3.51,0,0,1,752.44,1148.11Zm232.48-18.34c-25.21-6.48-29.39-4.43-28.45-9.48a3.47,3.47,0,0,1,4-2.73c8.76,1.54,17.57,3.45,26.19,5.67C991.11,1124.36,989.35,1130.91,984.92,1129.77ZM818,1125.24a3.39,3.39,0,0,1,2.59-4.07c8.66-2,17.53-3.65,26.34-5,4.53-.68,5.56,6,1,6.69-8.64,1.3-17.33,2.94-25.82,4.87A3.45,3.45,0,0,1,818,1125.24Zm98.81-5.79c-26-1.3-29.71,1.55-29.85-3.6-.08-3.26,3.75-3.65,3.38-3.47,8.93-.24,18-.13,26.83.31a3.39,3.39,0,0,1,3.27,3.55A3.43,3.43,0,0,1,916.85,1119.45Z"/><path class="cls-5" d="M1038.18,1148.31c-10.6-4.71-16.25-5.44-14.48-9.7a3.5,3.5,0,0,1,4.52-1.86c11.16,4.43,16.42,5.85,14.55,9.87A4,4,0,0,1,1038.18,1148.31Z"/><path class="cls-32" d="M1219.68,1340.13a3.47,3.47,0,0,1-3.4-2.25c-1.51-4.2-3.14-8.42-4.82-12.53a3.38,3.38,0,0,1,1.93-4.41,3.49,3.49,0,0,1,4.5,1.88c1.72,4.2,3.38,8.5,4.92,12.79a3.37,3.37,0,0,1-2.11,4.32A3.69,3.69,0,0,1,1219.68,1340.13Z"/><path class="cls-33" d="M901.94,1784.18c-9.6.11-19.32-.17-28.88-.84a3.39,3.39,0,0,1-3.19-3.62c.39-5.25,3.91-2,32-2.31a3.41,3.41,0,0,1,3.5,3.34C905.4,1784,901.56,1784.35,901.94,1784.18Zm42.84-6.51c-.78-5.2,3.51-2.8,30.72-9a3.46,3.46,0,0,1,4.16,2.52,3.4,3.4,0,0,1-2.59,4.07c-9.31,2.13-18.85,3.91-28.37,5.29A3.44,3.44,0,0,1,944.78,1777.67Zm-118.16-.75c-9.37-2-18.78-4.32-28-7a3.38,3.38,0,0,1-2.3-4.23c1.57-5,4.25-1.07,31.72,4.64a3.37,3.37,0,0,1,2.66,4A3.47,3.47,0,0,1,826.62,1776.92Zm194.19-15a3.47,3.47,0,0,1-3.37-2.17,3.37,3.37,0,0,1,2-4.37c8.79-3.31,17.52-7,26-11A3.5,3.5,0,0,1,1050,1746a3.36,3.36,0,0,1-1.61,4.52c-8.62,4.09-17.53,7.88-26.5,11.25A3.67,3.67,0,0,1,1020.81,1762Zm66.52-33.72a3.45,3.45,0,0,1-3-1.5,3.34,3.34,0,0,1,1-4.69c7.81-5.1,15.5-10.6,22.86-16.33a3.52,3.52,0,0,1,4.87.53,3.34,3.34,0,0,1-.56,4.76c-7.5,5.85-15.36,11.46-23.33,16.67A3.45,3.45,0,0,1,1087.33,1728.23Zm57.37-47.15a3.49,3.49,0,0,1-2.53-.93,3.34,3.34,0,0,1-.11-4.79c6.49-6.64,12.78-13.65,18.68-20.81a3.53,3.53,0,0,1,4.87-.51,3.33,3.33,0,0,1,.52,4.76c-6,7.3-12.44,14.45-19.06,21.23A3.45,3.45,0,0,1,1144.7,1681.08Zm45.52-58.24a3.5,3.5,0,0,1-1.92-.48,3.35,3.35,0,0,1-1.18-4.65c4.86-7.86,9.44-16,13.61-24.28a3.52,3.52,0,0,1,4.64-1.54,3.35,3.35,0,0,1,1.57,4.54c-4.26,8.41-8.93,16.74-13.89,24.78A3.47,3.47,0,0,1,1190.22,1622.84Zm30.23-66.7c-5.1-1.66-1-4.17,5.64-30.88,1.08-4.35,7.81-2.77,6.73,1.58-2.26,9.12-5,18.25-8,27.15A3.49,3.49,0,0,1,1220.45,1556.14Zm16.48-71.5c-5.35-.52-1.91-3.81-1.45-31.31.07-4.46,7-4.39,6.92.09-.15,9.39-.72,18.87-1.68,28.18A3.45,3.45,0,0,1,1236.93,1484.64Zm-.27-73.21a3.44,3.44,0,0,1-3.57-3c-1.12-9.16-2.64-18.35-4.52-27.3a3.39,3.39,0,0,1,2.7-4,3.44,3.44,0,0,1,4.08,2.62c1.92,9.14,3.47,18.52,4.62,27.86a3.41,3.41,0,0,1-3,3.77Z"/><path class="cls-34" d="M754.61,1753.52c-11-4.93-16.13-6.59-14.07-10.52,2.15-4.09,5.76-.68,17,4.38a3.34,3.34,0,0,1,1.68,4.49A3.49,3.49,0,0,1,754.61,1753.52Z"/><path class="cls-35" d="M755.93,1659.79l42.83-24.73a219.67,219.67,0,0,0,66.71,21.07c20.21,42.83,18.59,47.27,23.9,46.85l59.44-4.7a4.09,4.09,0,0,0,3.63-3l12.44-47a218.7,218.7,0,0,0,62.47-31.28l46.26,17.69a4.15,4.15,0,0,0,4.6-1.13l38.7-44.39a3.93,3.93,0,0,0,.42-4.62l-25.23-41.81a208.55,208.55,0,0,0,21.68-65.25l45.53-19.47a4,4,0,0,0,2.44-4l-4.7-58.08a4,4,0,0,0-3-3.55l-48.09-12.07a209.16,209.16,0,0,0-31.89-61c16.82-44.56,21.06-46.39,17-49.74-45.12-36.25-45.38-40.85-50.07-38.15l-42.82,24.73a219.85,219.85,0,0,0-66.71-21.07c-20.2-42.81-18.59-47.27-23.91-46.85-59,5.68-61.73,2.63-63.06,7.68l-12.44,47a218.73,218.73,0,0,0-62.48,31.27c-45-16.15-47.37-20.56-50.86-16.55-37.52,44.6-41.84,44.49-39.11,49l25.22,41.81a208.55,208.55,0,0,0-21.68,65.25c-43.08,19.48-48.4,18.15-48,23.45,5.68,57.37,2.54,60.32,7.75,61.63L691,1510.89a209.65,209.65,0,0,0,31.89,61c-16.76,44.41-21.08,46.37-17,49.74C751,1657.89,751.24,1662.49,755.93,1659.79Z"/><path class="cls-36" d="M843.4,1463.91c-10.27-29.66,6.07-62,36.44-72.09s63.42,5.83,73.69,35.49-6.08,62-36.44,72.09h0C886.72,1509.5,853.66,1493.56,843.4,1463.91Zm72,30.68h0Zm-32.26-93.16c-24.64,8.19-38.49,34.49-29.92,59.21,8.43,24.36,35.58,37.44,60.52,29.15s38.36-34.85,29.93-59.21S908.05,1393.15,883.16,1401.43Z"/><path class="cls-37" d="M904.86,1590.17h0a153.22,153.22,0,0,1-25.63-1.13,5.12,5.12,0,0,1-4.5-4.82,5.1,5.1,0,0,1,5.88-5.25,142.64,142.64,0,0,0,29.52.72h0c74.32-5.87,130.47-68.3,127.63-140.46q-.1-2.77-.33-5.55c-6.07-74.94-73.06-130.16-149.16-124.17S755,1380.78,761,1455.53c3.61,44.49,26,65.9,26.16,70.56.2,5-6.44,7.24-9.42,3.16a143.26,143.26,0,0,1-27.45-78.87c-5-126.4,147.3-198.68,245.7-116.76,30.28,25.21,48.69,60.45,51.82,99.24q.26,3,.37,6A142.87,142.87,0,0,1,1012.57,1539,149.53,149.53,0,0,1,911,1589.81Q907.91,1590.05,904.86,1590.17Z"/><path class="cls-38" d="M1190.05,1202.62a120.24,120.24,0,0,0,37.93,9l13,24.35c1.44,2.7,3.24.45,35.08-4.08,2.92-.47,1.45-2.68,6.63-29a120.38,120.38,0,0,0,33.2-20.46l26.44,8c2.94.88,2.61-2,21.92-27.7a2.25,2.25,0,0,0,0-2.63l-15.88-22.61a120.5,120.5,0,0,0,9-37.93c23-12.93,26-12.41,25.52-15.38-5.77-32.31-4.16-34.09-7.1-34.6l-27.2-4.75a120.45,120.45,0,0,0-20.45-33.2l8-26.44c.89-2.93-2-2.62-27.69-21.92-2.39-1.73-2.82.8-25.24,15.86a120.64,120.64,0,0,0-37.93-9l-13-24.34c-1.44-2.71-3.24-.46-35.08,4.08-2.91.46-1.43,2.54-6.63,29a120.59,120.59,0,0,0-33.2,20.45l-26.44-8a2.27,2.27,0,0,0-2.49.84L1109.06,1019a2.28,2.28,0,0,0,0,2.64l15.89,22.6a120.37,120.37,0,0,0-9,37.93c-23,12.93-26,12.41-25.52,15.39,5.77,32.29,4.16,34.08,7.1,34.59l27.2,4.76a120.39,120.39,0,0,0,20.45,33.19c-7.12,25.42-9.62,27.17-7.17,28.94l26.85,19.43C1167.2,1220.22,1167.74,1217.61,1190.05,1202.62Z"/><path class="cls-39" d="M1204.9,1104.55a34.58,34.58,0,1,1,45.43,18.1h0A34.62,34.62,0,0,1,1204.9,1104.55Zm43.4,13.36h0Zm-33.93-17.43a24.3,24.3,0,0,0,31.89,12.7h0c19.74-8.5,19.42-36.87-.61-44.85S1205.82,1080.61,1214.37,1100.48Z"/><path class="cls-5" d="M1105.49,1215.75c-3.21-3.36-6.32-6.89-9.26-10.51a3.43,3.43,0,0,1,.5-4.83c3.7-3,5.47,1.93,13.73,10.6a3.43,3.43,0,1,1-5,4.74Z"/><path class="cls-5" d="M1072,1166.22a183.53,183.53,0,0,1-9.75-26.57c-1.23-4.38,5.39-6.22,6.62-1.85,6.78,24.15,12.91,27.73,7.68,30.12A3.43,3.43,0,0,1,1072,1166.22Zm-13-68.63a3.45,3.45,0,0,1-3.5-3.38,181.71,181.71,0,0,1,1.71-28.25c.63-4.5,7.44-3.56,6.81,1a172.9,172.9,0,0,0-1.64,27.18A3.5,3.5,0,0,1,1059.06,1097.59Zm13.57-71.19a3.5,3.5,0,0,1-1.45-.25,3.45,3.45,0,0,1-1.86-4.49,182.2,182.2,0,0,1,12.81-25.23A3.43,3.43,0,1,1,1088,1000a176.22,176.22,0,0,0-12.32,24.28A3.43,3.43,0,0,1,1072.63,1026.4Zm40.7-59.91a3.48,3.48,0,0,1-2.61-1,3.44,3.44,0,0,1,.09-4.86,180.1,180.1,0,0,1,21.83-18,3.44,3.44,0,1,1,3.94,5.63,173.2,173.2,0,0,0-21,17.31A3.48,3.48,0,0,1,1113.33,966.49Zm57.93-40.86a3.44,3.44,0,0,1,2-4.42,182.36,182.36,0,0,1,27.2-7.84c4.43-.93,5.84,5.82,1.37,6.74a174.57,174.57,0,0,0-26.16,7.54A3.46,3.46,0,0,1,1171.26,925.63Z"/><path class="cls-5" d="M1259.48,918.1c-12.49-1.66-16.9-.24-16.65-4.88a3.41,3.41,0,0,1,3.62-3.24c4.62.25,9.31.69,13.94,1.31a3.44,3.44,0,0,1-.91,6.81Z"/><path class="cls-40" d="M1380.6,992.61c-7.13-10.46-11.11-12.77-7.48-15.67a3.43,3.43,0,0,1,4.82.54c2.9,3.61,5.7,7.4,8.33,11.26a3.43,3.43,0,1,1-5.67,3.87Z"/><path class="cls-41" d="M1259.93,1267.06c-.86-5.64,5.3-2.52,29-10,4.32-1.37,6.41,5.18,2.06,6.56a180.92,180.92,0,0,1-27.11,6.3A3.44,3.44,0,0,1,1259.93,1267.06Zm67.36-23.34a3.44,3.44,0,0,1,1.12-4.73c21.3-13.15,22.74-19.76,26.47-15.41a3.45,3.45,0,0,1-.38,4.85,181.11,181.11,0,0,1-22.48,16.41A3.45,3.45,0,0,1,1327.29,1243.72Zm52.77-47.88c-4.68-3.29,1.8-5.51,12.82-27.82,2-4.08,8.17-1,6.16,3a183.41,183.41,0,0,1-14.19,23.94A3.44,3.44,0,0,1,1380.06,1195.84Zm29.71-64.79c-5.61-1.2-.49-5.78.9-30.62.25-4.53,7.11-4.16,6.86.38a180.86,180.86,0,0,1-3.68,27.59A3.45,3.45,0,0,1,1409.77,1131.05Zm-2.14-74c-4.87-24.53-10.56-28.23-5.17-30.19a3.42,3.42,0,0,1,4.4,2,181.15,181.15,0,0,1,7.51,26.8,3.44,3.44,0,0,1-6.74,1.34Z"/><path class="cls-42" d="M1218.53,1271.06c-4.63-.47-9.3-1.13-13.87-2a3.44,3.44,0,0,1-2.77-4c.85-4.7,5.4-2.11,17.33-.9a3.44,3.44,0,0,1-.69,6.84Z"/><path class="cls-43" d="M1232.63,1175.3a5.15,5.15,0,1,1,.34-10.3,75.87,75.87,0,0,0,15.91-.85,74.68,74.68,0,0,0,48.76-30c38.89-53.75-6.89-128.25-72.46-117.72a74.93,74.93,0,0,0-62.91,76.76c1.47,37.54,25.37,45.29,16.82,52.47a5.15,5.15,0,0,1-7.26-.63,85.13,85.13,0,1,1,78.69,29.31h0A85.93,85.93,0,0,1,1232.63,1175.3Z"/></g></svg>